<svg width="950" height="75" viewBox="0 0 950 75" fill="none" xmlns="http://www.w3.org/2000/svg">
<path d="M276.866 3.61364H280.525V14H281.934V3.61364H285.594V2.36364H276.866V3.61364ZM287.768 14H289.177V9.45455H291.723C291.825 9.45455 291.922 9.45455 292.018 9.44886L294.473 14H296.109L293.479 9.19318C294.961 8.6875 295.655 7.47727 295.655 5.93182C295.655 3.875 294.427 2.36364 291.7 2.36364H287.768V14ZM289.177 8.18182V3.61364H291.655C293.541 3.61364 294.268 4.53409 294.268 5.93182C294.268 7.32955 293.541 8.18182 291.677 8.18182H289.177ZM305.639 2.36364V9.95455C305.639 11.6591 304.469 12.8864 302.525 12.8864C300.582 12.8864 299.412 11.6591 299.412 9.95455V2.36364H298.003V10.0682C298.003 12.4545 299.787 14.2045 302.525 14.2045C305.264 14.2045 307.048 12.4545 307.048 10.0682V2.36364H305.639ZM316.226 5.27273H317.589C317.527 3.51705 315.907 2.20455 313.657 2.20455C311.43 2.20455 309.68 3.5 309.68 5.45455C309.68 7.02273 310.817 7.95455 312.635 8.47727L314.067 8.88636C315.294 9.22727 316.385 9.65909 316.385 10.8182C316.385 12.0909 315.157 12.9318 313.544 12.9318C312.157 12.9318 310.93 12.3182 310.817 11H309.362C309.498 12.9091 311.044 14.2045 313.544 14.2045C316.226 14.2045 317.748 12.7273 317.748 10.8409C317.748 8.65909 315.68 7.95455 314.476 7.63636L313.294 7.31818C312.43 7.09091 311.044 6.63636 311.044 5.38636C311.044 4.27273 312.067 3.45455 313.612 3.45455C315.021 3.45455 316.089 4.125 316.226 5.27273ZM319.429 3.61364H323.088V14H324.497V3.61364H328.156V2.36364H319.429V3.61364ZM330.331 14H337.444V12.75H331.74V8.79545H336.99V7.54545H331.74V3.61364H337.354V2.36364H330.331V14ZM343.484 14C347.03 14 349.03 11.7955 349.03 8.15909C349.03 4.54545 347.03 2.36364 343.643 2.36364H339.893V14H343.484ZM341.302 12.75V3.61364H343.552C346.28 3.61364 347.666 5.34091 347.666 8.15909C347.666 11 346.28 12.75 343.393 12.75H341.302ZM355.893 14H360.098C362.848 14 363.984 12.6591 363.984 10.9091C363.984 9.06818 362.711 8.06818 361.643 8V7.88636C362.643 7.61364 363.53 6.95455 363.53 5.45455C363.53 3.75 362.393 2.36364 359.961 2.36364H355.893V14ZM357.302 12.75V8.70455H360.166C361.689 8.70455 362.643 9.72727 362.643 10.9091C362.643 11.9318 361.939 12.75 360.098 12.75H357.302ZM357.302 7.47727V3.61364H359.961C361.507 3.61364 362.189 4.43182 362.189 5.45455C362.189 6.68182 361.189 7.47727 359.916 7.47727H357.302ZM365.3 2.36364L369.504 9.20455V14H370.913V9.20455L375.118 2.36364H373.504L370.277 7.79545H370.14L366.913 2.36364H365.3ZM391.258 8.18182C391.258 4.5 389.099 2.20455 386.122 2.20455C383.145 2.20455 380.986 4.5 380.986 8.18182C380.986 11.8636 383.145 14.1591 386.122 14.1591C389.099 14.1591 391.258 11.8636 391.258 8.18182ZM389.895 8.18182C389.895 11.2045 388.236 12.8409 386.122 12.8409C384.008 12.8409 382.349 11.2045 382.349 8.18182C382.349 5.15909 384.008 3.52273 386.122 3.52273C388.236 3.52273 389.895 5.15909 389.895 8.18182ZM393.558 2.36364H392.081L396.354 14H397.808L402.081 2.36364H400.604L397.149 12.1591H397.013L393.558 2.36364ZM403.893 14H411.007V12.75H405.302V8.79545H410.552V7.54545H405.302V3.61364H410.916V2.36364H403.893V14ZM413.456 14H414.865V9.45455H417.41C417.513 9.45455 417.609 9.45455 417.706 9.44886L420.16 14H421.797L419.166 9.19318C420.649 8.6875 421.342 7.47727 421.342 5.93182C421.342 3.875 420.115 2.36364 417.388 2.36364H413.456V14ZM414.865 8.18182V3.61364H417.342C419.229 3.61364 419.956 4.53409 419.956 5.93182C419.956 7.32955 419.229 8.18182 417.365 8.18182H414.865ZM432.787 2.36364H430.474L427.594 4.1875V6.36932L430.258 4.69886H430.327V14H432.787V2.36364ZM440.115 14.2557C443.041 14.2557 444.808 12.0284 444.814 8.19318C444.819 4.38636 443.03 2.20455 440.115 2.20455C437.194 2.20455 435.422 4.38068 435.416 8.19318C435.405 12.017 437.183 14.25 440.115 14.2557ZM440.115 12.2159C438.78 12.2159 437.916 10.875 437.922 8.19318C437.927 5.55114 438.785 4.22159 440.115 4.22159C441.439 4.22159 442.302 5.55114 442.302 8.19318C442.308 10.875 441.444 12.2159 440.115 12.2159ZM447.521 14.1477C448.248 14.1477 448.879 13.5398 448.885 12.7841C448.879 12.0398 448.248 11.4318 447.521 11.4318C446.771 11.4318 446.152 12.0398 446.157 12.7841C446.152 13.5398 446.771 14.1477 447.521 14.1477ZM454.927 14.2557C457.854 14.2557 459.621 12.0284 459.626 8.19318C459.632 4.38636 457.842 2.20455 454.927 2.20455C452.007 2.20455 450.234 4.38068 450.229 8.19318C450.217 12.017 451.996 14.25 454.927 14.2557ZM454.927 12.2159C453.592 12.2159 452.729 10.875 452.734 8.19318C452.74 5.55114 453.598 4.22159 454.927 4.22159C456.251 4.22159 457.115 5.55114 457.115 8.19318C457.121 10.875 456.257 12.2159 454.927 12.2159ZM465.943 14.2557C468.869 14.2557 470.636 12.0284 470.642 8.19318C470.648 4.38636 468.858 2.20455 465.943 2.20455C463.023 2.20455 461.25 4.38068 461.244 8.19318C461.233 12.017 463.011 14.25 465.943 14.2557ZM465.943 12.2159C464.608 12.2159 463.744 10.875 463.75 8.19318C463.755 5.55114 464.613 4.22159 465.943 4.22159C467.267 4.22159 468.13 5.55114 468.13 8.19318C468.136 10.875 467.273 12.2159 465.943 12.2159ZM476.959 14.2557C479.885 14.2557 481.652 12.0284 481.657 8.19318C481.663 4.38636 479.873 2.20455 476.959 2.20455C474.038 2.20455 472.265 4.38068 472.26 8.19318C472.248 12.017 474.027 14.25 476.959 14.2557ZM476.959 12.2159C475.623 12.2159 474.76 10.875 474.765 8.19318C474.771 5.55114 475.629 4.22159 476.959 4.22159C478.282 4.22159 479.146 5.55114 479.146 8.19318C479.152 10.875 478.288 12.2159 476.959 12.2159ZM486.889 12.2273H488.923V9.22159H491.929V7.1875H488.923V4.18182H486.889V7.1875H483.883V9.22159H486.889V12.2273ZM501.366 14H502.821L505.389 4.72727H505.48L508.048 14H509.503L512.684 2.36364H511.253L508.821 11.8409H508.707L506.23 2.36364H504.639L502.162 11.8409H502.048L499.616 2.36364H498.184L501.366 14ZM523.711 8.18182C523.711 4.5 521.552 2.20455 518.575 2.20455C515.598 2.20455 513.439 4.5 513.439 8.18182C513.439 11.8636 515.598 14.1591 518.575 14.1591C521.552 14.1591 523.711 11.8636 523.711 8.18182ZM522.348 8.18182C522.348 11.2045 520.689 12.8409 518.575 12.8409C516.461 12.8409 514.802 11.2045 514.802 8.18182C514.802 5.15909 516.461 3.52273 518.575 3.52273C520.689 3.52273 522.348 5.15909 522.348 8.18182ZM526.081 14H527.49V9.45455H530.035C530.138 9.45455 530.234 9.45455 530.331 9.44886L532.785 14H534.422L531.791 9.19318C533.274 8.6875 533.967 7.47727 533.967 5.93182C533.967 3.875 532.74 2.36364 530.013 2.36364H526.081V14ZM527.49 8.18182V3.61364H529.967C531.854 3.61364 532.581 4.53409 532.581 5.93182C532.581 7.32955 531.854 8.18182 529.99 8.18182H527.49ZM536.315 14H543.133V12.75H537.724V2.36364H536.315V14ZM548.906 14C552.452 14 554.452 11.7955 554.452 8.15909C554.452 4.54545 552.452 2.36364 549.065 2.36364H545.315V14H548.906ZM546.724 12.75V3.61364H548.974C551.702 3.61364 553.088 5.34091 553.088 8.15909C553.088 11 551.702 12.75 548.815 12.75H546.724ZM557.815 2.36364H556.542V3.40909C556.542 4.25 556.133 4.97727 555.656 5.65909L556.383 6.25C557.292 5.52273 557.815 4.31818 557.815 3.38636V2.36364ZM566.132 5.27273H567.496C567.433 3.51705 565.814 2.20455 563.564 2.20455C561.336 2.20455 559.586 3.5 559.586 5.45455C559.586 7.02273 560.723 7.95455 562.541 8.47727L563.973 8.88636C565.2 9.22727 566.291 9.65909 566.291 10.8182C566.291 12.0909 565.064 12.9318 563.45 12.9318C562.064 12.9318 560.836 12.3182 560.723 11H559.268C559.405 12.9091 560.95 14.2045 563.45 14.2045C566.132 14.2045 567.655 12.7273 567.655 10.8409C567.655 8.65909 565.586 7.95455 564.382 7.63636L563.2 7.31818C562.336 7.09091 560.95 6.63636 560.95 5.38636C560.95 4.27273 561.973 3.45455 563.518 3.45455C564.927 3.45455 565.996 4.125 566.132 5.27273ZM574.471 14H578.676C581.426 14 582.562 12.6591 582.562 10.9091C582.562 9.06818 581.29 8.06818 580.221 8V7.88636C581.221 7.61364 582.108 6.95455 582.108 5.45455C582.108 3.75 580.971 2.36364 578.54 2.36364H574.471V14ZM575.88 12.75V8.70455H578.744C580.267 8.70455 581.221 9.72727 581.221 10.9091C581.221 11.9318 580.517 12.75 578.676 12.75H575.88ZM575.88 7.47727V3.61364H578.54C580.085 3.61364 580.767 4.43182 580.767 5.45455C580.767 6.68182 579.767 7.47727 578.494 7.47727H575.88ZM584.878 14H591.991V12.75H586.287V8.79545H591.537V7.54545H586.287V3.61364H591.9V2.36364H584.878V14ZM600.804 5.27273H602.167C602.105 3.51705 600.486 2.20455 598.236 2.20455C596.008 2.20455 594.258 3.5 594.258 5.45455C594.258 7.02273 595.395 7.95455 597.213 8.47727L598.645 8.88636C599.872 9.22727 600.963 9.65909 600.963 10.8182C600.963 12.0909 599.736 12.9318 598.122 12.9318C596.736 12.9318 595.508 12.3182 595.395 11H593.94C594.077 12.9091 595.622 14.2045 598.122 14.2045C600.804 14.2045 602.327 12.7273 602.327 10.8409C602.327 8.65909 600.258 7.95455 599.054 7.63636L597.872 7.31818C597.008 7.09091 595.622 6.63636 595.622 5.38636C595.622 4.27273 596.645 3.45455 598.19 3.45455C599.599 3.45455 600.667 4.125 600.804 5.27273ZM604.007 3.61364H607.666V14H609.075V3.61364H612.734V2.36364H604.007V3.61364ZM618.773 3.61364H622.432V14H623.841V3.61364H627.5V2.36364H618.773V3.61364ZM629.675 14H636.788V12.75H631.084V8.79545H636.334V7.54545H631.084V3.61364H636.697V2.36364H629.675V14ZM639.714 14L640.885 10.7045H645.589L646.76 14H648.237L643.964 2.36364H642.51L638.237 14H639.714ZM641.328 9.45455L643.192 4.20455H643.282L645.146 9.45455H641.328ZM650.05 2.36364V14H651.368V5.15909H651.481L655.118 14H656.39L660.027 5.15909H660.14V14H661.459V2.36364H659.777L655.822 12.0227H655.686L651.731 2.36364H650.05ZM670.648 5.27273H672.011C671.949 3.51705 670.329 2.20455 668.079 2.20455C665.852 2.20455 664.102 3.5 664.102 5.45455C664.102 7.02273 665.238 7.95455 667.057 8.47727L668.488 8.88636C669.716 9.22727 670.807 9.65909 670.807 10.8182C670.807 12.0909 669.579 12.9318 667.966 12.9318C666.579 12.9318 665.352 12.3182 665.238 11H663.784C663.92 12.9091 665.466 14.2045 667.966 14.2045C670.648 14.2045 672.17 12.7273 672.17 10.8409C672.17 8.65909 670.102 7.95455 668.898 7.63636L667.716 7.31818C666.852 7.09091 665.466 6.63636 665.466 5.38636C665.466 4.27273 666.488 3.45455 668.034 3.45455C669.443 3.45455 670.511 4.125 670.648 5.27273Z" fill="#4E5A65"/>
<g filter="url(#filter0_d_759_138)">
<g clip-path="url(#clip0_759_138)">
<path d="M13.8528 40.0032H14.5632C17.0336 40.0576 19.4624 41.0496 21.2064 42.8096C20.5632 43.4688 19.904 44.0992 19.2736 44.7552C18.2944 43.8688 17.1136 43.184 15.824 42.944C13.9168 42.5408 11.8656 42.9024 10.2656 43.9904C8.52159 45.1328 7.34079 47.0656 7.08479 49.1328C6.80319 51.1744 7.37919 53.3216 8.71039 54.9056C9.98399 56.448 11.9328 57.4144 13.9456 57.4816C15.824 57.5904 17.7856 57.0112 19.1552 55.696C20.2304 54.7712 20.7264 53.36 20.8864 51.9904C18.6592 51.9904 16.4288 52.0032 14.2016 51.9904V49.2256H23.584C24.0672 52.192 23.3696 55.5328 21.1136 57.6544C19.6096 59.1584 17.5296 60.0448 15.408 60.2176C13.3536 60.4192 11.232 60.0288 9.40799 59.0368C7.21919 57.8688 5.47519 55.8944 4.61759 53.5744C3.81119 51.44 3.79839 49.024 4.55039 46.8736C5.23519 44.9152 6.55039 43.184 8.24319 41.9744C9.86559 40.7808 11.84 40.1216 13.8528 40.0032Z" fill="#3780FF"/>
<path d="M67.6768 40.7008H70.5504V59.8688C69.5968 59.8688 68.6304 59.8816 67.6768 59.856C67.6928 53.4784 67.6768 47.088 67.6768 40.7008Z" fill="#38B137"/>
<path d="M29.9744 47.344C31.744 47.008 33.664 47.3856 35.1263 48.4448C36.4543 49.3856 37.3823 50.8608 37.6639 52.4704C38.0255 54.336 37.5711 56.3776 36.3615 57.8528C35.0591 59.504 32.9248 60.3904 30.8448 60.256C28.9376 60.1472 27.088 59.1968 25.9585 57.6384C24.6849 55.92 24.3745 53.5584 25.0721 51.5456C25.7729 49.3856 27.744 47.7344 29.9744 47.344ZM30.3744 49.8944C29.648 50.0832 28.9792 50.4992 28.496 51.088C27.1936 52.6464 27.2736 55.1808 28.7104 56.6304C29.5296 57.4624 30.7648 57.8528 31.904 57.6224C32.9632 57.4336 33.8912 56.7232 34.4 55.7824C35.2863 54.1856 35.0303 51.984 33.6736 50.736C32.8064 49.936 31.5296 49.6 30.3744 49.8944Z" fill="#FA3913"/>
<path d="M44.2016 47.344C46.2272 46.9536 48.4447 47.52 49.9583 48.9408C52.4287 51.1552 52.6975 55.3024 50.5887 57.8528C49.3151 59.4624 47.248 60.3488 45.2064 60.256C43.2608 60.2016 41.3408 59.2352 40.1856 57.6384C38.8832 55.8816 38.6016 53.4624 39.3408 51.4112C40.08 49.3184 42.0128 47.7216 44.2016 47.344ZM44.6048 49.8944C43.8784 50.0832 43.2096 50.4992 42.7264 51.0752C41.4368 52.6048 41.4912 55.1008 42.8736 56.5664C43.6928 57.44 44.9664 57.8688 46.1472 57.6256C47.1936 57.424 48.1343 56.7264 48.6431 55.7856C49.5167 54.176 49.2607 51.9744 47.8912 50.7264C47.0208 49.9232 45.744 49.6 44.6048 49.8944Z" fill="#FCBD06"/>
<path d="M56.2688 48.1216C57.8112 47.1552 59.8656 46.8864 61.5296 47.7184C62.0544 47.9456 62.4832 48.336 62.8992 48.7264C62.912 48.3648 62.8992 47.9872 62.912 47.6128C63.8112 47.6256 64.7104 47.6128 65.6225 47.6256V59.4656C65.6097 61.2512 65.1521 63.1423 63.8656 64.4447C62.4576 65.8815 60.2944 66.3231 58.3488 66.0287C56.2688 65.7215 54.4576 64.2047 53.6512 62.2847C54.4576 61.8944 55.3024 61.5871 56.1344 61.2256C56.6048 62.3263 57.5584 63.2671 58.752 63.4815C59.9456 63.6959 61.328 63.4015 62.1088 62.4063C62.9408 61.3856 62.9408 59.9904 62.8992 58.7424C62.2816 59.3472 61.5712 59.8848 60.7104 60.0832C58.8448 60.608 56.7904 59.9616 55.3536 58.7008C53.904 57.44 53.0464 55.4912 53.1264 53.5584C53.168 51.3728 54.4032 49.264 56.2688 48.1216ZM59.0464 49.84C58.2272 49.9744 57.4624 50.432 56.9376 51.0624C55.6768 52.5664 55.6768 54.9696 56.9504 56.4448C57.6768 57.3184 58.8416 57.8016 59.9712 57.68C61.0304 57.5712 62.0128 56.9024 62.5344 55.9744C63.4208 54.4032 63.2736 52.2688 62.0768 50.8992C61.3408 50.0576 60.16 49.6384 59.0464 49.84Z" fill="#3780FF"/>
<path d="M74 48.8064C75.6096 47.3024 78.0928 46.7936 80.16 47.584C82.1184 48.3232 83.3696 50.1888 84 52.1088C81.088 53.3184 78.1888 54.512 75.2736 55.7184C75.6768 56.4832 76.2944 57.1808 77.1264 57.4624C78.2944 57.8784 79.6896 57.7312 80.6688 56.9536C81.0592 56.6592 81.3664 56.2688 81.6608 55.8944C82.4 56.3904 83.136 56.8736 83.8752 57.3696C82.8288 58.9408 81.0688 60.0416 79.1776 60.2144C77.0848 60.4704 74.8544 59.664 73.5008 58.0256C71.2736 55.4528 71.4912 51.1296 74 48.8064ZM75.4368 51.2896C74.9792 51.9488 74.7936 52.752 74.8064 53.5456C76.752 52.7392 78.6976 51.936 80.6464 51.1168C80.3232 50.3648 79.5456 49.9072 78.7552 49.7888C77.4752 49.5584 76.1472 50.2432 75.4368 51.2896Z" fill="#FA3913"/>
</g>
<g clip-path="url(#clip1_759_138)">
<path d="M262.162 46.8473C262.162 47.7469 261.437 48.4712 260.538 48.4712C259.638 48.4712 258.914 47.7469 258.914 46.8473C258.914 45.9478 259.613 45.2235 260.538 45.2235C261.463 45.2484 262.162 45.973 262.162 46.8473ZM255.466 50.1205V50.5204C255.466 50.5204 254.692 49.5205 253.043 49.5205C250.319 49.5205 248.195 51.5944 248.195 54.4675C248.195 57.3159 250.295 59.4144 253.043 59.4144C254.717 59.4144 255.466 58.3901 255.466 58.3901V58.8147C255.466 59.0146 255.616 59.1641 255.816 59.1641H257.839V49.7696H255.816C255.616 49.7703 255.466 49.9456 255.466 50.1205ZM255.466 56.1415C255.091 56.6914 254.342 57.1661 253.442 57.1661C251.843 57.1661 250.619 56.1667 250.619 54.4675C250.619 52.7685 251.843 51.7691 253.442 51.7691C254.317 51.7691 255.116 52.2688 255.466 52.7934V56.1415ZM259.339 49.7703H261.737V59.1648H259.339V49.7703ZM295.167 49.5202C293.518 49.5202 292.743 50.5201 292.743 50.5201V45.2484H290.344V59.1648H292.368C292.568 59.1648 292.718 58.9899 292.718 58.8149V58.3904C292.718 58.3904 293.493 59.4147 295.141 59.4147C297.865 59.4147 299.988 57.3166 299.988 54.4682C299.988 51.6198 297.865 49.5202 295.167 49.5202ZM294.767 57.1409C293.842 57.1409 293.118 56.6667 292.743 56.1165V52.7685C293.118 52.2688 293.917 51.7441 294.767 51.7441C296.366 51.7441 297.59 52.7435 297.59 54.4425C297.59 56.1415 296.366 57.1409 294.767 57.1409ZM289.095 53.5934V59.1898H286.697V53.8679C286.697 52.3192 286.197 51.6942 284.849 51.6942C284.124 51.6942 283.375 52.0691 282.899 52.619V59.1651H280.501V49.7706H282.399C282.599 49.7706 282.749 49.9456 282.749 50.1205V50.5204C283.449 49.7955 284.373 49.5205 285.297 49.5205C286.347 49.5205 287.222 49.8208 287.921 50.4203C288.77 51.1199 289.095 52.0192 289.095 53.5934ZM274.679 49.5202C273.03 49.5202 272.256 50.5201 272.256 50.5201V45.2484H269.857V59.1648H271.881C272.081 59.1648 272.231 58.9899 272.231 58.8149V58.3904C272.231 58.3904 273.005 59.4147 274.654 59.4147C277.378 59.4147 279.501 57.3166 279.501 54.4682C279.526 51.6196 277.402 49.5202 274.679 49.5202ZM274.279 57.1409C273.355 57.1409 272.63 56.6667 272.256 56.1165V52.7685C272.63 52.2688 273.43 51.7441 274.279 51.7441C275.878 51.7441 277.102 52.7435 277.102 54.4425C277.102 56.1415 275.878 57.1409 274.279 57.1409ZM267.783 49.5202C268.508 49.5202 268.883 49.6455 268.883 49.6455V51.8689C268.883 51.8689 266.884 51.1943 265.635 52.6187V59.1896H263.236V49.7703H265.26C265.46 49.7703 265.609 49.9453 265.609 50.1203V50.5201C266.06 49.9952 267.034 49.5202 267.783 49.5202ZM242.874 58.3152C242.749 58.0155 242.624 57.6907 242.499 57.4157C242.299 56.9662 242.099 56.5411 241.925 56.1415L241.9 56.1165C240.176 52.3686 238.327 48.5713 236.378 44.8239L236.303 44.6736C236.098 44.2848 235.898 43.8934 235.704 43.4993C235.454 43.0492 235.204 42.575 234.804 42.125C234.005 41.1256 232.856 40.5757 231.632 40.5757C230.382 40.5757 229.258 41.1256 228.434 42.0748C228.059 42.5243 227.784 42.9991 227.534 43.4491C227.339 43.843 227.139 44.2344 226.935 44.6234L226.86 44.7737C224.936 48.5211 223.062 52.3187 221.338 56.0664L221.313 56.1161C221.138 56.5164 220.938 56.941 220.738 57.3902C220.613 57.6653 220.489 57.965 220.364 58.2898C220.039 59.214 219.939 60.0886 220.064 60.9884C220.339 62.8624 221.588 64.4358 223.312 65.1359C223.962 65.411 224.636 65.5358 225.336 65.5358C225.536 65.5358 225.785 65.5108 225.985 65.4856C226.81 65.3858 227.66 65.1112 228.484 64.6365C229.509 64.0617 230.483 63.2375 231.582 62.0382C232.681 63.2375 233.681 64.0617 234.68 64.6365C235.505 65.1112 236.354 65.3858 237.179 65.4856C237.378 65.5111 237.629 65.5358 237.828 65.5358C238.528 65.5358 239.227 65.411 239.852 65.1359C241.601 64.4358 242.825 62.8374 243.1 60.9884C243.299 60.1141 243.199 59.24 242.874 58.3152ZM231.606 59.6144C230.257 57.9154 229.382 56.3165 229.083 54.9677C228.958 54.3928 228.933 53.8932 229.008 53.4434C229.058 53.0435 229.208 52.6936 229.408 52.3938C229.883 51.7197 230.682 51.2946 231.607 51.2946C232.531 51.2946 233.356 51.6945 233.806 52.3938C234.005 52.6936 234.155 53.0438 234.206 53.4434C234.28 53.8934 234.255 54.4178 234.131 54.9677C233.83 56.2915 232.955 57.8907 231.606 59.6144ZM241.575 60.7887C241.4 62.0879 240.525 63.2125 239.301 63.7122C238.702 63.9618 238.052 64.0369 237.403 63.9618C236.778 63.8867 236.153 63.6868 235.504 63.3124C234.604 62.8122 233.705 62.0382 232.656 60.8886C234.304 58.8651 235.304 57.0158 235.679 55.3673C235.854 54.5925 235.879 53.8932 235.804 53.2432C235.704 52.6187 235.479 52.0439 235.129 51.5442C234.354 50.4195 233.055 49.7703 231.606 49.7703C230.157 49.7703 228.858 50.445 228.084 51.5442C227.734 52.0439 227.509 52.6187 227.409 53.2432C227.309 53.8932 227.334 54.6175 227.534 55.3673C227.908 57.0158 228.933 58.8898 230.557 60.9135C229.532 62.0629 228.608 62.8377 227.708 63.3373C227.058 63.7122 226.434 63.9122 225.81 63.9868C225.135 64.0619 224.485 63.9618 223.911 63.7372C222.687 63.2375 221.812 62.1128 221.638 60.8137C221.563 60.1892 221.612 59.5647 221.862 58.8651C221.937 58.615 222.062 58.3654 222.187 58.0656C222.362 57.6658 222.562 57.2407 222.762 56.8162L222.787 56.7665C224.511 53.0435 226.359 49.2459 228.283 45.5484L228.358 45.3982C228.558 45.0238 228.758 44.6239 228.958 44.249C229.158 43.8492 229.382 43.4743 229.658 43.1493C230.182 42.5503 230.882 42.2251 231.656 42.2251C232.431 42.2251 233.13 42.5503 233.655 43.1493C233.93 43.475 234.155 43.8499 234.355 44.249C234.555 44.6239 234.755 45.0238 234.954 45.3982L235.029 45.5484C236.924 49.2613 238.748 53.0096 240.501 56.7915V56.8164C240.701 57.2168 240.876 57.666 241.076 58.0664C241.201 58.3657 241.326 58.6153 241.4 58.8653C241.6 59.5143 241.675 60.1393 241.575 60.7887Z" fill="#FF5A5F"/>
</g>
<path d="M477.186 52.8342C476.525 52.8342 476.049 53.0508 475.566 53.2715V58.265C476.029 58.3091 476.294 58.3091 476.733 58.3091C478.318 58.3091 478.535 57.583 478.535 56.5692V54.1843C478.535 53.4356 478.287 52.8342 477.186 52.8342ZM466.656 52.5617C465.556 52.5617 465.305 53.1656 465.305 53.9136V54.3338H468.006V53.9136C468.006 53.1656 467.755 52.5617 466.656 52.5617ZM446.258 57.7592C446.258 58.3509 446.537 58.6583 447.153 58.6583C447.814 58.6583 448.205 58.4428 448.688 58.2213V57.0368H447.243C446.558 57.0368 446.258 57.1642 446.258 57.7592ZM487.429 52.8342C486.327 52.8342 485.945 53.4356 485.945 54.1843V56.9165C485.945 57.667 486.327 58.2702 487.429 58.2702C488.528 58.2702 488.912 57.667 488.912 56.9165V54.1843C488.912 53.4356 488.527 52.8342 487.429 52.8342ZM440.858 60.8229H437.618V52.9827H436V50.2812H437.619V48.6587C437.619 46.4544 438.532 45.144 441.129 45.144H443.29V47.8463H441.939C440.928 47.8463 440.862 48.224 440.862 48.9286L440.858 50.2808H443.305L443.019 52.9823H440.858V60.8229ZM451.928 60.8432H449.228L449.111 60.1605C447.879 60.8432 446.779 60.9539 446.053 60.9539C444.073 60.9539 443.019 59.6313 443.019 57.8022C443.019 55.6442 444.249 54.8741 446.449 54.8741H448.688V54.4075C448.688 53.306 448.561 52.9827 446.868 52.9827H444.098L444.369 50.2812H447.396C451.113 50.2812 451.928 51.4553 451.928 54.4294V60.8432ZM461.108 53.1808C459.428 52.8927 458.945 52.8294 458.137 52.8294C456.685 52.8294 456.247 53.1497 456.247 54.3827V56.7151C456.247 57.9481 456.685 58.2698 458.137 58.2698C458.945 58.2698 459.428 58.2054 461.108 57.9162V60.5515C459.636 60.8814 458.678 60.968 457.868 60.968C454.39 60.968 453.008 59.1392 453.008 56.4973V54.6049C453.008 51.9608 454.39 50.1287 457.868 50.1287C458.678 50.1287 459.636 50.2157 461.108 50.5471V53.1808ZM471.244 56.4973H465.304V56.7151C465.304 57.9481 465.744 58.2698 467.195 58.2698C468.5 58.2698 469.296 58.2054 470.973 57.9162V60.5515C469.356 60.8814 468.513 60.968 466.927 60.968C463.449 60.968 462.066 59.1392 462.066 56.4973V54.3335C462.066 52.0219 463.092 50.1287 466.656 50.1287C470.219 50.1287 471.244 52 471.244 54.3335V56.4973ZM481.774 56.5473C481.774 59.1007 481.044 60.9632 476.623 60.9632C475.026 60.9632 474.09 60.8229 472.328 60.5518V45.9557L475.566 45.4155V50.5211C476.266 50.2612 477.171 50.129 477.996 50.129C481.234 50.129 481.773 51.5809 481.773 53.914L481.774 56.5473ZM492.154 56.6029C492.154 58.8056 491.244 60.9421 487.439 60.9421C483.633 60.9421 482.706 58.8056 482.706 56.6029V54.476C482.706 52.2722 483.633 50.1353 487.439 50.1353C491.244 50.1353 492.154 52.2722 492.154 54.476V56.6029ZM502.527 56.6029C502.527 58.8056 501.616 60.9421 497.812 60.9421C494.005 60.9421 493.079 58.8056 493.079 56.6029V54.476C493.079 52.2722 494.005 50.1353 497.812 50.1353C501.616 50.1353 502.527 52.2722 502.527 54.476V56.6029ZM513.171 60.8229H509.662L506.693 55.8675V60.8229H503.454V45.9553L506.693 45.4151V54.9863L509.662 50.2812H513.171L509.931 55.4158L513.171 60.8229ZM497.801 52.8342C496.701 52.8342 496.319 53.4356 496.319 54.1843V56.9165C496.319 57.667 496.701 58.2702 497.801 58.2702C498.899 58.2702 499.288 57.667 499.288 56.9165V54.1843C499.288 53.4356 498.899 52.8342 497.801 52.8342Z" fill="#3B5998"/>
<g clip-path="url(#clip2_759_138)">
<path d="M649.181 45.7402H651.97V51.9374H657.853V45.7402H660.646V60.9524H657.853V54.6251H651.97V60.9524H649.181V45.7402ZM669.483 55.9976C669.483 57.271 668.445 58.3073 667.172 58.3073C665.899 58.3073 664.862 57.271 664.862 55.9976V49.4482H662.217V55.9976C662.217 58.7299 664.44 60.9524 667.172 60.9524C669.904 60.9524 672.127 58.7299 672.127 55.9976V49.4482H669.483V55.9976ZM679.512 49.5249C678.2 49.5249 677.284 49.9057 676.399 50.774V45.7402H673.745V55.0691C673.745 58.561 676.27 60.9524 679.107 60.9524C682.26 60.9524 685.023 58.5184 685.023 55.2388C685.023 52.0009 682.475 49.5249 679.512 49.5249ZM679.578 58.4973C677.78 58.4973 676.404 56.9954 676.404 55.2388C676.404 53.482 677.78 51.9796 679.578 51.9796C681.102 51.9796 682.478 53.482 682.478 55.2388C682.478 56.9954 681.102 58.4973 679.578 58.4973ZM689.48 50.1935C689.48 48.8595 690.369 48.4365 691.342 48.4365C692.125 48.4365 693.162 49.029 693.839 49.7487L695.574 47.7173C694.706 46.5535 692.95 45.7491 691.511 45.7491C688.633 45.7491 686.559 47.421 686.559 50.1935C686.559 55.3357 692.887 53.7057 692.887 56.5845C692.887 57.4723 692.019 58.256 691.025 58.256C689.459 58.256 688.951 57.4941 688.231 56.6898L686.305 58.6787C687.534 60.1813 689.057 60.9435 690.877 60.9435C693.606 60.9435 695.807 59.2505 695.807 56.6049C695.807 50.8915 689.48 52.6693 689.48 50.1935ZM702.794 49.3759C699.958 49.3759 697.433 51.7659 697.433 55.2585V64.6115H700.087V59.5538C700.971 60.4215 701.887 60.8029 703.199 60.8029C706.162 60.8029 708.71 58.3273 708.71 55.0893C708.71 51.8093 705.947 49.3759 702.794 49.3759ZM703.266 58.3485C701.467 58.3485 700.092 56.8446 700.092 55.0893C700.092 53.3324 701.467 51.8301 703.266 51.8301C704.789 51.8301 706.165 53.3324 706.165 55.0893C706.165 56.8446 704.789 58.3485 703.266 58.3485ZM728.245 58.4973C726.679 58.4973 726.235 57.8204 726.235 56.783V52.1912H728.668V49.8637H726.235V46.7949L723.548 48.0009V57.3545C723.548 59.746 725.198 60.9524 727.462 60.9524C727.8 60.9524 728.266 60.9305 728.521 60.8679L729.177 58.4557C728.88 58.4762 728.542 58.4973 728.245 58.4973Z" fill="#45535E"/>
<path d="M721.246 52.3265C720.737 51.4512 720.022 50.7495 719.127 50.2212C718.459 49.832 717.765 49.5849 716.984 49.4788V46.6976C717.765 46.3659 718.25 45.6316 718.25 44.7751C718.25 43.6076 717.314 42.6615 716.147 42.6615C714.98 42.6615 714.027 43.6076 714.027 44.7751C714.027 45.6316 714.484 46.3659 715.265 46.6976V49.4801C714.64 49.5704 713.992 49.7652 713.4 50.0646C712.191 49.1465 708.227 46.1345 705.908 44.3752C705.963 44.177 706.006 43.9726 706.006 43.757C706.006 42.4638 704.959 41.4157 703.665 41.4157C702.371 41.4157 701.325 42.4638 701.325 43.757C701.325 45.0499 702.372 46.0984 703.666 46.0984C704.107 46.0984 704.515 45.9693 704.868 45.7571L705.357 46.1284L712.081 50.9734C711.726 51.2998 711.395 51.671 711.13 52.0876C710.593 52.9368 710.265 53.8712 710.265 54.8904V55.1031C710.265 55.8185 710.401 56.494 710.633 57.1285C710.837 57.6826 711.135 58.1863 711.504 58.6418L709.272 60.879C708.949 60.7586 708.598 60.7339 708.261 60.8078C707.923 60.8818 707.615 61.0512 707.371 61.2959C707.203 61.4635 707.069 61.663 706.978 61.8827C706.888 62.1023 706.841 62.3378 706.842 62.5756C706.842 63.0588 707.03 63.5131 707.372 63.8548C707.54 64.0234 707.739 64.1571 707.959 64.2481C708.178 64.3392 708.414 64.3857 708.652 64.3851C708.889 64.3857 709.125 64.3391 709.345 64.2481C709.564 64.1571 709.764 64.0234 709.932 63.8548C710.1 63.6871 710.233 63.4877 710.324 63.2682C710.415 63.0486 710.462 62.8132 710.461 62.5756C710.461 62.3885 710.432 62.206 710.378 62.0326L712.685 59.7256C713.001 59.944 713.342 60.1279 713.71 60.2865C714.434 60.5996 715.233 60.7904 716.108 60.7904H716.268C717.236 60.7904 718.148 60.5632 719.006 60.0985C719.909 59.6074 720.617 58.9359 721.151 58.0785C721.688 57.2188 721.984 56.269 721.984 55.224V55.1718C721.984 54.1438 721.746 53.1954 721.246 52.3265ZM718.428 57.166C717.802 57.8618 717.082 58.2904 716.268 58.2904H716.134C715.67 58.2904 715.215 58.162 714.77 57.9284C714.269 57.6712 713.887 57.3043 713.575 56.8398C713.253 56.3838 713.078 55.886 713.078 55.3582V55.1979C713.078 54.679 713.177 54.187 713.428 53.7223C713.697 53.2143 714.059 52.8193 714.541 52.5052C715.014 52.1934 715.519 52.0404 716.082 52.0404H716.134C716.645 52.0404 717.128 52.141 717.584 52.3743C718.048 52.6231 718.428 52.9629 718.722 53.4099C719.008 53.8571 719.178 54.3395 719.232 54.8649C719.241 54.9741 719.245 55.086 719.245 55.1929C719.245 55.906 718.973 56.5665 718.428 57.166Z" fill="#F8761F"/>
</g>
<g clip-path="url(#clip3_759_138)">
<path fill-rule="evenodd" clip-rule="evenodd" d="M890.765 58.8736L891.764 56.5536C892.842 57.36 894.279 57.7792 895.696 57.7792C896.743 57.7792 897.405 57.376 897.405 56.7648C897.389 55.056 891.136 56.3936 891.088 52.1088C891.072 49.9328 893.005 48.256 895.744 48.256C897.373 48.256 898.999 48.6592 900.16 49.5776L899.226 51.9456C898.164 51.2672 896.842 50.784 895.584 50.784C894.73 50.784 894.167 51.1872 894.167 51.7024C894.183 53.3792 900.484 52.4608 900.548 56.5536C900.548 58.7776 898.663 60.3424 895.956 60.3424C893.972 60.3392 892.151 59.872 890.765 58.8736ZM929.104 55.7152C928.605 56.5856 927.671 57.1808 926.589 57.1808C924.992 57.1808 923.706 55.8912 923.706 54.2976C923.706 52.704 924.995 51.4144 926.589 51.4144C927.667 51.4144 928.605 52.0096 929.104 52.88L931.859 51.3504C930.829 49.5136 928.845 48.256 926.589 48.256C923.251 48.256 920.544 50.9632 920.544 54.3008C920.544 57.6384 923.251 60.3456 926.589 60.3456C928.861 60.3456 930.829 59.104 931.859 57.2512L929.104 55.7152ZM901.933 43.2416H905.383V60.1152H901.933V43.2416ZM933.213 43.2416V60.1152H936.663V55.0528L940.755 60.1152H945.171L939.965 54.1024L944.784 48.4928H940.56L936.659 53.1488V43.2416H933.213Z" fill="black"/>
<path d="M915.632 55.7471C915.133 56.5695 914.103 57.1807 912.941 57.1807C911.344 57.1807 910.058 55.8911 910.058 54.2975C910.058 52.7039 911.348 51.4143 912.941 51.4143C914.103 51.4143 915.133 52.0575 915.632 52.8959V55.7471ZM915.632 48.4959V49.8655C915.069 48.9151 913.668 48.2527 912.199 48.2527C909.168 48.2527 906.784 50.9279 906.784 54.2815C906.784 57.6351 909.168 60.3423 912.199 60.3423C913.664 60.3423 915.066 59.6831 915.632 58.7295V60.0991H919.082V48.4959H915.632Z" fill="black"/>
<path fill-rule="evenodd" clip-rule="evenodd" d="M869.444 55.7312C869.444 56.9088 868.493 57.8592 867.316 57.8592C866.138 57.8592 865.188 56.9056 865.188 55.7312C865.188 54.5568 866.138 53.6031 867.316 53.6031H869.444V55.7312ZM870.506 55.7312C870.506 54.5536 871.456 53.6031 872.634 53.6031C873.812 53.6031 874.762 54.5536 874.762 55.7312V61.0496C874.762 62.2272 873.812 63.1776 872.634 63.1776C871.456 63.1776 870.506 62.2272 870.506 61.0496V55.7312Z" fill="#E01E5A"/>
<path fill-rule="evenodd" clip-rule="evenodd" d="M872.634 47.1904C871.456 47.1904 870.506 46.24 870.506 45.0624C870.506 43.8848 871.456 42.9344 872.634 42.9344C873.812 42.9344 874.762 43.8848 874.762 45.0624V47.1904H872.634ZM872.634 48.2688C873.812 48.2688 874.762 49.2192 874.762 50.3968C874.762 51.5744 873.812 52.5248 872.634 52.5248H867.3C866.122 52.5248 865.172 51.5712 865.172 50.3968C865.172 49.2224 866.122 48.2688 867.3 48.2688H872.634Z" fill="#36C5F0"/>
<path fill-rule="evenodd" clip-rule="evenodd" d="M881.159 50.3968C881.159 49.2192 882.109 48.2688 883.287 48.2688C884.464 48.2688 885.415 49.2192 885.415 50.3968C885.415 51.5744 884.464 52.5248 883.287 52.5248H881.159V50.3968ZM880.096 50.3968C880.096 51.5744 879.146 52.5248 877.968 52.5248C876.791 52.5248 875.84 51.5744 875.84 50.3968V45.0624C875.84 43.8848 876.791 42.9344 877.968 42.9344C879.146 42.9344 880.096 43.8848 880.096 45.0624V50.3968Z" fill="#2EB67D"/>
<path fill-rule="evenodd" clip-rule="evenodd" d="M877.968 58.9216C879.146 58.9216 880.096 59.872 880.096 61.0496C880.096 62.2272 879.146 63.1776 877.968 63.1776C876.791 63.1776 875.84 62.2272 875.84 61.0496V58.9216H877.968ZM877.968 57.8592C876.791 57.8592 875.84 56.9088 875.84 55.7312C875.84 54.5536 876.791 53.6031 877.968 53.6031H883.303C884.48 53.6031 885.431 54.5536 885.431 55.7312C885.431 56.9088 884.48 57.8592 883.303 57.8592H877.968Z" fill="#ECB22E"/>
</g>
</g>
<defs>
<filter id="filter0_d_759_138" x="0" y="40" width="949.172" height="34.112" filterUnits="userSpaceOnUse" color-interpolation-filters="sRGB">
<feFlood flood-opacity="0" result="BackgroundImageFix"/>
<feColorMatrix in="SourceAlpha" type="matrix" values="0 0 0 0 0 0 0 0 0 0 0 0 0 0 0 0 0 0 127 0" result="hardAlpha"/>
<feOffset dy="4"/>
<feGaussianBlur stdDeviation="2"/>
<feComposite in2="hardAlpha" operator="out"/>
<feColorMatrix type="matrix" values="0 0 0 0 0 0 0 0 0 0 0 0 0 0 0 0 0 0 0.25 0"/>
<feBlend mode="normal" in2="BackgroundImageFix" result="effect1_dropShadow_759_138"/>
<feBlend mode="normal" in="SourceGraphic" in2="effect1_dropShadow_759_138" result="shape"/>
</filter>
<clipPath id="clip0_759_138">
<rect width="80" height="26.112" fill="white" transform="translate(4 40)"/>
</clipPath>
<clipPath id="clip1_759_138">
<rect width="80" height="24.96" fill="white" transform="translate(220 40.576)"/>
</clipPath>
<clipPath id="clip2_759_138">
<rect width="80" height="23.296" fill="white" transform="translate(649.172 41.408)"/>
</clipPath>
<clipPath id="clip3_759_138">
<rect width="80" height="20.2432" fill="white" transform="translate(865.172 42.9344)"/>
</clipPath>
</defs>
</svg>
