<svg width="384" height="54" viewBox="0 0 384 54" fill="none" xmlns="http://www.w3.org/2000/svg">
<g clip-path="url(#clip0_759_169)">
<path d="M173.333 53.6666H6.66667C2.93333 53.6666 0 50.7332 0 46.9999V6.99992C0 3.26658 2.93333 0.333252 6.66667 0.333252H173.333C177.067 0.333252 180 3.26658 180 6.99992V46.9999C180 50.7332 177.067 53.6666 173.333 53.6666Z" fill="white"/>
<path d="M173.333 1.39992C176.4 1.39992 178.933 3.93325 178.933 6.99992V46.9999C178.933 50.0666 176.4 52.5999 173.333 52.5999H6.66667C3.6 52.5999 1.06667 50.0666 1.06667 46.9999V6.99992C1.06667 3.93325 3.6 1.39992 6.66667 1.39992H173.333ZM173.333 0.333252H6.66667C2.93333 0.333252 0 3.39992 0 6.99992V46.9999C0 50.7333 2.93333 53.6666 6.66667 53.6666H173.333C177.067 53.6666 180 50.7333 180 46.9999V6.99992C180 3.39992 177.067 0.333252 173.333 0.333252Z" fill="white"/>
<path d="M63.2 13.9332C63.2 14.9999 62.9333 15.9332 62.2666 16.5999C61.4666 17.3999 60.5333 17.7999 59.3333 17.7999C58.1333 17.7999 57.2 17.3999 56.4 16.5999C55.6 15.7999 55.2 14.8665 55.2 13.6665C55.2 12.4665 55.6 11.5332 56.4 10.7332C57.2 9.9332 58.1333 9.5332 59.3333 9.5332C59.8666 9.5332 60.4 9.66654 60.9333 9.9332C61.4666 10.1999 61.8666 10.4665 62.1333 10.8665L61.4666 11.5332C60.9333 10.8665 60.2666 10.5999 59.3333 10.5999C58.5333 10.5999 57.7333 10.8665 57.2 11.5332C56.5333 12.0665 56.2666 12.8665 56.2666 13.7999C56.2666 14.7332 56.5333 15.5332 57.2 16.0665C57.8666 16.5999 58.5333 16.9999 59.3333 16.9999C60.2666 16.9999 60.9333 16.7332 61.6 16.0665C62 15.6665 62.2666 15.1332 62.2666 14.4665H59.3333V13.3999H63.2V13.9332ZM69.3333 10.5999H65.7333V13.1332H69.0666V14.0665H65.7333V16.5999H69.3333V17.6665H64.6666V9.66654H69.3333V10.5999ZM73.7333 17.6665H72.6666V10.5999H70.3999V9.66654H75.9999V10.5999H73.7333V17.6665ZM79.8666 17.6665V9.66654H80.9332V17.6665H79.8666ZM85.4666 17.6665H84.3999V10.5999H82.1332V9.66654H87.5999V10.5999H85.3332V17.6665H85.4666ZM98.1332 16.5999C97.3332 17.3999 96.3999 17.7999 95.1999 17.7999C93.9999 17.7999 93.0665 17.3999 92.2665 16.5999C91.4665 15.7999 91.0665 14.8665 91.0665 13.6665C91.0665 12.4665 91.4665 11.5332 92.2665 10.7332C93.0665 9.9332 93.9999 9.5332 95.1999 9.5332C96.3999 9.5332 97.3332 9.9332 98.1332 10.7332C98.9332 11.5332 99.3332 12.4665 99.3332 13.6665C99.3332 14.8665 98.9332 15.7999 98.1332 16.5999ZM93.0665 15.9332C93.5999 16.4665 94.3999 16.8665 95.1999 16.8665C95.9999 16.8665 96.7999 16.5999 97.3332 15.9332C97.8665 15.3999 98.2665 14.5999 98.2665 13.6665C98.2665 12.7332 97.9999 11.9332 97.3332 11.3999C96.7999 10.8665 95.9999 10.4665 95.1999 10.4665C94.3999 10.4665 93.5999 10.7332 93.0665 11.3999C92.5332 11.9332 92.1332 12.7332 92.1332 13.6665C92.1332 14.5999 92.3999 15.3999 93.0665 15.9332ZM100.8 17.6665V9.66654H102L105.867 15.9332V9.66654H106.933V17.6665H105.867L101.733 11.1332V17.6665H100.8Z" fill="black"/>
<path d="M90.7999 29.4C87.5999 29.4 85.0666 31.8 85.0666 35.1333C85.0666 38.3333 87.5999 40.8666 90.7999 40.8666C93.9999 40.8666 96.5332 38.4666 96.5332 35.1333C96.5332 31.6666 93.9999 29.4 90.7999 29.4ZM90.7999 38.4666C89.0666 38.4666 87.5999 37 87.5999 35C87.5999 33 89.0666 31.5333 90.7999 31.5333C92.5332 31.5333 93.9999 32.8666 93.9999 35C93.9999 37 92.5332 38.4666 90.7999 38.4666ZM78.3999 29.4C75.1999 29.4 72.6666 31.8 72.6666 35.1333C72.6666 38.3333 75.1999 40.8666 78.3999 40.8666C81.5999 40.8666 84.1333 38.4666 84.1333 35.1333C84.1333 31.6666 81.5999 29.4 78.3999 29.4ZM78.3999 38.4666C76.6666 38.4666 75.1999 37 75.1999 35C75.1999 33 76.6666 31.5333 78.3999 31.5333C80.1333 31.5333 81.5999 32.8666 81.5999 35C81.5999 37 80.1333 38.4666 78.3999 38.4666ZM63.6 31.1333V33.5333H69.3333C69.2 34.8666 68.6666 35.9333 68 36.6C67.2 37.4 65.8666 38.3333 63.6 38.3333C60 38.3333 57.3333 35.5333 57.3333 31.9333C57.3333 28.3333 60.1333 25.5333 63.6 25.5333C65.4666 25.5333 66.9333 26.3333 68 27.2666L69.7333 25.5333C68.2666 24.2 66.4 23.1333 63.7333 23.1333C58.9333 23.1333 54.8 27.1333 54.8 31.9333C54.8 36.7333 58.9333 40.7333 63.7333 40.7333C66.4 40.7333 68.2666 39.9333 69.8666 38.2C71.4666 36.6 72 34.3333 72 32.6C72 32.0666 72 31.5333 71.8666 31.1333H63.6ZM124.133 33C123.6 31.6666 122.267 29.4 119.333 29.4C116.4 29.4 114 31.6666 114 35.1333C114 38.3333 116.4 40.8666 119.6 40.8666C122.133 40.8666 123.733 39.2666 124.266 38.3333L122.4 37C121.733 37.9333 120.933 38.6 119.6 38.6C118.267 38.6 117.467 38.0666 116.8 36.8666L124.4 33.6666L124.133 33ZM116.4 34.8666C116.4 32.7333 118.133 31.5333 119.333 31.5333C120.267 31.5333 121.2 32.0666 121.466 32.7333L116.4 34.8666ZM110.133 40.3333H112.667V23.6666H110.133V40.3333ZM106.133 30.6C105.467 29.9333 104.4 29.2666 103.067 29.2666C100.267 29.2666 97.5999 31.8 97.5999 35C97.5999 38.2 100.133 40.6 103.067 40.6C104.4 40.6 105.467 39.9333 106 39.2666H106.133V40.0666C106.133 42.2 104.933 43.4 103.067 43.4C101.6 43.4 100.533 42.3333 100.267 41.4L98.1332 42.3333C98.7999 43.8 100.4 45.6666 103.2 45.6666C106.133 45.6666 108.533 43.9333 108.533 39.8V29.6666H106.133V30.6ZM103.2 38.4666C101.467 38.4666 99.9999 37 99.9999 35C99.9999 33 101.467 31.5333 103.2 31.5333C104.933 31.5333 106.267 33 106.267 35C106.267 37 104.933 38.4666 103.2 38.4666ZM135.733 23.6666H129.733V40.3333H132.266V34.0666H135.733C138.533 34.0666 141.2 32.0666 141.2 28.8666C141.2 25.6666 138.533 23.6666 135.733 23.6666ZM135.866 31.6666H132.266V25.9333H135.866C137.733 25.9333 138.8 27.5333 138.8 28.7333C138.666 30.2 137.6 31.6666 135.866 31.6666ZM151.2 29.2666C149.333 29.2666 147.466 30.0666 146.8 31.8L149.066 32.7333C149.6 31.8 150.4 31.5333 151.333 31.5333C152.666 31.5333 153.866 32.3333 154 33.6666V33.8C153.6 33.5333 152.533 33.1333 151.466 33.1333C149.066 33.1333 146.666 34.4666 146.666 36.8666C146.666 39.1333 148.666 40.6 150.8 40.6C152.533 40.6 153.333 39.8 154 39H154.133V40.3333H156.533V33.9333C156.266 31 154 29.2666 151.2 29.2666ZM150.933 38.4666C150.133 38.4666 148.933 38.0666 148.933 37C148.933 35.6666 150.4 35.2666 151.6 35.2666C152.666 35.2666 153.2 35.5333 153.866 35.8C153.6 37.4 152.266 38.4666 150.933 38.4666ZM164.933 29.6666L162.133 36.8666H162L159.066 29.6666H156.4L160.8 39.8L158.266 45.4H160.8L167.6 29.6666H164.933ZM142.533 40.3333H145.066V23.6666H142.533V40.3333Z" fill="black"/>
<path d="M13.8667 10.3335C13.4667 10.7335 13.3333 11.4002 13.3333 12.2002V41.6668C13.3333 42.4668 13.6 43.1335 14 43.5335L14.1333 43.6668L30.6666 27.1335V26.8668L13.8667 10.3335Z" fill="url(#paint0_linear_759_169)"/>
<path d="M35.9999 32.733L30.5333 27.2663V26.8663L35.9999 21.3997L36.1333 21.533L42.6666 25.2663C44.5333 26.333 44.5333 28.0663 42.6666 29.133L35.9999 32.733Z" fill="url(#paint1_linear_759_169)"/>
<path d="M36.1334 32.6L30.5334 27L13.8667 43.6667C14.5333 44.3334 15.4667 44.3334 16.6667 43.8001L36.1334 32.6Z" fill="url(#paint2_linear_759_169)"/>
<path d="M36.1334 21.3998L16.6667 10.3331C15.4667 9.66641 14.5333 9.79974 13.8667 10.4664L30.5334 26.9998L36.1334 21.3998Z" fill="url(#paint3_linear_759_169)"/>
<path opacity="0.2" d="M36 32.4666L16.6667 43.3999C15.6 44.0666 14.6667 43.9333 14 43.3999L13.8667 43.5333L14 43.6666C14.6667 44.1999 15.6 44.3333 16.6667 43.6666L36 32.4666Z" fill="black"/>
<path opacity="0.2" d="M13.8667 43.4C13.4667 43 13.3333 42.3334 13.3333 41.5334V41.6667C13.3333 42.4667 13.6 43.1334 14 43.5334V43.4H13.8667ZM42.6667 28.7333L36.0001 32.4667L36.1334 32.6L42.6667 28.8667C43.6001 28.3333 44.0001 27.6667 44.0001 27C44.0001 27.6667 43.4667 28.2 42.6667 28.7333Z" fill="black"/>
<path opacity="0.2" d="M16.6667 10.4665L42.6667 25.2666C43.4667 25.7999 44.0001 26.3332 44.0001 26.9999C44.0001 26.3332 43.6001 25.6666 42.6667 25.1332L16.6667 10.3332C14.8 9.26654 13.3333 10.0665 13.3333 12.1999V12.3332C13.3333 10.3332 14.8 9.39987 16.6667 10.4665Z" fill="white"/>
</g>
<path d="M369.666 0.324148H218.342C217.791 0.324148 217.246 0.324148 216.695 0.326815C216.235 0.329481 215.778 0.337228 215.313 0.343748C214.303 0.354284 213.295 0.43305 212.299 0.579361C211.304 0.728858 210.34 1.0107 209.44 1.41536C208.54 1.82344 207.719 2.3537 207.005 2.98691C206.287 3.61833 205.688 4.34817 205.232 5.14836C204.775 5.94696 204.458 6.80273 204.292 7.68612C204.125 8.56839 204.035 9.46084 204.023 10.3555C204.009 10.7643 204.007 11.1744 204 11.5833V42.4023C204.007 42.8163 204.009 43.2173 204.023 43.6315C204.035 44.5261 204.125 45.4185 204.292 46.3007C204.458 47.1846 204.775 48.0409 205.232 48.8397C205.688 49.6374 206.287 50.3642 207.005 50.9921C207.716 51.6282 208.538 52.1588 209.44 52.5637C210.34 52.9695 211.304 53.253 212.299 53.4048C213.296 53.55 214.303 53.6288 215.313 53.6405C215.778 53.6496 216.235 53.6548 216.695 53.6548C217.246 53.6575 217.791 53.6575 218.342 53.6575H369.666C370.207 53.6575 370.756 53.6575 371.296 53.6548C371.755 53.6548 372.225 53.6496 372.683 53.6405C373.691 53.6294 374.697 53.5506 375.692 53.4048C376.69 53.2519 377.657 52.9685 378.562 52.5637C379.462 52.1586 380.284 51.6279 380.995 50.9921C381.711 50.3618 382.311 49.6354 382.772 48.8397C383.226 48.0403 383.54 47.1841 383.703 46.3007C383.871 45.4183 383.964 44.5261 383.982 43.6315C383.988 43.2173 383.988 42.8163 383.988 42.4023C384 41.9179 384 41.4361 384 40.9439V13.039C384 12.5507 384 12.0663 383.988 11.5833C383.988 11.1744 383.988 10.7643 383.982 10.3554C383.964 9.46071 383.871 8.56846 383.703 7.68607C383.54 6.80319 383.226 5.94749 382.772 5.14831C381.843 3.54441 380.371 2.23885 378.562 1.41524C377.657 1.01157 376.69 0.729802 375.692 0.579241C374.697 0.432285 373.691 0.353492 372.683 0.343561C372.225 0.337055 371.755 0.329241 371.296 0.326641C370.756 0.323975 370.207 0.323975 369.666 0.323975V0.324148Z" fill="white"/>
<path d="M216.573 52.4948C216.114 52.4948 215.666 52.4896 215.211 52.4805C214.267 52.4696 213.326 52.3969 212.394 52.263C211.526 52.1306 210.684 51.8844 209.898 51.5323C209.119 51.1832 208.408 50.7255 207.793 50.1766C207.169 49.6342 206.65 49.0051 206.255 48.3142C205.856 47.6188 205.58 46.8735 205.437 46.1041C205.282 45.2774 205.198 44.4415 205.186 43.6036C205.177 43.3223 205.164 42.3859 205.164 42.3859V11.5787C205.164 11.5787 205.177 10.6566 205.186 10.3857C205.198 9.54913 205.281 8.71451 205.436 7.88911C205.579 7.11764 205.856 6.37015 206.254 5.67251C206.647 4.98212 207.164 4.35254 207.784 3.80819C208.404 3.25866 209.117 2.79854 209.897 2.44461C210.682 2.09372 211.522 1.84918 212.388 1.71921C213.323 1.58393 214.268 1.5108 215.214 1.50041L216.574 1.48413H371.427L372.802 1.50107C373.741 1.51094 374.677 1.58342 375.603 1.7179C376.478 1.84951 377.327 2.09575 378.12 2.44852C379.684 3.1618 380.957 4.29027 381.759 5.67577C382.152 6.36859 382.424 7.10998 382.566 7.87479C382.722 8.70696 382.81 9.54814 382.828 10.3916C382.832 10.7693 382.832 11.175 382.832 11.5787C382.844 12.0788 382.844 12.5548 382.844 13.0347V40.9454C382.844 41.43 382.844 41.9027 382.832 42.3794C382.832 42.813 382.832 43.2103 382.826 43.6192C382.809 44.4476 382.723 45.2738 382.569 46.0911C382.428 46.866 382.154 47.6171 381.755 48.3182C381.358 49.0016 380.841 49.6252 380.225 50.1662C379.609 50.718 378.897 51.1785 378.116 51.5298C377.325 51.8845 376.477 52.1317 375.603 52.263C374.671 52.3977 373.73 52.4704 372.786 52.4805C372.345 52.4896 371.883 52.4948 371.434 52.4948L369.801 52.4975L216.573 52.4948Z" fill="white"/>
<path d="M247.73 27.3917C247.744 26.2788 248.04 25.1877 248.589 24.2197C249.138 23.2518 249.924 22.4385 250.872 21.8557C250.269 20.9954 249.475 20.2875 248.551 19.7881C247.627 19.2887 246.6 19.0116 245.55 18.9787C243.311 18.7437 241.141 20.3185 240 20.3185C238.837 20.3185 237.08 19.0021 235.188 19.041C233.965 19.0805 232.772 19.4363 231.727 20.0737C230.682 20.7112 229.82 21.6084 229.224 22.6782C226.646 27.1427 228.569 33.7041 231.039 37.3129C232.275 39.0801 233.72 41.054 235.61 40.984C237.459 40.9073 238.15 39.8047 240.382 39.8047C242.594 39.8047 243.242 40.984 245.17 40.9395C247.155 40.9073 248.405 39.1645 249.597 37.3806C250.485 36.1215 251.169 34.7299 251.622 33.2573C250.469 32.7697 249.485 31.9534 248.793 30.9104C248.101 29.8673 247.731 28.6436 247.73 27.3917Z" fill="black"/>
<path d="M244.088 16.6053C245.17 15.3064 245.703 13.6368 245.574 11.9512C243.92 12.1248 242.393 12.9149 241.297 14.164C240.761 14.7742 240.35 15.4841 240.088 16.2531C239.827 17.0222 239.719 17.8352 239.772 18.6458C240.599 18.6544 241.417 18.4751 242.164 18.1217C242.912 17.7682 243.569 17.2498 244.088 16.6053Z" fill="black"/>
<path d="M271.108 36.5103H264.796L263.281 40.9856H260.608L266.585 24.4282H269.363L275.341 40.9856H272.622L271.108 36.5103ZM265.45 34.4452H270.453L267.987 27.1822H267.918L265.45 34.4452Z" fill="black"/>
<path d="M288.251 34.9504C288.251 38.7017 286.243 41.1119 283.213 41.1119C282.446 41.152 281.682 40.9752 281.01 40.6017C280.339 40.2282 279.786 39.673 279.415 38.9999H279.358V44.979H276.88V28.9139H279.278V30.9217H279.324C279.712 30.2518 280.274 29.6995 280.951 29.3237C281.628 28.9479 282.394 28.7627 283.168 28.7876C286.231 28.7876 288.251 31.2095 288.251 34.9504ZM285.704 34.9504C285.704 32.5064 284.441 30.8996 282.514 30.8996C280.621 30.8996 279.347 32.5402 279.347 34.9504C279.347 37.3827 280.621 39.0116 282.514 39.0116C284.441 39.0116 285.704 37.4165 285.704 34.9504Z" fill="black"/>
<path d="M301.537 34.9504C301.537 38.7017 299.53 41.1118 296.5 41.1118C295.732 41.152 294.969 40.9752 294.297 40.6017C293.625 40.2282 293.072 39.673 292.701 38.9998H292.644V44.979H290.166V28.9139H292.565V30.9217H292.61C292.998 30.2518 293.56 29.6995 294.237 29.3237C294.914 28.9479 295.68 28.7627 296.454 28.7876C299.518 28.7876 301.537 31.2095 301.537 34.9504ZM298.99 34.9504C298.99 32.5064 297.727 30.8996 295.8 30.8996C293.907 30.8996 292.634 32.5402 292.634 34.9504C292.634 37.3827 293.907 39.0116 295.8 39.0116C297.727 39.0116 298.99 37.4165 298.99 34.9504H298.99Z" fill="black"/>
<path d="M310.318 36.3722C310.502 38.0142 312.097 39.0922 314.277 39.0922C316.365 39.0922 317.868 38.0141 317.868 36.5336C317.868 35.2485 316.962 34.479 314.816 33.9516L312.67 33.4347C309.63 32.7003 308.218 31.2784 308.218 28.9711C308.218 26.1143 310.708 24.1521 314.243 24.1521C317.742 24.1521 320.14 26.1143 320.221 28.9711H317.719C317.57 27.3188 316.204 26.3214 314.208 26.3214C312.212 26.3214 310.846 27.3305 310.846 28.7992C310.846 29.9698 311.718 30.6586 313.852 31.1859L315.677 31.6338C319.074 32.4372 320.485 33.8018 320.485 36.2237C320.485 39.3213 318.018 41.2614 314.093 41.2614C310.421 41.2614 307.942 39.3669 307.782 36.3721L310.318 36.3722Z" fill="black"/>
<path d="M325.833 26.0571V28.9139H328.128V30.8761H325.833V37.5311C325.833 38.5649 326.293 39.0467 327.302 39.0467C327.574 39.042 327.846 39.0228 328.117 38.9894V40.9399C327.663 41.0247 327.202 41.0631 326.74 41.0545C324.296 41.0545 323.343 40.1365 323.343 37.7954V30.8761H321.588V28.9139H323.343V26.0571H325.833Z" fill="black"/>
<path d="M329.458 34.9505C329.458 31.1523 331.695 28.7656 335.183 28.7656C338.683 28.7656 340.91 31.1523 340.91 34.9505C340.91 38.7591 338.695 41.1354 335.183 41.1354C331.673 41.1354 329.458 38.7591 329.458 34.9505ZM338.385 34.9505C338.385 32.3451 337.191 30.8073 335.183 30.8073C333.175 30.8073 331.983 32.3568 331.983 34.9505C331.983 37.5664 333.175 39.0924 335.183 39.0924C337.191 39.0924 338.385 37.5664 338.385 34.9505H338.385Z" fill="black"/>
<path d="M342.953 28.9138H345.316V30.9685H345.373C345.533 30.3268 345.909 29.7597 346.438 29.3625C346.967 28.9653 347.616 28.7623 348.277 28.7875C348.562 28.7865 348.847 28.8175 349.126 28.88V31.1977C348.765 31.0875 348.389 31.0369 348.013 31.0479C347.653 31.0333 347.294 31.0968 346.961 31.234C346.627 31.3712 346.328 31.5788 346.083 31.8427C345.837 32.1065 345.652 32.4203 345.539 32.7625C345.427 33.1048 345.39 33.4673 345.431 33.8253V40.9854H342.953L342.953 28.9138Z" fill="black"/>
<path d="M360.55 37.4401C360.217 39.6315 358.083 41.1354 355.352 41.1354C351.841 41.1354 349.661 38.7825 349.661 35.0078C349.661 31.2214 351.852 28.7656 355.248 28.7656C358.588 28.7656 360.688 31.0599 360.688 34.72V35.569H352.162V35.7187C352.123 36.163 352.179 36.6106 352.325 37.0317C352.472 37.4528 352.707 37.8379 353.014 38.1613C353.321 38.4846 353.694 38.739 354.107 38.9074C354.52 39.0758 354.964 39.1544 355.41 39.138C355.995 39.1929 356.583 39.0573 357.085 38.7513C357.587 38.4454 357.977 37.9855 358.197 37.4401L360.55 37.4401ZM352.174 33.8372H358.209C358.231 33.4378 358.171 33.038 358.031 32.6631C357.892 32.2881 357.676 31.9461 357.398 31.6584C357.12 31.3707 356.786 31.1436 356.416 30.9913C356.046 30.839 355.648 30.7648 355.248 30.7734C354.845 30.771 354.445 30.8486 354.071 31.0015C353.698 31.1545 353.359 31.38 353.073 31.6648C352.787 31.9496 352.56 32.2883 352.406 32.6611C352.252 33.034 352.173 33.4337 352.174 33.8372V33.8372Z" fill="black"/>
<path d="M265.14 11.9656C265.659 11.9283 266.18 12.0068 266.666 12.1953C267.151 12.3839 267.589 12.6779 267.947 13.0561C268.305 13.4342 268.575 13.8872 268.737 14.3822C268.899 14.8772 268.948 15.402 268.883 15.9187C268.883 18.4604 267.509 19.9214 265.14 19.9214H262.266V11.9656H265.14ZM263.501 18.7962H265.001C265.373 18.8184 265.744 18.7576 266.089 18.6181C266.434 18.4786 266.743 18.264 266.994 17.9899C267.246 17.7158 267.433 17.3891 267.542 17.0336C267.651 16.6782 267.679 16.3028 267.625 15.9349C267.675 15.5685 267.644 15.1954 267.533 14.8425C267.422 14.4897 267.235 14.1657 266.984 13.8937C266.733 13.6218 266.426 13.4088 266.083 13.2698C265.74 13.1308 265.371 13.0694 265.001 13.0899H263.501V18.7962Z" fill="black"/>
<path d="M270.279 16.9164C270.241 16.5219 270.286 16.1238 270.411 15.7477C270.536 15.3716 270.739 15.0258 271.005 14.7325C271.272 14.4392 271.597 14.2048 271.959 14.0445C272.322 13.8841 272.714 13.8013 273.11 13.8013C273.507 13.8013 273.898 13.8841 274.261 14.0445C274.623 14.2048 274.948 14.4392 275.215 14.7325C275.482 15.0258 275.684 15.3716 275.809 15.7477C275.934 16.1238 275.979 16.5219 275.942 16.9164C275.98 17.3114 275.935 17.71 275.811 18.0867C275.686 18.4634 275.484 18.8099 275.217 19.1038C274.95 19.3976 274.625 19.6325 274.262 19.7932C273.899 19.9539 273.507 20.0369 273.11 20.0369C272.713 20.0369 272.321 19.9539 271.958 19.7932C271.595 19.6325 271.27 19.3976 271.003 19.1038C270.737 18.8099 270.534 18.4634 270.41 18.0867C270.285 17.71 270.24 17.3114 270.279 16.9164ZM274.723 16.9164C274.723 15.615 274.138 14.8539 273.112 14.8539C272.082 14.8539 271.503 15.615 271.503 16.9165C271.503 18.2283 272.082 18.9835 273.112 18.9835C274.138 18.9835 274.723 18.2231 274.723 16.9164H274.723Z" fill="black"/>
<path d="M283.469 19.9211H282.24L280.999 15.4993H280.905L279.669 19.9211H278.452L276.797 13.9172H277.999L279.074 18.4986H279.163L280.397 13.9172H281.534L282.768 18.4986H282.862L283.932 13.9172H285.117L283.469 19.9211Z" fill="black"/>
<path d="M286.509 13.9172H287.65V14.871H287.738C287.889 14.5284 288.142 14.2413 288.463 14.0495C288.784 13.8578 289.157 13.771 289.53 13.8013C289.822 13.7794 290.116 13.8234 290.388 13.9302C290.661 14.037 290.906 14.2038 291.106 14.4183C291.306 14.6327 291.454 14.8893 291.541 15.1691C291.628 15.4488 291.651 15.7446 291.608 16.0344V19.9211H290.423V16.3319C290.423 15.3671 290.004 14.8873 289.128 14.8873C288.929 14.878 288.731 14.9118 288.547 14.9862C288.363 15.0607 288.197 15.174 288.061 15.3185C287.925 15.4631 287.822 15.6353 287.758 15.8235C287.695 16.0117 287.673 16.2113 287.694 16.4087V19.9211H286.509L286.509 13.9172Z" fill="black"/>
<path d="M293.496 11.5735H294.681V19.9211H293.496V11.5735Z" fill="black"/>
<path d="M296.328 16.9166C296.291 16.522 296.336 16.1239 296.461 15.7477C296.586 15.3716 296.788 15.0258 297.055 14.7325C297.322 14.4392 297.647 14.2049 298.009 14.0445C298.372 13.8841 298.764 13.8013 299.16 13.8013C299.556 13.8013 299.948 13.8841 300.311 14.0445C300.673 14.2049 300.998 14.4392 301.265 14.7325C301.532 15.0258 301.734 15.3716 301.859 15.7477C301.984 16.1239 302.029 16.522 301.992 16.9166C302.03 17.3115 301.985 17.7102 301.861 18.0869C301.736 18.4636 301.534 18.81 301.267 19.1039C301 19.3977 300.675 19.6326 300.312 19.7933C299.949 19.954 299.557 20.037 299.16 20.037C298.763 20.037 298.371 19.954 298.008 19.7933C297.645 19.6326 297.32 19.3977 297.053 19.1039C296.786 18.81 296.584 18.4636 296.459 18.0869C296.335 17.7102 296.29 17.3115 296.328 16.9166ZM300.772 16.9166C300.772 15.6151 300.188 14.8541 299.162 14.8541C298.132 14.8541 297.552 15.6151 297.552 16.9166C297.552 18.2284 298.132 18.9836 299.162 18.9836C300.188 18.9836 300.772 18.2232 300.772 16.9166H300.772Z" fill="black"/>
<path d="M303.239 18.2231C303.239 17.1424 304.044 16.5194 305.472 16.4308L307.098 16.3371V15.8188C307.098 15.1847 306.679 14.8267 305.869 14.8267C305.208 14.8267 304.75 15.0695 304.618 15.494H303.471C303.592 14.4627 304.562 13.8013 305.924 13.8013C307.429 13.8013 308.278 14.5506 308.278 15.8188V19.9211H307.138V19.0773H307.044C306.853 19.38 306.586 19.6267 306.269 19.7923C305.953 19.9579 305.598 20.0365 305.24 20.02C304.988 20.0462 304.734 20.0193 304.493 19.941C304.252 19.8628 304.03 19.7349 303.841 19.5656C303.653 19.3963 303.502 19.1894 303.398 18.9581C303.294 18.7269 303.24 18.4765 303.239 18.2231ZM307.098 17.7101V17.2082L305.632 17.3019C304.805 17.3572 304.43 17.6385 304.43 18.1678C304.43 18.7081 304.899 19.0226 305.544 19.0226C305.733 19.0417 305.923 19.0227 306.105 18.9665C306.286 18.9104 306.454 18.8184 306.599 18.6959C306.744 18.5735 306.863 18.4231 306.949 18.2537C307.035 18.0844 307.086 17.8995 307.098 17.7101Z" fill="black"/>
<path d="M309.835 16.9166C309.835 15.0195 310.811 13.8176 312.328 13.8176C312.703 13.8004 313.075 13.8902 313.401 14.0768C313.727 14.2633 313.994 14.5388 314.169 14.871H314.257V11.5735H315.442V19.9211H314.307V18.9726H314.213C314.024 19.3026 313.749 19.5746 313.416 19.7592C313.084 19.9439 312.708 20.0341 312.328 20.0201C310.8 20.0202 309.835 18.8183 309.835 16.9166ZM311.059 16.9166C311.059 18.19 311.66 18.9563 312.664 18.9563C313.662 18.9563 314.28 18.179 314.28 16.9218C314.28 15.6705 313.656 14.8821 312.664 14.8821C311.666 14.8821 311.059 15.6536 311.059 16.9166H311.059Z" fill="black"/>
<path d="M320.345 16.9164C320.307 16.5219 320.352 16.1238 320.477 15.7477C320.602 15.3716 320.805 15.0258 321.071 14.7325C321.338 14.4392 321.663 14.2048 322.025 14.0445C322.388 13.8841 322.78 13.8013 323.176 13.8013C323.572 13.8013 323.964 13.8841 324.327 14.0445C324.689 14.2048 325.014 14.4392 325.281 14.7325C325.547 15.0258 325.75 15.3716 325.875 15.7477C326 16.1238 326.045 16.5219 326.007 16.9164C326.046 17.3114 326.001 17.71 325.876 18.0867C325.752 18.4634 325.549 18.8099 325.283 19.1038C325.016 19.3976 324.691 19.6325 324.328 19.7932C323.965 19.9539 323.573 20.0369 323.176 20.0369C322.779 20.0369 322.387 19.9539 322.024 19.7932C321.661 19.6325 321.336 19.3976 321.069 19.1038C320.803 18.8099 320.6 18.4634 320.475 18.0867C320.351 17.71 320.306 17.3114 320.345 16.9164ZM324.789 16.9164C324.789 15.615 324.204 14.8539 323.178 14.8539C322.148 14.8539 321.569 15.615 321.569 16.9165C321.569 18.2283 322.148 18.9835 323.178 18.9835C324.204 18.9835 324.789 18.2231 324.789 16.9164Z" fill="black"/>
<path d="M327.597 13.9172H328.738V14.871H328.826C328.977 14.5284 329.23 14.2413 329.551 14.0495C329.872 13.8578 330.245 13.771 330.618 13.8013C330.91 13.7794 331.203 13.8234 331.476 13.9302C331.749 14.037 331.994 14.2038 332.194 14.4183C332.393 14.6327 332.542 14.8893 332.629 15.1691C332.716 15.4488 332.739 15.7446 332.696 16.0344V19.9211H331.511V16.3319C331.511 15.3671 331.092 14.8873 330.216 14.8873C330.017 14.878 329.819 14.9118 329.635 14.9862C329.451 15.0607 329.285 15.174 329.149 15.3185C329.013 15.4631 328.91 15.6353 328.846 15.8235C328.783 16.0117 328.761 16.2113 328.782 16.4087V19.9211H327.597V13.9172Z" fill="black"/>
<path d="M339.391 12.4226V13.9447H340.692V14.9428H339.391V18.03C339.391 18.6589 339.651 18.9343 340.24 18.9343C340.391 18.9338 340.542 18.9247 340.692 18.907V19.894C340.479 19.932 340.264 19.9523 340.048 19.9545C338.73 19.9545 338.205 19.491 338.205 18.3334V14.9427H337.252V13.9447H338.205V12.4226H339.391Z" fill="black"/>
<path d="M342.311 11.5735H343.485V14.8821H343.579C343.736 14.5363 343.997 14.2475 344.324 14.0551C344.652 13.8626 345.031 13.7758 345.41 13.8066C345.7 13.7908 345.991 13.8393 346.26 13.9487C346.53 14.058 346.772 14.2256 346.97 14.4394C347.167 14.6532 347.315 14.9079 347.403 15.1854C347.491 15.4629 347.516 15.7564 347.477 16.0448V19.9212H346.291V16.3372C346.291 15.3782 345.845 14.8925 345.007 14.8925C344.804 14.8758 344.599 14.9038 344.407 14.9745C344.215 15.0453 344.042 15.157 343.898 15.302C343.754 15.447 343.643 15.6217 343.574 15.8139C343.504 16.0061 343.478 16.2111 343.496 16.4146V19.9211H342.311L342.311 11.5735Z" fill="black"/>
<path d="M354.386 18.2998C354.225 18.8485 353.876 19.3232 353.401 19.6407C352.925 19.9582 352.353 20.0984 351.785 20.0368C351.389 20.0472 350.996 19.9715 350.633 19.8148C350.269 19.6581 349.944 19.4242 349.681 19.1293C349.417 18.8345 349.22 18.4857 349.105 18.1073C348.989 17.7289 348.957 17.3298 349.011 16.9378C348.959 16.5447 348.991 16.1448 349.106 15.7652C349.222 15.3856 349.417 15.0353 349.68 14.7378C349.942 14.4404 350.265 14.2028 350.628 14.0412C350.99 13.8796 351.383 13.7977 351.779 13.8011C353.45 13.8011 354.458 14.9425 354.458 16.8278V17.2412H350.218V17.3076C350.2 17.528 350.227 17.7497 350.3 17.9587C350.372 18.1677 350.487 18.3594 350.637 18.5213C350.788 18.6832 350.971 18.8119 351.174 18.8991C351.377 18.9863 351.596 19.0301 351.817 19.0276C352.101 19.0617 352.388 19.0106 352.642 18.881C352.896 18.7514 353.107 18.5491 353.246 18.2998L354.386 18.2998ZM350.218 16.3649H353.251C353.266 16.1634 353.238 15.961 353.17 15.7707C353.102 15.5804 352.995 15.4065 352.856 15.26C352.717 15.1135 352.549 14.9978 352.362 14.9202C352.176 14.8426 351.975 14.805 351.773 14.8096C351.568 14.807 351.365 14.8455 351.175 14.9228C350.985 15 350.812 15.1145 350.668 15.2594C350.523 15.4044 350.408 15.5769 350.331 15.7667C350.254 15.9566 350.216 16.16 350.218 16.3649H350.218Z" fill="black"/>
<defs>
<linearGradient id="paint0_linear_759_169" x1="29.0666" y1="11.9468" x2="6.68932" y2="34.3228" gradientUnits="userSpaceOnUse">
<stop stop-color="#00A0FF"/>
<stop offset="0.007" stop-color="#00A1FF"/>
<stop offset="0.26" stop-color="#00BEFF"/>
<stop offset="0.512" stop-color="#00D2FF"/>
<stop offset="0.76" stop-color="#00DFFF"/>
<stop offset="1" stop-color="#00E3FF"/>
</linearGradient>
<linearGradient id="paint1_linear_759_169" x1="45.112" y1="27.001" x2="12.8492" y2="27.001" gradientUnits="userSpaceOnUse">
<stop stop-color="#FFE000"/>
<stop offset="0.409" stop-color="#FFBD00"/>
<stop offset="0.775" stop-color="#FFA500"/>
<stop offset="1" stop-color="#FF9C00"/>
</linearGradient>
<linearGradient id="paint2_linear_759_169" x1="33.1027" y1="30.0613" x2="2.7586" y2="60.4054" gradientUnits="userSpaceOnUse">
<stop stop-color="#FF3A44"/>
<stop offset="1" stop-color="#C31162"/>
</linearGradient>
<linearGradient id="paint3_linear_759_169" x1="9.72932" y1="0.567707" x2="23.28" y2="14.1184" gradientUnits="userSpaceOnUse">
<stop stop-color="#32A071"/>
<stop offset="0.069" stop-color="#2DA771"/>
<stop offset="0.476" stop-color="#15CF74"/>
<stop offset="0.801" stop-color="#06E775"/>
<stop offset="1" stop-color="#00F076"/>
</linearGradient>
<clipPath id="clip0_759_169">
<rect width="180" height="53.352" fill="white" transform="translate(0 0.323975)"/>
</clipPath>
</defs>
</svg>
