<svg width="157" height="16" viewBox="0 0 157 16" fill="none" xmlns="http://www.w3.org/2000/svg">
<path d="M9.36364 6H10.8182C10.3864 3.75 8.5 2.20455 6.04545 2.20455C3.0625 2.20455 0.954545 4.5 0.954545 8.18182C0.954545 11.8636 3.04545 14.1591 6.13636 14.1591C8.90909 14.1591 10.8864 12.3125 10.8864 9.43182V8.18182H6.45455V9.43182H9.52273C9.48295 11.5227 8.10795 12.8409 6.13636 12.8409C3.97727 12.8409 2.31818 11.2045 2.31818 8.18182C2.31818 5.15909 3.97727 3.52273 6.04545 3.52273C7.72727 3.52273 8.86932 4.47159 9.36364 6ZM16.777 14.1818C18.5497 14.1818 19.8452 13.2955 20.2543 11.9773L18.9588 11.6136C18.6179 12.5227 17.8281 12.9773 16.777 12.9773C15.2031 12.9773 14.1179 11.9602 14.0554 10.0909H20.3906V9.52273C20.3906 6.27273 18.4588 5.15909 16.6406 5.15909C14.277 5.15909 12.7088 7.02273 12.7088 9.70455C12.7088 12.3864 14.2543 14.1818 16.777 14.1818ZM14.0554 8.93182C14.1463 7.57386 15.1065 6.36364 16.6406 6.36364C18.0952 6.36364 19.027 7.45455 19.027 8.93182H14.0554ZM26.2259 5.27273H24.3622V3.18182H23.0213V5.27273H21.7031V6.40909H23.0213V11.8636C23.0213 13.3864 24.2486 14.1136 25.3849 14.1136C25.8849 14.1136 26.2031 14.0227 26.3849 13.9545L26.1122 12.75C25.9986 12.7727 25.8168 12.8182 25.5213 12.8182C24.9304 12.8182 24.3622 12.6364 24.3622 11.5V6.40909H26.2259V5.27273ZM35.3111 14.2045C36.8338 14.2045 37.6293 13.3864 37.902 12.8182H37.9702V14H39.3111V8.25C39.3111 5.47727 37.1974 5.15909 36.0838 5.15909C34.7656 5.15909 33.2656 5.61364 32.5838 7.20455L33.8565 7.65909C34.152 7.02273 34.8509 6.34091 36.1293 6.34091C37.3622 6.34091 37.9702 6.99432 37.9702 8.11364V8.15909C37.9702 8.80682 37.3111 8.75 35.7202 8.95455C34.1009 9.16477 32.3338 9.52273 32.3338 11.5227C32.3338 13.2273 33.652 14.2045 35.3111 14.2045ZM35.5156 13C34.4474 13 33.6747 12.5227 33.6747 11.5909C33.6747 10.5682 34.6065 10.25 35.652 10.1136C36.2202 10.0455 37.7429 9.88636 37.9702 9.61364V10.8409C37.9702 11.9318 37.1065 13 35.5156 13ZM45.304 14.1818C47.2358 14.1818 48.5085 13 48.7358 11.4545H47.3949C47.1449 12.4091 46.3494 12.9773 45.304 12.9773C43.7131 12.9773 42.6903 11.6591 42.6903 9.63636C42.6903 7.65909 43.7358 6.36364 45.304 6.36364C46.4858 6.36364 47.1903 7.09091 47.3949 7.88636H48.7358C48.5085 6.25 47.1222 5.15909 45.2812 5.15909C42.9176 5.15909 41.3494 7.02273 41.3494 9.68182C41.3494 12.2955 42.8494 14.1818 45.304 14.1818ZM54.2415 14.1818C56.1733 14.1818 57.446 13 57.6733 11.4545H56.3324C56.0824 12.4091 55.2869 12.9773 54.2415 12.9773C52.6506 12.9773 51.6278 11.6591 51.6278 9.63636C51.6278 7.65909 52.6733 6.36364 54.2415 6.36364C55.4233 6.36364 56.1278 7.09091 56.3324 7.88636H57.6733C57.446 6.25 56.0597 5.15909 54.2188 5.15909C51.8551 5.15909 50.2869 7.02273 50.2869 9.68182C50.2869 12.2955 51.7869 14.1818 54.2415 14.1818ZM63.179 14.1818C65.5426 14.1818 67.1335 12.3864 67.1335 9.68182C67.1335 6.95455 65.5426 5.15909 63.179 5.15909C60.8153 5.15909 59.2244 6.95455 59.2244 9.68182C59.2244 12.3864 60.8153 14.1818 63.179 14.1818ZM63.179 12.9773C61.3835 12.9773 60.5653 11.4318 60.5653 9.68182C60.5653 7.93182 61.3835 6.36364 63.179 6.36364C64.9744 6.36364 65.7926 7.93182 65.7926 9.68182C65.7926 11.4318 64.9744 12.9773 63.179 12.9773ZM74.6804 10.4318C74.6804 12.0682 73.4304 12.8182 72.4304 12.8182C71.3168 12.8182 70.5213 12 70.5213 10.7273V5.27273H69.1804V10.8182C69.1804 13.0455 70.3622 14.1136 71.9986 14.1136C73.3168 14.1136 74.1804 13.4091 74.5895 12.5227H74.6804V14H76.0213V5.27273H74.6804V10.4318ZM79.8182 8.75C79.8182 7.22727 80.7614 6.36364 82.0455 6.36364C83.2898 6.36364 84.0455 7.17614 84.0455 8.54545V14H85.3864V8.45455C85.3864 6.22727 84.1989 5.15909 82.4318 5.15909C81.1136 5.15909 80.2955 5.75 79.8864 6.63636H79.7727V5.27273H78.4773V14H79.8182V8.75ZM91.6321 5.27273H89.7685V3.18182H88.4276V5.27273H87.1094V6.40909H88.4276V11.8636C88.4276 13.3864 89.6548 14.1136 90.7912 14.1136C91.2912 14.1136 91.6094 14.0227 91.7912 13.9545L91.5185 12.75C91.4048 12.7727 91.223 12.8182 90.9276 12.8182C90.3366 12.8182 89.7685 12.6364 89.7685 11.5V6.40909H91.6321V5.27273ZM101.695 14.1818C104.058 14.1818 105.649 12.3864 105.649 9.68182C105.649 6.95455 104.058 5.15909 101.695 5.15909C99.331 5.15909 97.7401 6.95455 97.7401 9.68182C97.7401 12.3864 99.331 14.1818 101.695 14.1818ZM101.695 12.9773C99.8991 12.9773 99.081 11.4318 99.081 9.68182C99.081 7.93182 99.8991 6.36364 101.695 6.36364C103.49 6.36364 104.308 7.93182 104.308 9.68182C104.308 11.4318 103.49 12.9773 101.695 12.9773ZM111.582 5.27273H109.628V4.38636C109.628 3.52273 109.991 3.06818 110.878 3.06818C111.264 3.06818 111.491 3.15909 111.628 3.20455L112.014 2.04545C111.81 1.95455 111.401 1.81818 110.741 1.81818C109.491 1.81818 108.287 2.56818 108.287 4.06818V5.27273H106.878V6.40909H108.287V14H109.628V6.40909H111.582V5.27273ZM121.371 15.4545H122.303V14.1875C124.689 14.0227 126.03 12.6136 126.03 10.8409C126.03 8.65909 123.962 7.95455 122.757 7.63636L122.303 7.51136V3.47159C123.507 3.59091 124.382 4.23864 124.507 5.27273H125.871C125.814 3.61364 124.359 2.35227 122.303 2.21591V0.90909H121.371V2.23295C119.422 2.43182 117.962 3.67045 117.962 5.45455C117.962 7.02273 119.098 7.95455 120.916 8.47727L121.371 8.60795V12.9091C120.178 12.7841 119.2 12.1705 119.098 11H117.643C117.774 12.7898 119.138 14.0398 121.371 14.1875V15.4545ZM122.303 12.9091V8.875L122.348 8.88636C123.575 9.22727 124.666 9.65909 124.666 10.8182C124.666 11.9602 123.678 12.7557 122.303 12.9091ZM121.371 7.26136C120.507 7.01705 119.325 6.53977 119.325 5.38636C119.325 4.40341 120.121 3.65341 121.371 3.48864V7.26136ZM131.778 14.1591C133.994 14.1591 135.619 12.5227 135.619 10.2955C135.619 8.03977 134.051 6.38636 131.915 6.38636C131.131 6.38636 130.369 6.66477 129.892 7.04545H129.824L130.233 3.61364H135.097V2.36364H129.051L128.347 8.09091L129.665 8.25C130.148 7.90341 130.972 7.65341 131.688 7.65909C133.17 7.67045 134.256 8.79545 134.256 10.3182C134.256 11.8125 133.21 12.9091 131.778 12.9091C130.585 12.9091 129.636 12.142 129.528 11.0909H128.165C128.25 12.8636 129.778 14.1591 131.778 14.1591ZM141.581 2.20455C139.217 2.17614 137.695 3.95455 137.695 6.09091C137.695 8.34091 139.354 9.95455 141.354 9.95455C142.558 9.95455 143.581 9.36364 144.217 8.40909H144.308C144.308 11.2727 143.195 12.9091 141.399 12.9091C140.172 12.9091 139.422 12.1364 139.172 11.0682H137.786C138.058 12.9091 139.445 14.1591 141.399 14.1591C144.013 14.1591 145.626 11.8409 145.626 7.70455C145.626 3.43182 143.49 2.22727 141.581 2.20455ZM141.581 3.45455C143.036 3.45455 144.104 4.70455 144.104 6.06818C144.104 7.45455 142.967 8.70455 141.536 8.70455C140.104 8.70455 139.058 7.54545 139.058 6.09091C139.058 4.63636 140.149 3.45455 141.581 3.45455Z" fill="#35414B"/>
<path d="M152.395 4.12787L152.131 4.38992C152.049 4.47239 152.003 4.58212 152.003 4.69939C152.003 4.81659 152.049 4.92645 152.131 5.00892L155.12 7.99821L152.128 10.991C152.045 11.0733 152 11.1831 152 11.3004C152 11.4176 152.045 11.5275 152.128 11.6099L152.39 11.872C152.561 12.0427 152.838 12.0427 153.009 11.872L156.585 8.30878C156.667 8.22644 156.725 8.11672 156.725 7.99847V7.99711C156.725 7.87984 156.667 7.77011 156.585 7.68777L153.019 4.12787C152.936 4.0454 152.823 4.00013 152.706 4C152.589 4 152.477 4.0454 152.395 4.12787Z" fill="#35414B"/>
</svg>
