<svg width="311" height="162" viewBox="0 0 311 162" fill="none" xmlns="http://www.w3.org/2000/svg">
<circle cx="32" cy="32" r="32" fill="#FFEFF3"/>
<g clip-path="url(#clip0_759_155)">
<path d="M36.0776 40.1614C37.2119 40.1614 38.1314 39.2419 38.1314 38.1076V29.7386C38.1314 28.6043 37.2119 27.6848 36.0776 27.6848H21.6288C20.4945 27.6848 19.575 28.6043 19.575 29.7386V38.1076C19.575 39.2419 20.4945 40.1614 21.6288 40.1614H21.8231C22.0008 40.1614 22.1351 40.3221 22.1037 40.497L21.5977 43.3066C21.5596 43.5179 21.8136 43.655 21.9693 43.5071L25.3013 40.3442C25.425 40.2268 25.5891 40.1613 25.7596 40.1613H38.8197H38.8199H36.0776V40.1614Z" fill="#FFA1BC"/>
<path d="M36.0776 27.6848H21.6288C20.4945 27.6848 19.575 28.6043 19.575 29.7386V38.1076C19.575 39.2419 20.4945 40.1614 21.6288 40.1614H21.8611C21.9572 40.1614 22.0494 40.1997 22.1172 40.2679L22.3146 40.4666H24.9698L25.1006 40.3546C25.2463 40.2299 25.4317 40.1614 25.6235 40.1614H36.0776C37.2119 40.1614 38.1314 39.2419 38.1314 38.1076V29.7386C38.1314 28.6043 37.2119 27.6848 36.0776 27.6848Z" fill="#F9CDD9"/>
<path d="M21.823 40.1612C22.0007 40.1612 22.1351 40.3219 22.1036 40.4968L21.5976 43.3064C21.5596 43.5177 21.8136 43.6548 21.9693 43.5069L25.3013 40.344C25.425 40.2266 25.589 40.1612 25.7595 40.1611H25.7596H21.823V40.1612Z" fill="#F9CDD9"/>
<path d="M38.8195 27.6848H35.6397C36.774 27.6848 37.6935 28.6043 37.6935 29.7386V38.1076C37.6935 39.2419 36.774 40.1614 35.6397 40.1614H38.8195C39.9538 40.1614 40.8733 39.2419 40.8733 38.1076V29.7386C40.8733 28.6043 39.9538 27.6848 38.8195 27.6848Z" fill="#F9CDD9"/>
<path d="M39.6002 32.9079C40.7345 32.9079 41.654 31.9884 41.654 30.8542V22.4851C41.654 21.3509 40.7345 20.4314 39.6002 20.4314H25.1805C24.0462 20.4314 23.1267 21.3509 23.1267 22.4851V30.8542C23.1267 31.9884 24.0462 32.9079 25.1805 32.9079H25.3748C25.5525 32.9079 25.6868 33.0687 25.6554 33.2435L25.1494 36.0532C25.1113 36.2645 25.3653 36.4015 25.521 36.2537L28.853 33.0907C28.9767 32.9733 29.1408 32.9078 29.3113 32.9078H39.6002V32.9079Z" fill="#F65D88"/>
<path d="M42.3713 20.4314H39.2056C40.3398 20.4314 41.2593 21.3509 41.2593 22.4851V30.8542C41.2593 31.9884 40.3398 32.9079 39.2056 32.9079H42.3713C43.5055 32.9079 44.425 31.9884 44.425 30.8542V22.4852C44.425 21.3509 43.5055 20.4314 42.3713 20.4314Z" fill="#F65D88"/>
<path d="M25.6553 33.2437L25.1493 36.0533C25.1113 36.2646 25.3653 36.4017 25.521 36.2538L28.853 33.0909C28.9767 32.9735 29.1407 32.908 29.3113 32.908H25.3748C25.5524 32.9081 25.6868 33.0688 25.6553 33.2437Z" fill="#F65D88"/>
<path d="M41.1316 23.3757H26.6203C26.4131 23.3757 26.2453 23.5436 26.2453 23.7507C26.2453 23.9579 26.4131 24.1257 26.6203 24.1257H41.1316C41.3387 24.1257 41.5066 23.9579 41.5066 23.7507C41.5066 23.5436 41.3387 23.3757 41.1316 23.3757Z" fill="#FFEFF3"/>
<path d="M41.1316 26.2947H26.6203C26.4131 26.2947 26.2453 26.4625 26.2453 26.6697C26.2453 26.8768 26.4131 27.0447 26.6203 27.0447H41.1316C41.3387 27.0447 41.5066 26.8768 41.5066 26.6697C41.5066 26.4625 41.3387 26.2947 41.1316 26.2947Z" fill="#FFEFF3"/>
<path d="M33.876 29.2136H26.6203C26.4131 29.2136 26.2453 29.3815 26.2453 29.5886C26.2453 29.7958 26.4131 29.9636 26.6203 29.9636H33.8759C34.0831 29.9636 34.2509 29.7958 34.2509 29.5886C34.2509 29.3815 34.0831 29.2136 33.876 29.2136Z" fill="#FFEFF3"/>
<path d="M42.3713 20.0564H25.1804C23.8412 20.0564 22.7517 21.1459 22.7517 22.4851V30.8542C22.7517 32.1934 23.8412 33.2829 25.1804 33.2829H25.2672L24.7803 35.9867C24.7343 36.2414 24.8565 36.4952 25.0843 36.6181C25.3111 36.7405 25.5905 36.7048 25.7791 36.5257L29.1111 33.3628C29.1654 33.3113 29.2365 33.2829 29.3113 33.2829H42.3713C43.7105 33.2829 44.8 32.1933 44.8 30.8541V22.4851C44.8 21.1459 43.7105 20.0564 42.3713 20.0564ZM44.05 30.8542C44.05 31.7799 43.2969 32.5329 42.3713 32.5329H29.3113C29.0435 32.5329 28.7891 32.6344 28.5948 32.8188L25.6011 35.6607L26.0244 33.31C26.0974 32.9048 25.7858 32.5329 25.3748 32.5329H25.1805C24.2548 32.5329 23.5017 31.7798 23.5017 30.8542V22.4851C23.5017 21.5594 24.2548 20.8064 25.1805 20.8064H42.3713C43.2969 20.8064 44.05 21.5594 44.05 22.4851V30.8542Z" fill="#F65D88"/>
<path d="M40.8734 34.286C40.6662 34.286 40.4984 34.4539 40.4984 34.661V38.1075C40.4984 39.0332 39.7453 39.7863 38.8196 39.7863H25.7595C25.4917 39.7863 25.2373 39.8878 25.0431 40.0722L22.0494 42.914L22.4727 40.5635C22.5456 40.1591 22.235 39.7863 21.8231 39.7863H21.6288C20.7031 39.7863 19.95 39.0332 19.95 38.1075V29.7385C19.95 28.8797 20.5926 28.1623 21.4448 28.0697C21.6507 28.0473 21.7994 27.8623 21.7771 27.6563C21.7547 27.4505 21.5701 27.3014 21.3637 27.324C20.1302 27.4582 19.2 28.4961 19.2 29.7385V38.1075C19.2 39.4467 20.2896 40.5363 21.6288 40.5363H21.7155L21.2286 43.2401C21.1827 43.4949 21.3049 43.7486 21.5328 43.8715C21.7595 43.9938 22.0389 43.9581 22.2274 43.779L25.5595 40.6161C25.6137 40.5646 25.6848 40.5362 25.7596 40.5362H38.8196C40.1588 40.5362 41.2484 39.4467 41.2484 38.1075V34.661C41.2484 34.4539 41.0805 34.286 40.8734 34.286Z" fill="#F65D88"/>
</g>
<path d="M2.9723 104L4.05256 100.772H8.97443L10.0611 104H12.5923L7.97727 90.9091H5.04972L0.441051 104H2.9723ZM4.69176 98.8672L6.46236 93.5938H6.56463L8.33523 98.8672H4.69176ZM16.5282 98.2472C16.5282 96.8281 17.3848 96.0099 18.6056 96.0099C19.801 96.0099 20.5169 96.7962 20.5169 98.1065V104H22.8308V97.7486C22.8372 95.3963 21.4949 94.054 19.4686 94.054C17.9984 94.054 16.9885 94.7571 16.541 95.8501H16.426V94.1818H14.2143V104H16.5282V98.2472ZM29.4657 104.192C32.3422 104.192 34.1703 102.165 34.1703 99.1293C34.1703 96.0866 32.3422 94.054 29.4657 94.054C26.5893 94.054 24.7612 96.0866 24.7612 99.1293C24.7612 102.165 26.5893 104.192 29.4657 104.192ZM29.4785 102.338C27.8869 102.338 27.1071 100.919 27.1071 99.1229C27.1071 97.3267 27.8869 95.8885 29.4785 95.8885C31.0446 95.8885 31.8244 97.3267 31.8244 99.1229C31.8244 100.919 31.0446 102.338 29.4785 102.338ZM38.4482 98.2472C38.4482 96.8281 39.3047 96.0099 40.5256 96.0099C41.7209 96.0099 42.4368 96.7962 42.4368 98.1065V104H44.7507V97.7486C44.7571 95.3963 43.4148 94.054 41.3885 94.054C39.9183 94.054 38.9084 94.7571 38.4609 95.8501H38.3459V94.1818H36.1342V104H38.4482V98.2472ZM48.1896 107.682C49.9922 107.682 51.0341 106.755 51.5902 105.189L55.5341 94.1946L53.0604 94.1818L50.7912 101.597H50.6889L48.4261 94.1818H45.9716L49.532 104.205L49.3338 104.735C48.9055 105.854 48.228 105.93 47.218 105.636L46.6811 107.439C46.9943 107.567 47.5568 107.682 48.1896 107.682ZM57.1401 104H59.454V98.0298C59.454 96.8217 60.2594 96.0036 61.2566 96.0036C62.2346 96.0036 62.9057 96.6619 62.9057 97.6719V104H65.1749V97.8764C65.1749 96.7706 65.8333 96.0036 66.9519 96.0036C67.8851 96.0036 68.6266 96.5533 68.6266 97.7678V104H70.9469V97.4098C70.9469 95.2173 69.6813 94.054 67.8787 94.054C66.4533 94.054 65.3667 94.7571 64.932 95.8501H64.8297C64.4526 94.7379 63.5002 94.054 62.177 94.054C60.8603 94.054 59.8759 94.7315 59.4668 95.8501H59.3517V94.1818H57.1401V104ZM77.5771 104.192C80.4535 104.192 82.2816 102.165 82.2816 99.1293C82.2816 96.0866 80.4535 94.054 77.5771 94.054C74.7006 94.054 72.8725 96.0866 72.8725 99.1293C72.8725 102.165 74.7006 104.192 77.5771 104.192ZM77.5898 102.338C75.9982 102.338 75.2184 100.919 75.2184 99.1229C75.2184 97.3267 75.9982 95.8885 77.5898 95.8885C79.1559 95.8885 79.9357 97.3267 79.9357 99.1229C79.9357 100.919 79.1559 102.338 77.5898 102.338ZM90.5034 99.8707C90.5034 101.366 89.4359 102.108 88.4132 102.108C87.301 102.108 86.5595 101.322 86.5595 100.075V94.1818H84.2456V100.433C84.2456 102.792 85.5879 104.128 87.5183 104.128C88.9885 104.128 90.024 103.354 90.4714 102.255H90.5737V104H92.8173V94.1818H90.5034V99.8707ZM102.957 96.777C102.637 95.1151 101.308 94.054 99.0064 94.054C96.6413 94.054 95.0305 95.2173 95.0369 97.0327C95.0305 98.4645 95.9126 99.4105 97.7983 99.8004L99.473 100.152C100.374 100.35 100.796 100.714 100.796 101.271C100.796 101.942 100.067 102.447 98.968 102.447C97.907 102.447 97.2166 101.987 97.0185 101.104L94.7621 101.322C95.0497 103.124 96.5646 104.192 98.9744 104.192C101.429 104.192 103.161 102.92 103.168 101.06C103.161 99.6598 102.26 98.8033 100.406 98.4006L98.7315 98.0426C97.7344 97.8189 97.3381 97.4737 97.3445 96.9048C97.3381 96.2401 98.0732 95.7798 99.0384 95.7798C100.106 95.7798 100.668 96.3615 100.847 97.0071L102.957 96.777ZM109.643 90.9091V104H111.918V94.9872H112.04L115.658 103.962H117.358L120.976 95.0064H121.097V104H123.373V90.9091H120.471L116.585 100.395H116.431L112.545 90.9091H109.643ZM130.2 104.192C132.488 104.192 134.06 103.073 134.469 101.366L132.309 101.124C131.996 101.955 131.229 102.389 130.232 102.389C128.736 102.389 127.745 101.405 127.726 99.7237H134.565V99.0142C134.565 95.5689 132.494 94.054 130.078 94.054C127.266 94.054 125.431 96.1186 125.431 99.1484C125.431 102.229 127.24 104.192 130.2 104.192ZM127.732 98.1641C127.803 96.9112 128.729 95.8565 130.11 95.8565C131.44 95.8565 132.335 96.8281 132.347 98.1641H127.732ZM144.283 96.777C143.963 95.1151 142.634 94.054 140.333 94.054C137.968 94.054 136.357 95.2173 136.363 97.0327C136.357 98.4645 137.239 99.4105 139.124 99.8004L140.799 100.152C141.7 100.35 142.122 100.714 142.122 101.271C142.122 101.942 141.394 102.447 140.294 102.447C139.233 102.447 138.543 101.987 138.345 101.104L136.088 101.322C136.376 103.124 137.891 104.192 140.301 104.192C142.755 104.192 144.487 102.92 144.494 101.06C144.487 99.6598 143.586 98.8033 141.732 98.4006L140.058 98.0426C139.061 97.8189 138.664 97.4737 138.671 96.9048C138.664 96.2401 139.399 95.7798 140.365 95.7798C141.432 95.7798 141.994 96.3615 142.173 97.0071L144.283 96.777ZM154.162 96.777C153.842 95.1151 152.513 94.054 150.211 94.054C147.846 94.054 146.236 95.2173 146.242 97.0327C146.236 98.4645 147.118 99.4105 149.003 99.8004L150.678 100.152C151.579 100.35 152.001 100.714 152.001 101.271C152.001 101.942 151.273 102.447 150.173 102.447C149.112 102.447 148.422 101.987 148.224 101.104L145.967 101.322C146.255 103.124 147.77 104.192 150.18 104.192C152.634 104.192 154.366 102.92 154.373 101.06C154.366 99.6598 153.465 98.8033 151.611 98.4006L149.937 98.0426C148.939 97.8189 148.543 97.4737 148.55 96.9048C148.543 96.2401 149.278 95.7798 150.243 95.7798C151.311 95.7798 151.873 96.3615 152.052 97.0071L154.162 96.777ZM159.106 104.198C160.646 104.198 161.567 103.476 161.989 102.651H162.066V104H164.29V97.429C164.29 94.8338 162.174 94.054 160.301 94.054C158.237 94.054 156.651 94.9744 156.14 96.7642L158.301 97.071C158.531 96.3999 159.183 95.8246 160.314 95.8246C161.388 95.8246 161.976 96.3743 161.976 97.3395V97.3778C161.976 98.0426 161.279 98.0746 159.547 98.2599C157.642 98.4645 155.82 99.0334 155.82 101.245C155.82 103.175 157.233 104.198 159.106 104.198ZM159.707 102.498C158.742 102.498 158.051 102.057 158.051 101.207C158.051 100.318 158.825 99.9474 159.86 99.8004C160.468 99.7173 161.682 99.5639 161.982 99.321V100.478C161.982 101.571 161.1 102.498 159.707 102.498ZM170.887 107.886C173.539 107.886 175.495 106.672 175.495 104.16V94.1818H173.213V95.8054H173.085C172.734 95.0959 171.999 94.054 170.267 94.054C167.997 94.054 166.214 95.831 166.214 99.0589C166.214 102.261 167.997 103.859 170.26 103.859C171.941 103.859 172.727 102.958 173.085 102.236H173.2V104.096C173.2 105.54 172.242 106.135 170.925 106.135C169.531 106.135 168.918 105.477 168.637 104.901L166.553 105.406C166.975 106.781 168.387 107.886 170.887 107.886ZM170.906 102.044C169.378 102.044 168.573 100.855 168.573 99.0462C168.573 97.2628 169.365 95.9524 170.906 95.9524C172.395 95.9524 173.213 97.1861 173.213 99.0462C173.213 100.919 172.382 102.044 170.906 102.044ZM177.867 104H180.181V94.1818H177.867V104ZM179.03 92.7884C179.765 92.7884 180.366 92.2259 180.366 91.5355C180.366 90.8388 179.765 90.2763 179.03 90.2763C178.289 90.2763 177.688 90.8388 177.688 91.5355C177.688 92.2259 178.289 92.7884 179.03 92.7884ZM184.874 98.2472C184.874 96.8281 185.73 96.0099 186.951 96.0099C188.147 96.0099 188.863 96.7962 188.863 98.1065V104H191.176V97.7486C191.183 95.3963 189.841 94.054 187.814 94.054C186.344 94.054 185.334 94.7571 184.887 95.8501H184.772V94.1818H182.56V104H184.874V98.2472ZM197.799 107.886C200.451 107.886 202.407 106.672 202.407 104.16V94.1818H200.125V95.8054H199.998C199.646 95.0959 198.911 94.054 197.179 94.054C194.909 94.054 193.126 95.831 193.126 99.0589C193.126 102.261 194.909 103.859 197.172 103.859C198.853 103.859 199.64 102.958 199.998 102.236H200.113V104.096C200.113 105.54 199.154 106.135 197.837 106.135C196.444 106.135 195.83 105.477 195.549 104.901L193.465 105.406C193.887 106.781 195.299 107.886 197.799 107.886ZM197.818 102.044C196.29 102.044 195.485 100.855 195.485 99.0462C195.485 97.2628 196.277 95.9524 197.818 95.9524C199.307 95.9524 200.125 97.1861 200.125 99.0462C200.125 100.919 199.294 102.044 197.818 102.044Z" fill="#35414B"/>
<path d="M5 132C8.54545 132 10.5455 129.795 10.5455 126.159C10.5455 122.545 8.54545 120.364 5.15909 120.364H1.40909V132H5ZM2.81818 130.75V121.614H5.06818C7.79545 121.614 9.18182 123.341 9.18182 126.159C9.18182 129 7.79545 130.75 4.90909 130.75H2.81818ZM16.3864 132.182C18.1591 132.182 19.4545 131.295 19.8636 129.977L18.5682 129.614C18.2273 130.523 17.4375 130.977 16.3864 130.977C14.8125 130.977 13.7273 129.96 13.6648 128.091H20V127.523C20 124.273 18.0682 123.159 16.25 123.159C13.8864 123.159 12.3182 125.023 12.3182 127.705C12.3182 130.386 13.8636 132.182 16.3864 132.182ZM13.6648 126.932C13.7557 125.574 14.7159 124.364 16.25 124.364C17.7045 124.364 18.6364 125.455 18.6364 126.932H13.6648ZM28.9105 123.273H27.456L25.0469 130.227H24.956L22.5469 123.273H21.0923L24.3196 132H25.6832L28.9105 123.273ZM34.027 132.182C35.7997 132.182 37.0952 131.295 37.5043 129.977L36.2088 129.614C35.8679 130.523 35.0781 130.977 34.027 130.977C32.4531 130.977 31.3679 129.96 31.3054 128.091H37.6406V127.523C37.6406 124.273 35.7088 123.159 33.8906 123.159C31.527 123.159 29.9588 125.023 29.9588 127.705C29.9588 130.386 31.5043 132.182 34.027 132.182ZM31.3054 126.932C31.3963 125.574 32.3565 124.364 33.8906 124.364C35.3452 124.364 36.277 125.455 36.277 126.932H31.3054ZM41.0213 120.364H39.6804V132H41.0213V120.364ZM47.0227 132.182C49.3864 132.182 50.9773 130.386 50.9773 127.682C50.9773 124.955 49.3864 123.159 47.0227 123.159C44.6591 123.159 43.0682 124.955 43.0682 127.682C43.0682 130.386 44.6591 132.182 47.0227 132.182ZM47.0227 130.977C45.2273 130.977 44.4091 129.432 44.4091 127.682C44.4091 125.932 45.2273 124.364 47.0227 124.364C48.8182 124.364 49.6364 125.932 49.6364 127.682C49.6364 129.432 48.8182 130.977 47.0227 130.977ZM53.0241 135.273H54.3651V130.659H54.4787C54.7741 131.136 55.3423 132.182 57.0241 132.182C59.206 132.182 60.7287 130.432 60.7287 127.659C60.7287 124.909 59.206 123.159 57.0014 123.159C55.2969 123.159 54.7741 124.205 54.4787 124.659H54.3196V123.273H53.0241V135.273ZM54.3423 127.636C54.3423 125.682 55.206 124.364 56.8423 124.364C58.5469 124.364 59.3878 125.795 59.3878 127.636C59.3878 129.5 58.5241 130.977 56.8423 130.977C55.2287 130.977 54.3423 129.614 54.3423 127.636ZM71.0696 123.273H69.206V121.182H67.8651V123.273H66.5469V124.409H67.8651V129.864C67.8651 131.386 69.0923 132.114 70.2287 132.114C70.7287 132.114 71.0469 132.023 71.2287 131.955L70.956 130.75C70.8423 130.773 70.6605 130.818 70.3651 130.818C69.7741 130.818 69.206 130.636 69.206 129.5V124.409H71.0696V123.273ZM73.0866 132H74.4276V126.477C74.4276 125.295 75.3594 124.432 76.6321 124.432C76.9901 124.432 77.3594 124.5 77.4503 124.523V123.159C77.2969 123.148 76.9446 123.136 76.7457 123.136C75.7003 123.136 74.7912 123.727 74.473 124.591H74.3821V123.273H73.0866V132ZM84.5398 128.432C84.5398 130.068 83.2898 130.818 82.2898 130.818C81.1761 130.818 80.3807 130 80.3807 128.727V123.273H79.0398V128.818C79.0398 131.045 80.2216 132.114 81.858 132.114C83.1761 132.114 84.0398 131.409 84.4489 130.523H84.5398V132H85.8807V123.273H84.5398V128.432ZM94.5185 125.227C94.098 123.989 93.1548 123.159 91.4276 123.159C89.5866 123.159 88.223 124.205 88.223 125.682C88.223 126.886 88.9389 127.693 90.5412 128.068L91.9957 128.409C92.8764 128.614 93.2912 129.034 93.2912 129.636C93.2912 130.386 92.4957 131 91.2457 131C90.1491 131 89.4616 130.528 89.223 129.591L87.9503 129.909C88.2628 131.392 89.4844 132.182 91.2685 132.182C93.2969 132.182 94.6776 131.074 94.6776 129.568C94.6776 128.352 93.9162 127.585 92.3594 127.205L91.0639 126.886C90.0298 126.631 89.5639 126.284 89.5639 125.614C89.5639 124.864 90.3594 124.318 91.4276 124.318C92.598 124.318 93.081 124.966 93.3139 125.568L94.5185 125.227ZM100.491 123.273H98.6278V121.182H97.2869V123.273H95.9688V124.409H97.2869V129.864C97.2869 131.386 98.5142 132.114 99.6506 132.114C100.151 132.114 100.469 132.023 100.651 131.955L100.378 130.75C100.264 130.773 100.082 130.818 99.7869 130.818C99.196 130.818 98.6278 130.636 98.6278 129.5V124.409H100.491V123.273ZM107.009 132H108.349V123.273H107.009V132ZM107.69 121.818C108.213 121.818 108.645 121.409 108.645 120.909C108.645 120.409 108.213 120 107.69 120C107.168 120 106.736 120.409 106.736 120.909C106.736 121.409 107.168 121.818 107.69 121.818ZM112.146 126.75C112.146 125.227 113.089 124.364 114.374 124.364C115.618 124.364 116.374 125.176 116.374 126.545V132H117.714V126.455C117.714 124.227 116.527 123.159 114.76 123.159C113.442 123.159 112.624 123.75 112.214 124.636H112.101V123.273H110.805V132H112.146V126.75ZM127.233 132.205C128.756 132.205 129.551 131.386 129.824 130.818H129.892V132H131.233V126.25C131.233 123.477 129.119 123.159 128.006 123.159C126.688 123.159 125.188 123.614 124.506 125.205L125.778 125.659C126.074 125.023 126.773 124.341 128.051 124.341C129.284 124.341 129.892 124.994 129.892 126.114V126.159C129.892 126.807 129.233 126.75 127.642 126.955C126.023 127.165 124.256 127.523 124.256 129.523C124.256 131.227 125.574 132.205 127.233 132.205ZM127.438 131C126.369 131 125.597 130.523 125.597 129.591C125.597 128.568 126.528 128.25 127.574 128.114C128.142 128.045 129.665 127.886 129.892 127.614V128.841C129.892 129.932 129.028 131 127.438 131ZM144.362 125.227C143.942 123.989 142.999 123.159 141.271 123.159C139.43 123.159 138.067 124.205 138.067 125.682C138.067 126.886 138.783 127.693 140.385 128.068L141.839 128.409C142.72 128.614 143.135 129.034 143.135 129.636C143.135 130.386 142.339 131 141.089 131C139.993 131 139.305 130.528 139.067 129.591L137.794 129.909C138.107 131.392 139.328 132.182 141.112 132.182C143.141 132.182 144.521 131.074 144.521 129.568C144.521 128.352 143.76 127.585 142.203 127.205L140.908 126.886C139.874 126.631 139.408 126.284 139.408 125.614C139.408 124.864 140.203 124.318 141.271 124.318C142.442 124.318 142.925 124.966 143.158 125.568L144.362 125.227ZM149.108 132.205C150.631 132.205 151.426 131.386 151.699 130.818H151.767V132H153.108V126.25C153.108 123.477 150.994 123.159 149.881 123.159C148.562 123.159 147.062 123.614 146.381 125.205L147.653 125.659C147.949 125.023 148.648 124.341 149.926 124.341C151.159 124.341 151.767 124.994 151.767 126.114V126.159C151.767 126.807 151.108 126.75 149.517 126.955C147.898 127.165 146.131 127.523 146.131 129.523C146.131 131.227 147.449 132.205 149.108 132.205ZM149.312 131C148.244 131 147.472 130.523 147.472 129.591C147.472 128.568 148.403 128.25 149.449 128.114C150.017 128.045 151.54 127.886 151.767 127.614V128.841C151.767 129.932 150.903 131 149.312 131ZM159.442 123.273H157.487V122.386C157.487 121.523 157.851 121.068 158.737 121.068C159.124 121.068 159.351 121.159 159.487 121.205L159.874 120.045C159.669 119.955 159.26 119.818 158.601 119.818C157.351 119.818 156.146 120.568 156.146 122.068V123.273H154.737V124.409H156.146V132H157.487V124.409H159.442V123.273ZM164.621 132.182C166.393 132.182 167.689 131.295 168.098 129.977L166.803 129.614C166.462 130.523 165.672 130.977 164.621 130.977C163.047 130.977 161.962 129.96 161.899 128.091H168.234V127.523C168.234 124.273 166.303 123.159 164.484 123.159C162.121 123.159 160.553 125.023 160.553 127.705C160.553 130.386 162.098 132.182 164.621 132.182ZM161.899 126.932C161.99 125.574 162.95 124.364 164.484 124.364C165.939 124.364 166.871 125.455 166.871 126.932H161.899ZM178.32 132.182C180.251 132.182 181.524 131 181.751 129.455H180.411C180.161 130.409 179.365 130.977 178.32 130.977C176.729 130.977 175.706 129.659 175.706 127.636C175.706 125.659 176.751 124.364 178.32 124.364C179.501 124.364 180.206 125.091 180.411 125.886H181.751C181.524 124.25 180.138 123.159 178.297 123.159C175.933 123.159 174.365 125.023 174.365 127.682C174.365 130.295 175.865 132.182 178.32 132.182ZM185.053 126.75C185.053 125.227 186.024 124.364 187.348 124.364C188.609 124.364 189.371 125.159 189.371 126.545V132H190.712V126.455C190.712 124.21 189.518 123.159 187.734 123.159C186.359 123.159 185.575 123.733 185.166 124.636H185.053V120.364H183.712V132H185.053V126.75ZM195.733 132.205C197.256 132.205 198.051 131.386 198.324 130.818H198.392V132H199.733V126.25C199.733 123.477 197.619 123.159 196.506 123.159C195.188 123.159 193.688 123.614 193.006 125.205L194.278 125.659C194.574 125.023 195.273 124.341 196.551 124.341C197.784 124.341 198.392 124.994 198.392 126.114V126.159C198.392 126.807 197.733 126.75 196.142 126.955C194.523 127.165 192.756 127.523 192.756 129.523C192.756 131.227 194.074 132.205 195.733 132.205ZM195.938 131C194.869 131 194.097 130.523 194.097 129.591C194.097 128.568 195.028 128.25 196.074 128.114C196.642 128.045 198.165 127.886 198.392 127.614V128.841C198.392 129.932 197.528 131 195.938 131ZM203.521 126.75C203.521 125.227 204.464 124.364 205.749 124.364C206.993 124.364 207.749 125.176 207.749 126.545V132H209.089V126.455C209.089 124.227 207.902 123.159 206.135 123.159C204.817 123.159 203.999 123.75 203.589 124.636H203.476V123.273H202.18V132H203.521V126.75ZM212.881 126.75C212.881 125.227 213.824 124.364 215.108 124.364C216.352 124.364 217.108 125.176 217.108 126.545V132H218.449V126.455C218.449 124.227 217.261 123.159 215.494 123.159C214.176 123.159 213.358 123.75 212.949 124.636H212.835V123.273H211.54V132H212.881V126.75ZM224.558 132.182C226.331 132.182 227.626 131.295 228.036 129.977L226.74 129.614C226.399 130.523 225.609 130.977 224.558 130.977C222.984 130.977 221.899 129.96 221.837 128.091H228.172V127.523C228.172 124.273 226.24 123.159 224.422 123.159C222.058 123.159 220.49 125.023 220.49 127.705C220.49 130.386 222.036 132.182 224.558 132.182ZM221.837 126.932C221.928 125.574 222.888 124.364 224.422 124.364C225.876 124.364 226.808 125.455 226.808 126.932H221.837ZM231.553 120.364H230.212V132H231.553V120.364ZM242.395 123.273H240.44V122.386C240.44 121.523 240.804 121.068 241.69 121.068C242.077 121.068 242.304 121.159 242.44 121.205L242.827 120.045C242.622 119.955 242.213 119.818 241.554 119.818C240.304 119.818 239.099 120.568 239.099 122.068V123.273H237.69V124.409H239.099V132H240.44V124.409H242.395V123.273ZM247.46 132.182C249.824 132.182 251.415 130.386 251.415 127.682C251.415 124.955 249.824 123.159 247.46 123.159C245.097 123.159 243.506 124.955 243.506 127.682C243.506 130.386 245.097 132.182 247.46 132.182ZM247.46 130.977C245.665 130.977 244.847 129.432 244.847 127.682C244.847 125.932 245.665 124.364 247.46 124.364C249.256 124.364 250.074 125.932 250.074 127.682C250.074 129.432 249.256 130.977 247.46 130.977ZM253.462 132H254.803V126.477C254.803 125.295 255.734 124.432 257.007 124.432C257.365 124.432 257.734 124.5 257.825 124.523V123.159C257.672 123.148 257.32 123.136 257.121 123.136C256.075 123.136 255.166 123.727 254.848 124.591H254.757V123.273H253.462V132ZM1.22727 156H2.56818V147.273H1.22727V156ZM1.90909 145.818C2.43182 145.818 2.86364 145.409 2.86364 144.909C2.86364 144.409 2.43182 144 1.90909 144C1.38636 144 0.954545 144.409 0.954545 144.909C0.954545 145.409 1.38636 145.818 1.90909 145.818ZM5.02415 156H6.36506V150.545C6.36506 149.267 7.29688 148.364 8.34233 148.364C9.35938 148.364 10.0696 149.028 10.0696 150.023V156H11.4332V150.318C11.4332 149.193 12.1378 148.364 13.3651 148.364C14.3196 148.364 15.1378 148.869 15.1378 150.159V156H16.4787V150.159C16.4787 148.108 15.3764 147.159 13.8196 147.159C12.5696 147.159 11.6548 147.733 11.206 148.636H11.1151C10.6832 147.705 9.92188 147.159 8.77415 147.159C7.63778 147.159 6.79688 147.705 6.43324 148.636H6.3196V147.273H5.02415V156ZM18.9304 159.273H20.2713V154.659H20.3849C20.6804 155.136 21.2486 156.182 22.9304 156.182C25.1122 156.182 26.6349 154.432 26.6349 151.659C26.6349 148.909 25.1122 147.159 22.9077 147.159C21.2031 147.159 20.6804 148.205 20.3849 148.659H20.2259V147.273H18.9304V159.273ZM20.2486 151.636C20.2486 149.682 21.1122 148.364 22.7486 148.364C24.4531 148.364 25.294 149.795 25.294 151.636C25.294 153.5 24.4304 154.977 22.7486 154.977C21.1349 154.977 20.2486 153.614 20.2486 151.636ZM32.2259 156.182C34.5895 156.182 36.1804 154.386 36.1804 151.682C36.1804 148.955 34.5895 147.159 32.2259 147.159C29.8622 147.159 28.2713 148.955 28.2713 151.682C28.2713 154.386 29.8622 156.182 32.2259 156.182ZM32.2259 154.977C30.4304 154.977 29.6122 153.432 29.6122 151.682C29.6122 149.932 30.4304 148.364 32.2259 148.364C34.0213 148.364 34.8395 149.932 34.8395 151.682C34.8395 153.432 34.0213 154.977 32.2259 154.977ZM38.2273 156H39.5682V150.477C39.5682 149.295 40.5 148.432 41.7727 148.432C42.1307 148.432 42.5 148.5 42.5909 148.523V147.159C42.4375 147.148 42.0852 147.136 41.8864 147.136C40.8409 147.136 39.9318 147.727 39.6136 148.591H39.5227V147.273H38.2273V156ZM48.5227 147.273H46.6591V145.182H45.3182V147.273H44V148.409H45.3182V153.864C45.3182 155.386 46.5455 156.114 47.6818 156.114C48.1818 156.114 48.5 156.023 48.6818 155.955L48.4091 154.75C48.2955 154.773 48.1136 154.818 47.8182 154.818C47.2273 154.818 46.6591 154.636 46.6591 153.5V148.409H48.5227V147.273ZM53.108 156.205C54.6307 156.205 55.4261 155.386 55.6989 154.818H55.767V156H57.108V150.25C57.108 147.477 54.9943 147.159 53.8807 147.159C52.5625 147.159 51.0625 147.614 50.3807 149.205L51.6534 149.659C51.9489 149.023 52.6477 148.341 53.9261 148.341C55.1591 148.341 55.767 148.994 55.767 150.114V150.159C55.767 150.807 55.108 150.75 53.517 150.955C51.8977 151.165 50.1307 151.523 50.1307 153.523C50.1307 155.227 51.4489 156.205 53.108 156.205ZM53.3125 155C52.2443 155 51.4716 154.523 51.4716 153.591C51.4716 152.568 52.4034 152.25 53.4489 152.114C54.017 152.045 55.5398 151.886 55.767 151.614V152.841C55.767 153.932 54.9034 155 53.3125 155ZM60.8963 150.75C60.8963 149.227 61.8395 148.364 63.1236 148.364C64.3679 148.364 65.1236 149.176 65.1236 150.545V156H66.4645V150.455C66.4645 148.227 65.277 147.159 63.5099 147.159C62.1918 147.159 61.3736 147.75 60.9645 148.636H60.8509V147.273H59.5554V156H60.8963V150.75ZM72.7102 147.273H70.8466V145.182H69.5057V147.273H68.1875V148.409H69.5057V153.864C69.5057 155.386 70.733 156.114 71.8693 156.114C72.3693 156.114 72.6875 156.023 72.8693 155.955L72.5966 154.75C72.483 154.773 72.3011 154.818 72.0057 154.818C71.4148 154.818 70.8466 154.636 70.8466 153.5V148.409H72.7102V147.273ZM82.7727 156.182C84.7045 156.182 85.9773 155 86.2045 153.455H84.8636C84.6136 154.409 83.8182 154.977 82.7727 154.977C81.1818 154.977 80.1591 153.659 80.1591 151.636C80.1591 149.659 81.2045 148.364 82.7727 148.364C83.9545 148.364 84.6591 149.091 84.8636 149.886H86.2045C85.9773 148.25 84.5909 147.159 82.75 147.159C80.3864 147.159 78.8182 149.023 78.8182 151.682C78.8182 154.295 80.3182 156.182 82.7727 156.182ZM91.7102 156.182C94.0739 156.182 95.6648 154.386 95.6648 151.682C95.6648 148.955 94.0739 147.159 91.7102 147.159C89.3466 147.159 87.7557 148.955 87.7557 151.682C87.7557 154.386 89.3466 156.182 91.7102 156.182ZM91.7102 154.977C89.9148 154.977 89.0966 153.432 89.0966 151.682C89.0966 149.932 89.9148 148.364 91.7102 148.364C93.5057 148.364 94.3239 149.932 94.3239 151.682C94.3239 153.432 93.5057 154.977 91.7102 154.977ZM99.0526 150.75C99.0526 149.227 99.9957 148.364 101.28 148.364C102.524 148.364 103.28 149.176 103.28 150.545V156H104.621V150.455C104.621 148.227 103.433 147.159 101.666 147.159C100.348 147.159 99.5298 147.75 99.1207 148.636H99.0071V147.273H97.7116V156H99.0526V150.75ZM113.895 147.273H112.44L110.031 154.227H109.94L107.531 147.273H106.077L109.304 156H110.668L113.895 147.273ZM119.011 156.182C120.784 156.182 122.08 155.295 122.489 153.977L121.193 153.614C120.852 154.523 120.062 154.977 119.011 154.977C117.438 154.977 116.352 153.96 116.29 152.091H122.625V151.523C122.625 148.273 120.693 147.159 118.875 147.159C116.511 147.159 114.943 149.023 114.943 151.705C114.943 154.386 116.489 156.182 119.011 156.182ZM116.29 150.932C116.381 149.574 117.341 148.364 118.875 148.364C120.33 148.364 121.261 149.455 121.261 150.932H116.29ZM124.665 156H126.006V150.477C126.006 149.295 126.938 148.432 128.21 148.432C128.568 148.432 128.938 148.5 129.028 148.523V147.159C128.875 147.148 128.523 147.136 128.324 147.136C127.278 147.136 126.369 147.727 126.051 148.591H125.96V147.273H124.665V156ZM136.8 149.227C136.379 147.989 135.436 147.159 133.709 147.159C131.868 147.159 130.504 148.205 130.504 149.682C130.504 150.886 131.22 151.693 132.822 152.068L134.277 152.409C135.158 152.614 135.572 153.034 135.572 153.636C135.572 154.386 134.777 155 133.527 155C132.43 155 131.743 154.528 131.504 153.591L130.232 153.909C130.544 155.392 131.766 156.182 133.55 156.182C135.578 156.182 136.959 155.074 136.959 153.568C136.959 152.352 136.197 151.585 134.641 151.205L133.345 150.886C132.311 150.631 131.845 150.284 131.845 149.614C131.845 148.864 132.641 148.318 133.709 148.318C134.879 148.318 135.362 148.966 135.595 149.568L136.8 149.227ZM141.545 156.205C143.068 156.205 143.864 155.386 144.136 154.818H144.205V156H145.545V150.25C145.545 147.477 143.432 147.159 142.318 147.159C141 147.159 139.5 147.614 138.818 149.205L140.091 149.659C140.386 149.023 141.085 148.341 142.364 148.341C143.597 148.341 144.205 148.994 144.205 150.114V150.159C144.205 150.807 143.545 150.75 141.955 150.955C140.335 151.165 138.568 151.523 138.568 153.523C138.568 155.227 139.886 156.205 141.545 156.205ZM141.75 155C140.682 155 139.909 154.523 139.909 153.591C139.909 152.568 140.841 152.25 141.886 152.114C142.455 152.045 143.977 151.886 144.205 151.614V152.841C144.205 153.932 143.341 155 141.75 155ZM151.788 147.273H149.925V145.182H148.584V147.273H147.266V148.409H148.584V153.864C148.584 155.386 149.811 156.114 150.947 156.114C151.447 156.114 151.766 156.023 151.947 155.955L151.675 154.75C151.561 154.773 151.379 154.818 151.084 154.818C150.493 154.818 149.925 154.636 149.925 153.5V148.409H151.788V147.273ZM153.805 156H155.146V147.273H153.805V156ZM154.487 145.818C155.01 145.818 155.442 145.409 155.442 144.909C155.442 144.409 155.01 144 154.487 144C153.964 144 153.533 144.409 153.533 144.909C153.533 145.409 153.964 145.818 154.487 145.818ZM161.148 156.182C163.511 156.182 165.102 154.386 165.102 151.682C165.102 148.955 163.511 147.159 161.148 147.159C158.784 147.159 157.193 148.955 157.193 151.682C157.193 154.386 158.784 156.182 161.148 156.182ZM161.148 154.977C159.352 154.977 158.534 153.432 158.534 151.682C158.534 149.932 159.352 148.364 161.148 148.364C162.943 148.364 163.761 149.932 163.761 151.682C163.761 153.432 162.943 154.977 161.148 154.977ZM168.49 150.75C168.49 149.227 169.433 148.364 170.717 148.364C171.962 148.364 172.717 149.176 172.717 150.545V156H174.058V150.455C174.058 148.227 172.871 147.159 171.104 147.159C169.786 147.159 168.967 147.75 168.558 148.636H168.445V147.273H167.149V156H168.49V150.75ZM182.69 149.227C182.27 147.989 181.327 147.159 179.599 147.159C177.759 147.159 176.395 148.205 176.395 149.682C176.395 150.886 177.111 151.693 178.713 152.068L180.168 152.409C181.048 152.614 181.463 153.034 181.463 153.636C181.463 154.386 180.668 155 179.418 155C178.321 155 177.634 154.528 177.395 153.591L176.122 153.909C176.435 155.392 177.656 156.182 179.44 156.182C181.469 156.182 182.849 155.074 182.849 153.568C182.849 152.352 182.088 151.585 180.531 151.205L179.236 150.886C178.202 150.631 177.736 150.284 177.736 149.614C177.736 148.864 178.531 148.318 179.599 148.318C180.77 148.318 181.253 148.966 181.486 149.568L182.69 149.227ZM185.845 156.091C186.408 156.091 186.868 155.631 186.868 155.068C186.868 154.506 186.408 154.045 185.845 154.045C185.283 154.045 184.822 154.506 184.822 155.068C184.822 155.631 185.283 156.091 185.845 156.091Z" fill="#4E5A65"/>
<defs>
<clipPath id="clip0_759_155">
<rect width="25.6" height="25.6" fill="white" transform="translate(19.2 19.2)"/>
</clipPath>
</defs>
</svg>
