<svg width="372" height="128" viewBox="0 0 372 128" fill="none" xmlns="http://www.w3.org/2000/svg">
<path d="M0.5 0.5H364C368.142 0.5 371.5 3.85786 371.5 8V120C371.5 124.142 368.142 127.5 364 127.5H0.5V0.5Z" fill="#F6F3FC"/>
<path d="M0.5 0.5H364C368.142 0.5 371.5 3.85786 371.5 8V120C371.5 124.142 368.142 127.5 364 127.5H0.5V0.5Z" stroke="#F6F3FC"/>
<path d="M40.4055 32.5078H42.6875C42.6428 30.2962 40.7571 28.7301 37.9702 28.7301C35.2216 28.7301 33.157 30.277 33.1634 32.5909C33.1634 34.4702 34.4993 35.5504 36.6534 36.1065L38.1428 36.4901C39.5554 36.848 40.4886 37.2891 40.495 38.3054C40.4886 39.424 39.4276 40.1719 37.8807 40.1719C36.3977 40.1719 35.2472 39.5071 35.1513 38.1328H32.8182C32.9141 40.7344 34.8509 42.1982 37.8999 42.1982C41.0384 42.1982 42.8601 40.6321 42.8665 38.3246C42.8601 36.0554 40.9872 35.0199 39.0185 34.5533L37.7912 34.2464C36.7173 33.9908 35.554 33.5369 35.5668 32.4439C35.5732 31.4595 36.4553 30.7372 37.9382 30.7372C39.3509 30.7372 40.2841 31.3956 40.4055 32.5078ZM51.1362 37.8707C51.1362 39.3665 50.0687 40.108 49.046 40.108C47.9338 40.108 47.1923 39.3217 47.1923 38.0753V32.1818H44.8784V38.4332C44.8784 40.7919 46.2207 42.1278 48.1511 42.1278C49.6213 42.1278 50.6568 41.3544 51.1042 40.255H51.2065V42H53.4501V32.1818H51.1362V37.8707ZM55.8295 42H58.1435V36.228C58.1435 34.9815 59.0831 34.0994 60.3551 34.0994C60.745 34.0994 61.2308 34.1697 61.429 34.2337V32.1051C61.218 32.0668 60.8537 32.0412 60.598 32.0412C59.473 32.0412 58.5334 32.6804 58.1754 33.8182H58.0732V32.1818H55.8295V42ZM72.035 32.1818H69.574L67.3113 39.4751H67.209L64.9526 32.1818H62.4853L65.9817 42H68.5385L72.035 32.1818ZM77.6488 42.1918C79.9371 42.1918 81.5096 41.0732 81.9187 39.3665L79.7582 39.1236C79.445 39.9545 78.6779 40.3892 77.6808 40.3892C76.185 40.3892 75.1942 39.4048 75.1751 37.7237H82.0146V37.0142C82.0146 33.5689 79.9435 32.054 77.5273 32.054C74.7148 32.054 72.8803 34.1186 72.8803 37.1484C72.8803 40.2294 74.6893 42.1918 77.6488 42.1918ZM75.1815 36.1641C75.2518 34.9112 76.1786 33.8565 77.5593 33.8565C78.8888 33.8565 79.7837 34.8281 79.7965 36.1641H75.1815ZM85.1291 45.6818C86.9316 45.6818 87.9735 44.755 88.5297 43.1889L92.4735 32.1946L89.9998 32.1818L87.7306 39.5966H87.6284L85.3656 32.1818H82.911L86.4714 42.2045L86.2733 42.7351C85.845 43.8537 85.1674 43.9304 84.1575 43.6364L83.6206 45.4389C83.9338 45.5668 84.4963 45.6818 85.1291 45.6818ZM99.9826 45.6818C101.785 45.6818 102.827 44.755 103.383 43.1889L107.327 32.1946L104.853 32.1818L102.584 39.5966H102.482L100.219 32.1818H97.7646L101.325 42.2045L101.127 42.7351C100.699 43.8537 100.021 43.9304 99.011 43.6364L98.4741 45.4389C98.7873 45.5668 99.3498 45.6818 99.9826 45.6818ZM112.882 42.1918C115.758 42.1918 117.586 40.1655 117.586 37.1293C117.586 34.0866 115.758 32.054 112.882 32.054C110.005 32.054 108.177 34.0866 108.177 37.1293C108.177 40.1655 110.005 42.1918 112.882 42.1918ZM112.895 40.3381C111.303 40.3381 110.523 38.919 110.523 37.1229C110.523 35.3267 111.303 33.8885 112.895 33.8885C114.461 33.8885 115.24 35.3267 115.24 37.1229C115.24 38.919 114.461 40.3381 112.895 40.3381ZM125.808 37.8707C125.808 39.3665 124.741 40.108 123.718 40.108C122.606 40.108 121.864 39.3217 121.864 38.0753V32.1818H119.55V38.4332C119.55 40.7919 120.893 42.1278 122.823 42.1278C124.293 42.1278 125.329 41.3544 125.776 40.255H125.878V42H128.122V32.1818H125.808V37.8707ZM130.501 42H132.815V36.228C132.815 34.9815 133.755 34.0994 135.027 34.0994C135.417 34.0994 135.903 34.1697 136.101 34.2337V32.1051C135.89 32.0668 135.526 32.0412 135.27 32.0412C134.145 32.0412 133.205 32.6804 132.847 33.8182H132.745V32.1818H130.501V42ZM147.006 32.1818H145.069V29.8295H142.755V32.1818H141.362V33.9716H142.755V39.4304C142.742 41.2777 144.085 42.1854 145.823 42.1342C146.482 42.1151 146.935 41.9872 147.185 41.9041L146.795 40.0952C146.667 40.1271 146.405 40.1847 146.117 40.1847C145.536 40.1847 145.069 39.9801 145.069 39.0469V33.9716H147.006V32.1818ZM153.182 42.1918C155.47 42.1918 157.043 41.0732 157.452 39.3665L155.291 39.1236C154.978 39.9545 154.211 40.3892 153.214 40.3892C151.718 40.3892 150.727 39.4048 150.708 37.7237H157.548V37.0142C157.548 33.5689 155.477 32.054 153.061 32.054C150.248 32.054 148.414 34.1186 148.414 37.1484C148.414 40.2294 150.222 42.1918 153.182 42.1918ZM150.715 36.1641C150.785 34.9112 151.712 33.8565 153.093 33.8565C154.422 33.8565 155.317 34.8281 155.33 36.1641H150.715ZM162.331 42.1982C163.871 42.1982 164.792 41.4759 165.213 40.6513H165.29V42H167.515V35.429C167.515 32.8338 165.399 32.054 163.526 32.054C161.461 32.054 159.876 32.9744 159.365 34.7642L161.525 35.071C161.755 34.3999 162.407 33.8246 163.539 33.8246C164.613 33.8246 165.201 34.3743 165.201 35.3395V35.3778C165.201 36.0426 164.504 36.0746 162.772 36.2599C160.867 36.4645 159.045 37.0334 159.045 39.245C159.045 41.1754 160.458 42.1982 162.331 42.1982ZM162.931 40.4979C161.966 40.4979 161.276 40.0568 161.276 39.2067C161.276 38.3182 162.049 37.9474 163.085 37.8004C163.692 37.7173 164.907 37.5639 165.207 37.321V38.478C165.207 39.571 164.325 40.4979 162.931 40.4979ZM169.841 42H172.155V36.0298C172.155 34.8217 172.961 34.0036 173.958 34.0036C174.936 34.0036 175.607 34.6619 175.607 35.6719V42H177.876V35.8764C177.876 34.7706 178.534 34.0036 179.653 34.0036C180.586 34.0036 181.328 34.5533 181.328 35.7678V42H183.648V35.4098C183.648 33.2173 182.382 32.054 180.58 32.054C179.154 32.054 178.068 32.7571 177.633 33.8501H177.531C177.154 32.7379 176.201 32.054 174.878 32.054C173.561 32.054 172.577 32.7315 172.168 33.8501H172.053V32.1818H169.841V42Z" fill="#35414B"/>
<path d="M33.4091 72H34.8182V67.75H37.3636C40.0739 67.75 41.2955 66.1023 41.2955 64.0455C41.2955 61.9886 40.0739 60.3636 37.3409 60.3636H33.4091V72ZM34.8182 66.5V61.6136H37.2955C39.1875 61.6136 39.9091 62.6477 39.9091 64.0455C39.9091 65.4432 39.1875 66.5 37.3182 66.5H34.8182ZM46.8352 72.1818C49.1989 72.1818 50.7898 70.3864 50.7898 67.6818C50.7898 64.9545 49.1989 63.1591 46.8352 63.1591C44.4716 63.1591 42.8807 64.9545 42.8807 67.6818C42.8807 70.3864 44.4716 72.1818 46.8352 72.1818ZM46.8352 70.9773C45.0398 70.9773 44.2216 69.4318 44.2216 67.6818C44.2216 65.9318 45.0398 64.3636 46.8352 64.3636C48.6307 64.3636 49.4489 65.9318 49.4489 67.6818C49.4489 69.4318 48.6307 70.9773 46.8352 70.9773ZM54.517 72H55.8352L57.7443 65.2955H57.8807L59.7898 72H61.108L63.767 63.2727H62.358L60.4716 69.9318H60.3807L58.5398 63.2727H57.108L55.2443 69.9545H55.1534L53.267 63.2727H51.858L54.517 72ZM68.902 72.1818C70.6747 72.1818 71.9702 71.2955 72.3793 69.9773L71.0838 69.6136C70.7429 70.5227 69.9531 70.9773 68.902 70.9773C67.3281 70.9773 66.2429 69.9602 66.1804 68.0909H72.5156V67.5227C72.5156 64.2727 70.5838 63.1591 68.7656 63.1591C66.402 63.1591 64.8338 65.0227 64.8338 67.7045C64.8338 70.3864 66.3793 72.1818 68.902 72.1818ZM66.1804 66.9318C66.2713 65.5739 67.2315 64.3636 68.7656 64.3636C70.2202 64.3636 71.152 65.4545 71.152 66.9318H66.1804ZM74.5554 72H75.8963V66.4773C75.8963 65.2955 76.8281 64.4318 78.1009 64.4318C78.4588 64.4318 78.8281 64.5 78.919 64.5227V63.1591C78.7656 63.1477 78.4134 63.1364 78.2145 63.1364C77.169 63.1364 76.2599 63.7273 75.9418 64.5909H75.8509V63.2727H74.5554V72ZM84.9418 63.2727H82.9872V62.3864C82.9872 61.5227 83.3509 61.0682 84.2372 61.0682C84.6236 61.0682 84.8509 61.1591 84.9872 61.2045L85.3736 60.0455C85.169 59.9545 84.7599 59.8182 84.1009 59.8182C82.8509 59.8182 81.6463 60.5682 81.6463 62.0682V63.2727H80.2372V64.4091H81.6463V72H82.9872V64.4091H84.9418V63.2727ZM92.321 68.4318C92.321 70.0682 91.071 70.8182 90.071 70.8182C88.9574 70.8182 88.1619 70 88.1619 68.7273V63.2727H86.821V68.8182C86.821 71.0455 88.0028 72.1136 89.6392 72.1136C90.9574 72.1136 91.821 71.4091 92.2301 70.5227H92.321V72H93.6619V63.2727H92.321V68.4318ZM97.4588 60.3636H96.1179V72H97.4588V60.3636ZM111.71 75.2727V63.2727H110.415V64.6591H110.256C109.96 64.2045 109.438 63.1591 107.733 63.1591C105.528 63.1591 104.006 64.9091 104.006 67.6591C104.006 70.4318 105.528 72.1818 107.71 72.1818C109.392 72.1818 109.96 71.1364 110.256 70.6591H110.369V75.2727H111.71ZM110.392 67.6364C110.392 69.6136 109.506 70.9773 107.892 70.9773C106.21 70.9773 105.347 69.5 105.347 67.6364C105.347 65.7955 106.188 64.3636 107.892 64.3636C109.528 64.3636 110.392 65.6818 110.392 67.6364ZM119.665 68.4318C119.665 70.0682 118.415 70.8182 117.415 70.8182C116.301 70.8182 115.506 70 115.506 68.7273V63.2727H114.165V68.8182C114.165 71.0455 115.347 72.1136 116.983 72.1136C118.301 72.1136 119.165 71.4091 119.574 70.5227H119.665V72H121.006V63.2727H119.665V68.4318ZM127.121 72.1818C128.893 72.1818 130.189 71.2955 130.598 69.9773L129.303 69.6136C128.962 70.5227 128.172 70.9773 127.121 70.9773C125.547 70.9773 124.462 69.9602 124.399 68.0909H130.734V67.5227C130.734 64.2727 128.803 63.1591 126.984 63.1591C124.621 63.1591 123.053 65.0227 123.053 67.7045C123.053 70.3864 124.598 72.1818 127.121 72.1818ZM124.399 66.9318C124.49 65.5739 125.45 64.3636 126.984 64.3636C128.439 64.3636 129.371 65.4545 129.371 66.9318H124.399ZM138.956 65.2273C138.536 63.9886 137.592 63.1591 135.865 63.1591C134.024 63.1591 132.661 64.2045 132.661 65.6818C132.661 66.8864 133.376 67.6932 134.979 68.0682L136.433 68.4091C137.314 68.6136 137.729 69.0341 137.729 69.6364C137.729 70.3864 136.933 71 135.683 71C134.587 71 133.899 70.5284 133.661 69.5909L132.388 69.9091C132.7 71.392 133.922 72.1818 135.706 72.1818C137.734 72.1818 139.115 71.0739 139.115 69.5682C139.115 68.3523 138.354 67.5852 136.797 67.2045L135.501 66.8864C134.467 66.6307 134.001 66.2841 134.001 65.6136C134.001 64.8636 134.797 64.3182 135.865 64.3182C137.036 64.3182 137.518 64.9659 137.751 65.5682L138.956 65.2273ZM144.929 63.2727H143.065V61.1818H141.724V63.2727H140.406V64.4091H141.724V69.8636C141.724 71.3864 142.952 72.1136 144.088 72.1136C144.588 72.1136 144.906 72.0227 145.088 71.9545L144.815 70.75C144.702 70.7727 144.52 70.8182 144.224 70.8182C143.634 70.8182 143.065 70.6364 143.065 69.5V64.4091H144.929V63.2727ZM146.946 72H148.287V63.2727H146.946V72ZM147.628 61.8182C148.151 61.8182 148.582 61.4091 148.582 60.9091C148.582 60.4091 148.151 60 147.628 60C147.105 60 146.673 60.4091 146.673 60.9091C146.673 61.4091 147.105 61.8182 147.628 61.8182ZM154.288 72.1818C156.652 72.1818 158.243 70.3864 158.243 67.6818C158.243 64.9545 156.652 63.1591 154.288 63.1591C151.925 63.1591 150.334 64.9545 150.334 67.6818C150.334 70.3864 151.925 72.1818 154.288 72.1818ZM154.288 70.9773C152.493 70.9773 151.675 69.4318 151.675 67.6818C151.675 65.9318 152.493 64.3636 154.288 64.3636C156.084 64.3636 156.902 65.9318 156.902 67.6818C156.902 69.4318 156.084 70.9773 154.288 70.9773ZM161.631 66.75C161.631 65.2273 162.574 64.3636 163.858 64.3636C165.102 64.3636 165.858 65.1761 165.858 66.5455V72H167.199V66.4545C167.199 64.2273 166.011 63.1591 164.244 63.1591C162.926 63.1591 162.108 63.75 161.699 64.6364H161.585V63.2727H160.29V72H161.631V66.75ZM175.831 65.2273C175.411 63.9886 174.467 63.1591 172.74 63.1591C170.899 63.1591 169.536 64.2045 169.536 65.6818C169.536 66.8864 170.251 67.6932 171.854 68.0682L173.308 68.4091C174.189 68.6136 174.604 69.0341 174.604 69.6364C174.604 70.3864 173.808 71 172.558 71C171.462 71 170.774 70.5284 170.536 69.5909L169.263 69.9091C169.575 71.392 170.797 72.1818 172.581 72.1818C174.609 72.1818 175.99 71.0739 175.99 69.5682C175.99 68.3523 175.229 67.5852 173.672 67.2045L172.376 66.8864C171.342 66.6307 170.876 66.2841 170.876 65.6136C170.876 64.8636 171.672 64.3182 172.74 64.3182C173.911 64.3182 174.393 64.9659 174.626 65.5682L175.831 65.2273ZM186.304 63.2727H184.44V61.1818H183.099V63.2727H181.781V64.4091H183.099V69.8636C183.099 71.3864 184.327 72.1136 185.463 72.1136C185.963 72.1136 186.281 72.0227 186.463 71.9545L186.19 70.75C186.077 70.7727 185.895 70.8182 185.599 70.8182C185.009 70.8182 184.44 70.6364 184.44 69.5V64.4091H186.304V63.2727ZM189.849 66.75C189.849 65.2273 190.821 64.3636 192.145 64.3636C193.406 64.3636 194.168 65.1591 194.168 66.5455V72H195.509V66.4545C195.509 64.2102 194.315 63.1591 192.531 63.1591C191.156 63.1591 190.372 63.733 189.963 64.6364H189.849V60.3636H188.509V72H189.849V66.75ZM200.53 72.2045C202.053 72.2045 202.848 71.3864 203.121 70.8182H203.189V72H204.53V66.25C204.53 63.4773 202.416 63.1591 201.303 63.1591C199.984 63.1591 198.484 63.6136 197.803 65.2045L199.075 65.6591C199.371 65.0227 200.07 64.3409 201.348 64.3409C202.581 64.3409 203.189 64.9943 203.189 66.1136V66.1591C203.189 66.8068 202.53 66.75 200.939 66.9545C199.32 67.1648 197.553 67.5227 197.553 69.5227C197.553 71.2273 198.871 72.2045 200.53 72.2045ZM200.734 71C199.666 71 198.893 70.5227 198.893 69.5909C198.893 68.5682 199.825 68.25 200.871 68.1136C201.439 68.0455 202.962 67.8864 203.189 67.6136V68.8409C203.189 69.9318 202.325 71 200.734 71ZM210.773 63.2727H208.909V61.1818H207.568V63.2727H206.25V64.4091H207.568V69.8636C207.568 71.3864 208.795 72.1136 209.932 72.1136C210.432 72.1136 210.75 72.0227 210.932 71.9545L210.659 70.75C210.545 70.7727 210.364 70.8182 210.068 70.8182C209.477 70.8182 208.909 70.6364 208.909 69.5V64.4091H210.773V63.2727ZM220.812 75.4545C222.903 75.4545 224.585 74.5 224.585 72.25V63.2727H223.29V64.6591H223.153C222.858 64.2045 222.312 63.1591 220.608 63.1591C218.403 63.1591 216.881 64.9091 216.881 67.5909C216.881 70.3182 218.472 71.8636 220.585 71.8636C222.29 71.8636 222.835 70.8636 223.131 70.3864H223.244V72.1591C223.244 73.6136 222.222 74.2727 220.812 74.2727C219.227 74.2727 218.67 73.4375 218.312 72.9545L217.244 73.7045C217.79 74.6193 218.864 75.4545 220.812 75.4545ZM220.767 70.6591C219.085 70.6591 218.222 69.3864 218.222 67.5682C218.222 65.7955 219.062 64.3636 220.767 64.3636C222.403 64.3636 223.267 65.6818 223.267 67.5682C223.267 69.5 222.381 70.6591 220.767 70.6591ZM230.699 72.1818C232.472 72.1818 233.767 71.2955 234.176 69.9773L232.881 69.6136C232.54 70.5227 231.75 70.9773 230.699 70.9773C229.125 70.9773 228.04 69.9602 227.977 68.0909H234.312V67.5227C234.312 64.2727 232.381 63.1591 230.562 63.1591C228.199 63.1591 226.631 65.0227 226.631 67.7045C226.631 70.3864 228.176 72.1818 230.699 72.1818ZM227.977 66.9318C228.068 65.5739 229.028 64.3636 230.562 64.3636C232.017 64.3636 232.949 65.4545 232.949 66.9318H227.977ZM240.148 63.2727H238.284V61.1818H236.943V63.2727H235.625V64.4091H236.943V69.8636C236.943 71.3864 238.17 72.1136 239.307 72.1136C239.807 72.1136 240.125 72.0227 240.307 71.9545L240.034 70.75C239.92 70.7727 239.739 70.8182 239.443 70.8182C238.852 70.8182 238.284 70.6364 238.284 69.5V64.4091H240.148V63.2727ZM250.46 63.2727H248.597V61.1818H247.256V63.2727H245.938V64.4091H247.256V69.8636C247.256 71.3864 248.483 72.1136 249.619 72.1136C250.119 72.1136 250.438 72.0227 250.619 71.9545L250.347 70.75C250.233 70.7727 250.051 70.8182 249.756 70.8182C249.165 70.8182 248.597 70.6364 248.597 69.5V64.4091H250.46V63.2727ZM255.929 72.1818C258.293 72.1818 259.884 70.3864 259.884 67.6818C259.884 64.9545 258.293 63.1591 255.929 63.1591C253.565 63.1591 251.974 64.9545 251.974 67.6818C251.974 70.3864 253.565 72.1818 255.929 72.1818ZM255.929 70.9773C254.134 70.9773 253.315 69.4318 253.315 67.6818C253.315 65.9318 254.134 64.3636 255.929 64.3636C257.724 64.3636 258.543 65.9318 258.543 67.6818C258.543 69.4318 257.724 70.9773 255.929 70.9773ZM270.226 63.2727H268.362V61.1818H267.021V63.2727H265.703V64.4091H267.021V69.8636C267.021 71.3864 268.249 72.1136 269.385 72.1136C269.885 72.1136 270.203 72.0227 270.385 71.9545L270.112 70.75C269.999 70.7727 269.817 70.8182 269.521 70.8182C268.93 70.8182 268.362 70.6364 268.362 69.5V64.4091H270.226V63.2727ZM273.771 66.75C273.771 65.2273 274.743 64.3636 276.067 64.3636C277.328 64.3636 278.089 65.1591 278.089 66.5455V72H279.43V66.4545C279.43 64.2102 278.237 63.1591 276.453 63.1591C275.078 63.1591 274.294 63.733 273.885 64.6364H273.771V60.3636H272.43V72H273.771V66.75ZM285.543 72.1818C287.315 72.1818 288.611 71.2955 289.02 69.9773L287.724 69.6136C287.384 70.5227 286.594 70.9773 285.543 70.9773C283.969 70.9773 282.884 69.9602 282.821 68.0909H289.156V67.5227C289.156 64.2727 287.224 63.1591 285.406 63.1591C283.043 63.1591 281.474 65.0227 281.474 67.7045C281.474 70.3864 283.02 72.1818 285.543 72.1818ZM282.821 66.9318C282.912 65.5739 283.872 64.3636 285.406 64.3636C286.861 64.3636 287.793 65.4545 287.793 66.9318H282.821ZM297.037 66.75C297.037 65.2273 298.009 64.3636 299.332 64.3636C300.594 64.3636 301.355 65.1591 301.355 66.5455V72H302.696V66.4545C302.696 64.2102 301.503 63.1591 299.719 63.1591C298.344 63.1591 297.56 63.733 297.151 64.6364H297.037V60.3636H295.696V72H297.037V66.75ZM308.808 72.1818C310.581 72.1818 311.876 71.2955 312.286 69.9773L310.99 69.6136C310.649 70.5227 309.859 70.9773 308.808 70.9773C307.234 70.9773 306.149 69.9602 306.087 68.0909H312.422V67.5227C312.422 64.2727 310.49 63.1591 308.672 63.1591C306.308 63.1591 304.74 65.0227 304.74 67.7045C304.74 70.3864 306.286 72.1818 308.808 72.1818ZM306.087 66.9318C306.178 65.5739 307.138 64.3636 308.672 64.3636C310.126 64.3636 311.058 65.4545 311.058 66.9318H306.087ZM317.03 72.2045C318.553 72.2045 319.348 71.3864 319.621 70.8182H319.689V72H321.03V66.25C321.03 63.4773 318.916 63.1591 317.803 63.1591C316.484 63.1591 314.984 63.6136 314.303 65.2045L315.575 65.6591C315.871 65.0227 316.57 64.3409 317.848 64.3409C319.081 64.3409 319.689 64.9943 319.689 66.1136V66.1591C319.689 66.8068 319.03 66.75 317.439 66.9545C315.82 67.1648 314.053 67.5227 314.053 69.5227C314.053 71.2273 315.371 72.2045 317.03 72.2045ZM317.234 71C316.166 71 315.393 70.5227 315.393 69.5909C315.393 68.5682 316.325 68.25 317.371 68.1136C317.939 68.0455 319.462 67.8864 319.689 67.6136V68.8409C319.689 69.9318 318.825 71 317.234 71ZM323.477 72H324.818V66.4773C324.818 65.2955 325.75 64.4318 327.023 64.4318C327.381 64.4318 327.75 64.5 327.841 64.5227V63.1591C327.688 63.1477 327.335 63.1364 327.136 63.1364C326.091 63.1364 325.182 63.7273 324.864 64.5909H324.773V63.2727H323.477V72ZM333.773 63.2727H331.909V61.1818H330.568V63.2727H329.25V64.4091H330.568V69.8636C330.568 71.3864 331.795 72.1136 332.932 72.1136C333.432 72.1136 333.75 72.0227 333.932 71.9545L333.659 70.75C333.545 70.7727 333.364 70.8182 333.068 70.8182C332.477 70.8182 331.909 70.6364 331.909 69.5V64.4091H333.773V63.2727ZM36.7727 96.1818C39.1364 96.1818 40.7273 94.3864 40.7273 91.6818C40.7273 88.9545 39.1364 87.1591 36.7727 87.1591C34.4091 87.1591 32.8182 88.9545 32.8182 91.6818C32.8182 94.3864 34.4091 96.1818 36.7727 96.1818ZM36.7727 94.9773C34.9773 94.9773 34.1591 93.4318 34.1591 91.6818C34.1591 89.9318 34.9773 88.3636 36.7727 88.3636C38.5682 88.3636 39.3864 89.9318 39.3864 91.6818C39.3864 93.4318 38.5682 94.9773 36.7727 94.9773ZM46.6605 87.2727H44.706V86.3864C44.706 85.5227 45.0696 85.0682 45.956 85.0682C46.3423 85.0682 46.5696 85.1591 46.706 85.2045L47.0923 84.0455C46.8878 83.9545 46.4787 83.8182 45.8196 83.8182C44.5696 83.8182 43.3651 84.5682 43.3651 86.0682V87.2727H41.956V88.4091H43.3651V96H44.706V88.4091H46.6605V87.2727ZM54.3807 90.75C54.3807 89.2273 55.3523 88.3636 56.6761 88.3636C57.9375 88.3636 58.6989 89.1591 58.6989 90.5455V96H60.0398V90.4545C60.0398 88.2102 58.8466 87.1591 57.0625 87.1591C55.6875 87.1591 54.9034 87.733 54.4943 88.6364H54.3807V84.3636H53.0398V96H54.3807V90.75ZM66.0384 96.1818C68.402 96.1818 69.9929 94.3864 69.9929 91.6818C69.9929 88.9545 68.402 87.1591 66.0384 87.1591C63.6747 87.1591 62.0838 88.9545 62.0838 91.6818C62.0838 94.3864 63.6747 96.1818 66.0384 96.1818ZM66.0384 94.9773C64.2429 94.9773 63.4247 93.4318 63.4247 91.6818C63.4247 89.9318 64.2429 88.3636 66.0384 88.3636C67.8338 88.3636 68.652 89.9318 68.652 91.6818C68.652 93.4318 67.8338 94.9773 66.0384 94.9773ZM73.7202 96H75.0384L76.9474 89.2955H77.0838L78.9929 96H80.3111L82.9702 87.2727H81.5611L79.6747 93.9318H79.5838L77.7429 87.2727H76.3111L74.4474 93.9545H74.3565L72.4702 87.2727H71.0611L73.7202 96ZM93.0384 87.2727H91.1747V85.1818H89.8338V87.2727H88.5156V88.4091H89.8338V93.8636C89.8338 95.3864 91.0611 96.1136 92.1974 96.1136C92.6974 96.1136 93.0156 96.0227 93.1974 95.9545L92.9247 94.75C92.8111 94.7727 92.6293 94.8182 92.3338 94.8182C91.7429 94.8182 91.1747 94.6364 91.1747 93.5V88.4091H93.0384V87.2727ZM98.6207 96.1818C100.393 96.1818 101.689 95.2955 102.098 93.9773L100.803 93.6136C100.462 94.5227 99.6719 94.9773 98.6207 94.9773C97.0469 94.9773 95.9616 93.9602 95.8991 92.0909H102.234V91.5227C102.234 88.2727 100.303 87.1591 98.4844 87.1591C96.1207 87.1591 94.5526 89.0227 94.5526 91.7045C94.5526 94.3864 96.098 96.1818 98.6207 96.1818ZM95.8991 90.9318C95.9901 89.5739 96.9503 88.3636 98.4844 88.3636C99.9389 88.3636 100.871 89.4545 100.871 90.9318H95.8991ZM106.842 96.2045C108.365 96.2045 109.161 95.3864 109.433 94.8182H109.501V96H110.842V90.25C110.842 87.4773 108.729 87.1591 107.615 87.1591C106.297 87.1591 104.797 87.6136 104.115 89.2045L105.388 89.6591C105.683 89.0227 106.382 88.3409 107.661 88.3409C108.893 88.3409 109.501 88.9943 109.501 90.1136V90.1591C109.501 90.8068 108.842 90.75 107.251 90.9545C105.632 91.1648 103.865 91.5227 103.865 93.5227C103.865 95.2273 105.183 96.2045 106.842 96.2045ZM107.047 95C105.979 95 105.206 94.5227 105.206 93.5909C105.206 92.5682 106.138 92.25 107.183 92.1136C107.751 92.0455 109.274 91.8864 109.501 91.6136V92.8409C109.501 93.9318 108.638 95 107.047 95ZM113.29 96H114.631V90.5455C114.631 89.267 115.562 88.3636 116.608 88.3636C117.625 88.3636 118.335 89.0284 118.335 90.0227V96H119.699V90.3182C119.699 89.1932 120.403 88.3636 121.631 88.3636C122.585 88.3636 123.403 88.8693 123.403 90.1591V96H124.744V90.1591C124.744 88.108 123.642 87.1591 122.085 87.1591C120.835 87.1591 119.92 87.733 119.472 88.6364H119.381C118.949 87.7045 118.188 87.1591 117.04 87.1591C115.903 87.1591 115.062 87.7045 114.699 88.6364H114.585V87.2727H113.29V96ZM131.696 96H133.037V90.5455C133.037 89.267 133.969 88.3636 135.014 88.3636C136.031 88.3636 136.741 89.0284 136.741 90.0227V96H138.105V90.3182C138.105 89.1932 138.81 88.3636 140.037 88.3636C140.991 88.3636 141.81 88.8693 141.81 90.1591V96H143.151V90.1591C143.151 88.108 142.048 87.1591 140.491 87.1591C139.241 87.1591 138.327 87.733 137.878 88.6364H137.787C137.355 87.7045 136.594 87.1591 135.446 87.1591C134.31 87.1591 133.469 87.7045 133.105 88.6364H132.991V87.2727H131.696V96ZM149.261 96.1818C151.034 96.1818 152.33 95.2955 152.739 93.9773L151.443 93.6136C151.102 94.5227 150.312 94.9773 149.261 94.9773C147.688 94.9773 146.602 93.9602 146.54 92.0909H152.875V91.5227C152.875 88.2727 150.943 87.1591 149.125 87.1591C146.761 87.1591 145.193 89.0227 145.193 91.7045C145.193 94.3864 146.739 96.1818 149.261 96.1818ZM146.54 90.9318C146.631 89.5739 147.591 88.3636 149.125 88.3636C150.58 88.3636 151.511 89.4545 151.511 90.9318H146.54ZM154.915 96H156.256V90.5455C156.256 89.267 157.188 88.3636 158.233 88.3636C159.25 88.3636 159.96 89.0284 159.96 90.0227V96H161.324V90.3182C161.324 89.1932 162.028 88.3636 163.256 88.3636C164.21 88.3636 165.028 88.8693 165.028 90.1591V96H166.369V90.1591C166.369 88.108 165.267 87.1591 163.71 87.1591C162.46 87.1591 161.545 87.733 161.097 88.6364H161.006C160.574 87.7045 159.812 87.1591 158.665 87.1591C157.528 87.1591 156.688 87.7045 156.324 88.6364H156.21V87.2727H154.915V96ZM169.003 96H170.298V94.6591H170.457C170.753 95.1364 171.321 96.1818 173.003 96.1818C175.185 96.1818 176.707 94.4318 176.707 91.6591C176.707 88.9091 175.185 87.1591 172.98 87.1591C171.276 87.1591 170.753 88.2045 170.457 88.6591H170.344V84.3636H169.003V96ZM170.321 91.6364C170.321 89.6818 171.185 88.3636 172.821 88.3636C174.526 88.3636 175.366 89.7955 175.366 91.6364C175.366 93.5 174.503 94.9773 172.821 94.9773C171.207 94.9773 170.321 93.6136 170.321 91.6364ZM182.418 96.1818C184.19 96.1818 185.486 95.2955 185.895 93.9773L184.599 93.6136C184.259 94.5227 183.469 94.9773 182.418 94.9773C180.844 94.9773 179.759 93.9602 179.696 92.0909H186.031V91.5227C186.031 88.2727 184.099 87.1591 182.281 87.1591C179.918 87.1591 178.349 89.0227 178.349 91.7045C178.349 94.3864 179.895 96.1818 182.418 96.1818ZM179.696 90.9318C179.787 89.5739 180.747 88.3636 182.281 88.3636C183.736 88.3636 184.668 89.4545 184.668 90.9318H179.696ZM188.071 96H189.412V90.4773C189.412 89.2955 190.344 88.4318 191.616 88.4318C191.974 88.4318 192.344 88.5 192.435 88.5227V87.1591C192.281 87.1477 191.929 87.1364 191.73 87.1364C190.685 87.1364 189.776 87.7273 189.457 88.5909H189.366V87.2727H188.071V96ZM200.206 89.2273C199.786 87.9886 198.842 87.1591 197.115 87.1591C195.274 87.1591 193.911 88.2045 193.911 89.6818C193.911 90.8864 194.626 91.6932 196.229 92.0682L197.683 92.4091C198.564 92.6136 198.979 93.0341 198.979 93.6364C198.979 94.3864 198.183 95 196.933 95C195.837 95 195.149 94.5284 194.911 93.5909L193.638 93.9091C193.95 95.392 195.172 96.1818 196.956 96.1818C198.984 96.1818 200.365 95.0739 200.365 93.5682C200.365 92.3523 199.604 91.5852 198.047 91.2045L196.751 90.8864C195.717 90.6307 195.251 90.2841 195.251 89.6136C195.251 88.8636 196.047 88.3182 197.115 88.3182C198.286 88.3182 198.768 88.9659 199.001 89.5682L200.206 89.2273ZM206.884 96H208.224V90.4773C208.224 89.2955 209.156 88.4318 210.429 88.4318C210.787 88.4318 211.156 88.5 211.247 88.5227V87.1591C211.094 87.1477 210.741 87.1364 210.543 87.1364C209.497 87.1364 208.588 87.7273 208.27 88.5909H208.179V87.2727H206.884V96ZM216.23 96.1818C218.003 96.1818 219.298 95.2955 219.707 93.9773L218.412 93.6136C218.071 94.5227 217.281 94.9773 216.23 94.9773C214.656 94.9773 213.571 93.9602 213.509 92.0909H219.844V91.5227C219.844 88.2727 217.912 87.1591 216.094 87.1591C213.73 87.1591 212.162 89.0227 212.162 91.7045C212.162 94.3864 213.707 96.1818 216.23 96.1818ZM213.509 90.9318C213.599 89.5739 214.56 88.3636 216.094 88.3636C217.548 88.3636 218.48 89.4545 218.48 90.9318H213.509ZM224.452 96.2045C225.974 96.2045 226.77 95.3864 227.043 94.8182H227.111V96H228.452V90.25C228.452 87.4773 226.338 87.1591 225.224 87.1591C223.906 87.1591 222.406 87.6136 221.724 89.2045L222.997 89.6591C223.293 89.0227 223.991 88.3409 225.27 88.3409C226.503 88.3409 227.111 88.9943 227.111 90.1136V90.1591C227.111 90.8068 226.452 90.75 224.861 90.9545C223.241 91.1648 221.474 91.5227 221.474 93.5227C221.474 95.2273 222.793 96.2045 224.452 96.2045ZM224.656 95C223.588 95 222.815 94.5227 222.815 93.5909C222.815 92.5682 223.747 92.25 224.793 92.1136C225.361 92.0455 226.884 91.8864 227.111 91.6136V92.8409C227.111 93.9318 226.247 95 224.656 95ZM232.24 84.3636H230.899V96H232.24V84.3636ZM236.037 84.3636H234.696V96H236.037V84.3636ZM239.357 99.2727C240.567 99.2727 241.419 98.6307 241.925 97.2727L245.641 87.2955L244.175 87.2727L241.766 94.2273H241.675L239.266 87.2727H237.811L241.038 96.0455L240.788 96.7273C240.3 98.0568 239.697 98.1818 238.72 97.9318L238.379 99.1136C238.516 99.1818 238.902 99.2727 239.357 99.2727ZM255.801 87.2727H253.847V86.3864C253.847 85.5227 254.21 85.0682 255.097 85.0682C255.483 85.0682 255.71 85.1591 255.847 85.2045L256.233 84.0455C256.028 83.9545 255.619 83.8182 254.96 83.8182C253.71 83.8182 252.506 84.5682 252.506 86.0682V87.2727H251.097V88.4091H252.506V96H253.847V88.4091H255.801V87.2727ZM260.98 96.1818C262.753 96.1818 264.048 95.2955 264.457 93.9773L263.162 93.6136C262.821 94.5227 262.031 94.9773 260.98 94.9773C259.406 94.9773 258.321 93.9602 258.259 92.0909H264.594V91.5227C264.594 88.2727 262.662 87.1591 260.844 87.1591C258.48 87.1591 256.912 89.0227 256.912 91.7045C256.912 94.3864 258.457 96.1818 260.98 96.1818ZM258.259 90.9318C258.349 89.5739 259.31 88.3636 260.844 88.3636C262.298 88.3636 263.23 89.4545 263.23 90.9318H258.259ZM270.293 96.1818C272.065 96.1818 273.361 95.2955 273.77 93.9773L272.474 93.6136C272.134 94.5227 271.344 94.9773 270.293 94.9773C268.719 94.9773 267.634 93.9602 267.571 92.0909H273.906V91.5227C273.906 88.2727 271.974 87.1591 270.156 87.1591C267.793 87.1591 266.224 89.0227 266.224 91.7045C266.224 94.3864 267.77 96.1818 270.293 96.1818ZM267.571 90.9318C267.662 89.5739 268.622 88.3636 270.156 88.3636C271.611 88.3636 272.543 89.4545 272.543 90.9318H267.571ZM277.287 84.3636H275.946V96H277.287V84.3636ZM280.72 96.0909C281.283 96.0909 281.743 95.6307 281.743 95.0682C281.743 94.5057 281.283 94.0455 280.72 94.0455C280.158 94.0455 279.697 94.5057 279.697 95.0682C279.697 95.6307 280.158 96.0909 280.72 96.0909Z" fill="#4E5A65"/>
</svg>
