<svg width="306" height="162" viewBox="0 0 306 162" fill="none" xmlns="http://www.w3.org/2000/svg">
<circle cx="32" cy="32" r="32" fill="#FEF6EE"/>
<g clip-path="url(#clip0_759_156)">
<path d="M23 31.2C23.6051 31.2 24.1527 30.9572 24.5574 30.5673L26.7775 31.6773C26.7664 31.7677 26.75 31.8566 26.75 31.95C26.75 33.1906 27.7594 34.2 29 34.2C30.2406 34.2 31.25 33.1906 31.25 31.95C31.25 31.6037 31.1648 31.2794 31.0244 30.9861L34.0361 27.9744C34.3295 28.1148 34.6537 28.2 35 28.2C36.2406 28.2 37.25 27.1906 37.25 25.95C37.25 25.7164 37.2041 25.4955 37.1377 25.2835L39.7545 23.3214C40.1115 23.5599 40.5395 23.7 41 23.7C42.2406 23.7 43.25 22.6906 43.25 21.45C43.25 20.2093 42.2406 19.2 41 19.2C39.7594 19.2 38.75 20.2093 38.75 21.45C38.75 21.6835 38.7959 21.9044 38.8623 22.1164L36.2455 24.0785C35.8885 23.84 35.4605 23.7 35 23.7C33.7594 23.7 32.75 24.7093 32.75 25.95C32.75 26.2962 32.8352 26.6205 32.9756 26.9138L29.9639 29.9255C29.6705 29.7851 29.3463 29.7 29 29.7C28.3949 29.7 27.8473 29.9427 27.4426 30.3326L25.2225 29.2226C25.2336 29.1322 25.25 29.0433 25.25 28.95C25.25 27.7093 24.2406 26.7 23 26.7C21.7594 26.7 20.75 27.7093 20.75 28.95C20.75 30.1906 21.7594 31.2 23 31.2Z" fill="#F49C4E"/>
<path d="M44.05 43.3H43.25V27.45C43.25 27.0355 42.9145 26.7 42.5 26.7H39.5C39.0856 26.7 38.75 27.0355 38.75 27.45V43.3H37.25V31.95C37.25 31.5355 36.9145 31.2 36.5 31.2H33.5C33.0856 31.2 32.75 31.5355 32.75 31.95V43.3H31.25V37.95C31.25 37.5355 30.9145 37.2 30.5 37.2H27.5C27.0856 37.2 26.75 37.5355 26.75 37.95V43.3H25.25V34.95C25.25 34.5355 24.9145 34.2 24.5 34.2H21.5C21.0856 34.2 20.75 34.5355 20.75 34.95V43.3H19.95C19.5356 43.3 19.2 43.6355 19.2 44.05C19.2 44.4644 19.5356 44.8 19.95 44.8H44.05C44.4645 44.8 44.8 44.4644 44.8 44.05C44.8 43.6355 44.4645 43.3 44.05 43.3Z" fill="#F49C4E"/>
</g>
<path d="M0.715909 92.897H4.76207V104H7.11435V92.897H11.1605V90.9091H0.715909V92.897ZM15.9945 104.192C18.2828 104.192 19.8553 103.073 20.2644 101.366L18.1039 101.124C17.7907 101.955 17.0236 102.389 16.0265 102.389C14.5307 102.389 13.54 101.405 13.5208 99.7237H20.3603V99.0142C20.3603 95.5689 18.2892 94.054 15.873 94.054C13.0605 94.054 11.226 96.1186 11.226 99.1484C11.226 102.229 13.035 104.192 15.9945 104.192ZM13.5272 98.1641C13.5975 96.9112 14.5243 95.8565 15.905 95.8565C17.2346 95.8565 18.1294 96.8281 18.1422 98.1641H13.5272ZM25.1431 104.198C26.6836 104.198 27.604 103.476 28.0259 102.651H28.1026V104H30.3271V97.429C30.3271 94.8338 28.2113 94.054 26.3384 94.054C24.2738 94.054 22.6886 94.9744 22.1772 96.7642L24.3377 97.071C24.5678 96.3999 25.2198 95.8246 26.3512 95.8246C27.4251 95.8246 28.0131 96.3743 28.0131 97.3395V97.3778C28.0131 98.0426 27.3164 98.0746 25.5842 98.2599C23.6793 98.4645 21.8576 99.0334 21.8576 101.245C21.8576 103.175 23.2702 104.198 25.1431 104.198ZM25.744 102.498C24.7788 102.498 24.0884 102.057 24.0884 101.207C24.0884 100.318 24.8619 99.9474 25.8974 99.8004C26.5046 99.7173 27.7191 99.5639 28.0195 99.321V100.478C28.0195 101.571 27.1374 102.498 25.744 102.498ZM32.6538 104H34.9677V98.0298C34.9677 96.8217 35.7731 96.0036 36.7702 96.0036C37.7482 96.0036 38.4194 96.6619 38.4194 97.6719V104H40.6886V97.8764C40.6886 96.7706 41.3469 96.0036 42.4656 96.0036C43.3988 96.0036 44.1403 96.5533 44.1403 97.7678V104H46.4606V97.4098C46.4606 95.2173 45.195 94.054 43.3924 94.054C41.967 94.054 40.8803 94.7571 40.4457 95.8501H40.3434C39.9663 94.7379 39.0138 94.054 37.6907 94.054C36.3739 94.054 35.3896 94.7315 34.9805 95.8501H34.8654V94.1818H32.6538V104ZM60.4895 94.5078H62.7715C62.7267 92.2962 60.8411 90.7301 58.0542 90.7301C55.3056 90.7301 53.2409 92.277 53.2473 94.5909C53.2473 96.4702 54.5833 97.5504 56.7374 98.1065L58.2267 98.4901C59.6394 98.848 60.5726 99.2891 60.579 100.305C60.5726 101.424 59.5115 102.172 57.9647 102.172C56.4817 102.172 55.3311 101.507 55.2353 100.133H52.9022C52.998 102.734 54.9348 104.198 57.9838 104.198C61.1223 104.198 62.9441 102.632 62.9505 100.325C62.9441 98.0554 61.0712 97.0199 59.1025 96.5533L57.8752 96.2464C56.8013 95.9908 55.638 95.5369 55.6507 94.4439C55.6571 93.4595 56.5392 92.7372 58.0222 92.7372C59.4348 92.7372 60.3681 93.3956 60.4895 94.5078ZM71.2202 99.8707C71.2202 101.366 70.1527 102.108 69.13 102.108C68.0178 102.108 67.2763 101.322 67.2763 100.075V94.1818H64.9624V100.433C64.9624 102.792 66.3047 104.128 68.2351 104.128C69.7053 104.128 70.7408 103.354 71.1882 102.255H71.2905V104H73.5341V94.1818H71.2202V99.8707ZM75.9135 104H78.2275V98.228C78.2275 96.9815 79.1671 96.0994 80.4391 96.0994C80.829 96.0994 81.3148 96.1697 81.513 96.2337V94.1051C81.302 94.0668 80.9377 94.0412 80.682 94.0412C79.557 94.0412 78.6174 94.6804 78.2594 95.8182H78.1571V94.1818H75.9135V104ZM92.119 94.1818H89.658L87.3952 101.475H87.293L85.0366 94.1818H82.5692L86.0657 104H88.6225L92.119 94.1818ZM97.7328 104.192C100.021 104.192 101.594 103.073 102.003 101.366L99.8422 101.124C99.5289 101.955 98.7619 102.389 97.7647 102.389C96.269 102.389 95.2782 101.405 95.2591 99.7237H102.099V99.0142C102.099 95.5689 100.028 94.054 97.6113 94.054C94.7988 94.054 92.9643 96.1186 92.9643 99.1484C92.9643 102.229 94.7733 104.192 97.7328 104.192ZM95.2654 98.1641C95.3358 96.9112 96.2626 95.8565 97.6433 95.8565C98.9728 95.8565 99.8677 96.8281 99.8805 98.1641H95.2654ZM105.213 107.682C107.016 107.682 108.058 106.755 108.614 105.189L112.558 94.1946L110.084 94.1818L107.815 101.597H107.712L105.45 94.1818H102.995L106.555 104.205L106.357 104.735C105.929 105.854 105.251 105.93 104.241 105.636L103.705 107.439C104.018 107.567 104.58 107.682 105.213 107.682ZM121.923 96.777C121.604 95.1151 120.274 94.054 117.973 94.054C115.608 94.054 113.997 95.2173 114.004 97.0327C113.997 98.4645 114.879 99.4105 116.765 99.8004L118.44 100.152C119.341 100.35 119.763 100.714 119.763 101.271C119.763 101.942 119.034 102.447 117.935 102.447C116.874 102.447 116.183 101.987 115.985 101.104L113.729 101.322C114.017 103.124 115.531 104.192 117.941 104.192C120.396 104.192 122.128 102.92 122.134 101.06C122.128 99.6598 121.227 98.8033 119.373 98.4006L117.698 98.0426C116.701 97.8189 116.305 97.4737 116.311 96.9048C116.305 96.2401 117.04 95.7798 118.005 95.7798C119.073 95.7798 119.635 96.3615 119.814 97.0071L121.923 96.777ZM132.419 104.192C133.576 104.192 134.861 103.834 135.775 103.041L136.612 104H139.118L137.2 101.756C137.84 100.9 138.338 99.6278 138.338 97.8317H136.35C136.35 98.6946 136.146 99.468 135.801 100.114L133.41 97.3139L134.235 96.7067C135.328 95.9141 135.973 94.9616 135.973 93.7216C135.973 92.1236 134.714 90.7493 132.649 90.7493C130.578 90.7493 129.217 92.1236 129.217 93.9837C129.217 95.1534 129.805 96.1058 130.559 97.0391C129.102 98.0426 128.105 98.9822 128.105 100.523C128.105 102.607 129.741 104.192 132.419 104.192ZM134.516 101.597C133.896 102.044 133.186 102.287 132.49 102.287C131.205 102.287 130.374 101.456 130.374 100.42C130.374 99.9666 130.719 99.2827 131.588 98.6435L131.799 98.4901L134.516 101.597ZM132.227 95.9013C131.678 95.2237 131.281 94.6165 131.281 94.0156C131.281 93.3061 131.844 92.6477 132.681 92.6477C133.506 92.6477 134.011 93.2614 134.011 93.8239C134.011 94.4886 133.653 94.9553 132.969 95.3963L132.227 95.9013ZM145.01 104H147.381V99.206H149.798L152.367 104H155.013L152.182 98.8097C153.722 98.1896 154.534 96.8729 154.534 95.0959C154.534 92.5966 152.923 90.9091 149.919 90.9091H145.01V104ZM147.381 97.2372V92.8906H149.555C151.325 92.8906 152.118 93.7024 152.118 95.0959C152.118 96.4893 151.325 97.2372 149.567 97.2372H147.381ZM160.821 104.192C163.109 104.192 164.681 103.073 165.091 101.366L162.93 101.124C162.617 101.955 161.85 102.389 160.853 102.389C159.357 102.389 158.366 101.405 158.347 99.7237H165.186V99.0142C165.186 95.5689 163.115 94.054 160.699 94.054C157.887 94.054 156.052 96.1186 156.052 99.1484C156.052 102.229 157.861 104.192 160.821 104.192ZM158.353 98.1641C158.424 96.9112 159.35 95.8565 160.731 95.8565C162.061 95.8565 162.956 96.8281 162.968 98.1641H158.353ZM167.144 107.682H169.458V102.453H169.554C169.918 103.169 170.679 104.173 172.366 104.173C174.68 104.173 176.412 102.338 176.412 99.1037C176.412 95.831 174.629 94.054 172.36 94.054C170.628 94.054 169.905 95.0959 169.554 95.8054H169.42V94.1818H167.144V107.682ZM169.413 99.0909C169.413 97.1861 170.231 95.9524 171.721 95.9524C173.261 95.9524 174.054 97.2628 174.054 99.0909C174.054 100.932 173.248 102.274 171.721 102.274C170.244 102.274 169.413 100.996 169.413 99.0909ZM182.677 104.192C185.553 104.192 187.381 102.165 187.381 99.1293C187.381 96.0866 185.553 94.054 182.677 94.054C179.8 94.054 177.972 96.0866 177.972 99.1293C177.972 102.165 179.8 104.192 182.677 104.192ZM182.689 102.338C181.098 102.338 180.318 100.919 180.318 99.1229C180.318 97.3267 181.098 95.8885 182.689 95.8885C184.256 95.8885 185.035 97.3267 185.035 99.1229C185.035 100.919 184.256 102.338 182.689 102.338ZM189.345 104H191.659V98.228C191.659 96.9815 192.599 96.0994 193.871 96.0994C194.261 96.0994 194.746 96.1697 194.945 96.2337V94.1051C194.734 94.0668 194.369 94.0412 194.114 94.0412C192.989 94.0412 192.049 94.6804 191.691 95.8182H191.589V94.1818H189.345V104ZM201.912 94.1818H199.975V91.8295H197.661V94.1818H196.268V95.9716H197.661V101.43C197.648 103.278 198.991 104.185 200.729 104.134C201.388 104.115 201.842 103.987 202.091 103.904L201.701 102.095C201.573 102.127 201.311 102.185 201.023 102.185C200.442 102.185 199.975 101.98 199.975 101.047V95.9716H201.912V94.1818ZM211.466 96.777C211.147 95.1151 209.817 94.054 207.516 94.054C205.151 94.054 203.54 95.2173 203.547 97.0327C203.54 98.4645 204.422 99.4105 206.308 99.8004L207.983 100.152C208.884 100.35 209.306 100.714 209.306 101.271C209.306 101.942 208.577 102.447 207.478 102.447C206.417 102.447 205.726 101.987 205.528 101.104L203.272 101.322C203.559 103.124 205.074 104.192 207.484 104.192C209.939 104.192 211.671 102.92 211.677 101.06C211.671 99.6598 210.77 98.8033 208.916 98.4006L207.241 98.0426C206.244 97.8189 205.848 97.4737 205.854 96.9048C205.848 96.2401 206.583 95.7798 207.548 95.7798C208.616 95.7798 209.178 96.3615 209.357 97.0071L211.466 96.777Z" fill="#35414B"/>
<path d="M7.77273 123.273H9.13636C9.07386 121.517 7.45455 120.205 5.20455 120.205C2.97727 120.205 1.22727 121.5 1.22727 123.455C1.22727 125.023 2.36364 125.955 4.18182 126.477L5.61364 126.886C6.84091 127.227 7.93182 127.659 7.93182 128.818C7.93182 130.091 6.70455 130.932 5.09091 130.932C3.70455 130.932 2.47727 130.318 2.36364 129H0.909091C1.04545 130.909 2.59091 132.205 5.09091 132.205C7.77273 132.205 9.29545 130.727 9.29545 128.841C9.29545 126.659 7.22727 125.955 6.02273 125.636L4.84091 125.318C3.97727 125.091 2.59091 124.636 2.59091 123.386C2.59091 122.273 3.61364 121.455 5.15909 121.455C6.56818 121.455 7.63636 122.125 7.77273 123.273ZM12.7713 126.75C12.7713 125.227 13.7429 124.364 15.0668 124.364C16.3281 124.364 17.0895 125.159 17.0895 126.545V132H18.4304V126.455C18.4304 124.21 17.2372 123.159 15.4531 123.159C14.0781 123.159 13.294 123.733 12.8849 124.636H12.7713V120.364H11.4304V132H12.7713V126.75ZM24.429 132.182C26.7926 132.182 28.3835 130.386 28.3835 127.682C28.3835 124.955 26.7926 123.159 24.429 123.159C22.0653 123.159 20.4744 124.955 20.4744 127.682C20.4744 130.386 22.0653 132.182 24.429 132.182ZM24.429 130.977C22.6335 130.977 21.8153 129.432 21.8153 127.682C21.8153 125.932 22.6335 124.364 24.429 124.364C26.2244 124.364 27.0426 125.932 27.0426 127.682C27.0426 129.432 26.2244 130.977 24.429 130.977ZM30.4304 132H31.7713V126.477C31.7713 125.295 32.7031 124.432 33.9759 124.432C34.3338 124.432 34.7031 124.5 34.794 124.523V123.159C34.6406 123.148 34.2884 123.136 34.0895 123.136C33.044 123.136 32.1349 123.727 31.8168 124.591H31.7259V123.273H30.4304V132ZM40.7259 123.273H38.8622V121.182H37.5213V123.273H36.2031V124.409H37.5213V129.864C37.5213 131.386 38.7486 132.114 39.8849 132.114C40.3849 132.114 40.7031 132.023 40.8849 131.955L40.6122 130.75C40.4986 130.773 40.3168 130.818 40.0213 130.818C39.4304 130.818 38.8622 130.636 38.8622 129.5V124.409H40.7259V123.273ZM44.7429 130.409H43.2884L43.2202 131.045C43.0554 132.585 42.7315 134.119 42.5838 134.841H43.6065C43.8793 134.068 44.4588 132.318 44.652 131.023L44.7429 130.409ZM54.2955 132.205C55.8182 132.205 56.6136 131.386 56.8864 130.818H56.9545V132H58.2955V126.25C58.2955 123.477 56.1818 123.159 55.0682 123.159C53.75 123.159 52.25 123.614 51.5682 125.205L52.8409 125.659C53.1364 125.023 53.8352 124.341 55.1136 124.341C56.3466 124.341 56.9545 124.994 56.9545 126.114V126.159C56.9545 126.807 56.2955 126.75 54.7045 126.955C53.0852 127.165 51.3182 127.523 51.3182 129.523C51.3182 131.227 52.6364 132.205 54.2955 132.205ZM54.5 131C53.4318 131 52.6591 130.523 52.6591 129.591C52.6591 128.568 53.5909 128.25 54.6364 128.114C55.2045 128.045 56.7273 127.886 56.9545 127.614V128.841C56.9545 129.932 56.0909 131 54.5 131ZM62.0838 126.75C62.0838 125.227 63.027 124.364 64.3111 124.364C65.5554 124.364 66.3111 125.176 66.3111 126.545V132H67.652V126.455C67.652 124.227 66.4645 123.159 64.6974 123.159C63.3793 123.159 62.5611 123.75 62.152 124.636H62.0384V123.273H60.7429V132H62.0838V126.75ZM73.6477 132.182C76.0114 132.182 77.6023 130.386 77.6023 127.682C77.6023 124.955 76.0114 123.159 73.6477 123.159C71.2841 123.159 69.6932 124.955 69.6932 127.682C69.6932 130.386 71.2841 132.182 73.6477 132.182ZM73.6477 130.977C71.8523 130.977 71.0341 129.432 71.0341 127.682C71.0341 125.932 71.8523 124.364 73.6477 124.364C75.4432 124.364 76.2614 125.932 76.2614 127.682C76.2614 129.432 75.4432 130.977 73.6477 130.977ZM80.9901 126.75C80.9901 125.227 81.9332 124.364 83.2173 124.364C84.4616 124.364 85.2173 125.176 85.2173 126.545V132H86.5582V126.455C86.5582 124.227 85.3707 123.159 83.6037 123.159C82.2855 123.159 81.4673 123.75 81.0582 124.636H80.9446V123.273H79.6491V132H80.9901V126.75ZM89.5597 135.273C90.7699 135.273 91.6222 134.631 92.1278 133.273L95.8438 123.295L94.3778 123.273L91.9688 130.227H91.8778L89.4688 123.273H88.0142L91.2415 132.045L90.9915 132.727C90.5028 134.057 89.9006 134.182 88.9233 133.932L88.5824 135.114C88.7188 135.182 89.1051 135.273 89.5597 135.273ZM97.6179 132H98.9588V126.545C98.9588 125.267 99.8906 124.364 100.936 124.364C101.953 124.364 102.663 125.028 102.663 126.023V132H104.027V126.318C104.027 125.193 104.732 124.364 105.959 124.364C106.913 124.364 107.732 124.869 107.732 126.159V132H109.072V126.159C109.072 124.108 107.97 123.159 106.413 123.159C105.163 123.159 104.249 123.733 103.8 124.636H103.709C103.277 123.705 102.516 123.159 101.368 123.159C100.232 123.159 99.3906 123.705 99.027 124.636H98.9134V123.273H97.6179V132ZM115.07 132.182C117.433 132.182 119.024 130.386 119.024 127.682C119.024 124.955 117.433 123.159 115.07 123.159C112.706 123.159 111.115 124.955 111.115 127.682C111.115 130.386 112.706 132.182 115.07 132.182ZM115.07 130.977C113.274 130.977 112.456 129.432 112.456 127.682C112.456 125.932 113.274 124.364 115.07 124.364C116.865 124.364 117.683 125.932 117.683 127.682C117.683 129.432 116.865 130.977 115.07 130.977ZM126.571 128.432C126.571 130.068 125.321 130.818 124.321 130.818C123.207 130.818 122.412 130 122.412 128.727V123.273H121.071V128.818C121.071 131.045 122.253 132.114 123.889 132.114C125.207 132.114 126.071 131.409 126.48 130.523H126.571V132H127.912V123.273H126.571V128.432ZM136.55 125.227C136.129 123.989 135.186 123.159 133.459 123.159C131.618 123.159 130.254 124.205 130.254 125.682C130.254 126.886 130.97 127.693 132.572 128.068L134.027 128.409C134.908 128.614 135.322 129.034 135.322 129.636C135.322 130.386 134.527 131 133.277 131C132.18 131 131.493 130.528 131.254 129.591L129.982 129.909C130.294 131.392 131.516 132.182 133.3 132.182C135.328 132.182 136.709 131.074 136.709 129.568C136.709 128.352 135.947 127.585 134.391 127.205L133.095 126.886C132.061 126.631 131.595 126.284 131.595 125.614C131.595 124.864 132.391 124.318 133.459 124.318C134.629 124.318 135.112 124.966 135.345 125.568L136.55 125.227ZM149.409 125.227C148.989 123.989 148.045 123.159 146.318 123.159C144.477 123.159 143.114 124.205 143.114 125.682C143.114 126.886 143.83 127.693 145.432 128.068L146.886 128.409C147.767 128.614 148.182 129.034 148.182 129.636C148.182 130.386 147.386 131 146.136 131C145.04 131 144.352 130.528 144.114 129.591L142.841 129.909C143.153 131.392 144.375 132.182 146.159 132.182C148.188 132.182 149.568 131.074 149.568 129.568C149.568 128.352 148.807 127.585 147.25 127.205L145.955 126.886C144.92 126.631 144.455 126.284 144.455 125.614C144.455 124.864 145.25 124.318 146.318 124.318C147.489 124.318 147.972 124.966 148.205 125.568L149.409 125.227ZM157.087 128.432C157.087 130.068 155.837 130.818 154.837 130.818C153.723 130.818 152.928 130 152.928 128.727V123.273H151.587V128.818C151.587 131.045 152.768 132.114 154.405 132.114C155.723 132.114 156.587 131.409 156.996 130.523H157.087V132H158.428V123.273H157.087V128.432ZM160.884 132H162.224V126.477C162.224 125.295 163.156 124.432 164.429 124.432C164.787 124.432 165.156 124.5 165.247 124.523V123.159C165.094 123.148 164.741 123.136 164.543 123.136C163.497 123.136 162.588 123.727 162.27 124.591H162.179V123.273H160.884V132ZM174.239 123.273H172.784L170.375 130.227H170.284L167.875 123.273H166.42L169.648 132H171.011L174.239 123.273ZM179.355 132.182C181.128 132.182 182.423 131.295 182.832 129.977L181.537 129.614C181.196 130.523 180.406 130.977 179.355 130.977C177.781 130.977 176.696 129.96 176.634 128.091H182.969V127.523C182.969 124.273 181.037 123.159 179.219 123.159C176.855 123.159 175.287 125.023 175.287 127.705C175.287 130.386 176.832 132.182 179.355 132.182ZM176.634 126.932C176.724 125.574 177.685 124.364 179.219 124.364C180.673 124.364 181.605 125.455 181.605 126.932H176.634ZM185.607 135.273C186.817 135.273 187.669 134.631 188.175 133.273L191.891 123.295L190.425 123.273L188.016 130.227H187.925L185.516 123.273H184.061L187.288 132.045L187.038 132.727C186.55 134.057 185.947 134.182 184.97 133.932L184.629 135.114C184.766 135.182 185.152 135.273 185.607 135.273ZM199.847 125.227C199.426 123.989 198.483 123.159 196.756 123.159C194.915 123.159 193.551 124.205 193.551 125.682C193.551 126.886 194.267 127.693 195.869 128.068L197.324 128.409C198.205 128.614 198.619 129.034 198.619 129.636C198.619 130.386 197.824 131 196.574 131C195.477 131 194.79 130.528 194.551 129.591L193.278 129.909C193.591 131.392 194.812 132.182 196.597 132.182C198.625 132.182 200.006 131.074 200.006 129.568C200.006 128.352 199.244 127.585 197.688 127.205L196.392 126.886C195.358 126.631 194.892 126.284 194.892 125.614C194.892 124.864 195.688 124.318 196.756 124.318C197.926 124.318 198.409 124.966 198.642 125.568L199.847 125.227ZM210.32 123.273H208.456V121.182H207.115V123.273H205.797V124.409H207.115V129.864C207.115 131.386 208.342 132.114 209.479 132.114C209.979 132.114 210.297 132.023 210.479 131.955L210.206 130.75C210.092 130.773 209.911 130.818 209.615 130.818C209.024 130.818 208.456 130.636 208.456 129.5V124.409H210.32V123.273ZM212.337 132H213.678V126.477C213.678 125.295 214.609 124.432 215.882 124.432C216.24 124.432 216.609 124.5 216.7 124.523V123.159C216.547 123.148 216.195 123.136 215.996 123.136C214.95 123.136 214.041 123.727 213.723 124.591H213.632V123.273H212.337V132ZM220.858 132.205C222.381 132.205 223.176 131.386 223.449 130.818H223.517V132H224.858V126.25C224.858 123.477 222.744 123.159 221.631 123.159C220.312 123.159 218.812 123.614 218.131 125.205L219.403 125.659C219.699 125.023 220.398 124.341 221.676 124.341C222.909 124.341 223.517 124.994 223.517 126.114V126.159C223.517 126.807 222.858 126.75 221.267 126.955C219.648 127.165 217.881 127.523 217.881 129.523C217.881 131.227 219.199 132.205 220.858 132.205ZM221.062 131C219.994 131 219.222 130.523 219.222 129.591C219.222 128.568 220.153 128.25 221.199 128.114C221.767 128.045 223.29 127.886 223.517 127.614V128.841C223.517 129.932 222.653 131 221.062 131ZM230.851 132.182C232.783 132.182 234.055 131 234.283 129.455H232.942C232.692 130.409 231.896 130.977 230.851 130.977C229.26 130.977 228.237 129.659 228.237 127.636C228.237 125.659 229.283 124.364 230.851 124.364C232.033 124.364 232.737 125.091 232.942 125.886H234.283C234.055 124.25 232.669 123.159 230.828 123.159C228.464 123.159 226.896 125.023 226.896 127.682C226.896 130.295 228.396 132.182 230.851 132.182ZM236.243 132H237.584V128.733L238.521 127.864L241.788 132H243.493L239.533 127L243.22 123.273H241.561L237.743 127.159H237.584V120.364H236.243V132ZM250.31 135.273C251.52 135.273 252.372 134.631 252.878 133.273L256.594 123.295L255.128 123.273L252.719 130.227H252.628L250.219 123.273H248.764L251.991 132.045L251.741 132.727C251.253 134.057 250.651 134.182 249.673 133.932L249.332 135.114C249.469 135.182 249.855 135.273 250.31 135.273ZM261.601 132.182C263.964 132.182 265.555 130.386 265.555 127.682C265.555 124.955 263.964 123.159 261.601 123.159C259.237 123.159 257.646 124.955 257.646 127.682C257.646 130.386 259.237 132.182 261.601 132.182ZM261.601 130.977C259.805 130.977 258.987 129.432 258.987 127.682C258.987 125.932 259.805 124.364 261.601 124.364C263.396 124.364 264.214 125.932 264.214 127.682C264.214 129.432 263.396 130.977 261.601 130.977ZM273.102 128.432C273.102 130.068 271.852 130.818 270.852 130.818C269.739 130.818 268.943 130 268.943 128.727V123.273H267.602V128.818C267.602 131.045 268.784 132.114 270.42 132.114C271.739 132.114 272.602 131.409 273.011 130.523H273.102V132H274.443V123.273H273.102V128.432ZM276.899 132H278.24V126.477C278.24 125.295 279.172 124.432 280.445 124.432C280.803 124.432 281.172 124.5 281.263 124.523V123.159C281.109 123.148 280.757 123.136 280.558 123.136C279.513 123.136 278.604 123.727 278.286 124.591H278.195V123.273H276.899V132ZM5.02273 147.273H3.15909V145.182H1.81818V147.273H0.5V148.409H1.81818V153.864C1.81818 155.386 3.04545 156.114 4.18182 156.114C4.68182 156.114 5 156.023 5.18182 155.955L4.90909 154.75C4.79545 154.773 4.61364 154.818 4.31818 154.818C3.72727 154.818 3.15909 154.636 3.15909 153.5V148.409H5.02273V147.273ZM10.6051 156.182C12.3778 156.182 13.6733 155.295 14.0824 153.977L12.7869 153.614C12.446 154.523 11.6562 154.977 10.6051 154.977C9.03125 154.977 7.94602 153.96 7.88352 152.091H14.2188V151.523C14.2188 148.273 12.2869 147.159 10.4688 147.159C8.10511 147.159 6.53693 149.023 6.53693 151.705C6.53693 154.386 8.08239 156.182 10.6051 156.182ZM7.88352 150.932C7.97443 149.574 8.93466 148.364 10.4688 148.364C11.9233 148.364 12.8551 149.455 12.8551 150.932H7.88352ZM18.8267 156.205C20.3494 156.205 21.1449 155.386 21.4176 154.818H21.4858V156H22.8267V150.25C22.8267 147.477 20.7131 147.159 19.5994 147.159C18.2812 147.159 16.7812 147.614 16.0994 149.205L17.3722 149.659C17.6676 149.023 18.3665 148.341 19.6449 148.341C20.8778 148.341 21.4858 148.994 21.4858 150.114V150.159C21.4858 150.807 20.8267 150.75 19.2358 150.955C17.6165 151.165 15.8494 151.523 15.8494 153.523C15.8494 155.227 17.1676 156.205 18.8267 156.205ZM19.0312 155C17.9631 155 17.1903 154.523 17.1903 153.591C17.1903 152.568 18.1222 152.25 19.1676 152.114C19.7358 152.045 21.2585 151.886 21.4858 151.614V152.841C21.4858 153.932 20.6222 155 19.0312 155ZM25.2741 156H26.6151V150.545C26.6151 149.267 27.5469 148.364 28.5923 148.364C29.6094 148.364 30.3196 149.028 30.3196 150.023V156H31.6832V150.318C31.6832 149.193 32.3878 148.364 33.6151 148.364C34.5696 148.364 35.3878 148.869 35.3878 150.159V156H36.7287V150.159C36.7287 148.108 35.6264 147.159 34.0696 147.159C32.8196 147.159 31.9048 147.733 31.456 148.636H31.3651C30.9332 147.705 30.1719 147.159 29.0241 147.159C27.8878 147.159 27.0469 147.705 26.6832 148.636H26.5696V147.273H25.2741V156ZM40.3622 144.364H39.0895V145.409C39.0895 146.25 38.6804 146.977 38.2031 147.659L38.9304 148.25C39.8395 147.523 40.3622 146.318 40.3622 145.386V144.364ZM47.081 149.227C46.6605 147.989 45.7173 147.159 43.9901 147.159C42.1491 147.159 40.7855 148.205 40.7855 149.682C40.7855 150.886 41.5014 151.693 43.1037 152.068L44.5582 152.409C45.4389 152.614 45.8537 153.034 45.8537 153.636C45.8537 154.386 45.0582 155 43.8082 155C42.7116 155 42.0241 154.528 41.7855 153.591L40.5128 153.909C40.8253 155.392 42.0469 156.182 43.831 156.182C45.8594 156.182 47.2401 155.074 47.2401 153.568C47.2401 152.352 46.4787 151.585 44.9219 151.205L43.6264 150.886C42.5923 150.631 42.1264 150.284 42.1264 149.614C42.1264 148.864 42.9219 148.318 43.9901 148.318C45.1605 148.318 45.6435 148.966 45.8764 149.568L47.081 149.227ZM55.0994 150.75C55.0994 149.227 56.0426 148.364 57.3267 148.364C58.571 148.364 59.3267 149.176 59.3267 150.545V156H60.6676V150.455C60.6676 148.227 59.4801 147.159 57.7131 147.159C56.3949 147.159 55.5767 147.75 55.1676 148.636H55.054V147.273H53.7585V156H55.0994V150.75ZM66.777 156.182C68.5497 156.182 69.8452 155.295 70.2543 153.977L68.9588 153.614C68.6179 154.523 67.8281 154.977 66.777 154.977C65.2031 154.977 64.1179 153.96 64.0554 152.091H70.3906V151.523C70.3906 148.273 68.4588 147.159 66.6406 147.159C64.277 147.159 62.7088 149.023 62.7088 151.705C62.7088 154.386 64.2543 156.182 66.777 156.182ZM64.0554 150.932C64.1463 149.574 65.1065 148.364 66.6406 148.364C68.0952 148.364 69.027 149.455 69.027 150.932H64.0554ZM76.0895 156.182C77.8622 156.182 79.1577 155.295 79.5668 153.977L78.2713 153.614C77.9304 154.523 77.1406 154.977 76.0895 154.977C74.5156 154.977 73.4304 153.96 73.3679 152.091H79.7031V151.523C79.7031 148.273 77.7713 147.159 75.9531 147.159C73.5895 147.159 72.0213 149.023 72.0213 151.705C72.0213 154.386 73.5668 156.182 76.0895 156.182ZM73.3679 150.932C73.4588 149.574 74.419 148.364 75.9531 148.364C77.4077 148.364 78.3395 149.455 78.3395 150.932H73.3679ZM85.0384 156.182C86.7202 156.182 87.2884 155.136 87.5838 154.659H87.7429V156H89.0384V144.364H87.6974V148.659H87.5838C87.2884 148.205 86.7656 147.159 85.0611 147.159C82.8565 147.159 81.3338 148.909 81.3338 151.659C81.3338 154.432 82.8565 156.182 85.0384 156.182ZM85.2202 154.977C83.5384 154.977 82.6747 153.5 82.6747 151.636C82.6747 149.795 83.5156 148.364 85.2202 148.364C86.8565 148.364 87.7202 149.682 87.7202 151.636C87.7202 153.614 86.8338 154.977 85.2202 154.977ZM97.8622 149.227C97.4418 147.989 96.4986 147.159 94.7713 147.159C92.9304 147.159 91.5668 148.205 91.5668 149.682C91.5668 150.886 92.2827 151.693 93.8849 152.068L95.3395 152.409C96.2202 152.614 96.6349 153.034 96.6349 153.636C96.6349 154.386 95.8395 155 94.5895 155C93.4929 155 92.8054 154.528 92.5668 153.591L91.294 153.909C91.6065 155.392 92.8281 156.182 94.6122 156.182C96.6406 156.182 98.0213 155.074 98.0213 153.568C98.0213 152.352 97.2599 151.585 95.7031 151.205L94.4077 150.886C93.3736 150.631 92.9077 150.284 92.9077 149.614C92.9077 148.864 93.7031 148.318 94.7713 148.318C95.9418 148.318 96.4247 148.966 96.6577 149.568L97.8622 149.227ZM106.517 156H107.835L109.744 149.295H109.881L111.79 156H113.108L115.767 147.273H114.358L112.472 153.932H112.381L110.54 147.273H109.108L107.244 153.955H107.153L105.267 147.273H103.858L106.517 156ZM120.902 156.182C122.675 156.182 123.97 155.295 124.379 153.977L123.084 153.614C122.743 154.523 121.953 154.977 120.902 154.977C119.328 154.977 118.243 153.96 118.18 152.091H124.516V151.523C124.516 148.273 122.584 147.159 120.766 147.159C118.402 147.159 116.834 149.023 116.834 151.705C116.834 154.386 118.379 156.182 120.902 156.182ZM118.18 150.932C118.271 149.574 119.232 148.364 120.766 148.364C122.22 148.364 123.152 149.455 123.152 150.932H118.18ZM130.214 156.182C131.987 156.182 133.283 155.295 133.692 153.977L132.396 153.614C132.055 154.523 131.266 154.977 130.214 154.977C128.641 154.977 127.555 153.96 127.493 152.091H133.828V151.523C133.828 148.273 131.896 147.159 130.078 147.159C127.714 147.159 126.146 149.023 126.146 151.705C126.146 154.386 127.692 156.182 130.214 156.182ZM127.493 150.932C127.584 149.574 128.544 148.364 130.078 148.364C131.533 148.364 132.464 149.455 132.464 150.932H127.493ZM135.868 156H137.209V152.733L138.146 151.864L141.413 156H143.118L139.158 151L142.845 147.273H141.186L137.368 151.159H137.209V144.364H135.868V156ZM145.912 144.364H144.571V156H145.912V144.364ZM149.232 159.273C150.442 159.273 151.294 158.631 151.8 157.273L155.516 147.295L154.05 147.273L151.641 154.227H151.55L149.141 147.273H147.686L150.913 156.045L150.663 156.727C150.175 158.057 149.572 158.182 148.595 157.932L148.254 159.114C148.391 159.182 148.777 159.273 149.232 159.273ZM167.972 149.227C167.551 147.989 166.608 147.159 164.881 147.159C163.04 147.159 161.676 148.205 161.676 149.682C161.676 150.886 162.392 151.693 163.994 152.068L165.449 152.409C166.33 152.614 166.744 153.034 166.744 153.636C166.744 154.386 165.949 155 164.699 155C163.602 155 162.915 154.528 162.676 153.591L161.403 153.909C161.716 155.392 162.938 156.182 164.722 156.182C166.75 156.182 168.131 155.074 168.131 153.568C168.131 152.352 167.369 151.585 165.812 151.205L164.517 150.886C163.483 150.631 163.017 150.284 163.017 149.614C163.017 148.864 163.812 148.318 164.881 148.318C166.051 148.318 166.534 148.966 166.767 149.568L167.972 149.227ZM173.695 156.182C176.058 156.182 177.649 154.386 177.649 151.682C177.649 148.955 176.058 147.159 173.695 147.159C171.331 147.159 169.74 148.955 169.74 151.682C169.74 154.386 171.331 156.182 173.695 156.182ZM173.695 154.977C171.899 154.977 171.081 153.432 171.081 151.682C171.081 149.932 171.899 148.364 173.695 148.364C175.49 148.364 176.308 149.932 176.308 151.682C176.308 153.432 175.49 154.977 173.695 154.977ZM185.06 159.273C186.27 159.273 187.122 158.631 187.628 157.273L191.344 147.295L189.878 147.273L187.469 154.227H187.378L184.969 147.273H183.514L186.741 156.045L186.491 156.727C186.003 158.057 185.401 158.182 184.423 157.932L184.082 159.114C184.219 159.182 184.605 159.273 185.06 159.273ZM196.351 156.182C198.714 156.182 200.305 154.386 200.305 151.682C200.305 148.955 198.714 147.159 196.351 147.159C193.987 147.159 192.396 148.955 192.396 151.682C192.396 154.386 193.987 156.182 196.351 156.182ZM196.351 154.977C194.555 154.977 193.737 153.432 193.737 151.682C193.737 149.932 194.555 148.364 196.351 148.364C198.146 148.364 198.964 149.932 198.964 151.682C198.964 153.432 198.146 154.977 196.351 154.977ZM207.852 152.432C207.852 154.068 206.602 154.818 205.602 154.818C204.489 154.818 203.693 154 203.693 152.727V147.273H202.352V152.818C202.352 155.045 203.534 156.114 205.17 156.114C206.489 156.114 207.352 155.409 207.761 154.523H207.852V156H209.193V147.273H207.852V152.432ZM219.695 156.182C221.626 156.182 222.899 155 223.126 153.455H221.786C221.536 154.409 220.74 154.977 219.695 154.977C218.104 154.977 217.081 153.659 217.081 151.636C217.081 149.659 218.126 148.364 219.695 148.364C220.876 148.364 221.581 149.091 221.786 149.886H223.126C222.899 148.25 221.513 147.159 219.672 147.159C217.308 147.159 215.74 149.023 215.74 151.682C215.74 154.295 217.24 156.182 219.695 156.182ZM227.655 156.205C229.178 156.205 229.973 155.386 230.246 154.818H230.314V156H231.655V150.25C231.655 147.477 229.541 147.159 228.428 147.159C227.109 147.159 225.609 147.614 224.928 149.205L226.2 149.659C226.496 149.023 227.195 148.341 228.473 148.341C229.706 148.341 230.314 148.994 230.314 150.114V150.159C230.314 150.807 229.655 150.75 228.064 150.955C226.445 151.165 224.678 151.523 224.678 153.523C224.678 155.227 225.996 156.205 227.655 156.205ZM227.859 155C226.791 155 226.018 154.523 226.018 153.591C226.018 152.568 226.95 152.25 227.996 152.114C228.564 152.045 230.087 151.886 230.314 151.614V152.841C230.314 153.932 229.45 155 227.859 155ZM235.443 150.75C235.443 149.227 236.386 148.364 237.67 148.364C238.915 148.364 239.67 149.176 239.67 150.545V156H241.011V150.455C241.011 148.227 239.824 147.159 238.057 147.159C236.739 147.159 235.92 147.75 235.511 148.636H235.398V147.273H234.102V156H235.443V150.75ZM251.848 147.273H249.893V146.386C249.893 145.523 250.257 145.068 251.143 145.068C251.53 145.068 251.757 145.159 251.893 145.205L252.28 144.045C252.075 143.955 251.666 143.818 251.007 143.818C249.757 143.818 248.553 144.568 248.553 146.068V147.273H247.143V148.409H248.553V156H249.893V148.409H251.848V147.273ZM256.913 156.182C259.277 156.182 260.868 154.386 260.868 151.682C260.868 148.955 259.277 147.159 256.913 147.159C254.55 147.159 252.959 148.955 252.959 151.682C252.959 154.386 254.55 156.182 256.913 156.182ZM256.913 154.977C255.118 154.977 254.3 153.432 254.3 151.682C254.3 149.932 255.118 148.364 256.913 148.364C258.709 148.364 259.527 149.932 259.527 151.682C259.527 153.432 258.709 154.977 256.913 154.977ZM266.46 156.182C268.392 156.182 269.665 155 269.892 153.455H268.551C268.301 154.409 267.506 154.977 266.46 154.977C264.869 154.977 263.847 153.659 263.847 151.636C263.847 149.659 264.892 148.364 266.46 148.364C267.642 148.364 268.347 149.091 268.551 149.886H269.892C269.665 148.25 268.278 147.159 266.438 147.159C264.074 147.159 262.506 149.023 262.506 151.682C262.506 154.295 264.006 156.182 266.46 156.182ZM277.352 152.432C277.352 154.068 276.102 154.818 275.102 154.818C273.989 154.818 273.193 154 273.193 152.727V147.273H271.852V152.818C271.852 155.045 273.034 156.114 274.67 156.114C275.989 156.114 276.852 155.409 277.261 154.523H277.352V156H278.693V147.273H277.352V152.432ZM287.331 149.227C286.911 147.989 285.967 147.159 284.24 147.159C282.399 147.159 281.036 148.205 281.036 149.682C281.036 150.886 281.751 151.693 283.354 152.068L284.808 152.409C285.689 152.614 286.104 153.034 286.104 153.636C286.104 154.386 285.308 155 284.058 155C282.962 155 282.274 154.528 282.036 153.591L280.763 153.909C281.075 155.392 282.297 156.182 284.081 156.182C286.109 156.182 287.49 155.074 287.49 153.568C287.49 152.352 286.729 151.585 285.172 151.205L283.876 150.886C282.842 150.631 282.376 150.284 282.376 149.614C282.376 148.864 283.172 148.318 284.24 148.318C285.411 148.318 285.893 148.966 286.126 149.568L287.331 149.227ZM290.486 156.091C291.048 156.091 291.509 155.631 291.509 155.068C291.509 154.506 291.048 154.045 290.486 154.045C289.923 154.045 289.463 154.506 289.463 155.068C289.463 155.631 289.923 156.091 290.486 156.091Z" fill="#4E5A65"/>
<defs>
<clipPath id="clip0_759_156">
<rect width="25.6" height="25.6" fill="white" transform="translate(19.2 19.2)"/>
</clipPath>
</defs>
</svg>
