<svg width="322" height="162" viewBox="0 0 322 162" fill="none" xmlns="http://www.w3.org/2000/svg">
<circle cx="32" cy="32" r="32" fill="#F7EBF9"/>
<path d="M41.1429 32.5714C41.1429 32.4502 41.0947 32.3339 41.009 32.2482C40.9232 32.1624 40.807 32.1143 40.6857 32.1143H23.3143C23.193 32.1143 23.0768 32.1624 22.991 32.2482C22.9053 32.3339 22.8571 32.4502 22.8571 32.5714V41.2571H41.1429V32.5714ZM32 38.5143C31.515 38.5143 31.0499 38.3216 30.707 37.9787C30.3641 37.6358 30.1714 37.1707 30.1714 36.6857C30.1714 36.2007 30.3641 35.7356 30.707 35.3927C31.0499 35.0498 31.515 34.8571 32 34.8571V35.7714C31.8192 35.7714 31.6424 35.825 31.4921 35.9255C31.3417 36.0259 31.2245 36.1687 31.1553 36.3358C31.0861 36.5029 31.068 36.6867 31.1033 36.8641C31.1386 37.0414 31.2256 37.2043 31.3535 37.3322C31.4814 37.4601 31.6443 37.5471 31.8216 37.5824C31.999 37.6177 32.1828 37.5996 32.3499 37.5304C32.517 37.4612 32.6597 37.344 32.7602 37.1936C32.8607 37.0433 32.9143 36.8665 32.9143 36.6857H33.8286C33.8286 37.1707 33.6359 37.6358 33.293 37.9787C32.9501 38.3216 32.485 38.5143 32 38.5143Z" fill="#B84DC5"/>
<path d="M32.1234 22.9532C32.0429 22.9775 31.957 22.9775 31.8766 22.9532L28.1966 21.9017L27.9451 23.8857H36.0548L35.8034 21.9017L32.1234 22.9532Z" fill="#B84DC5"/>
<path d="M21.1109 43.0857C21.0576 42.9391 21.0298 42.7845 21.0286 42.6285V42.1714C21.0293 41.9291 21.1258 41.697 21.2972 41.5257C21.4685 41.3544 21.7006 41.2578 21.9429 41.2571V39.9314C21.6091 39.9997 21.2949 40.1416 21.0231 40.3469C20.7513 40.5523 20.5289 40.8157 20.372 41.1181C20.2151 41.4204 20.1278 41.754 20.1164 42.0944C20.1051 42.4349 20.1699 42.7735 20.3063 43.0857H21.1109Z" fill="#B84DC5"/>
<path d="M19.2 44H44.8V44.9143H19.2V44Z" fill="#B84DC5"/>
<path d="M42.9714 42.1714V42.6285C42.9702 42.7845 42.9424 42.9391 42.8892 43.0857H43.6937C43.8189 42.7971 43.8843 42.486 43.8857 42.1714C43.8844 41.6449 43.7019 41.1348 43.3689 40.7269C43.036 40.319 42.5728 40.0381 42.0572 39.9314V41.2571C42.2994 41.2578 42.5316 41.3544 42.7029 41.5257C42.8742 41.697 42.9707 41.9291 42.9714 42.1714Z" fill="#B84DC5"/>
<path d="M42.9714 36.2285C42.9707 35.945 42.8824 35.6687 42.7188 35.4371C42.5552 35.2056 42.3241 35.0302 42.0572 34.9348V39.008C42.3739 39.0534 42.682 39.1458 42.9714 39.2822V36.2285Z" fill="#B84DC5"/>
<path d="M21.9429 34.9348C21.6759 35.0302 21.4448 35.2056 21.2812 35.4371C21.1176 35.6687 21.0293 35.945 21.0286 36.2285V39.2822C21.318 39.1458 21.6261 39.0534 21.9429 39.008V34.9348Z" fill="#B84DC5"/>
<path d="M21.9428 42.6285C21.9428 42.7498 21.991 42.866 22.0767 42.9518C22.1625 43.0375 22.2787 43.0857 22.4 43.0857H41.6C41.7212 43.0857 41.8375 43.0375 41.9232 42.9518C42.009 42.866 42.0571 42.7498 42.0571 42.6285V42.1714H21.9428V42.6285Z" fill="#B84DC5"/>
<path d="M29.4263 31.2H34.5691C34.6892 31.1113 34.8023 31.0135 34.9074 30.9075C35.2908 30.5267 35.5948 30.0736 35.802 29.5746C36.0091 29.0755 36.1153 28.5404 36.1143 28V27.0858C36.3568 27.0858 36.5893 26.9894 36.7608 26.818C36.9323 26.6465 37.0286 26.414 37.0286 26.1715C37.0286 25.929 36.9323 25.6964 36.7608 25.525C36.5893 25.3535 36.3568 25.2572 36.1143 25.2572V24.8H27.8857V25.2572C27.6432 25.2572 27.4107 25.3535 27.2392 25.525C27.0678 25.6964 26.9714 25.929 26.9714 26.1715C26.9714 26.414 27.0678 26.6465 27.2392 26.818C27.4107 26.9894 27.6432 27.0858 27.8857 27.0858V28C27.8885 28.6144 28.0282 29.2204 28.2947 29.774C28.5612 30.3276 28.9478 30.8147 29.4263 31.2ZM33.3714 26.6286C33.3714 26.5074 33.4196 26.3911 33.5053 26.3054C33.5911 26.2196 33.7073 26.1715 33.8286 26.1715C33.9498 26.1715 34.0661 26.2196 34.1518 26.3054C34.2376 26.3911 34.2857 26.5074 34.2857 26.6286V27.5429C34.2857 27.6641 34.2376 27.7804 34.1518 27.8662C34.0661 27.9519 33.9498 28 33.8286 28C33.7073 28 33.5911 27.9519 33.5053 27.8662C33.4196 27.7804 33.3714 27.6641 33.3714 27.5429V26.6286ZM29.7143 26.6286C29.7143 26.5074 29.7625 26.3911 29.8482 26.3054C29.9339 26.2196 30.0502 26.1715 30.1714 26.1715C30.2927 26.1715 30.409 26.2196 30.4947 26.3054C30.5804 26.3911 30.6286 26.5074 30.6286 26.6286V27.5429C30.6286 27.6641 30.5804 27.7804 30.4947 27.8662C30.409 27.9519 30.2927 28 30.1714 28C30.0502 28 29.9339 27.9519 29.8482 27.8662C29.7625 27.7804 29.7143 27.6641 29.7143 27.5429V26.6286ZM30.6286 29.3715C30.6286 29.4853 31.115 29.8286 32 29.8286C32.885 29.8286 33.3714 29.4853 33.3714 29.3715H34.2857C34.2857 30.1532 33.3033 30.7429 32 30.7429C30.6967 30.7429 29.7143 30.1532 29.7143 29.3715H30.6286Z" fill="#B84DC5"/>
<path d="M36.5714 20.9143V24.3429H37.4857V20.6857L32 18.4L26.5143 20.6857L32 22.0572L36.5714 20.9143Z" fill="#B84DC5"/>
<path d="M1.29119 104H9.42827V102.012H3.66264V90.9091H1.29119V104ZM15.7308 104.192C18.0192 104.192 19.5916 103.073 20.0007 101.366L17.8402 101.124C17.527 101.955 16.7599 102.389 15.7628 102.389C14.267 102.389 13.2763 101.405 13.2571 99.7237H20.0966V99.0142C20.0966 95.5689 18.0256 94.054 15.6094 94.054C12.7969 94.054 10.9624 96.1186 10.9624 99.1484C10.9624 102.229 12.7713 104.192 15.7308 104.192ZM13.2635 98.1641C13.3338 96.9112 14.2607 95.8565 15.6413 95.8565C16.9709 95.8565 17.8658 96.8281 17.8786 98.1641H13.2635ZM24.8794 104.198C26.4199 104.198 27.3404 103.476 27.7623 102.651H27.839V104H30.0634V97.429C30.0634 94.8338 27.9476 94.054 26.0748 94.054C24.0101 94.054 22.4249 94.9744 21.9135 96.7642L24.074 97.071C24.3042 96.3999 24.9561 95.8246 26.0875 95.8246C27.1614 95.8246 27.7495 96.3743 27.7495 97.3395V97.3778C27.7495 98.0426 27.0527 98.0746 25.3205 98.2599C23.4157 98.4645 21.5939 99.0334 21.5939 101.245C21.5939 103.175 23.0066 104.198 24.8794 104.198ZM25.4803 102.498C24.5151 102.498 23.8248 102.057 23.8248 101.207C23.8248 100.318 24.5982 99.9474 25.6337 99.8004C26.2409 99.7173 27.4554 99.5639 27.7559 99.321V100.478C27.7559 101.571 26.8738 102.498 25.4803 102.498ZM32.3901 104H34.704V98.228C34.704 96.9815 35.6436 96.0994 36.9157 96.0994C37.3056 96.0994 37.7914 96.1697 37.9895 96.2337V94.1051C37.7786 94.0668 37.4142 94.0412 37.1586 94.0412C36.0336 94.0412 35.0939 94.6804 34.736 95.8182H34.6337V94.1818H32.3901V104ZM41.8407 98.2472C41.8407 96.8281 42.6973 96.0099 43.9181 96.0099C45.1135 96.0099 45.8294 96.7962 45.8294 98.1065V104H48.1433V97.7486C48.1497 95.3963 46.8074 94.054 44.7811 94.054C43.3109 94.054 42.301 94.7571 41.8535 95.8501H41.7385V94.1818H39.5268V104H41.8407V98.2472ZM50.4956 104H52.8095V94.1818H50.4956V104ZM51.6589 92.7884C52.394 92.7884 52.9949 92.2259 52.9949 91.5355C52.9949 90.8388 52.394 90.2763 51.6589 90.2763C50.9174 90.2763 50.3166 90.8388 50.3166 91.5355C50.3166 92.2259 50.9174 92.7884 51.6589 92.7884ZM57.5028 98.2472C57.5028 96.8281 58.3594 96.0099 59.5803 96.0099C60.7756 96.0099 61.4915 96.7962 61.4915 98.1065V104H63.8054V97.7486C63.8118 95.3963 62.4695 94.054 60.4432 94.054C58.973 94.054 57.9631 94.7571 57.5156 95.8501H57.4006V94.1818H55.1889V104H57.5028V98.2472ZM70.4276 107.886C73.0803 107.886 75.0362 106.672 75.0362 104.16V94.1818H72.7543V95.8054H72.6264C72.2749 95.0959 71.5398 94.054 69.8075 94.054C67.5384 94.054 65.755 95.831 65.755 99.0589C65.755 102.261 67.5384 103.859 69.8011 103.859C71.4822 103.859 72.2685 102.958 72.6264 102.236H72.7415V104.096C72.7415 105.54 71.7827 106.135 70.4659 106.135C69.0724 106.135 68.4588 105.477 68.1776 104.901L66.0938 105.406C66.5156 106.781 67.9283 107.886 70.4276 107.886ZM70.4467 102.044C68.919 102.044 68.1136 100.855 68.1136 99.0462C68.1136 97.2628 68.9062 95.9524 70.4467 95.9524C71.9361 95.9524 72.7543 97.1861 72.7543 99.0462C72.7543 100.919 71.9233 102.044 70.4467 102.044ZM93.18 95.326C92.7773 92.4176 90.5401 90.7301 87.6381 90.7301C84.2184 90.7301 81.6424 93.223 81.6424 97.4545C81.6424 101.68 84.1864 104.179 87.6381 104.179C90.7511 104.179 92.8157 102.165 93.18 99.6662L90.7894 99.6534C90.489 101.188 89.2362 102.05 87.6701 102.05C85.5479 102.05 84.0266 100.459 84.0266 97.4545C84.0266 94.5014 85.5352 92.8587 87.6765 92.8587C89.2681 92.8587 90.5146 93.7599 90.7894 95.326H93.18ZM99.5961 104.192C101.884 104.192 103.457 103.073 103.866 101.366L101.705 101.124C101.392 101.955 100.625 102.389 99.628 102.389C98.1323 102.389 97.1415 101.405 97.1223 99.7237H103.962V99.0142C103.962 95.5689 101.891 94.054 99.4746 94.054C96.6621 94.054 94.8276 96.1186 94.8276 99.1484C94.8276 102.229 96.6365 104.192 99.5961 104.192ZM97.1287 98.1641C97.199 96.9112 98.1259 95.8565 99.5066 95.8565C100.836 95.8565 101.731 96.8281 101.744 98.1641H97.1287ZM108.233 98.2472C108.233 96.8281 109.09 96.0099 110.311 96.0099C111.506 96.0099 112.222 96.7962 112.222 98.1065V104H114.536V97.7486C114.542 95.3963 113.2 94.054 111.174 94.054C109.703 94.054 108.694 94.7571 108.246 95.8501H108.131V94.1818H105.919V104H108.233V98.2472ZM121.791 94.1818H119.854V91.8295H117.54V94.1818H116.147V95.9716H117.54V101.43C117.527 103.278 118.87 104.185 120.608 104.134C121.267 104.115 121.721 103.987 121.97 103.904L121.58 102.095C121.452 102.127 121.19 102.185 120.902 102.185C120.321 102.185 119.854 101.98 119.854 101.047V95.9716H121.791V94.1818ZM127.967 104.192C130.256 104.192 131.828 103.073 132.237 101.366L130.077 101.124C129.763 101.955 128.996 102.389 127.999 102.389C126.503 102.389 125.513 101.405 125.493 99.7237H132.333V99.0142C132.333 95.5689 130.262 94.054 127.846 94.054C125.033 94.054 123.199 96.1186 123.199 99.1484C123.199 102.229 125.008 104.192 127.967 104.192ZM125.5 98.1641C125.57 96.9112 126.497 95.8565 127.878 95.8565C129.207 95.8565 130.102 96.8281 130.115 98.1641H125.5ZM134.29 104H136.604V98.228C136.604 96.9815 137.544 96.0994 138.816 96.0994C139.206 96.0994 139.692 96.1697 139.89 96.2337V94.1051C139.679 94.0668 139.315 94.0412 139.059 94.0412C137.934 94.0412 136.994 94.6804 136.636 95.8182H136.534V94.1818H134.29V104Z" fill="#35414B"/>
<path d="M11.2273 126.182C11.2273 122.5 9.06818 120.205 6.09091 120.205C3.11364 120.205 0.954545 122.5 0.954545 126.182C0.954545 129.864 3.11364 132.159 6.09091 132.159C6.85227 132.159 7.55682 132.011 8.1875 131.727L9.20455 133.091H10.75L9.23295 131.074C10.4716 130.057 11.2273 128.364 11.2273 126.182ZM5.63636 128.364L7.36364 130.625C6.96591 130.767 6.53977 130.841 6.09091 130.841C3.97727 130.841 2.31818 129.205 2.31818 126.182C2.31818 123.159 3.97727 121.523 6.09091 121.523C8.20455 121.523 9.86364 123.159 9.86364 126.182C9.86364 127.938 9.30682 129.222 8.42045 129.994L7.18182 128.364H5.63636ZM18.9148 128.432C18.9148 130.068 17.6648 130.818 16.6648 130.818C15.5511 130.818 14.7557 130 14.7557 128.727V123.273H13.4148V128.818C13.4148 131.045 14.5966 132.114 16.233 132.114C17.5511 132.114 18.4148 131.409 18.8239 130.523H18.9148V132H20.2557V123.273H18.9148V128.432ZM22.7116 132H24.0526V123.273H22.7116V132ZM23.3935 121.818C23.9162 121.818 24.348 121.409 24.348 120.909C24.348 120.409 23.9162 120 23.3935 120C22.8707 120 22.4389 120.409 22.4389 120.909C22.4389 121.409 22.8707 121.818 23.3935 121.818ZM30.054 132.182C31.9858 132.182 33.2585 131 33.4858 129.455H32.1449C31.8949 130.409 31.0994 130.977 30.054 130.977C28.4631 130.977 27.4403 129.659 27.4403 127.636C27.4403 125.659 28.4858 124.364 30.054 124.364C31.2358 124.364 31.9403 125.091 32.1449 125.886H33.4858C33.2585 124.25 31.8722 123.159 30.0312 123.159C27.6676 123.159 26.0994 125.023 26.0994 127.682C26.0994 130.295 27.5994 132.182 30.054 132.182ZM35.446 132H36.7869V128.733L37.7244 127.864L40.9915 132H42.696L38.7358 127L42.4233 123.273H40.7642L36.946 127.159H36.7869V120.364H35.446V132ZM45.4901 120.364H44.1491V132H45.4901V120.364ZM48.8097 135.273C50.0199 135.273 50.8722 134.631 51.3778 133.273L55.0938 123.295L53.6278 123.273L51.2188 130.227H51.1278L48.7188 123.273H47.2642L50.4915 132.045L50.2415 132.727C49.7528 134.057 49.1506 134.182 48.1733 133.932L47.8324 135.114C47.9688 135.182 48.3551 135.273 48.8097 135.273ZM64.8906 135.455C66.9815 135.455 68.6634 134.5 68.6634 132.25V123.273H67.3679V124.659H67.2315C66.9361 124.205 66.3906 123.159 64.6861 123.159C62.4815 123.159 60.9588 124.909 60.9588 127.591C60.9588 130.318 62.5497 131.864 64.6634 131.864C66.3679 131.864 66.9134 130.864 67.2088 130.386H67.3224V132.159C67.3224 133.614 66.2997 134.273 64.8906 134.273C63.3054 134.273 62.7486 133.438 62.3906 132.955L61.3224 133.705C61.8679 134.619 62.9418 135.455 64.8906 135.455ZM64.8452 130.659C63.1634 130.659 62.2997 129.386 62.2997 127.568C62.2997 125.795 63.1406 124.364 64.8452 124.364C66.4815 124.364 67.3452 125.682 67.3452 127.568C67.3452 129.5 66.4588 130.659 64.8452 130.659ZM74.777 132.182C76.5497 132.182 77.8452 131.295 78.2543 129.977L76.9588 129.614C76.6179 130.523 75.8281 130.977 74.777 130.977C73.2031 130.977 72.1179 129.96 72.0554 128.091H78.3906V127.523C78.3906 124.273 76.4588 123.159 74.6406 123.159C72.277 123.159 70.7088 125.023 70.7088 127.705C70.7088 130.386 72.2543 132.182 74.777 132.182ZM72.0554 126.932C72.1463 125.574 73.1065 124.364 74.6406 124.364C76.0952 124.364 77.027 125.455 77.027 126.932H72.0554ZM84.2259 123.273H82.3622V121.182H81.0213V123.273H79.7031V124.409H81.0213V129.864C81.0213 131.386 82.2486 132.114 83.3849 132.114C83.8849 132.114 84.2031 132.023 84.3849 131.955L84.1122 130.75C83.9986 130.773 83.8168 130.818 83.5213 130.818C82.9304 130.818 82.3622 130.636 82.3622 129.5V124.409H84.2259V123.273ZM96.9247 125.227C96.5043 123.989 95.5611 123.159 93.8338 123.159C91.9929 123.159 90.6293 124.205 90.6293 125.682C90.6293 126.886 91.3452 127.693 92.9474 128.068L94.402 128.409C95.2827 128.614 95.6974 129.034 95.6974 129.636C95.6974 130.386 94.902 131 93.652 131C92.5554 131 91.8679 130.528 91.6293 129.591L90.3565 129.909C90.669 131.392 91.8906 132.182 93.6747 132.182C95.7031 132.182 97.0838 131.074 97.0838 129.568C97.0838 128.352 96.3224 127.585 94.7656 127.205L93.4702 126.886C92.4361 126.631 91.9702 126.284 91.9702 125.614C91.9702 124.864 92.7656 124.318 93.8338 124.318C95.0043 124.318 95.4872 124.966 95.7202 125.568L96.9247 125.227ZM102.648 132.182C105.011 132.182 106.602 130.386 106.602 127.682C106.602 124.955 105.011 123.159 102.648 123.159C100.284 123.159 98.6932 124.955 98.6932 127.682C98.6932 130.386 100.284 132.182 102.648 132.182ZM102.648 130.977C100.852 130.977 100.034 129.432 100.034 127.682C100.034 125.932 100.852 124.364 102.648 124.364C104.443 124.364 105.261 125.932 105.261 127.682C105.261 129.432 104.443 130.977 102.648 130.977ZM109.99 120.364H108.649V132H109.99V120.364ZM117.946 128.432C117.946 130.068 116.696 130.818 115.696 130.818C114.582 130.818 113.787 130 113.787 128.727V123.273H112.446V128.818C112.446 131.045 113.628 132.114 115.264 132.114C116.582 132.114 117.446 131.409 117.855 130.523H117.946V132H119.287V123.273H117.946V128.432ZM125.538 123.273H123.675V121.182H122.334V123.273H121.016V124.409H122.334V129.864C122.334 131.386 123.561 132.114 124.697 132.114C125.197 132.114 125.516 132.023 125.697 131.955L125.425 130.75C125.311 130.773 125.129 130.818 124.834 130.818C124.243 130.818 123.675 130.636 123.675 129.5V124.409H125.538V123.273ZM127.555 132H128.896V123.273H127.555V132ZM128.237 121.818C128.76 121.818 129.192 121.409 129.192 120.909C129.192 120.409 128.76 120 128.237 120C127.714 120 127.283 120.409 127.283 120.909C127.283 121.409 127.714 121.818 128.237 121.818ZM134.898 132.182C137.261 132.182 138.852 130.386 138.852 127.682C138.852 124.955 137.261 123.159 134.898 123.159C132.534 123.159 130.943 124.955 130.943 127.682C130.943 130.386 132.534 132.182 134.898 132.182ZM134.898 130.977C133.102 130.977 132.284 129.432 132.284 127.682C132.284 125.932 133.102 124.364 134.898 124.364C136.693 124.364 137.511 125.932 137.511 127.682C137.511 129.432 136.693 130.977 134.898 130.977ZM142.24 126.75C142.24 125.227 143.183 124.364 144.467 124.364C145.712 124.364 146.467 125.176 146.467 126.545V132H147.808V126.455C147.808 124.227 146.621 123.159 144.854 123.159C143.536 123.159 142.717 123.75 142.308 124.636H142.195V123.273H140.899V132H142.24V126.75ZM156.44 125.227C156.02 123.989 155.077 123.159 153.349 123.159C151.509 123.159 150.145 124.205 150.145 125.682C150.145 126.886 150.861 127.693 152.463 128.068L153.918 128.409C154.798 128.614 155.213 129.034 155.213 129.636C155.213 130.386 154.418 131 153.168 131C152.071 131 151.384 130.528 151.145 129.591L149.872 129.909C150.185 131.392 151.406 132.182 153.19 132.182C155.219 132.182 156.599 131.074 156.599 129.568C156.599 128.352 155.838 127.585 154.281 127.205L152.986 126.886C151.952 126.631 151.486 126.284 151.486 125.614C151.486 124.864 152.281 124.318 153.349 124.318C154.52 124.318 155.003 124.966 155.236 125.568L156.44 125.227ZM166.913 123.273H165.05V121.182H163.709V123.273H162.391V124.409H163.709V129.864C163.709 131.386 164.936 132.114 166.072 132.114C166.572 132.114 166.891 132.023 167.072 131.955L166.8 130.75C166.686 130.773 166.504 130.818 166.209 130.818C165.618 130.818 165.05 130.636 165.05 129.5V124.409H166.913V123.273ZM171.499 132.205C173.021 132.205 173.817 131.386 174.089 130.818H174.158V132H175.499V126.25C175.499 123.477 173.385 123.159 172.271 123.159C170.953 123.159 169.453 123.614 168.771 125.205L170.044 125.659C170.339 125.023 171.038 124.341 172.317 124.341C173.55 124.341 174.158 124.994 174.158 126.114V126.159C174.158 126.807 173.499 126.75 171.908 126.955C170.288 127.165 168.521 127.523 168.521 129.523C168.521 131.227 169.839 132.205 171.499 132.205ZM171.703 131C170.635 131 169.862 130.523 169.862 129.591C169.862 128.568 170.794 128.25 171.839 128.114C172.408 128.045 173.93 127.886 174.158 127.614V128.841C174.158 129.932 173.294 131 171.703 131ZM177.946 132H179.287V123.273H177.946V132ZM178.628 121.818C179.151 121.818 179.582 121.409 179.582 120.909C179.582 120.409 179.151 120 178.628 120C178.105 120 177.673 120.409 177.673 120.909C177.673 121.409 178.105 121.818 178.628 121.818ZM183.084 120.364H181.743V132H183.084V120.364ZM189.085 132.182C191.449 132.182 193.04 130.386 193.04 127.682C193.04 124.955 191.449 123.159 189.085 123.159C186.722 123.159 185.131 124.955 185.131 127.682C185.131 130.386 186.722 132.182 189.085 132.182ZM189.085 130.977C187.29 130.977 186.472 129.432 186.472 127.682C186.472 125.932 187.29 124.364 189.085 124.364C190.881 124.364 191.699 125.932 191.699 127.682C191.699 129.432 190.881 130.977 189.085 130.977ZM195.087 132H196.428V126.477C196.428 125.295 197.359 124.432 198.632 124.432C198.99 124.432 199.359 124.5 199.45 124.523V123.159C199.297 123.148 198.945 123.136 198.746 123.136C197.7 123.136 196.791 123.727 196.473 124.591H196.382V123.273H195.087V132ZM204.433 132.182C206.206 132.182 207.501 131.295 207.911 129.977L206.615 129.614C206.274 130.523 205.484 130.977 204.433 130.977C202.859 130.977 201.774 129.96 201.712 128.091H208.047V127.523C208.047 124.273 206.115 123.159 204.297 123.159C201.933 123.159 200.365 125.023 200.365 127.705C200.365 130.386 201.911 132.182 204.433 132.182ZM201.712 126.932C201.803 125.574 202.763 124.364 204.297 124.364C205.751 124.364 206.683 125.455 206.683 126.932H201.712ZM213.382 132.182C215.064 132.182 215.632 131.136 215.928 130.659H216.087V132H217.382V120.364H216.041V124.659H215.928C215.632 124.205 215.109 123.159 213.405 123.159C211.2 123.159 209.678 124.909 209.678 127.659C209.678 130.432 211.2 132.182 213.382 132.182ZM213.564 130.977C211.882 130.977 211.018 129.5 211.018 127.636C211.018 125.795 211.859 124.364 213.564 124.364C215.2 124.364 216.064 125.682 216.064 127.636C216.064 129.614 215.178 130.977 213.564 130.977ZM228.32 123.273H226.456V121.182H225.115V123.273H223.797V124.409H225.115V129.864C225.115 131.386 226.342 132.114 227.479 132.114C227.979 132.114 228.297 132.023 228.479 131.955L228.206 130.75C228.092 130.773 227.911 130.818 227.615 130.818C227.024 130.818 226.456 130.636 226.456 129.5V124.409H228.32V123.273ZM233.788 132.182C236.152 132.182 237.743 130.386 237.743 127.682C237.743 124.955 236.152 123.159 233.788 123.159C231.425 123.159 229.834 124.955 229.834 127.682C229.834 130.386 231.425 132.182 233.788 132.182ZM233.788 130.977C231.993 130.977 231.175 129.432 231.175 127.682C231.175 125.932 231.993 124.364 233.788 124.364C235.584 124.364 236.402 125.932 236.402 127.682C236.402 129.432 235.584 130.977 233.788 130.977ZM245.153 135.273C246.364 135.273 247.216 134.631 247.722 133.273L251.438 123.295L249.972 123.273L247.562 130.227H247.472L245.062 123.273H243.608L246.835 132.045L246.585 132.727C246.097 134.057 245.494 134.182 244.517 133.932L244.176 135.114C244.312 135.182 244.699 135.273 245.153 135.273ZM256.445 132.182C258.808 132.182 260.399 130.386 260.399 127.682C260.399 124.955 258.808 123.159 256.445 123.159C254.081 123.159 252.49 124.955 252.49 127.682C252.49 130.386 254.081 132.182 256.445 132.182ZM256.445 130.977C254.649 130.977 253.831 129.432 253.831 127.682C253.831 125.932 254.649 124.364 256.445 124.364C258.24 124.364 259.058 125.932 259.058 127.682C259.058 129.432 258.24 130.977 256.445 130.977ZM267.946 128.432C267.946 130.068 266.696 130.818 265.696 130.818C264.582 130.818 263.787 130 263.787 128.727V123.273H262.446V128.818C262.446 131.045 263.628 132.114 265.264 132.114C266.582 132.114 267.446 131.409 267.855 130.523H267.946V132H269.287V123.273H267.946V128.432ZM271.743 132H273.084V126.477C273.084 125.295 274.016 124.432 275.288 124.432C275.646 124.432 276.016 124.5 276.107 124.523V123.159C275.953 123.148 275.601 123.136 275.402 123.136C274.357 123.136 273.447 123.727 273.129 124.591H273.038V123.273H271.743V132ZM1.22727 159.273H2.56818V154.659H2.68182C2.97727 155.136 3.54545 156.182 5.22727 156.182C7.40909 156.182 8.93182 154.432 8.93182 151.659C8.93182 148.909 7.40909 147.159 5.20455 147.159C3.5 147.159 2.97727 148.205 2.68182 148.659H2.52273V147.273H1.22727V159.273ZM2.54545 151.636C2.54545 149.682 3.40909 148.364 5.04545 148.364C6.75 148.364 7.59091 149.795 7.59091 151.636C7.59091 153.5 6.72727 154.977 5.04545 154.977C3.43182 154.977 2.54545 153.614 2.54545 151.636ZM14.6364 156.182C16.4091 156.182 17.7045 155.295 18.1136 153.977L16.8182 153.614C16.4773 154.523 15.6875 154.977 14.6364 154.977C13.0625 154.977 11.9773 153.96 11.9148 152.091H18.25V151.523C18.25 148.273 16.3182 147.159 14.5 147.159C12.1364 147.159 10.5682 149.023 10.5682 151.705C10.5682 154.386 12.1136 156.182 14.6364 156.182ZM11.9148 150.932C12.0057 149.574 12.9659 148.364 14.5 148.364C15.9545 148.364 16.8864 149.455 16.8864 150.932H11.9148ZM20.2898 156H21.6307V150.477C21.6307 149.295 22.5625 148.432 23.8352 148.432C24.1932 148.432 24.5625 148.5 24.6534 148.523V147.159C24.5 147.148 24.1477 147.136 23.9489 147.136C22.9034 147.136 21.9943 147.727 21.6761 148.591H21.5852V147.273H20.2898V156ZM32.4247 149.227C32.0043 147.989 31.0611 147.159 29.3338 147.159C27.4929 147.159 26.1293 148.205 26.1293 149.682C26.1293 150.886 26.8452 151.693 28.4474 152.068L29.902 152.409C30.7827 152.614 31.1974 153.034 31.1974 153.636C31.1974 154.386 30.402 155 29.152 155C28.0554 155 27.3679 154.528 27.1293 153.591L25.8565 153.909C26.169 155.392 27.3906 156.182 29.1747 156.182C31.2031 156.182 32.5838 155.074 32.5838 153.568C32.5838 152.352 31.8224 151.585 30.2656 151.205L28.9702 150.886C27.9361 150.631 27.4702 150.284 27.4702 149.614C27.4702 148.864 28.2656 148.318 29.3338 148.318C30.5043 148.318 30.9872 148.966 31.2202 149.568L32.4247 149.227ZM38.1477 156.182C40.5114 156.182 42.1023 154.386 42.1023 151.682C42.1023 148.955 40.5114 147.159 38.1477 147.159C35.7841 147.159 34.1932 148.955 34.1932 151.682C34.1932 154.386 35.7841 156.182 38.1477 156.182ZM38.1477 154.977C36.3523 154.977 35.5341 153.432 35.5341 151.682C35.5341 149.932 36.3523 148.364 38.1477 148.364C39.9432 148.364 40.7614 149.932 40.7614 151.682C40.7614 153.432 39.9432 154.977 38.1477 154.977ZM45.4901 150.75C45.4901 149.227 46.4332 148.364 47.7173 148.364C48.9616 148.364 49.7173 149.176 49.7173 150.545V156H51.0582V150.455C51.0582 148.227 49.8707 147.159 48.1037 147.159C46.7855 147.159 45.9673 147.75 45.5582 148.636H45.4446V147.273H44.1491V156H45.4901V150.75ZM56.0767 156.205C57.5994 156.205 58.3949 155.386 58.6676 154.818H58.7358V156H60.0767V150.25C60.0767 147.477 57.9631 147.159 56.8494 147.159C55.5312 147.159 54.0312 147.614 53.3494 149.205L54.6222 149.659C54.9176 149.023 55.6165 148.341 56.8949 148.341C58.1278 148.341 58.7358 148.994 58.7358 150.114V150.159C58.7358 150.807 58.0767 150.75 56.4858 150.955C54.8665 151.165 53.0994 151.523 53.0994 153.523C53.0994 155.227 54.4176 156.205 56.0767 156.205ZM56.2812 155C55.2131 155 54.4403 154.523 54.4403 153.591C54.4403 152.568 55.3722 152.25 56.4176 152.114C56.9858 152.045 58.5085 151.886 58.7358 151.614V152.841C58.7358 153.932 57.8722 155 56.2812 155ZM63.8651 144.364H62.5241V156H63.8651V144.364ZM74.3665 156.182C76.2983 156.182 77.571 155 77.7983 153.455H76.4574C76.2074 154.409 75.4119 154.977 74.3665 154.977C72.7756 154.977 71.7528 153.659 71.7528 151.636C71.7528 149.659 72.7983 148.364 74.3665 148.364C75.5483 148.364 76.2528 149.091 76.4574 149.886H77.7983C77.571 148.25 76.1847 147.159 74.3438 147.159C71.9801 147.159 70.4119 149.023 70.4119 151.682C70.4119 154.295 71.9119 156.182 74.3665 156.182ZM81.0994 150.75C81.0994 149.227 82.071 148.364 83.3949 148.364C84.6562 148.364 85.4176 149.159 85.4176 150.545V156H86.7585V150.455C86.7585 148.21 85.5653 147.159 83.7812 147.159C82.4062 147.159 81.6222 147.733 81.2131 148.636H81.0994V144.364H79.7585V156H81.0994V150.75ZM91.7798 156.205C93.3026 156.205 94.098 155.386 94.3707 154.818H94.4389V156H95.7798V150.25C95.7798 147.477 93.6662 147.159 92.5526 147.159C91.2344 147.159 89.7344 147.614 89.0526 149.205L90.3253 149.659C90.6207 149.023 91.3196 148.341 92.598 148.341C93.831 148.341 94.4389 148.994 94.4389 150.114V150.159C94.4389 150.807 93.7798 150.75 92.1889 150.955C90.5696 151.165 88.8026 151.523 88.8026 153.523C88.8026 155.227 90.1207 156.205 91.7798 156.205ZM91.9844 155C90.9162 155 90.1435 154.523 90.1435 153.591C90.1435 152.568 91.0753 152.25 92.1207 152.114C92.6889 152.045 94.2116 151.886 94.4389 151.614V152.841C94.4389 153.932 93.5753 155 91.9844 155ZM99.5682 144.364H98.2273V156H99.5682V144.364ZM103.365 144.364H102.024V156H103.365V144.364ZM109.48 156.182C111.253 156.182 112.548 155.295 112.957 153.977L111.662 153.614C111.321 154.523 110.531 154.977 109.48 154.977C107.906 154.977 106.821 153.96 106.759 152.091H113.094V151.523C113.094 148.273 111.162 147.159 109.344 147.159C106.98 147.159 105.412 149.023 105.412 151.705C105.412 154.386 106.957 156.182 109.48 156.182ZM106.759 150.932C106.849 149.574 107.81 148.364 109.344 148.364C110.798 148.364 111.73 149.455 111.73 150.932H106.759ZM116.474 150.75C116.474 149.227 117.418 148.364 118.702 148.364C119.946 148.364 120.702 149.176 120.702 150.545V156H122.043V150.455C122.043 148.227 120.855 147.159 119.088 147.159C117.77 147.159 116.952 147.75 116.543 148.636H116.429V147.273H115.134V156H116.474V150.75ZM128.016 159.455C130.107 159.455 131.788 158.5 131.788 156.25V147.273H130.493V148.659H130.357C130.061 148.205 129.516 147.159 127.811 147.159C125.607 147.159 124.084 148.909 124.084 151.591C124.084 154.318 125.675 155.864 127.788 155.864C129.493 155.864 130.038 154.864 130.334 154.386H130.447V156.159C130.447 157.614 129.425 158.273 128.016 158.273C126.43 158.273 125.874 157.438 125.516 156.955L124.447 157.705C124.993 158.619 126.067 159.455 128.016 159.455ZM127.97 154.659C126.288 154.659 125.425 153.386 125.425 151.568C125.425 149.795 126.266 148.364 127.97 148.364C129.607 148.364 130.47 149.682 130.47 151.568C130.47 153.5 129.584 154.659 127.97 154.659ZM137.902 156.182C139.675 156.182 140.97 155.295 141.379 153.977L140.084 153.614C139.743 154.523 138.953 154.977 137.902 154.977C136.328 154.977 135.243 153.96 135.18 152.091H141.516V151.523C141.516 148.273 139.584 147.159 137.766 147.159C135.402 147.159 133.834 149.023 133.834 151.705C133.834 154.386 135.379 156.182 137.902 156.182ZM135.18 150.932C135.271 149.574 136.232 148.364 137.766 148.364C139.22 148.364 140.152 149.455 140.152 150.932H135.18ZM149.737 149.227C149.317 147.989 148.374 147.159 146.646 147.159C144.805 147.159 143.442 148.205 143.442 149.682C143.442 150.886 144.158 151.693 145.76 152.068L147.214 152.409C148.095 152.614 148.51 153.034 148.51 153.636C148.51 154.386 147.714 155 146.464 155C145.368 155 144.68 154.528 144.442 153.591L143.169 153.909C143.482 155.392 144.703 156.182 146.487 156.182C148.516 156.182 149.896 155.074 149.896 153.568C149.896 152.352 149.135 151.585 147.578 151.205L146.283 150.886C145.249 150.631 144.783 150.284 144.783 149.614C144.783 148.864 145.578 148.318 146.646 148.318C147.817 148.318 148.3 148.966 148.533 149.568L149.737 149.227ZM160.301 147.273H158.347V146.386C158.347 145.523 158.71 145.068 159.597 145.068C159.983 145.068 160.21 145.159 160.347 145.205L160.733 144.045C160.528 143.955 160.119 143.818 159.46 143.818C158.21 143.818 157.006 144.568 157.006 146.068V147.273H155.597V148.409H157.006V156H158.347V148.409H160.301V147.273ZM162.18 156H163.521V150.477C163.521 149.295 164.453 148.432 165.726 148.432C166.084 148.432 166.453 148.5 166.544 148.523V147.159C166.391 147.148 166.038 147.136 165.839 147.136C164.794 147.136 163.885 147.727 163.567 148.591H163.476V147.273H162.18V156ZM171.413 156.182C173.777 156.182 175.368 154.386 175.368 151.682C175.368 148.955 173.777 147.159 171.413 147.159C169.05 147.159 167.459 148.955 167.459 151.682C167.459 154.386 169.05 156.182 171.413 156.182ZM171.413 154.977C169.618 154.977 168.8 153.432 168.8 151.682C168.8 149.932 169.618 148.364 171.413 148.364C173.209 148.364 174.027 149.932 174.027 151.682C174.027 153.432 173.209 154.977 171.413 154.977ZM177.415 156H178.756V150.545C178.756 149.267 179.688 148.364 180.733 148.364C181.75 148.364 182.46 149.028 182.46 150.023V156H183.824V150.318C183.824 149.193 184.528 148.364 185.756 148.364C186.71 148.364 187.528 148.869 187.528 150.159V156H188.869V150.159C188.869 148.108 187.767 147.159 186.21 147.159C184.96 147.159 184.045 147.733 183.597 148.636H183.506C183.074 147.705 182.312 147.159 181.165 147.159C180.028 147.159 179.188 147.705 178.824 148.636H178.71V147.273H177.415V156ZM199.616 147.273H197.753V145.182H196.412V147.273H195.094V148.409H196.412V153.864C196.412 155.386 197.639 156.114 198.776 156.114C199.276 156.114 199.594 156.023 199.776 155.955L199.503 154.75C199.389 154.773 199.207 154.818 198.912 154.818C198.321 154.818 197.753 154.636 197.753 153.5V148.409H199.616V147.273ZM203.162 150.75C203.162 149.227 204.134 148.364 205.457 148.364C206.719 148.364 207.48 149.159 207.48 150.545V156H208.821V150.455C208.821 148.21 207.628 147.159 205.844 147.159C204.469 147.159 203.685 147.733 203.276 148.636H203.162V144.364H201.821V156H203.162V150.75ZM214.933 156.182C216.706 156.182 218.001 155.295 218.411 153.977L217.115 153.614C216.774 154.523 215.984 154.977 214.933 154.977C213.359 154.977 212.274 153.96 212.212 152.091H218.547V151.523C218.547 148.273 216.615 147.159 214.797 147.159C212.433 147.159 210.865 149.023 210.865 151.705C210.865 154.386 212.411 156.182 214.933 156.182ZM212.212 150.932C212.303 149.574 213.263 148.364 214.797 148.364C216.251 148.364 217.183 149.455 217.183 150.932H212.212ZM225.087 156H226.428V150.545C226.428 149.267 227.359 148.364 228.405 148.364C229.422 148.364 230.132 149.028 230.132 150.023V156H231.496V150.318C231.496 149.193 232.2 148.364 233.428 148.364C234.382 148.364 235.2 148.869 235.2 150.159V156H236.541V150.159C236.541 148.108 235.439 147.159 233.882 147.159C232.632 147.159 231.717 147.733 231.268 148.636H231.178C230.746 147.705 229.984 147.159 228.837 147.159C227.7 147.159 226.859 147.705 226.496 148.636H226.382V147.273H225.087V156ZM241.561 156.205C243.084 156.205 243.879 155.386 244.152 154.818H244.22V156H245.561V150.25C245.561 147.477 243.447 147.159 242.334 147.159C241.016 147.159 239.516 147.614 238.834 149.205L240.107 149.659C240.402 149.023 241.101 148.341 242.379 148.341C243.612 148.341 244.22 148.994 244.22 150.114V150.159C244.22 150.807 243.561 150.75 241.97 150.955C240.351 151.165 238.584 151.523 238.584 153.523C238.584 155.227 239.902 156.205 241.561 156.205ZM241.766 155C240.697 155 239.925 154.523 239.925 153.591C239.925 152.568 240.857 152.25 241.902 152.114C242.47 152.045 243.993 151.886 244.22 151.614V152.841C244.22 153.932 243.357 155 241.766 155ZM249.349 150.75C249.349 149.227 250.293 148.364 251.577 148.364C252.821 148.364 253.577 149.176 253.577 150.545V156H254.918V150.455C254.918 148.227 253.73 147.159 251.963 147.159C250.645 147.159 249.827 147.75 249.418 148.636H249.304V147.273H248.009V156H249.349V150.75ZM259.936 156.205C261.459 156.205 262.254 155.386 262.527 154.818H262.595V156H263.936V150.25C263.936 147.477 261.822 147.159 260.709 147.159C259.391 147.159 257.891 147.614 257.209 149.205L258.482 149.659C258.777 149.023 259.476 148.341 260.754 148.341C261.987 148.341 262.595 148.994 262.595 150.114V150.159C262.595 150.807 261.936 150.75 260.345 150.955C258.726 151.165 256.959 151.523 256.959 153.523C256.959 155.227 258.277 156.205 259.936 156.205ZM260.141 155C259.072 155 258.3 154.523 258.3 153.591C258.3 152.568 259.232 152.25 260.277 152.114C260.845 152.045 262.368 151.886 262.595 151.614V152.841C262.595 153.932 261.732 155 260.141 155ZM269.906 159.455C271.997 159.455 273.679 158.5 273.679 156.25V147.273H272.384V148.659H272.247C271.952 148.205 271.406 147.159 269.702 147.159C267.497 147.159 265.974 148.909 265.974 151.591C265.974 154.318 267.565 155.864 269.679 155.864C271.384 155.864 271.929 154.864 272.224 154.386H272.338V156.159C272.338 157.614 271.315 158.273 269.906 158.273C268.321 158.273 267.764 157.438 267.406 156.955L266.338 157.705C266.884 158.619 267.957 159.455 269.906 159.455ZM269.861 154.659C268.179 154.659 267.315 153.386 267.315 151.568C267.315 149.795 268.156 148.364 269.861 148.364C271.497 148.364 272.361 149.682 272.361 151.568C272.361 153.5 271.474 154.659 269.861 154.659ZM279.793 156.182C281.565 156.182 282.861 155.295 283.27 153.977L281.974 153.614C281.634 154.523 280.844 154.977 279.793 154.977C278.219 154.977 277.134 153.96 277.071 152.091H283.406V151.523C283.406 148.273 281.474 147.159 279.656 147.159C277.293 147.159 275.724 149.023 275.724 151.705C275.724 154.386 277.27 156.182 279.793 156.182ZM277.071 150.932C277.162 149.574 278.122 148.364 279.656 148.364C281.111 148.364 282.043 149.455 282.043 150.932H277.071ZM285.446 156H286.787V150.477C286.787 149.295 287.719 148.432 288.991 148.432C289.349 148.432 289.719 148.5 289.81 148.523V147.159C289.656 147.148 289.304 147.136 289.105 147.136C288.06 147.136 287.151 147.727 286.832 148.591H286.741V147.273H285.446V156ZM291.376 156.091C291.939 156.091 292.399 155.631 292.399 155.068C292.399 154.506 291.939 154.045 291.376 154.045C290.814 154.045 290.354 154.506 290.354 155.068C290.354 155.631 290.814 156.091 291.376 156.091Z" fill="#4E5A65"/>
</svg>
