<svg width="760" height="216" viewBox="0 0 760 216" fill="none" xmlns="http://www.w3.org/2000/svg">
<path d="M115.341 12.4545V59H123.432V26.9545H123.864L136.727 58.8636H142.773L155.636 27.0227H156.068V59H164.159V12.4545H153.841L140.023 46.1818H139.477L125.659 12.4545H115.341ZM183.023 59.7045C188.5 59.7045 191.773 57.1364 193.273 54.2045H193.545V59H201.455V35.6364C201.455 26.4091 193.932 23.6364 187.273 23.6364C179.932 23.6364 174.295 26.9091 172.477 33.2727L180.159 34.3636C180.977 31.9773 183.295 29.9318 187.318 29.9318C191.136 29.9318 193.227 31.8864 193.227 35.3182V35.4545C193.227 37.8182 190.75 37.9318 184.591 38.5909C177.818 39.3182 171.341 41.3409 171.341 49.2045C171.341 56.0682 176.364 59.7045 183.023 59.7045ZM185.159 53.6591C181.727 53.6591 179.273 52.0909 179.273 49.0682C179.273 45.9091 182.023 44.5909 185.705 44.0682C187.864 43.7727 192.182 43.2273 193.25 42.3636V46.4773C193.25 50.3636 190.114 53.6591 185.159 53.6591ZM217.955 38.5455C217.955 33.5 221 30.5909 225.341 30.5909C229.591 30.5909 232.136 33.3864 232.136 38.0455V59H240.364V36.7727C240.386 28.4091 235.614 23.6364 228.409 23.6364C223.182 23.6364 219.591 26.1364 218 30.0227H217.591V24.0909H209.727V59H217.955V38.5455ZM258.773 59.7045C264.25 59.7045 267.523 57.1364 269.023 54.2045H269.295V59H277.205V35.6364C277.205 26.4091 269.682 23.6364 263.023 23.6364C255.682 23.6364 250.045 26.9091 248.227 33.2727L255.909 34.3636C256.727 31.9773 259.045 29.9318 263.068 29.9318C266.886 29.9318 268.977 31.8864 268.977 35.3182V35.4545C268.977 37.8182 266.5 37.9318 260.341 38.5909C253.568 39.3182 247.091 41.3409 247.091 49.2045C247.091 56.0682 252.114 59.7045 258.773 59.7045ZM260.909 53.6591C257.477 53.6591 255.023 52.0909 255.023 49.0682C255.023 45.9091 257.773 44.5909 261.455 44.0682C263.614 43.7727 267.932 43.2273 269 42.3636V46.4773C269 50.3636 265.864 53.6591 260.909 53.6591ZM300.659 72.8182C310.091 72.8182 317.045 68.5 317.045 59.5682V24.0909H308.932V29.8636H308.477C307.227 27.3409 304.614 23.6364 298.455 23.6364C290.386 23.6364 284.045 29.9545 284.045 41.4318C284.045 52.8182 290.386 58.5 298.432 58.5C304.409 58.5 307.205 55.2955 308.477 52.7273H308.886V59.3409C308.886 64.4773 305.477 66.5909 300.795 66.5909C295.841 66.5909 293.659 64.25 292.659 62.2045L285.25 64C286.75 68.8864 291.773 72.8182 300.659 72.8182ZM300.727 52.0455C295.295 52.0455 292.432 47.8182 292.432 41.3864C292.432 35.0455 295.25 30.3864 300.727 30.3864C306.023 30.3864 308.932 34.7727 308.932 41.3864C308.932 48.0455 305.977 52.0455 300.727 52.0455ZM340.932 59.6818C349.068 59.6818 354.659 55.7045 356.114 49.6364L348.432 48.7727C347.318 51.7273 344.591 53.2727 341.045 53.2727C335.727 53.2727 332.205 49.7727 332.136 43.7955H356.455V41.2727C356.455 29.0227 349.091 23.6364 340.5 23.6364C330.5 23.6364 323.977 30.9773 323.977 41.75C323.977 52.7045 330.409 59.6818 340.932 59.6818ZM332.159 38.25C332.409 33.7955 335.705 30.0455 340.614 30.0455C345.341 30.0455 348.523 33.5 348.568 38.25H332.159ZM396.722 24.0909H389.835V15.7273H381.608V24.0909H376.653V30.4545H381.608V49.8636C381.562 56.4318 386.335 59.6591 392.517 59.4773C394.858 59.4091 396.472 58.9545 397.358 58.6591L395.972 52.2273C395.517 52.3409 394.585 52.5455 393.562 52.5455C391.494 52.5455 389.835 51.8182 389.835 48.5V30.4545H396.722V24.0909ZM412.58 38.5455C412.58 33.5 415.716 30.5909 420.125 30.5909C424.443 30.5909 426.989 33.3409 426.989 38.0455V59H435.216V36.7727C435.216 28.3409 430.443 23.6364 423.193 23.6364C417.83 23.6364 414.42 26.0682 412.807 30.0227H412.398V12.4545H404.352V59H412.58V38.5455ZM459.057 59.6818C467.193 59.6818 472.784 55.7045 474.239 49.6364L466.557 48.7727C465.443 51.7273 462.716 53.2727 459.17 53.2727C453.852 53.2727 450.33 49.7727 450.261 43.7955H474.58V41.2727C474.58 29.0227 467.216 23.6364 458.625 23.6364C448.625 23.6364 442.102 30.9773 442.102 41.75C442.102 52.7045 448.534 59.6818 459.057 59.6818ZM450.284 38.25C450.534 33.7955 453.83 30.0455 458.739 30.0455C463.466 30.0455 466.648 33.5 466.693 38.25H450.284ZM514.847 24.0909H507.96V15.7273H499.733V24.0909H494.778V30.4545H499.733V49.8636C499.688 56.4318 504.46 59.6591 510.642 59.4773C512.983 59.4091 514.597 58.9545 515.483 58.6591L514.097 52.2273C513.642 52.3409 512.71 52.5455 511.688 52.5455C509.619 52.5455 507.96 51.8182 507.96 48.5V30.4545H514.847V24.0909ZM536.807 59.6818C544.943 59.6818 550.534 55.7045 551.989 49.6364L544.307 48.7727C543.193 51.7273 540.466 53.2727 536.92 53.2727C531.602 53.2727 528.08 49.7727 528.011 43.7955H552.33V41.2727C552.33 29.0227 544.966 23.6364 536.375 23.6364C526.375 23.6364 519.852 30.9773 519.852 41.75C519.852 52.7045 526.284 59.6818 536.807 59.6818ZM528.034 38.25C528.284 33.7955 531.58 30.0455 536.489 30.0455C541.216 30.0455 544.398 33.5 544.443 38.25H528.034ZM569.335 59.7045C574.812 59.7045 578.085 57.1364 579.585 54.2045H579.858V59H587.767V35.6364C587.767 26.4091 580.244 23.6364 573.585 23.6364C566.244 23.6364 560.608 26.9091 558.79 33.2727L566.472 34.3636C567.29 31.9773 569.608 29.9318 573.631 29.9318C577.449 29.9318 579.54 31.8864 579.54 35.3182V35.4545C579.54 37.8182 577.062 37.9318 570.903 38.5909C564.131 39.3182 557.653 41.3409 557.653 49.2045C557.653 56.0682 562.676 59.7045 569.335 59.7045ZM571.472 53.6591C568.04 53.6591 565.585 52.0909 565.585 49.0682C565.585 45.9091 568.335 44.5909 572.017 44.0682C574.176 43.7727 578.494 43.2273 579.562 42.3636V46.4773C579.562 50.3636 576.426 53.6591 571.472 53.6591ZM596.04 59H604.267V37.7727C604.267 33.4773 607.131 30.5682 610.676 30.5682C614.153 30.5682 616.54 32.9091 616.54 36.5V59H624.608V37.2273C624.608 33.2955 626.949 30.5682 630.926 30.5682C634.244 30.5682 636.881 32.5227 636.881 36.8409V59H645.131V35.5682C645.131 27.7727 640.631 23.6364 634.222 23.6364C629.153 23.6364 625.29 26.1364 623.744 30.0227H623.381C622.04 26.0682 618.653 23.6364 613.949 23.6364C609.267 23.6364 605.767 26.0455 604.312 30.0227H603.903V24.0909H596.04V59ZM19.9631 131.682C28.0994 131.682 33.6903 127.705 35.1449 121.636L27.4631 120.773C26.3494 123.727 23.6222 125.273 20.0767 125.273C14.7585 125.273 11.2358 121.773 11.1676 115.795H35.4858V113.273C35.4858 101.023 28.1222 95.6364 19.5312 95.6364C9.53125 95.6364 3.00852 102.977 3.00852 113.75C3.00852 124.705 9.44034 131.682 19.9631 131.682ZM11.1903 110.25C11.4403 105.795 14.7358 102.045 19.6449 102.045C24.3722 102.045 27.554 105.5 27.5994 110.25H11.1903ZM72.6278 96.0909H63.8778L55.8324 122.023H55.4688L47.446 96.0909H38.6733L51.1051 131H60.196L72.6278 96.0909ZM92.5881 131.682C100.724 131.682 106.315 127.705 107.77 121.636L100.088 120.773C98.9744 123.727 96.2472 125.273 92.7017 125.273C87.3835 125.273 83.8608 121.773 83.7926 115.795H108.111V113.273C108.111 101.023 100.747 95.6364 92.1562 95.6364C82.1562 95.6364 75.6335 102.977 75.6335 113.75C75.6335 124.705 82.0653 131.682 92.5881 131.682ZM83.8153 110.25C84.0653 105.795 87.3608 102.045 92.2699 102.045C96.9972 102.045 100.179 105.5 100.224 110.25H83.8153ZM115.071 131H123.298V110.477C123.298 106.045 126.639 102.909 131.162 102.909C132.548 102.909 134.276 103.159 134.98 103.386V95.8182C134.23 95.6818 132.935 95.5909 132.026 95.5909C128.026 95.5909 124.685 97.8636 123.412 101.909H123.048V96.0909H115.071V131ZM146.622 144.091C153.031 144.091 156.736 140.795 158.713 135.227L172.736 96.1364L163.94 96.0909L155.872 122.455H155.509L147.463 96.0909H138.736L151.395 131.727L150.69 133.614C149.168 137.591 146.759 137.864 143.168 136.818L141.259 143.227C142.372 143.682 144.372 144.091 146.622 144.091ZM192.486 131.682C202.713 131.682 209.213 124.477 209.213 113.682C209.213 102.864 202.713 95.6364 192.486 95.6364C182.259 95.6364 175.759 102.864 175.759 113.682C175.759 124.477 182.259 131.682 192.486 131.682ZM192.531 125.091C186.872 125.091 184.099 120.045 184.099 113.659C184.099 107.273 186.872 102.159 192.531 102.159C198.099 102.159 200.872 107.273 200.872 113.659C200.872 120.045 198.099 125.091 192.531 125.091ZM224.423 110.545C224.423 105.5 227.469 102.591 231.81 102.591C236.06 102.591 238.605 105.386 238.605 110.045V131H246.832V108.773C246.855 100.409 242.082 95.6364 234.878 95.6364C229.651 95.6364 226.06 98.1364 224.469 102.023H224.06V96.0909H216.196V131H224.423V110.545ZM270.651 131.682C278.787 131.682 284.378 127.705 285.832 121.636L278.151 120.773C277.037 123.727 274.31 125.273 270.764 125.273C265.446 125.273 261.923 121.773 261.855 115.795H286.173V113.273C286.173 101.023 278.81 95.6364 270.219 95.6364C260.219 95.6364 253.696 102.977 253.696 113.75C253.696 124.705 260.128 131.682 270.651 131.682ZM261.878 110.25C262.128 105.795 265.423 102.045 270.332 102.045C275.06 102.045 278.241 105.5 278.287 110.25H261.878ZM316.213 131H324.804L331.349 107.409H331.827L338.372 131H346.94L356.827 96.0909H348.418L342.372 120.5H342.031L335.759 96.0909H327.463L321.19 120.636H320.872L314.736 96.0909H306.349L316.213 131ZM372.616 131.705C378.094 131.705 381.366 129.136 382.866 126.205H383.139V131H391.048V107.636C391.048 98.4091 383.526 95.6364 376.866 95.6364C369.526 95.6364 363.889 98.9091 362.071 105.273L369.753 106.364C370.571 103.977 372.889 101.932 376.912 101.932C380.73 101.932 382.821 103.886 382.821 107.318V107.455C382.821 109.818 380.344 109.932 374.185 110.591C367.412 111.318 360.935 113.341 360.935 121.205C360.935 128.068 365.957 131.705 372.616 131.705ZM374.753 125.659C371.321 125.659 368.866 124.091 368.866 121.068C368.866 117.909 371.616 116.591 375.298 116.068C377.457 115.773 381.776 115.227 382.844 114.364V118.477C382.844 122.364 379.707 125.659 374.753 125.659ZM407.548 110.545C407.548 105.5 410.594 102.591 414.935 102.591C419.185 102.591 421.73 105.386 421.73 110.045V131H429.957V108.773C429.98 100.409 425.207 95.6364 418.003 95.6364C412.776 95.6364 409.185 98.1364 407.594 102.023H407.185V96.0909H399.321V131H407.548V110.545ZM455.753 96.0909H448.866V87.7273H440.639V96.0909H435.685V102.455H440.639V121.864C440.594 128.432 445.366 131.659 451.548 131.477C453.889 131.409 455.503 130.955 456.389 130.659L455.003 124.227C454.548 124.341 453.616 124.545 452.594 124.545C450.526 124.545 448.866 123.818 448.866 120.5V102.455H455.753V96.0909ZM489.724 105.318C488.588 99.4091 483.861 95.6364 475.679 95.6364C467.27 95.6364 461.543 99.7727 461.565 106.227C461.543 111.318 464.679 114.682 471.384 116.068L477.338 117.318C480.543 118.023 482.043 119.318 482.043 121.295C482.043 123.682 479.452 125.477 475.543 125.477C471.77 125.477 469.315 123.841 468.611 120.705L460.588 121.477C461.611 127.886 466.997 131.682 475.565 131.682C484.293 131.682 490.452 127.159 490.474 120.545C490.452 115.568 487.247 112.523 480.656 111.091L474.702 109.818C471.156 109.023 469.747 107.795 469.77 105.773C469.747 103.409 472.361 101.773 475.793 101.773C479.588 101.773 481.588 103.841 482.224 106.136L489.724 105.318ZM530.565 96.0909H523.679V87.7273H515.452V96.0909H510.497V102.455H515.452V121.864C515.406 128.432 520.179 131.659 526.361 131.477C528.702 131.409 530.315 130.955 531.202 130.659L529.815 124.227C529.361 124.341 528.429 124.545 527.406 124.545C525.338 124.545 523.679 123.818 523.679 120.5V102.455H530.565V96.0909ZM552.298 131.682C562.526 131.682 569.026 124.477 569.026 113.682C569.026 102.864 562.526 95.6364 552.298 95.6364C542.071 95.6364 535.571 102.864 535.571 113.682C535.571 124.477 542.071 131.682 552.298 131.682ZM552.344 125.091C546.685 125.091 543.912 120.045 543.912 113.659C543.912 107.273 546.685 102.159 552.344 102.159C557.912 102.159 560.685 107.273 560.685 113.659C560.685 120.045 557.912 125.091 552.344 125.091ZM592.247 131H600.338V125.5H600.815C602.111 128.045 604.815 131.614 610.815 131.614C619.043 131.614 625.202 125.091 625.202 113.591C625.202 101.955 618.861 95.6364 610.793 95.6364C604.634 95.6364 602.065 99.3409 600.815 101.864H600.474V84.4545H592.247V131ZM600.315 113.545C600.315 106.773 603.224 102.386 608.52 102.386C613.997 102.386 616.815 107.045 616.815 113.545C616.815 120.091 613.952 124.864 608.52 124.864C603.27 124.864 600.315 120.318 600.315 113.545ZM647.651 131.682C655.787 131.682 661.378 127.705 662.832 121.636L655.151 120.773C654.037 123.727 651.31 125.273 647.764 125.273C642.446 125.273 638.923 121.773 638.855 115.795H663.173V113.273C663.173 101.023 655.81 95.6364 647.219 95.6364C637.219 95.6364 630.696 102.977 630.696 113.75C630.696 124.705 637.128 131.682 647.651 131.682ZM638.878 110.25C639.128 105.795 642.423 102.045 647.332 102.045C652.06 102.045 655.241 105.5 655.287 110.25H638.878ZM701.236 131.682C711.463 131.682 717.963 124.477 717.963 113.682C717.963 102.864 711.463 95.6364 701.236 95.6364C691.009 95.6364 684.509 102.864 684.509 113.682C684.509 124.477 691.009 131.682 701.236 131.682ZM701.281 125.091C695.622 125.091 692.849 120.045 692.849 113.659C692.849 107.273 695.622 102.159 701.281 102.159C706.849 102.159 709.622 107.273 709.622 113.659C709.622 120.045 706.849 125.091 701.281 125.091ZM733.173 110.545C733.173 105.5 736.219 102.591 740.56 102.591C744.81 102.591 747.355 105.386 747.355 110.045V131H755.582V108.773C755.605 100.409 750.832 95.6364 743.628 95.6364C738.401 95.6364 734.81 98.1364 733.219 102.023H732.81V96.0909H724.946V131H733.173V110.545Z" fill="#35414B"/>
<path d="M135.273 177.273H136.636C136.574 175.517 134.955 174.205 132.705 174.205C130.477 174.205 128.727 175.5 128.727 177.455C128.727 179.023 129.864 179.955 131.682 180.477L133.114 180.886C134.341 181.227 135.432 181.659 135.432 182.818C135.432 184.091 134.205 184.932 132.591 184.932C131.205 184.932 129.977 184.318 129.864 183H128.409C128.545 184.909 130.091 186.205 132.591 186.205C135.273 186.205 136.795 184.727 136.795 182.841C136.795 180.659 134.727 179.955 133.523 179.636L132.341 179.318C131.477 179.091 130.091 178.636 130.091 177.386C130.091 176.273 131.114 175.455 132.659 175.455C134.068 175.455 135.136 176.125 135.273 177.273ZM138.93 186H140.271V177.273H138.93V186ZM139.612 175.818C140.135 175.818 140.567 175.409 140.567 174.909C140.567 174.409 140.135 174 139.612 174C139.089 174 138.658 174.409 138.658 174.909C138.658 175.409 139.089 175.818 139.612 175.818ZM142.727 186H144.068V180.545C144.068 179.267 145 178.364 146.045 178.364C147.062 178.364 147.773 179.028 147.773 180.023V186H149.136V180.318C149.136 179.193 149.841 178.364 151.068 178.364C152.023 178.364 152.841 178.869 152.841 180.159V186H154.182V180.159C154.182 178.108 153.08 177.159 151.523 177.159C150.273 177.159 149.358 177.733 148.909 178.636H148.818C148.386 177.705 147.625 177.159 146.477 177.159C145.341 177.159 144.5 177.705 144.136 178.636H144.023V177.273H142.727V186ZM156.634 189.273H157.974V184.659H158.088C158.384 185.136 158.952 186.182 160.634 186.182C162.815 186.182 164.338 184.432 164.338 181.659C164.338 178.909 162.815 177.159 160.611 177.159C158.906 177.159 158.384 178.205 158.088 178.659H157.929V177.273H156.634V189.273ZM157.952 181.636C157.952 179.682 158.815 178.364 160.452 178.364C162.156 178.364 162.997 179.795 162.997 181.636C162.997 183.5 162.134 184.977 160.452 184.977C158.838 184.977 157.952 183.614 157.952 181.636ZM167.724 174.364H166.384V186H167.724V174.364ZM173.839 186.182C175.612 186.182 176.908 185.295 177.317 183.977L176.021 183.614C175.68 184.523 174.891 184.977 173.839 184.977C172.266 184.977 171.18 183.96 171.118 182.091H177.453V181.523C177.453 178.273 175.521 177.159 173.703 177.159C171.339 177.159 169.771 179.023 169.771 181.705C169.771 184.386 171.317 186.182 173.839 186.182ZM171.118 180.932C171.209 179.574 172.169 178.364 173.703 178.364C175.158 178.364 176.089 179.455 176.089 180.932H171.118ZM183.993 189.273H185.334V184.659H185.447C185.743 185.136 186.311 186.182 187.993 186.182C190.175 186.182 191.697 184.432 191.697 181.659C191.697 178.909 190.175 177.159 187.97 177.159C186.266 177.159 185.743 178.205 185.447 178.659H185.288V177.273H183.993V189.273ZM185.311 181.636C185.311 179.682 186.175 178.364 187.811 178.364C189.516 178.364 190.357 179.795 190.357 181.636C190.357 183.5 189.493 184.977 187.811 184.977C186.197 184.977 185.311 183.614 185.311 181.636ZM195.084 174.364H193.743V186H195.084V174.364ZM200.108 186.205C201.631 186.205 202.426 185.386 202.699 184.818H202.767V186H204.108V180.25C204.108 177.477 201.994 177.159 200.881 177.159C199.562 177.159 198.062 177.614 197.381 179.205L198.653 179.659C198.949 179.023 199.648 178.341 200.926 178.341C202.159 178.341 202.767 178.994 202.767 180.114V180.159C202.767 180.807 202.108 180.75 200.517 180.955C198.898 181.165 197.131 181.523 197.131 183.523C197.131 185.227 198.449 186.205 200.108 186.205ZM200.312 185C199.244 185 198.472 184.523 198.472 183.591C198.472 182.568 199.403 182.25 200.449 182.114C201.017 182.045 202.54 181.886 202.767 181.614V182.841C202.767 183.932 201.903 185 200.312 185ZM210.351 177.273H208.487V175.182H207.146V177.273H205.828V178.409H207.146V183.864C207.146 185.386 208.374 186.114 209.51 186.114C210.01 186.114 210.328 186.023 210.51 185.955L210.237 184.75C210.124 184.773 209.942 184.818 209.646 184.818C209.055 184.818 208.487 184.636 208.487 183.5V178.409H210.351V177.273ZM216.254 177.273H214.3V176.386C214.3 175.523 214.663 175.068 215.55 175.068C215.936 175.068 216.163 175.159 216.3 175.205L216.686 174.045C216.482 173.955 216.072 173.818 215.413 173.818C214.163 173.818 212.959 174.568 212.959 176.068V177.273H211.55V178.409H212.959V186H214.3V178.409H216.254V177.273ZM221.32 186.182C223.683 186.182 225.274 184.386 225.274 181.682C225.274 178.955 223.683 177.159 221.32 177.159C218.956 177.159 217.365 178.955 217.365 181.682C217.365 184.386 218.956 186.182 221.32 186.182ZM221.32 184.977C219.524 184.977 218.706 183.432 218.706 181.682C218.706 179.932 219.524 178.364 221.32 178.364C223.115 178.364 223.933 179.932 223.933 181.682C223.933 183.432 223.115 184.977 221.32 184.977ZM227.321 186H228.662V180.477C228.662 179.295 229.594 178.432 230.866 178.432C231.224 178.432 231.594 178.5 231.685 178.523V177.159C231.531 177.148 231.179 177.136 230.98 177.136C229.935 177.136 229.026 177.727 228.707 178.591H228.616V177.273H227.321V186ZM233.274 186H234.615V180.545C234.615 179.267 235.547 178.364 236.592 178.364C237.609 178.364 238.32 179.028 238.32 180.023V186H239.683V180.318C239.683 179.193 240.388 178.364 241.615 178.364C242.57 178.364 243.388 178.869 243.388 180.159V186H244.729V180.159C244.729 178.108 243.626 177.159 242.07 177.159C240.82 177.159 239.905 177.733 239.456 178.636H239.365C238.933 177.705 238.172 177.159 237.024 177.159C235.888 177.159 235.047 177.705 234.683 178.636H234.57V177.273H233.274V186ZM255.476 177.273H253.612V175.182H252.271V177.273H250.953V178.409H252.271V183.864C252.271 185.386 253.499 186.114 254.635 186.114C255.135 186.114 255.453 186.023 255.635 185.955L255.362 184.75C255.249 184.773 255.067 184.818 254.771 184.818C254.18 184.818 253.612 184.636 253.612 183.5V178.409H255.476V177.273ZM259.021 180.75C259.021 179.227 259.993 178.364 261.317 178.364C262.578 178.364 263.339 179.159 263.339 180.545V186H264.68V180.455C264.68 178.21 263.487 177.159 261.703 177.159C260.328 177.159 259.544 177.733 259.135 178.636H259.021V174.364H257.68V186H259.021V180.75ZM269.702 186.205C271.224 186.205 272.02 185.386 272.293 184.818H272.361V186H273.702V180.25C273.702 177.477 271.588 177.159 270.474 177.159C269.156 177.159 267.656 177.614 266.974 179.205L268.247 179.659C268.543 179.023 269.241 178.341 270.52 178.341C271.753 178.341 272.361 178.994 272.361 180.114V180.159C272.361 180.807 271.702 180.75 270.111 180.955C268.491 181.165 266.724 181.523 266.724 183.523C266.724 185.227 268.043 186.205 269.702 186.205ZM269.906 185C268.838 185 268.065 184.523 268.065 183.591C268.065 182.568 268.997 182.25 270.043 182.114C270.611 182.045 272.134 181.886 272.361 181.614V182.841C272.361 183.932 271.497 185 269.906 185ZM279.945 177.273H278.081V175.182H276.74V177.273H275.422V178.409H276.74V183.864C276.74 185.386 277.967 186.114 279.104 186.114C279.604 186.114 279.922 186.023 280.104 185.955L279.831 184.75C279.717 184.773 279.536 184.818 279.24 184.818C278.649 184.818 278.081 184.636 278.081 183.5V178.409H279.945V177.273ZM287.803 174.364H286.462V186H287.803V174.364ZM293.918 186.182C295.69 186.182 296.986 185.295 297.395 183.977L296.099 183.614C295.759 184.523 294.969 184.977 293.918 184.977C292.344 184.977 291.259 183.96 291.196 182.091H297.531V181.523C297.531 178.273 295.599 177.159 293.781 177.159C291.418 177.159 289.849 179.023 289.849 181.705C289.849 184.386 291.395 186.182 293.918 186.182ZM291.196 180.932C291.287 179.574 292.247 178.364 293.781 178.364C295.236 178.364 296.168 179.455 296.168 180.932H291.196ZM303.366 177.273H301.503V175.182H300.162V177.273H298.844V178.409H300.162V183.864C300.162 185.386 301.389 186.114 302.526 186.114C303.026 186.114 303.344 186.023 303.526 185.955L303.253 184.75C303.139 184.773 302.957 184.818 302.662 184.818C302.071 184.818 301.503 184.636 301.503 183.5V178.409H303.366V177.273ZM311.409 179.227C310.989 177.989 310.045 177.159 308.318 177.159C306.477 177.159 305.114 178.205 305.114 179.682C305.114 180.886 305.83 181.693 307.432 182.068L308.886 182.409C309.767 182.614 310.182 183.034 310.182 183.636C310.182 184.386 309.386 185 308.136 185C307.04 185 306.352 184.528 306.114 183.591L304.841 183.909C305.153 185.392 306.375 186.182 308.159 186.182C310.188 186.182 311.568 185.074 311.568 183.568C311.568 182.352 310.807 181.585 309.25 181.205L307.955 180.886C306.92 180.631 306.455 180.284 306.455 179.614C306.455 178.864 307.25 178.318 308.318 178.318C309.489 178.318 309.972 178.966 310.205 179.568L311.409 179.227ZM318.95 189.273C320.161 189.273 321.013 188.631 321.518 187.273L325.234 177.295L323.768 177.273L321.359 184.227H321.268L318.859 177.273H317.405L320.632 186.045L320.382 186.727C319.893 188.057 319.291 188.182 318.314 187.932L317.973 189.114C318.109 189.182 318.496 189.273 318.95 189.273ZM330.241 186.182C332.605 186.182 334.196 184.386 334.196 181.682C334.196 178.955 332.605 177.159 330.241 177.159C327.878 177.159 326.287 178.955 326.287 181.682C326.287 184.386 327.878 186.182 330.241 186.182ZM330.241 184.977C328.446 184.977 327.628 183.432 327.628 181.682C327.628 179.932 328.446 178.364 330.241 178.364C332.037 178.364 332.855 179.932 332.855 181.682C332.855 183.432 332.037 184.977 330.241 184.977ZM341.743 182.432C341.743 184.068 340.493 184.818 339.493 184.818C338.379 184.818 337.584 184 337.584 182.727V177.273H336.243V182.818C336.243 185.045 337.425 186.114 339.061 186.114C340.379 186.114 341.243 185.409 341.652 184.523H341.743V186H343.084V177.273H341.743V182.432ZM350.04 186H351.381V180.545C351.381 179.267 352.312 178.364 353.358 178.364C354.375 178.364 355.085 179.028 355.085 180.023V186H356.449V180.318C356.449 179.193 357.153 178.364 358.381 178.364C359.335 178.364 360.153 178.869 360.153 180.159V186H361.494V180.159C361.494 178.108 360.392 177.159 358.835 177.159C357.585 177.159 356.67 177.733 356.222 178.636H356.131C355.699 177.705 354.938 177.159 353.79 177.159C352.653 177.159 351.812 177.705 351.449 178.636H351.335V177.273H350.04V186ZM366.514 186.205C368.037 186.205 368.832 185.386 369.105 184.818H369.173V186H370.514V180.25C370.514 177.477 368.401 177.159 367.287 177.159C365.969 177.159 364.469 177.614 363.787 179.205L365.06 179.659C365.355 179.023 366.054 178.341 367.332 178.341C368.565 178.341 369.173 178.994 369.173 180.114V180.159C369.173 180.807 368.514 180.75 366.923 180.955C365.304 181.165 363.537 181.523 363.537 183.523C363.537 185.227 364.855 186.205 366.514 186.205ZM366.719 185C365.651 185 364.878 184.523 364.878 183.591C364.878 182.568 365.81 182.25 366.855 182.114C367.423 182.045 368.946 181.886 369.173 181.614V182.841C369.173 183.932 368.31 185 366.719 185ZM379.143 179.227C378.723 177.989 377.78 177.159 376.053 177.159C374.212 177.159 372.848 178.205 372.848 179.682C372.848 180.886 373.564 181.693 375.166 182.068L376.621 182.409C377.501 182.614 377.916 183.034 377.916 183.636C377.916 184.386 377.121 185 375.871 185C374.774 185 374.087 184.528 373.848 183.591L372.575 183.909C372.888 185.392 374.109 186.182 375.893 186.182C377.922 186.182 379.303 185.074 379.303 183.568C379.303 182.352 378.541 181.585 376.984 181.205L375.689 180.886C374.655 180.631 374.189 180.284 374.189 179.614C374.189 178.864 374.984 178.318 376.053 178.318C377.223 178.318 377.706 178.966 377.939 179.568L379.143 179.227ZM385.116 177.273H383.253V175.182H381.912V177.273H380.594V178.409H381.912V183.864C381.912 185.386 383.139 186.114 384.276 186.114C384.776 186.114 385.094 186.023 385.276 185.955L385.003 184.75C384.889 184.773 384.707 184.818 384.412 184.818C383.821 184.818 383.253 184.636 383.253 183.5V178.409H385.116V177.273ZM390.699 186.182C392.472 186.182 393.767 185.295 394.176 183.977L392.881 183.614C392.54 184.523 391.75 184.977 390.699 184.977C389.125 184.977 388.04 183.96 387.977 182.091H394.312V181.523C394.312 178.273 392.381 177.159 390.562 177.159C388.199 177.159 386.631 179.023 386.631 181.705C386.631 184.386 388.176 186.182 390.699 186.182ZM387.977 180.932C388.068 179.574 389.028 178.364 390.562 178.364C392.017 178.364 392.949 179.455 392.949 180.932H387.977ZM396.352 186H397.693V180.477C397.693 179.295 398.625 178.432 399.898 178.432C400.256 178.432 400.625 178.5 400.716 178.523V177.159C400.562 177.148 400.21 177.136 400.011 177.136C398.966 177.136 398.057 177.727 397.739 178.591H397.648V177.273H396.352V186ZM408.783 186H410.101L412.01 179.295H412.146L414.055 186H415.374L418.033 177.273H416.624L414.737 183.932H414.646L412.805 177.273H411.374L409.51 183.955H409.419L407.533 177.273H406.124L408.783 186ZM421.146 180.75C421.146 179.227 422.118 178.364 423.442 178.364C424.703 178.364 425.464 179.159 425.464 180.545V186H426.805V180.455C426.805 178.21 425.612 177.159 423.828 177.159C422.453 177.159 421.669 177.733 421.26 178.636H421.146V174.364H419.805V186H421.146V180.75ZM431.827 186.205C433.349 186.205 434.145 185.386 434.418 184.818H434.486V186H435.827V180.25C435.827 177.477 433.713 177.159 432.599 177.159C431.281 177.159 429.781 177.614 429.099 179.205L430.372 179.659C430.668 179.023 431.366 178.341 432.645 178.341C433.878 178.341 434.486 178.994 434.486 180.114V180.159C434.486 180.807 433.827 180.75 432.236 180.955C430.616 181.165 428.849 181.523 428.849 183.523C428.849 185.227 430.168 186.205 431.827 186.205ZM432.031 185C430.963 185 430.19 184.523 430.19 183.591C430.19 182.568 431.122 182.25 432.168 182.114C432.736 182.045 434.259 181.886 434.486 181.614V182.841C434.486 183.932 433.622 185 432.031 185ZM442.07 177.273H440.206V175.182H438.865V177.273H437.547V178.409H438.865V183.864C438.865 185.386 440.092 186.114 441.229 186.114C441.729 186.114 442.047 186.023 442.229 185.955L441.956 184.75C441.842 184.773 441.661 184.818 441.365 184.818C440.774 184.818 440.206 184.636 440.206 183.5V178.409H442.07V177.273ZM452.109 189.455C454.2 189.455 455.882 188.5 455.882 186.25V177.273H454.587V178.659H454.45C454.155 178.205 453.609 177.159 451.905 177.159C449.7 177.159 448.178 178.909 448.178 181.591C448.178 184.318 449.768 185.864 451.882 185.864C453.587 185.864 454.132 184.864 454.428 184.386H454.541V186.159C454.541 187.614 453.518 188.273 452.109 188.273C450.524 188.273 449.967 187.438 449.609 186.955L448.541 187.705C449.087 188.619 450.161 189.455 452.109 189.455ZM452.064 184.659C450.382 184.659 449.518 183.386 449.518 181.568C449.518 179.795 450.359 178.364 452.064 178.364C453.7 178.364 454.564 179.682 454.564 181.568C454.564 183.5 453.678 184.659 452.064 184.659ZM458.337 186H459.678V180.477C459.678 179.295 460.609 178.432 461.882 178.432C462.24 178.432 462.609 178.5 462.7 178.523V177.159C462.547 177.148 462.195 177.136 461.996 177.136C460.95 177.136 460.041 177.727 459.723 178.591H459.632V177.273H458.337V186ZM467.683 186.182C469.456 186.182 470.751 185.295 471.161 183.977L469.865 183.614C469.524 184.523 468.734 184.977 467.683 184.977C466.109 184.977 465.024 183.96 464.962 182.091H471.297V181.523C471.297 178.273 469.365 177.159 467.547 177.159C465.183 177.159 463.615 179.023 463.615 181.705C463.615 184.386 465.161 186.182 467.683 186.182ZM464.962 180.932C465.053 179.574 466.013 178.364 467.547 178.364C469.001 178.364 469.933 179.455 469.933 180.932H464.962ZM475.905 186.205C477.428 186.205 478.223 185.386 478.496 184.818H478.564V186H479.905V180.25C479.905 177.477 477.791 177.159 476.678 177.159C475.359 177.159 473.859 177.614 473.178 179.205L474.45 179.659C474.746 179.023 475.445 178.341 476.723 178.341C477.956 178.341 478.564 178.994 478.564 180.114V180.159C478.564 180.807 477.905 180.75 476.314 180.955C474.695 181.165 472.928 181.523 472.928 183.523C472.928 185.227 474.246 186.205 475.905 186.205ZM476.109 185C475.041 185 474.268 184.523 474.268 183.591C474.268 182.568 475.2 182.25 476.246 182.114C476.814 182.045 478.337 181.886 478.564 181.614V182.841C478.564 183.932 477.7 185 476.109 185ZM486.148 177.273H484.284V175.182H482.943V177.273H481.625V178.409H482.943V183.864C482.943 185.386 484.17 186.114 485.307 186.114C485.807 186.114 486.125 186.023 486.307 185.955L486.034 184.75C485.92 184.773 485.739 184.818 485.443 184.818C484.852 184.818 484.284 184.636 484.284 183.5V178.409H486.148V177.273ZM492.665 186H494.006V180.545C494.006 179.267 494.938 178.364 495.983 178.364C497 178.364 497.71 179.028 497.71 180.023V186H499.074V180.318C499.074 179.193 499.778 178.364 501.006 178.364C501.96 178.364 502.778 178.869 502.778 180.159V186H504.119V180.159C504.119 178.108 503.017 177.159 501.46 177.159C500.21 177.159 499.295 177.733 498.847 178.636H498.756C498.324 177.705 497.562 177.159 496.415 177.159C495.278 177.159 494.438 177.705 494.074 178.636H493.96V177.273H492.665V186ZM509.139 186.205C510.662 186.205 511.457 185.386 511.73 184.818H511.798V186H513.139V180.25C513.139 177.477 511.026 177.159 509.912 177.159C508.594 177.159 507.094 177.614 506.412 179.205L507.685 179.659C507.98 179.023 508.679 178.341 509.957 178.341C511.19 178.341 511.798 178.994 511.798 180.114V180.159C511.798 180.807 511.139 180.75 509.548 180.955C507.929 181.165 506.162 181.523 506.162 183.523C506.162 185.227 507.48 186.205 509.139 186.205ZM509.344 185C508.276 185 507.503 184.523 507.503 183.591C507.503 182.568 508.435 182.25 509.48 182.114C510.048 182.045 511.571 181.886 511.798 181.614V182.841C511.798 183.932 510.935 185 509.344 185ZM516.928 180.75C516.928 179.227 517.871 178.364 519.155 178.364C520.399 178.364 521.155 179.176 521.155 180.545V186H522.496V180.455C522.496 178.227 521.308 177.159 519.541 177.159C518.223 177.159 517.405 177.75 516.996 178.636H516.882V177.273H515.587V186H516.928V180.75ZM527.514 186.205C529.037 186.205 529.832 185.386 530.105 184.818H530.173V186H531.514V180.25C531.514 177.477 529.401 177.159 528.287 177.159C526.969 177.159 525.469 177.614 524.787 179.205L526.06 179.659C526.355 179.023 527.054 178.341 528.332 178.341C529.565 178.341 530.173 178.994 530.173 180.114V180.159C530.173 180.807 529.514 180.75 527.923 180.955C526.304 181.165 524.537 181.523 524.537 183.523C524.537 185.227 525.855 186.205 527.514 186.205ZM527.719 185C526.651 185 525.878 184.523 525.878 183.591C525.878 182.568 526.81 182.25 527.855 182.114C528.423 182.045 529.946 181.886 530.173 181.614V182.841C530.173 183.932 529.31 185 527.719 185ZM537.484 189.455C539.575 189.455 541.257 188.5 541.257 186.25V177.273H539.962V178.659H539.825C539.53 178.205 538.984 177.159 537.28 177.159C535.075 177.159 533.553 178.909 533.553 181.591C533.553 184.318 535.143 185.864 537.257 185.864C538.962 185.864 539.507 184.864 539.803 184.386H539.916V186.159C539.916 187.614 538.893 188.273 537.484 188.273C535.899 188.273 535.342 187.438 534.984 186.955L533.916 187.705C534.462 188.619 535.536 189.455 537.484 189.455ZM537.439 184.659C535.757 184.659 534.893 183.386 534.893 181.568C534.893 179.795 535.734 178.364 537.439 178.364C539.075 178.364 539.939 179.682 539.939 181.568C539.939 183.5 539.053 184.659 537.439 184.659ZM547.371 186.182C549.143 186.182 550.439 185.295 550.848 183.977L549.553 183.614C549.212 184.523 548.422 184.977 547.371 184.977C545.797 184.977 544.712 183.96 544.649 182.091H550.984V181.523C550.984 178.273 549.053 177.159 547.234 177.159C544.871 177.159 543.303 179.023 543.303 181.705C543.303 184.386 544.848 186.182 547.371 186.182ZM544.649 180.932C544.74 179.574 545.7 178.364 547.234 178.364C548.689 178.364 549.621 179.455 549.621 180.932H544.649ZM553.024 186H554.365V180.477C554.365 179.295 555.297 178.432 556.57 178.432C556.928 178.432 557.297 178.5 557.388 178.523V177.159C557.234 177.148 556.882 177.136 556.683 177.136C555.638 177.136 554.729 177.727 554.411 178.591H554.32V177.273H553.024V186ZM565.159 179.227C564.739 177.989 563.795 177.159 562.068 177.159C560.227 177.159 558.864 178.205 558.864 179.682C558.864 180.886 559.58 181.693 561.182 182.068L562.636 182.409C563.517 182.614 563.932 183.034 563.932 183.636C563.932 184.386 563.136 185 561.886 185C560.79 185 560.102 184.528 559.864 183.591L558.591 183.909C558.903 185.392 560.125 186.182 561.909 186.182C563.938 186.182 565.318 185.074 565.318 183.568C565.318 182.352 564.557 181.585 563 181.205L561.705 180.886C560.67 180.631 560.205 180.284 560.205 179.614C560.205 178.864 561 178.318 562.068 178.318C563.239 178.318 563.722 178.966 563.955 179.568L565.159 179.227ZM575.132 186.182C576.814 186.182 577.382 185.136 577.678 184.659H577.837V186H579.132V174.364H577.791V178.659H577.678C577.382 178.205 576.859 177.159 575.155 177.159C572.95 177.159 571.428 178.909 571.428 181.659C571.428 184.432 572.95 186.182 575.132 186.182ZM575.314 184.977C573.632 184.977 572.768 183.5 572.768 181.636C572.768 179.795 573.609 178.364 575.314 178.364C576.95 178.364 577.814 179.682 577.814 181.636C577.814 183.614 576.928 184.977 575.314 184.977ZM585.32 186.182C587.683 186.182 589.274 184.386 589.274 181.682C589.274 178.955 587.683 177.159 585.32 177.159C582.956 177.159 581.365 178.955 581.365 181.682C581.365 184.386 582.956 186.182 585.32 186.182ZM585.32 184.977C583.524 184.977 582.706 183.432 582.706 181.682C582.706 179.932 583.524 178.364 585.32 178.364C587.115 178.364 587.933 179.932 587.933 181.682C587.933 183.432 587.115 184.977 585.32 184.977ZM596.003 186H597.298V184.659H597.457C597.753 185.136 598.321 186.182 600.003 186.182C602.185 186.182 603.707 184.432 603.707 181.659C603.707 178.909 602.185 177.159 599.98 177.159C598.276 177.159 597.753 178.205 597.457 178.659H597.344V174.364H596.003V186ZM597.321 181.636C597.321 179.682 598.185 178.364 599.821 178.364C601.526 178.364 602.366 179.795 602.366 181.636C602.366 183.5 601.503 184.977 599.821 184.977C598.207 184.977 597.321 183.614 597.321 181.636ZM609.418 186.182C611.19 186.182 612.486 185.295 612.895 183.977L611.599 183.614C611.259 184.523 610.469 184.977 609.418 184.977C607.844 184.977 606.759 183.96 606.696 182.091H613.031V181.523C613.031 178.273 611.099 177.159 609.281 177.159C606.918 177.159 605.349 179.023 605.349 181.705C605.349 184.386 606.895 186.182 609.418 186.182ZM606.696 180.932C606.787 179.574 607.747 178.364 609.281 178.364C610.736 178.364 611.668 179.455 611.668 180.932H606.696ZM621.253 179.227C620.832 177.989 619.889 177.159 618.162 177.159C616.321 177.159 614.957 178.205 614.957 179.682C614.957 180.886 615.673 181.693 617.276 182.068L618.73 182.409C619.611 182.614 620.026 183.034 620.026 183.636C620.026 184.386 619.23 185 617.98 185C616.884 185 616.196 184.528 615.957 183.591L614.685 183.909C614.997 185.392 616.219 186.182 618.003 186.182C620.031 186.182 621.412 185.074 621.412 183.568C621.412 182.352 620.651 181.585 619.094 181.205L617.798 180.886C616.764 180.631 616.298 180.284 616.298 179.614C616.298 178.864 617.094 178.318 618.162 178.318C619.332 178.318 619.815 178.966 620.048 179.568L621.253 179.227ZM627.226 177.273H625.362V175.182H624.021V177.273H622.703V178.409H624.021V183.864C624.021 185.386 625.249 186.114 626.385 186.114C626.885 186.114 627.203 186.023 627.385 185.955L627.112 184.75C626.999 184.773 626.817 184.818 626.521 184.818C625.93 184.818 625.362 184.636 625.362 183.5V178.409H627.226V177.273ZM631.243 184.409H629.788L629.72 185.045C629.555 186.585 629.232 188.119 629.084 188.841H630.107C630.379 188.068 630.959 186.318 631.152 185.023L631.243 184.409ZM162.342 210.205C163.865 210.205 164.661 209.386 164.933 208.818H165.001V210H166.342V204.25C166.342 201.477 164.229 201.159 163.115 201.159C161.797 201.159 160.297 201.614 159.615 203.205L160.888 203.659C161.183 203.023 161.882 202.341 163.161 202.341C164.393 202.341 165.001 202.994 165.001 204.114V204.159C165.001 204.807 164.342 204.75 162.751 204.955C161.132 205.165 159.365 205.523 159.365 207.523C159.365 209.227 160.683 210.205 162.342 210.205ZM162.547 209C161.479 209 160.706 208.523 160.706 207.591C160.706 206.568 161.638 206.25 162.683 206.114C163.251 206.045 164.774 205.886 165.001 205.614V206.841C165.001 207.932 164.138 209 162.547 209ZM174.972 203.227C174.551 201.989 173.608 201.159 171.881 201.159C170.04 201.159 168.676 202.205 168.676 203.682C168.676 204.886 169.392 205.693 170.994 206.068L172.449 206.409C173.33 206.614 173.744 207.034 173.744 207.636C173.744 208.386 172.949 209 171.699 209C170.602 209 169.915 208.528 169.676 207.591L168.403 207.909C168.716 209.392 169.938 210.182 171.722 210.182C173.75 210.182 175.131 209.074 175.131 207.568C175.131 206.352 174.369 205.585 172.812 205.205L171.517 204.886C170.483 204.631 170.017 204.284 170.017 203.614C170.017 202.864 170.812 202.318 171.881 202.318C173.051 202.318 173.534 202.966 173.767 203.568L174.972 203.227ZM184.945 210.182C186.626 210.182 187.195 209.136 187.49 208.659H187.649V210H188.945V198.364H187.604V202.659H187.49C187.195 202.205 186.672 201.159 184.967 201.159C182.763 201.159 181.24 202.909 181.24 205.659C181.24 208.432 182.763 210.182 184.945 210.182ZM185.126 208.977C183.445 208.977 182.581 207.5 182.581 205.636C182.581 203.795 183.422 202.364 185.126 202.364C186.763 202.364 187.626 203.682 187.626 205.636C187.626 207.614 186.74 208.977 185.126 208.977ZM195.246 210.182C197.018 210.182 198.314 209.295 198.723 207.977L197.428 207.614C197.087 208.523 196.297 208.977 195.246 208.977C193.672 208.977 192.587 207.96 192.524 206.091H198.859V205.523C198.859 202.273 196.928 201.159 195.109 201.159C192.746 201.159 191.178 203.023 191.178 205.705C191.178 208.386 192.723 210.182 195.246 210.182ZM192.524 204.932C192.615 203.574 193.575 202.364 195.109 202.364C196.564 202.364 197.496 203.455 197.496 204.932H192.524ZM207.77 201.273H206.315L203.906 208.227H203.815L201.406 201.273H199.952L203.179 210H204.543L207.77 201.273ZM212.886 210.182C214.659 210.182 215.955 209.295 216.364 207.977L215.068 207.614C214.727 208.523 213.938 208.977 212.886 208.977C211.312 208.977 210.227 207.96 210.165 206.091H216.5V205.523C216.5 202.273 214.568 201.159 212.75 201.159C210.386 201.159 208.818 203.023 208.818 205.705C208.818 208.386 210.364 210.182 212.886 210.182ZM210.165 204.932C210.256 203.574 211.216 202.364 212.75 202.364C214.205 202.364 215.136 203.455 215.136 204.932H210.165ZM219.881 198.364H218.54V210H219.881V198.364ZM225.882 210.182C228.246 210.182 229.837 208.386 229.837 205.682C229.837 202.955 228.246 201.159 225.882 201.159C223.518 201.159 221.928 202.955 221.928 205.682C221.928 208.386 223.518 210.182 225.882 210.182ZM225.882 208.977C224.087 208.977 223.268 207.432 223.268 205.682C223.268 203.932 224.087 202.364 225.882 202.364C227.678 202.364 228.496 203.932 228.496 205.682C228.496 207.432 227.678 208.977 225.882 208.977ZM231.884 213.273H233.224V208.659H233.338C233.634 209.136 234.202 210.182 235.884 210.182C238.065 210.182 239.588 208.432 239.588 205.659C239.588 202.909 238.065 201.159 235.861 201.159C234.156 201.159 233.634 202.205 233.338 202.659H233.179V201.273H231.884V213.273ZM233.202 205.636C233.202 203.682 234.065 202.364 235.702 202.364C237.406 202.364 238.247 203.795 238.247 205.636C238.247 207.5 237.384 208.977 235.702 208.977C234.088 208.977 233.202 207.614 233.202 205.636ZM249.929 201.273H248.065V199.182H246.724V201.273H245.406V202.409H246.724V207.864C246.724 209.386 247.952 210.114 249.088 210.114C249.588 210.114 249.906 210.023 250.088 209.955L249.815 208.75C249.702 208.773 249.52 208.818 249.224 208.818C248.634 208.818 248.065 208.636 248.065 207.5V202.409H249.929V201.273ZM251.946 210H253.287V204.477C253.287 203.295 254.219 202.432 255.491 202.432C255.849 202.432 256.219 202.5 256.31 202.523V201.159C256.156 201.148 255.804 201.136 255.605 201.136C254.56 201.136 253.651 201.727 253.332 202.591H253.241V201.273H251.946V210ZM263.399 206.432C263.399 208.068 262.149 208.818 261.149 208.818C260.036 208.818 259.24 208 259.24 206.727V201.273H257.899V206.818C257.899 209.045 259.081 210.114 260.717 210.114C262.036 210.114 262.899 209.409 263.308 208.523H263.399V210H264.74V201.273H263.399V206.432ZM273.378 203.227C272.957 201.989 272.014 201.159 270.287 201.159C268.446 201.159 267.082 202.205 267.082 203.682C267.082 204.886 267.798 205.693 269.401 206.068L270.855 206.409C271.736 206.614 272.151 207.034 272.151 207.636C272.151 208.386 271.355 209 270.105 209C269.009 209 268.321 208.528 268.082 207.591L266.81 207.909C267.122 209.392 268.344 210.182 270.128 210.182C272.156 210.182 273.537 209.074 273.537 207.568C273.537 206.352 272.776 205.585 271.219 205.205L269.923 204.886C268.889 204.631 268.423 204.284 268.423 203.614C268.423 202.864 269.219 202.318 270.287 202.318C271.457 202.318 271.94 202.966 272.173 203.568L273.378 203.227ZM279.351 201.273H277.487V199.182H276.146V201.273H274.828V202.409H276.146V207.864C276.146 209.386 277.374 210.114 278.51 210.114C279.01 210.114 279.328 210.023 279.51 209.955L279.237 208.75C279.124 208.773 278.942 208.818 278.646 208.818C278.055 208.818 277.487 208.636 277.487 207.5V202.409H279.351V201.273ZM283.368 208.409H281.913L281.845 209.045C281.68 210.585 281.357 212.119 281.209 212.841H282.232C282.504 212.068 283.084 210.318 283.277 209.023L283.368 208.409ZM293.898 210.182C295.83 210.182 297.102 209 297.33 207.455H295.989C295.739 208.409 294.943 208.977 293.898 208.977C292.307 208.977 291.284 207.659 291.284 205.636C291.284 203.659 292.33 202.364 293.898 202.364C295.08 202.364 295.784 203.091 295.989 203.886H297.33C297.102 202.25 295.716 201.159 293.875 201.159C291.511 201.159 289.943 203.023 289.943 205.682C289.943 208.295 291.443 210.182 293.898 210.182ZM302.835 210.182C305.199 210.182 306.79 208.386 306.79 205.682C306.79 202.955 305.199 201.159 302.835 201.159C300.472 201.159 298.881 202.955 298.881 205.682C298.881 208.386 300.472 210.182 302.835 210.182ZM302.835 208.977C301.04 208.977 300.222 207.432 300.222 205.682C300.222 203.932 301.04 202.364 302.835 202.364C304.631 202.364 305.449 203.932 305.449 205.682C305.449 207.432 304.631 208.977 302.835 208.977ZM310.178 198.364H308.837V210H310.178V198.364ZM313.974 198.364H312.634V210H313.974V198.364ZM318.999 210.205C320.521 210.205 321.317 209.386 321.589 208.818H321.658V210H322.999V204.25C322.999 201.477 320.885 201.159 319.771 201.159C318.453 201.159 316.953 201.614 316.271 203.205L317.544 203.659C317.839 203.023 318.538 202.341 319.817 202.341C321.05 202.341 321.658 202.994 321.658 204.114V204.159C321.658 204.807 320.999 204.75 319.408 204.955C317.788 205.165 316.021 205.523 316.021 207.523C316.021 209.227 317.339 210.205 318.999 210.205ZM319.203 209C318.135 209 317.362 208.523 317.362 207.591C317.362 206.568 318.294 206.25 319.339 206.114C319.908 206.045 321.43 205.886 321.658 205.614V206.841C321.658 207.932 320.794 209 319.203 209ZM325.628 210H326.923V208.659H327.082C327.378 209.136 327.946 210.182 329.628 210.182C331.81 210.182 333.332 208.432 333.332 205.659C333.332 202.909 331.81 201.159 329.605 201.159C327.901 201.159 327.378 202.205 327.082 202.659H326.969V198.364H325.628V210ZM326.946 205.636C326.946 203.682 327.81 202.364 329.446 202.364C331.151 202.364 331.991 203.795 331.991 205.636C331.991 207.5 331.128 208.977 329.446 208.977C327.832 208.977 326.946 207.614 326.946 205.636ZM338.929 210.182C341.293 210.182 342.884 208.386 342.884 205.682C342.884 202.955 341.293 201.159 338.929 201.159C336.565 201.159 334.974 202.955 334.974 205.682C334.974 208.386 336.565 210.182 338.929 210.182ZM338.929 208.977C337.134 208.977 336.315 207.432 336.315 205.682C336.315 203.932 337.134 202.364 338.929 202.364C340.724 202.364 341.543 203.932 341.543 205.682C341.543 207.432 340.724 208.977 338.929 208.977ZM344.93 210H346.271V204.477C346.271 203.295 347.203 202.432 348.476 202.432C348.834 202.432 349.203 202.5 349.294 202.523V201.159C349.141 201.148 348.788 201.136 348.589 201.136C347.544 201.136 346.635 201.727 346.317 202.591H346.226V201.273H344.93V210ZM353.452 210.205C354.974 210.205 355.77 209.386 356.043 208.818H356.111V210H357.452V204.25C357.452 201.477 355.338 201.159 354.224 201.159C352.906 201.159 351.406 201.614 350.724 203.205L351.997 203.659C352.293 203.023 352.991 202.341 354.27 202.341C355.503 202.341 356.111 202.994 356.111 204.114V204.159C356.111 204.807 355.452 204.75 353.861 204.955C352.241 205.165 350.474 205.523 350.474 207.523C350.474 209.227 351.793 210.205 353.452 210.205ZM353.656 209C352.588 209 351.815 208.523 351.815 207.591C351.815 206.568 352.747 206.25 353.793 206.114C354.361 206.045 355.884 205.886 356.111 205.614V206.841C356.111 207.932 355.247 209 353.656 209ZM363.695 201.273H361.831V199.182H360.49V201.273H359.172V202.409H360.49V207.864C360.49 209.386 361.717 210.114 362.854 210.114C363.354 210.114 363.672 210.023 363.854 209.955L363.581 208.75C363.467 208.773 363.286 208.818 362.99 208.818C362.399 208.818 361.831 208.636 361.831 207.5V202.409H363.695V201.273ZM369.277 210.182C371.05 210.182 372.345 209.295 372.754 207.977L371.459 207.614C371.118 208.523 370.328 208.977 369.277 208.977C367.703 208.977 366.618 207.96 366.555 206.091H372.891V205.523C372.891 202.273 370.959 201.159 369.141 201.159C366.777 201.159 365.209 203.023 365.209 205.705C365.209 208.386 366.754 210.182 369.277 210.182ZM366.555 204.932C366.646 203.574 367.607 202.364 369.141 202.364C370.595 202.364 371.527 203.455 371.527 204.932H366.555ZM376.93 208.409H375.476L375.408 209.045C375.243 210.585 374.919 212.119 374.771 212.841H375.794C376.067 212.068 376.646 210.318 376.839 209.023L376.93 208.409ZM386.483 210.205C388.006 210.205 388.801 209.386 389.074 208.818H389.142V210H390.483V204.25C390.483 201.477 388.369 201.159 387.256 201.159C385.938 201.159 384.438 201.614 383.756 203.205L385.028 203.659C385.324 203.023 386.023 202.341 387.301 202.341C388.534 202.341 389.142 202.994 389.142 204.114V204.159C389.142 204.807 388.483 204.75 386.892 204.955C385.273 205.165 383.506 205.523 383.506 207.523C383.506 209.227 384.824 210.205 386.483 210.205ZM386.688 209C385.619 209 384.847 208.523 384.847 207.591C384.847 206.568 385.778 206.25 386.824 206.114C387.392 206.045 388.915 205.886 389.142 205.614V206.841C389.142 207.932 388.278 209 386.688 209ZM394.271 204.75C394.271 203.227 395.214 202.364 396.499 202.364C397.743 202.364 398.499 203.176 398.499 204.545V210H399.839V204.455C399.839 202.227 398.652 201.159 396.885 201.159C395.567 201.159 394.749 201.75 394.339 202.636H394.226V201.273H392.93V210H394.271V204.75ZM405.585 210.182C407.267 210.182 407.835 209.136 408.131 208.659H408.29V210H409.585V198.364H408.244V202.659H408.131C407.835 202.205 407.312 201.159 405.608 201.159C403.403 201.159 401.881 202.909 401.881 205.659C401.881 208.432 403.403 210.182 405.585 210.182ZM405.767 208.977C404.085 208.977 403.222 207.5 403.222 205.636C403.222 203.795 404.062 202.364 405.767 202.364C407.403 202.364 408.267 203.682 408.267 205.636C408.267 207.614 407.381 208.977 405.767 208.977ZM420.023 210.182C421.705 210.182 422.273 209.136 422.568 208.659H422.727V210H424.023V198.364H422.682V202.659H422.568C422.273 202.205 421.75 201.159 420.045 201.159C417.841 201.159 416.318 202.909 416.318 205.659C416.318 208.432 417.841 210.182 420.023 210.182ZM420.205 208.977C418.523 208.977 417.659 207.5 417.659 205.636C417.659 203.795 418.5 202.364 420.205 202.364C421.841 202.364 422.705 203.682 422.705 205.636C422.705 207.614 421.818 208.977 420.205 208.977ZM426.665 210H428.006V204.477C428.006 203.295 428.938 202.432 430.21 202.432C430.568 202.432 430.938 202.5 431.028 202.523V201.159C430.875 201.148 430.523 201.136 430.324 201.136C429.278 201.136 428.369 201.727 428.051 202.591H427.96V201.273H426.665V210ZM432.618 210H433.959V201.273H432.618V210ZM433.3 199.818C433.822 199.818 434.254 199.409 434.254 198.909C434.254 198.409 433.822 198 433.3 198C432.777 198 432.345 198.409 432.345 198.909C432.345 199.409 432.777 199.818 433.3 199.818ZM443.551 201.273H442.097L439.688 208.227H439.597L437.188 201.273H435.733L438.96 210H440.324L443.551 201.273ZM448.668 210.182C450.44 210.182 451.736 209.295 452.145 207.977L450.849 207.614C450.509 208.523 449.719 208.977 448.668 208.977C447.094 208.977 446.009 207.96 445.946 206.091H452.281V205.523C452.281 202.273 450.349 201.159 448.531 201.159C446.168 201.159 444.599 203.023 444.599 205.705C444.599 208.386 446.145 210.182 448.668 210.182ZM445.946 204.932C446.037 203.574 446.997 202.364 448.531 202.364C449.986 202.364 450.918 203.455 450.918 204.932H445.946ZM462.616 201.273H460.753V199.182H459.412V201.273H458.094V202.409H459.412V207.864C459.412 209.386 460.639 210.114 461.776 210.114C462.276 210.114 462.594 210.023 462.776 209.955L462.503 208.75C462.389 208.773 462.207 208.818 461.912 208.818C461.321 208.818 460.753 208.636 460.753 207.5V202.409H462.616V201.273ZM468.199 210.182C469.972 210.182 471.267 209.295 471.676 207.977L470.381 207.614C470.04 208.523 469.25 208.977 468.199 208.977C466.625 208.977 465.54 207.96 465.477 206.091H471.812V205.523C471.812 202.273 469.881 201.159 468.062 201.159C465.699 201.159 464.131 203.023 464.131 205.705C464.131 208.386 465.676 210.182 468.199 210.182ZM465.477 204.932C465.568 203.574 466.528 202.364 468.062 202.364C469.517 202.364 470.449 203.455 470.449 204.932H465.477ZM476.42 210.205C477.943 210.205 478.739 209.386 479.011 208.818H479.08V210H480.42V204.25C480.42 201.477 478.307 201.159 477.193 201.159C475.875 201.159 474.375 201.614 473.693 203.205L474.966 203.659C475.261 203.023 475.96 202.341 477.239 202.341C478.472 202.341 479.08 202.994 479.08 204.114V204.159C479.08 204.807 478.42 204.75 476.83 204.955C475.21 205.165 473.443 205.523 473.443 207.523C473.443 209.227 474.761 210.205 476.42 210.205ZM476.625 209C475.557 209 474.784 208.523 474.784 207.591C474.784 206.568 475.716 206.25 476.761 206.114C477.33 206.045 478.852 205.886 479.08 205.614V206.841C479.08 207.932 478.216 209 476.625 209ZM482.868 210H484.209V204.545C484.209 203.267 485.141 202.364 486.186 202.364C487.203 202.364 487.913 203.028 487.913 204.023V210H489.277V204.318C489.277 203.193 489.982 202.364 491.209 202.364C492.163 202.364 492.982 202.869 492.982 204.159V210H494.322V204.159C494.322 202.108 493.22 201.159 491.663 201.159C490.413 201.159 489.499 201.733 489.05 202.636H488.959C488.527 201.705 487.766 201.159 486.618 201.159C485.482 201.159 484.641 201.705 484.277 202.636H484.163V201.273H482.868V210ZM501.274 213.273H502.615V208.659H502.729C503.024 209.136 503.592 210.182 505.274 210.182C507.456 210.182 508.979 208.432 508.979 205.659C508.979 202.909 507.456 201.159 505.251 201.159C503.547 201.159 503.024 202.205 502.729 202.659H502.57V201.273H501.274V213.273ZM502.592 205.636C502.592 203.682 503.456 202.364 505.092 202.364C506.797 202.364 507.638 203.795 507.638 205.636C507.638 207.5 506.774 208.977 505.092 208.977C503.479 208.977 502.592 207.614 502.592 205.636ZM514.683 210.182C516.456 210.182 517.751 209.295 518.161 207.977L516.865 207.614C516.524 208.523 515.734 208.977 514.683 208.977C513.109 208.977 512.024 207.96 511.962 206.091H518.297V205.523C518.297 202.273 516.365 201.159 514.547 201.159C512.183 201.159 510.615 203.023 510.615 205.705C510.615 208.386 512.161 210.182 514.683 210.182ZM511.962 204.932C512.053 203.574 513.013 202.364 514.547 202.364C516.001 202.364 516.933 203.455 516.933 204.932H511.962ZM520.337 210H521.678V204.477C521.678 203.295 522.609 202.432 523.882 202.432C524.24 202.432 524.609 202.5 524.7 202.523V201.159C524.547 201.148 524.195 201.136 523.996 201.136C522.95 201.136 522.041 201.727 521.723 202.591H521.632V201.273H520.337V210ZM530.723 201.273H528.768V200.386C528.768 199.523 529.132 199.068 530.018 199.068C530.405 199.068 530.632 199.159 530.768 199.205L531.155 198.045C530.95 197.955 530.541 197.818 529.882 197.818C528.632 197.818 527.428 198.568 527.428 200.068V201.273H526.018V202.409H527.428V210H528.768V202.409H530.723V201.273ZM535.788 210.182C538.152 210.182 539.743 208.386 539.743 205.682C539.743 202.955 538.152 201.159 535.788 201.159C533.425 201.159 531.834 202.955 531.834 205.682C531.834 208.386 533.425 210.182 535.788 210.182ZM535.788 208.977C533.993 208.977 533.175 207.432 533.175 205.682C533.175 203.932 533.993 202.364 535.788 202.364C537.584 202.364 538.402 203.932 538.402 205.682C538.402 207.432 537.584 208.977 535.788 208.977ZM541.79 210H543.131V204.477C543.131 203.295 544.062 202.432 545.335 202.432C545.693 202.432 546.062 202.5 546.153 202.523V201.159C546 201.148 545.648 201.136 545.449 201.136C544.403 201.136 543.494 201.727 543.176 202.591H543.085V201.273H541.79V210ZM547.743 210H549.084V204.545C549.084 203.267 550.016 202.364 551.061 202.364C552.078 202.364 552.788 203.028 552.788 204.023V210H554.152V204.318C554.152 203.193 554.857 202.364 556.084 202.364C557.038 202.364 557.857 202.869 557.857 204.159V210H559.197V204.159C559.197 202.108 558.095 201.159 556.538 201.159C555.288 201.159 554.374 201.733 553.925 202.636H553.834C553.402 201.705 552.641 201.159 551.493 201.159C550.357 201.159 549.516 201.705 549.152 202.636H549.038V201.273H547.743V210ZM564.217 210.205C565.74 210.205 566.536 209.386 566.808 208.818H566.876V210H568.217V204.25C568.217 201.477 566.104 201.159 564.99 201.159C563.672 201.159 562.172 201.614 561.49 203.205L562.763 203.659C563.058 203.023 563.757 202.341 565.036 202.341C566.268 202.341 566.876 202.994 566.876 204.114V204.159C566.876 204.807 566.217 204.75 564.626 204.955C563.007 205.165 561.24 205.523 561.24 207.523C561.24 209.227 562.558 210.205 564.217 210.205ZM564.422 209C563.354 209 562.581 208.523 562.581 207.591C562.581 206.568 563.513 206.25 564.558 206.114C565.126 206.045 566.649 205.886 566.876 205.614V206.841C566.876 207.932 566.013 209 564.422 209ZM572.006 204.75C572.006 203.227 572.949 202.364 574.233 202.364C575.477 202.364 576.233 203.176 576.233 204.545V210H577.574V204.455C577.574 202.227 576.386 201.159 574.619 201.159C573.301 201.159 572.483 201.75 572.074 202.636H571.96V201.273H570.665V210H572.006V204.75ZM583.57 210.182C585.501 210.182 586.774 209 587.001 207.455H585.661C585.411 208.409 584.615 208.977 583.57 208.977C581.979 208.977 580.956 207.659 580.956 205.636C580.956 203.659 582.001 202.364 583.57 202.364C584.751 202.364 585.456 203.091 585.661 203.886H587.001C586.774 202.25 585.388 201.159 583.547 201.159C581.183 201.159 579.615 203.023 579.615 205.682C579.615 208.295 581.115 210.182 583.57 210.182ZM592.621 210.182C594.393 210.182 595.689 209.295 596.098 207.977L594.803 207.614C594.462 208.523 593.672 208.977 592.621 208.977C591.047 208.977 589.962 207.96 589.899 206.091H596.234V205.523C596.234 202.273 594.303 201.159 592.484 201.159C590.121 201.159 588.553 203.023 588.553 205.705C588.553 208.386 590.098 210.182 592.621 210.182ZM589.899 204.932C589.99 203.574 590.95 202.364 592.484 202.364C593.939 202.364 594.871 203.455 594.871 204.932H589.899ZM599.251 210.091C599.814 210.091 600.274 209.631 600.274 209.068C600.274 208.506 599.814 208.045 599.251 208.045C598.689 208.045 598.229 208.506 598.229 209.068C598.229 209.631 598.689 210.091 599.251 210.091Z" fill="#4E5A65"/>
</svg>
