<svg width="108" height="32" viewBox="0 0 108 32" fill="none" xmlns="http://www.w3.org/2000/svg">
<rect width="108" height="32" rx="16" fill="#81C43B"/>
<path d="M23.625 13.4205H25.3182C25.267 11.5568 23.6193 10.2045 21.2557 10.2045C18.9205 10.2045 17.1307 11.5398 17.1307 13.5455C17.1307 15.1648 18.2898 16.1136 20.1591 16.6193L21.5341 16.9943C22.7784 17.3239 23.7386 17.733 23.7386 18.767C23.7386 19.9034 22.6534 20.6534 21.1591 20.6534C19.8068 20.6534 18.6818 20.0511 18.5795 18.7841H16.8182C16.9318 20.892 18.5625 22.1932 21.1705 22.1932C23.9034 22.1932 25.4773 20.7557 25.4773 18.7841C25.4773 16.6875 23.608 15.875 22.1307 15.5114L20.9943 15.2159C20.0852 14.983 18.875 14.5568 18.8807 13.4432C18.8807 12.4545 19.7841 11.7216 21.2159 11.7216C22.5511 11.7216 23.5 12.3466 23.625 13.4205ZM29.9787 22.1932C31.4219 22.1932 32.2344 21.4602 32.5582 20.8068H32.6264V22H34.2855V16.2045C34.2855 13.6648 32.2855 13.1591 30.8991 13.1591C29.3196 13.1591 27.8651 13.7955 27.2969 15.3864L28.8935 15.75C29.1435 15.1307 29.7798 14.5341 30.9219 14.5341C32.0185 14.5341 32.581 15.108 32.581 16.0966V16.1364C32.581 16.7557 31.9446 16.7443 30.3764 16.9261C28.723 17.1193 27.0298 17.5511 27.0298 19.5341C27.0298 21.25 28.3196 22.1932 29.9787 22.1932ZM30.348 20.8295C29.3878 20.8295 28.6946 20.3977 28.6946 19.5568C28.6946 18.6477 29.5014 18.3239 30.4844 18.1932C31.0355 18.1193 32.3423 17.9716 32.5866 17.7273V18.8523C32.5866 19.8864 31.7628 20.8295 30.348 20.8295ZM43.7017 13.2727H41.8778L39.6733 19.9886H39.5824L37.3722 13.2727H35.5483L38.7188 22H40.5369L43.7017 13.2727ZM48.7472 22.1761C50.6506 22.1761 51.9972 21.2386 52.3835 19.8182L50.7756 19.5284C50.4688 20.3523 49.7301 20.7727 48.7642 20.7727C47.3097 20.7727 46.3324 19.8295 46.2869 18.1477H52.4915V17.5455C52.4915 14.392 50.6051 13.1591 48.6278 13.1591C46.196 13.1591 44.5938 15.0114 44.5938 17.6932C44.5938 20.4034 46.1733 22.1761 48.7472 22.1761ZM46.2926 16.875C46.3608 15.6364 47.2585 14.5625 48.6392 14.5625C49.9574 14.5625 50.821 15.5398 50.8267 16.875H46.2926ZM62.4574 10.2045C60.0142 10.1818 58.4176 11.9375 58.4176 14.142C58.4233 16.3636 60.0312 17.9659 62.0483 17.9659C63.2812 17.9659 64.3381 17.3636 64.9347 16.3864H65.0256C65.0199 19.0625 64.0142 20.625 62.3097 20.625C61.196 20.625 60.4801 19.9432 60.2528 18.9489H58.5199C58.7756 20.8295 60.2301 22.1591 62.3097 22.1591C65.0142 22.1591 66.7074 19.8352 66.7074 15.7614C66.7017 11.5114 64.5312 10.2216 62.4574 10.2045ZM62.4631 11.6818C63.8097 11.6818 64.804 12.8239 64.804 14.1023C64.8097 15.3977 63.7585 16.5341 62.429 16.5341C61.0938 16.5341 60.1278 15.4659 60.1222 14.1193C60.1222 12.767 61.1278 11.6818 62.4631 11.6818ZM72.8111 22.1932C75.4986 22.1932 77.0724 20 77.0724 16.1875C77.0724 12.4034 75.4759 10.2045 72.8111 10.2045C70.1406 10.2045 68.5497 12.3977 68.544 16.1875C68.544 19.9943 70.1179 22.1875 72.8111 22.1932ZM72.8111 20.6761C71.2372 20.6761 70.2884 19.0966 70.2884 16.1875C70.294 13.2898 71.2429 11.6932 72.8111 11.6932C74.3736 11.6932 75.3281 13.2898 75.3281 16.1875C75.3281 19.0966 74.3793 20.6761 72.8111 20.6761ZM85.1619 19.8182C85.1676 21.1307 85.9915 22.2386 87.5312 22.2386C89.054 22.2386 89.8892 21.1307 89.8892 19.8182V19.2045C89.8892 17.8864 89.0767 16.7841 87.5312 16.7841C86.0142 16.7841 85.1676 17.892 85.1619 19.2045V19.8182ZM79.3097 13.1591C79.3097 14.4716 80.1392 15.5795 81.679 15.5795C83.196 15.5795 84.0369 14.4773 84.0312 13.1591V12.5455C84.0369 11.2273 83.2188 10.125 81.679 10.125C80.1676 10.125 79.3097 11.2273 79.3097 12.5455V13.1591ZM79.7869 22H81.1449L89.1449 10.3636H87.7869L79.7869 22ZM86.4858 19.2045C86.4915 18.5511 86.7756 17.9205 87.5312 17.9205C88.3153 17.9205 88.5597 18.5511 88.5597 19.2045V19.8182C88.5597 20.4716 88.2926 21.1023 87.5312 21.1023C86.7585 21.1023 86.4915 20.4659 86.4858 19.8182V19.2045ZM80.6392 12.5455C80.6392 11.8977 80.9233 11.2614 81.679 11.2614C82.4631 11.2614 82.7074 11.892 82.7074 12.5455V13.1591C82.7074 13.8125 82.4403 14.4432 81.679 14.4432C80.9062 14.4432 80.6392 13.8125 80.6392 13.1591V12.5455Z" fill="white"/>
</svg>
