<svg width="316" height="162" viewBox="0 0 316 162" fill="none" xmlns="http://www.w3.org/2000/svg">
<circle cx="32" cy="32" r="32" fill="#FEF5EC"/>
<path d="M40.6033 40.6035C40.6033 39.6764 41.3549 38.9248 42.282 38.9248H44.8L44.7979 38.0854C44.0329 37.0665 42.8154 36.4067 41.4426 36.4067C40.148 36.4067 38.9926 36.9943 38.2238 37.9163C37.9094 38.2932 37.4406 38.5051 36.9501 38.5051H21.7181C20.5593 38.5051 19.6197 39.4447 19.6197 40.6035C19.6197 41.7622 20.5593 42.7018 21.7181 42.7018H36.9501C37.4406 42.7018 37.9094 42.9138 38.2238 43.2906C38.9926 44.2126 40.148 44.8002 41.4426 44.8002C42.8154 44.8002 44.0329 44.1405 44.7979 43.1215L44.8 42.2821H42.282C41.3549 42.2821 40.6033 41.5305 40.6033 40.6035Z" fill="#F4A45D"/>
<path d="M40.6033 35.6448V33.8884H28.8525V37.6655H36.9501C37.1972 37.6655 37.4268 37.5606 37.5791 37.378C37.7672 37.1526 37.9766 36.952 38.1965 36.7657C37.8859 36.6427 37.6656 36.341 37.6656 35.9868C37.6656 35.5231 38.0412 35.1474 38.5049 35.1474C38.9687 35.1474 39.3443 35.5231 39.3443 35.9868C39.3443 36.0015 39.3409 36.0149 39.3401 36.0292C39.74 35.8449 40.1652 35.719 40.6033 35.6448ZM30.5312 37.2458H29.6918V36.4065H30.5312V37.2458ZM30.5312 35.5671H29.6918V34.7278H30.5312V35.5671ZM35.1476 36.8261C34.6838 36.8261 34.3082 36.4505 34.3082 35.9868C34.3082 35.5231 34.6838 35.1474 35.1476 35.1474C35.6113 35.1474 35.9869 35.5231 35.9869 35.9868C35.9869 36.4505 35.6113 36.8261 35.1476 36.8261Z" fill="#F4A45D"/>
<path d="M21.0982 26.9005C21.1733 27.1355 21.2724 27.3731 21.3936 27.6081L21.5002 27.8146L20.9773 28.6938L22.2964 30.0128L23.176 29.4899L23.3829 29.5973C23.6171 29.7182 23.8546 29.8177 24.0892 29.8928L24.3108 29.9633L24.5622 30.9508H26.4276L26.679 29.9629L26.9006 29.8924C27.1352 29.8172 27.3727 29.7178 27.6069 29.5969L27.8138 29.4895L28.5251 29.9125H28.7933L30.0125 28.6938L29.4895 27.8146L29.5961 27.6081C29.7174 27.3731 29.8165 27.1355 29.8916 26.9005L29.9625 26.6789L30.9508 26.428V24.5625L29.9629 24.3116L29.892 24.09C29.8169 23.855 29.7178 23.6174 29.5966 23.3824L29.49 23.1759L30.0129 22.2967L28.6938 20.9777L27.8142 21.5006L27.6073 21.3932C27.3731 21.2723 27.1356 21.1728 26.901 21.0977L26.6794 21.0272L26.428 20.0393H24.5626L24.3112 21.0272L24.0892 21.0977C23.8546 21.1728 23.6171 21.2723 23.3829 21.3932L23.176 21.5006L22.2968 20.9777L20.9778 22.2967L21.5007 23.1759L21.3941 23.3824C21.2728 23.6174 21.1737 23.855 21.0986 24.09L21.0273 24.3116L20.0394 24.5621V26.4276L21.0273 26.6785L21.0982 26.9005ZM25.4951 22.1377C27.3492 22.1377 28.8525 23.6409 28.8525 25.495C28.8525 27.3492 27.3492 28.8524 25.4951 28.8524C23.641 28.8524 22.1377 27.3492 22.1377 25.495C22.1377 23.6409 23.641 22.1377 25.4951 22.1377Z" fill="#F4A45D"/>
<path d="M40.6033 28.8525H31.0402L28.8525 31.0403V33.0493H40.6033V28.8525ZM30.9508 31.7902C30.4871 31.7902 30.1115 31.4146 30.1115 30.9509C30.1115 30.4872 30.4871 30.1116 30.9508 30.1116C31.4146 30.1116 31.7902 30.4872 31.7902 30.9509C31.7902 31.4146 31.4146 31.7902 30.9508 31.7902ZM34.3082 31.7902C33.8445 31.7902 33.4689 31.4146 33.4689 30.9509C33.4689 30.4872 33.8445 30.1116 34.3082 30.1116C34.772 30.1116 35.1476 30.4872 35.1476 30.9509C35.1476 31.4146 34.772 31.7902 34.3082 31.7902ZM39.764 32.2099H38.9246V31.3706H39.764V32.2099ZM39.764 30.5312H38.9246V29.6919H39.764V30.5312Z" fill="#F4A45D"/>
<path d="M31.7901 27.0802L30.6142 27.3794C30.5643 27.5129 30.5085 27.6476 30.4464 27.7806L30.5844 28.0131H40.6033V24.2361C40.6033 24.0044 40.4148 23.8164 40.1836 23.8164H31.4229L31.7901 23.91V27.0802ZM38.5049 25.0754C38.9686 25.0754 39.3442 25.451 39.3442 25.9148C39.3442 26.3785 38.9686 26.7541 38.5049 26.7541C38.0412 26.7541 37.6655 26.3785 37.6655 25.9148C37.6655 25.451 38.0412 25.0754 38.5049 25.0754ZM35.1475 25.0754C35.6113 25.0754 35.9869 25.451 35.9869 25.9148C35.9869 26.3785 35.6113 26.7541 35.1475 26.7541C34.6838 26.7541 34.3082 26.3785 34.3082 25.9148C34.3082 25.451 34.6838 25.0754 35.1475 25.0754Z" fill="#F4A45D"/>
<path d="M25.4951 27.1738C26.4222 27.1738 27.1738 26.4222 27.1738 25.4951C27.1738 24.568 26.4222 23.8164 25.4951 23.8164C24.568 23.8164 23.8164 24.568 23.8164 25.4951C23.8164 26.4222 24.568 27.1738 25.4951 27.1738Z" fill="#F4A45D"/>
<path d="M22.5574 34.728C21.8632 34.728 21.2984 35.2929 21.2984 35.987C21.2984 36.6812 21.8632 37.2461 22.5574 37.2461C23.1038 37.2461 23.5654 36.894 23.7392 36.4067H28.0131V35.5674H23.7392C23.5654 35.0801 23.1038 34.728 22.5574 34.728Z" fill="#F4A45D"/>
<path d="M21.6408 33.469H28.0131V32.6296H21.6408C21.4671 32.1424 21.0054 31.7903 20.459 31.7903C19.7649 31.7903 19.2 32.3552 19.2 33.0493C19.2 33.7434 19.7649 34.3083 20.459 34.3083C21.0054 34.3083 21.4671 33.9562 21.6408 33.469Z" fill="#F4A45D"/>
<path d="M38.5049 21.6408V22.977H39.3443V21.6408C39.8315 21.467 40.1836 21.0054 40.1836 20.459C40.1836 19.7648 39.6187 19.2 38.9246 19.2C38.2305 19.2 37.6656 19.7648 37.6656 20.459C37.6656 21.0054 38.0177 21.467 38.5049 21.6408Z" fill="#F4A45D"/>
<path d="M34.3082 21.6408V22.977H35.1475V21.6408C35.6348 21.467 35.9869 21.0054 35.9869 20.459C35.9869 19.7648 35.422 19.2 34.7279 19.2C34.0337 19.2 33.4688 19.7648 33.4688 20.459C33.4688 21.0054 33.8209 21.467 34.3082 21.6408Z" fill="#F4A45D"/>
<path d="M1.29119 104H9.85653V102.012H3.66264V98.4389H9.36435V96.451H3.66264V92.897H9.8054V90.9091H1.29119V104ZM14.0146 94.1818H11.56L14.4748 99.0909L11.4833 104H13.9379L15.9961 100.465L18.0735 104H20.5089L17.4982 99.0909L20.4577 94.1818H18.0096L15.9961 97.8061L14.0146 94.1818ZM26.161 104.192C28.6284 104.192 30.2008 102.728 30.367 100.644H28.1554C27.9572 101.699 27.1966 102.306 26.1802 102.306C24.7356 102.306 23.8024 101.098 23.8024 99.0909C23.8024 97.1094 24.7548 95.9205 26.1802 95.9205C27.2924 95.9205 27.9764 96.6364 28.1554 97.5824H30.367C30.2072 95.4538 28.5453 94.054 26.1483 94.054C23.2718 94.054 21.4565 96.1314 21.4565 99.1293C21.4565 102.102 23.2271 104.192 26.161 104.192ZM34.581 90.9091H32.267V104H34.581V90.9091ZM43.2182 99.8707C43.2182 101.366 42.1507 102.108 41.128 102.108C40.0158 102.108 39.2743 101.322 39.2743 100.075V94.1818H36.9604V100.433C36.9604 102.792 38.3027 104.128 40.2331 104.128C41.7033 104.128 42.7388 103.354 43.1863 102.255H43.2885V104H45.5321V94.1818H43.2182V99.8707ZM55.6715 96.777C55.3519 95.1151 54.0224 94.054 51.7212 94.054C49.3562 94.054 47.7454 95.2173 47.7518 97.0327C47.7454 98.4645 48.6275 99.4105 50.5131 99.8004L52.1879 100.152C53.0891 100.35 53.511 100.714 53.511 101.271C53.511 101.942 52.7823 102.447 51.6829 102.447C50.6218 102.447 49.9315 101.987 49.7333 101.104L47.4769 101.322C47.7646 103.124 49.2795 104.192 51.6893 104.192C54.1438 104.192 55.8761 102.92 55.8825 101.06C55.8761 99.6598 54.9748 98.8033 53.1211 98.4006L51.4464 98.0426C50.4492 97.8189 50.0529 97.4737 50.0593 96.9048C50.0529 96.2401 50.788 95.7798 51.7532 95.7798C52.8207 95.7798 53.3832 96.3615 53.5621 97.0071L55.6715 96.777ZM57.7905 104H60.1044V94.1818H57.7905V104ZM58.9538 92.7884C59.6889 92.7884 60.2898 92.2259 60.2898 91.5355C60.2898 90.8388 59.6889 90.2763 58.9538 90.2763C58.2124 90.2763 57.6115 90.8388 57.6115 91.5355C57.6115 92.2259 58.2124 92.7884 58.9538 92.7884ZM71.2537 94.1818H68.7928L66.53 101.475H66.4277L64.1713 94.1818H61.704L65.2005 104H67.7573L71.2537 94.1818ZM76.8675 104.192C79.1559 104.192 80.7283 103.073 81.1374 101.366L78.9769 101.124C78.6637 101.955 77.8967 102.389 76.8995 102.389C75.4038 102.389 74.413 101.405 74.3938 99.7237H81.2333V99.0142C81.2333 95.5689 79.1623 94.054 76.7461 94.054C73.9336 94.054 72.0991 96.1186 72.0991 99.1484C72.0991 102.229 73.908 104.192 76.8675 104.192ZM74.4002 98.1641C74.4705 96.9112 75.3974 95.8565 76.7781 95.8565C78.1076 95.8565 79.0025 96.8281 79.0153 98.1641H74.4002ZM90.9508 96.777C90.6312 95.1151 89.3017 94.054 87.0005 94.054C84.6355 94.054 83.0247 95.2173 83.0311 97.0327C83.0247 98.4645 83.9068 99.4105 85.7924 99.8004L87.4672 100.152C88.3684 100.35 88.7903 100.714 88.7903 101.271C88.7903 101.942 88.0616 102.447 86.9622 102.447C85.9011 102.447 85.2108 101.987 85.0126 101.104L82.7562 101.322C83.0439 103.124 84.5588 104.192 86.9686 104.192C89.4231 104.192 91.1554 102.92 91.1618 101.06C91.1554 99.6598 90.2541 98.8033 88.4004 98.4006L86.7257 98.0426C85.7285 97.8189 85.3322 97.4737 85.3386 96.9048C85.3322 96.2401 86.0673 95.7798 87.0325 95.7798C88.1 95.7798 88.6625 96.3615 88.8414 97.0071L90.9508 96.777ZM97.6369 90.9091V104H99.9125V94.9872H100.034L103.652 103.962H105.352L108.97 95.0064H109.091V104H111.367V90.9091H108.465L104.579 100.395H104.425L100.539 90.9091H97.6369ZM116.672 104.198C118.213 104.198 119.133 103.476 119.555 102.651H119.632V104H121.856V97.429C121.856 94.8338 119.741 94.054 117.868 94.054C115.803 94.054 114.218 94.9744 113.706 96.7642L115.867 97.071C116.097 96.3999 116.749 95.8246 117.881 95.8246C118.954 95.8246 119.542 96.3743 119.542 97.3395V97.3778C119.542 98.0426 118.846 98.0746 117.113 98.2599C115.209 98.4645 113.387 99.0334 113.387 101.245C113.387 103.175 114.8 104.198 116.672 104.198ZM117.273 102.498C116.308 102.498 115.618 102.057 115.618 101.207C115.618 100.318 116.391 99.9474 117.427 99.8004C118.034 99.7173 119.248 99.5639 119.549 99.321V100.478C119.549 101.571 118.667 102.498 117.273 102.498ZM126.497 98.2472C126.497 96.8281 127.354 96.0099 128.574 96.0099C129.77 96.0099 130.486 96.7962 130.486 98.1065V104H132.8V97.7486C132.806 95.3963 131.464 94.054 129.437 94.054C127.967 94.054 126.957 94.7571 126.51 95.8501H126.395V94.1818H124.183V104H126.497V98.2472ZM137.977 104.198C139.518 104.198 140.438 103.476 140.86 102.651H140.937V104H143.161V97.429C143.161 94.8338 141.045 94.054 139.172 94.054C137.108 94.054 135.523 94.9744 135.011 96.7642L137.172 97.071C137.402 96.3999 138.054 95.8246 139.185 95.8246C140.259 95.8246 140.847 96.3743 140.847 97.3395V97.3778C140.847 98.0426 140.15 98.0746 138.418 98.2599C136.513 98.4645 134.692 99.0334 134.692 101.245C134.692 103.175 136.104 104.198 137.977 104.198ZM138.578 102.498C137.613 102.498 136.922 102.057 136.922 101.207C136.922 100.318 137.696 99.9474 138.731 99.8004C139.339 99.7173 140.553 99.5639 140.854 99.321V100.478C140.854 101.571 139.971 102.498 138.578 102.498ZM149.758 107.886C152.41 107.886 154.366 106.672 154.366 104.16V94.1818H152.084V95.8054H151.956C151.605 95.0959 150.87 94.054 149.138 94.054C146.868 94.054 145.085 95.831 145.085 99.0589C145.085 102.261 146.868 103.859 149.131 103.859C150.812 103.859 151.599 102.958 151.956 102.236H152.072V104.096C152.072 105.54 151.113 106.135 149.796 106.135C148.403 106.135 147.789 105.477 147.508 104.901L145.424 105.406C145.846 106.781 147.258 107.886 149.758 107.886ZM149.777 102.044C148.249 102.044 147.444 100.855 147.444 99.0462C147.444 97.2628 148.236 95.9524 149.777 95.9524C151.266 95.9524 152.084 97.1861 152.084 99.0462C152.084 100.919 151.253 102.044 149.777 102.044ZM161.084 104.192C163.373 104.192 164.945 103.073 165.354 101.366L163.194 101.124C162.881 101.955 162.113 102.389 161.116 102.389C159.621 102.389 158.63 101.405 158.611 99.7237H165.45V99.0142C165.45 95.5689 163.379 94.054 160.963 94.054C158.15 94.054 156.316 96.1186 156.316 99.1484C156.316 102.229 158.125 104.192 161.084 104.192ZM158.617 98.1641C158.687 96.9112 159.614 95.8565 160.995 95.8565C162.324 95.8565 163.219 96.8281 163.232 98.1641H158.617ZM167.408 104H169.722V98.228C169.722 96.9815 170.661 96.0994 171.933 96.0994C172.323 96.0994 172.809 96.1697 173.007 96.2337V94.1051C172.796 94.0668 172.432 94.0412 172.176 94.0412C171.051 94.0412 170.112 94.6804 169.754 95.8182H169.651V94.1818H167.408V104Z" fill="#35414B"/>
<path d="M1.88636 132L3.05682 128.705H7.76136L8.93182 132H10.4091L6.13636 120.364H4.68182L0.409091 132H1.88636ZM3.5 127.455L5.36364 122.205H5.45455L7.31818 127.455H3.5ZM15.5852 132.182C17.517 132.182 18.7898 131 19.017 129.455H17.6761C17.4261 130.409 16.6307 130.977 15.5852 130.977C13.9943 130.977 12.9716 129.659 12.9716 127.636C12.9716 125.659 14.017 124.364 15.5852 124.364C16.767 124.364 17.4716 125.091 17.6761 125.886H19.017C18.7898 124.25 17.4034 123.159 15.5625 123.159C13.1989 123.159 11.6307 125.023 11.6307 127.682C11.6307 130.295 13.1307 132.182 15.5852 132.182ZM24.5227 132.182C26.4545 132.182 27.7273 131 27.9545 129.455H26.6136C26.3636 130.409 25.5682 130.977 24.5227 130.977C22.9318 130.977 21.9091 129.659 21.9091 127.636C21.9091 125.659 22.9545 124.364 24.5227 124.364C25.7045 124.364 26.4091 125.091 26.6136 125.886H27.9545C27.7273 124.25 26.3409 123.159 24.5 123.159C22.1364 123.159 20.5682 125.023 20.5682 127.682C20.5682 130.295 22.0682 132.182 24.5227 132.182ZM33.5739 132.182C35.3466 132.182 36.642 131.295 37.0511 129.977L35.7557 129.614C35.4148 130.523 34.625 130.977 33.5739 130.977C32 130.977 30.9148 129.96 30.8523 128.091H37.1875V127.523C37.1875 124.273 35.2557 123.159 33.4375 123.159C31.0739 123.159 29.5057 125.023 29.5057 127.705C29.5057 130.386 31.0511 132.182 33.5739 132.182ZM30.8523 126.932C30.9432 125.574 31.9034 124.364 33.4375 124.364C34.892 124.364 35.8239 125.455 35.8239 126.932H30.8523ZM45.4091 125.227C44.9886 123.989 44.0455 123.159 42.3182 123.159C40.4773 123.159 39.1136 124.205 39.1136 125.682C39.1136 126.886 39.8295 127.693 41.4318 128.068L42.8864 128.409C43.767 128.614 44.1818 129.034 44.1818 129.636C44.1818 130.386 43.3864 131 42.1364 131C41.0398 131 40.3523 130.528 40.1136 129.591L38.8409 129.909C39.1534 131.392 40.375 132.182 42.1591 132.182C44.1875 132.182 45.5682 131.074 45.5682 129.568C45.5682 128.352 44.8068 127.585 43.25 127.205L41.9545 126.886C40.9205 126.631 40.4545 126.284 40.4545 125.614C40.4545 124.864 41.25 124.318 42.3182 124.318C43.4886 124.318 43.9716 124.966 44.2045 125.568L45.4091 125.227ZM53.7685 125.227C53.348 123.989 52.4048 123.159 50.6776 123.159C48.8366 123.159 47.473 124.205 47.473 125.682C47.473 126.886 48.1889 127.693 49.7912 128.068L51.2457 128.409C52.1264 128.614 52.5412 129.034 52.5412 129.636C52.5412 130.386 51.7457 131 50.4957 131C49.3991 131 48.7116 130.528 48.473 129.591L47.2003 129.909C47.5128 131.392 48.7344 132.182 50.5185 132.182C52.5469 132.182 53.9276 131.074 53.9276 129.568C53.9276 128.352 53.1662 127.585 51.6094 127.205L50.3139 126.886C49.2798 126.631 48.8139 126.284 48.8139 125.614C48.8139 124.864 49.6094 124.318 50.6776 124.318C51.848 124.318 52.331 124.966 52.5639 125.568L53.7685 125.227ZM60.446 132H61.7869V126.545C61.7869 125.267 62.7188 124.364 63.7642 124.364C64.7812 124.364 65.4915 125.028 65.4915 126.023V132H66.8551V126.318C66.8551 125.193 67.5597 124.364 68.7869 124.364C69.7415 124.364 70.5597 124.869 70.5597 126.159V132H71.9006V126.159C71.9006 124.108 70.7983 123.159 69.2415 123.159C67.9915 123.159 67.0767 123.733 66.6278 124.636H66.5369C66.1051 123.705 65.3438 123.159 64.196 123.159C63.0597 123.159 62.2188 123.705 61.8551 124.636H61.7415V123.273H60.446V132ZM76.9205 132.205C78.4432 132.205 79.2386 131.386 79.5114 130.818H79.5795V132H80.9205V126.25C80.9205 123.477 78.8068 123.159 77.6932 123.159C76.375 123.159 74.875 123.614 74.1932 125.205L75.4659 125.659C75.7614 125.023 76.4602 124.341 77.7386 124.341C78.9716 124.341 79.5795 124.994 79.5795 126.114V126.159C79.5795 126.807 78.9205 126.75 77.3295 126.955C75.7102 127.165 73.9432 127.523 73.9432 129.523C73.9432 131.227 75.2614 132.205 76.9205 132.205ZM77.125 131C76.0568 131 75.2841 130.523 75.2841 129.591C75.2841 128.568 76.2159 128.25 77.2614 128.114C77.8295 128.045 79.3523 127.886 79.5795 127.614V128.841C79.5795 129.932 78.7159 131 77.125 131ZM84.7088 126.75C84.7088 125.227 85.652 124.364 86.9361 124.364C88.1804 124.364 88.9361 125.176 88.9361 126.545V132H90.277V126.455C90.277 124.227 89.0895 123.159 87.3224 123.159C86.0043 123.159 85.1861 123.75 84.777 124.636H84.6634V123.273H83.3679V132H84.7088V126.75ZM95.2955 132.205C96.8182 132.205 97.6136 131.386 97.8864 130.818H97.9545V132H99.2955V126.25C99.2955 123.477 97.1818 123.159 96.0682 123.159C94.75 123.159 93.25 123.614 92.5682 125.205L93.8409 125.659C94.1364 125.023 94.8352 124.341 96.1136 124.341C97.3466 124.341 97.9545 124.994 97.9545 126.114V126.159C97.9545 126.807 97.2955 126.75 95.7045 126.955C94.0852 127.165 92.3182 127.523 92.3182 129.523C92.3182 131.227 93.6364 132.205 95.2955 132.205ZM95.5 131C94.4318 131 93.6591 130.523 93.6591 129.591C93.6591 128.568 94.5909 128.25 95.6364 128.114C96.2045 128.045 97.7273 127.886 97.9545 127.614V128.841C97.9545 129.932 97.0909 131 95.5 131ZM105.266 135.455C107.357 135.455 109.038 134.5 109.038 132.25V123.273H107.743V124.659H107.607C107.311 124.205 106.766 123.159 105.061 123.159C102.857 123.159 101.334 124.909 101.334 127.591C101.334 130.318 102.925 131.864 105.038 131.864C106.743 131.864 107.288 130.864 107.584 130.386H107.697V132.159C107.697 133.614 106.675 134.273 105.266 134.273C103.68 134.273 103.124 133.438 102.766 132.955L101.697 133.705C102.243 134.619 103.317 135.455 105.266 135.455ZM105.22 130.659C103.538 130.659 102.675 129.386 102.675 127.568C102.675 125.795 103.516 124.364 105.22 124.364C106.857 124.364 107.72 125.682 107.72 127.568C107.72 129.5 106.834 130.659 105.22 130.659ZM115.152 132.182C116.925 132.182 118.22 131.295 118.629 129.977L117.334 129.614C116.993 130.523 116.203 130.977 115.152 130.977C113.578 130.977 112.493 129.96 112.43 128.091H118.766V127.523C118.766 124.273 116.834 123.159 115.016 123.159C112.652 123.159 111.084 125.023 111.084 127.705C111.084 130.386 112.629 132.182 115.152 132.182ZM112.43 126.932C112.521 125.574 113.482 124.364 115.016 124.364C116.47 124.364 117.402 125.455 117.402 126.932H112.43ZM120.805 132H122.146V126.477C122.146 125.295 123.078 124.432 124.351 124.432C124.709 124.432 125.078 124.5 125.169 124.523V123.159C125.016 123.148 124.663 123.136 124.464 123.136C123.419 123.136 122.51 123.727 122.192 124.591H122.101V123.273H120.805V132ZM135.054 123.273H133.19V121.182H131.849V123.273H130.531V124.409H131.849V129.864C131.849 131.386 133.077 132.114 134.213 132.114C134.713 132.114 135.031 132.023 135.213 131.955L134.94 130.75C134.827 130.773 134.645 130.818 134.349 130.818C133.759 130.818 133.19 130.636 133.19 129.5V124.409H135.054V123.273ZM137.071 132H138.412V123.273H137.071V132ZM137.753 121.818C138.276 121.818 138.707 121.409 138.707 120.909C138.707 120.409 138.276 120 137.753 120C137.23 120 136.798 120.409 136.798 120.909C136.798 121.409 137.23 121.818 137.753 121.818ZM140.868 135.273H142.209V130.659H142.322C142.618 131.136 143.186 132.182 144.868 132.182C147.05 132.182 148.572 130.432 148.572 127.659C148.572 124.909 147.05 123.159 144.845 123.159C143.141 123.159 142.618 124.205 142.322 124.659H142.163V123.273H140.868V135.273ZM142.186 127.636C142.186 125.682 143.05 124.364 144.686 124.364C146.391 124.364 147.232 125.795 147.232 127.636C147.232 129.5 146.368 130.977 144.686 130.977C143.072 130.977 142.186 129.614 142.186 127.636ZM156.8 125.227C156.379 123.989 155.436 123.159 153.709 123.159C151.868 123.159 150.504 124.205 150.504 125.682C150.504 126.886 151.22 127.693 152.822 128.068L154.277 128.409C155.158 128.614 155.572 129.034 155.572 129.636C155.572 130.386 154.777 131 153.527 131C152.43 131 151.743 130.528 151.504 129.591L150.232 129.909C150.544 131.392 151.766 132.182 153.55 132.182C155.578 132.182 156.959 131.074 156.959 129.568C156.959 128.352 156.197 127.585 154.641 127.205L153.345 126.886C152.311 126.631 151.845 126.284 151.845 125.614C151.845 124.864 152.641 124.318 153.709 124.318C154.879 124.318 155.362 124.966 155.595 125.568L156.8 125.227ZM160.977 130.409H159.523L159.455 131.045C159.29 132.585 158.966 134.119 158.818 134.841H159.841C160.114 134.068 160.693 132.318 160.886 131.023L160.977 130.409ZM170.53 132.205C172.053 132.205 172.848 131.386 173.121 130.818H173.189V132H174.53V126.25C174.53 123.477 172.416 123.159 171.303 123.159C169.984 123.159 168.484 123.614 167.803 125.205L169.075 125.659C169.371 125.023 170.07 124.341 171.348 124.341C172.581 124.341 173.189 124.994 173.189 126.114V126.159C173.189 126.807 172.53 126.75 170.939 126.955C169.32 127.165 167.553 127.523 167.553 129.523C167.553 131.227 168.871 132.205 170.53 132.205ZM170.734 131C169.666 131 168.893 130.523 168.893 129.591C168.893 128.568 169.825 128.25 170.871 128.114C171.439 128.045 172.962 127.886 173.189 127.614V128.841C173.189 129.932 172.325 131 170.734 131ZM180.523 132.182C182.455 132.182 183.727 131 183.955 129.455H182.614C182.364 130.409 181.568 130.977 180.523 130.977C178.932 130.977 177.909 129.659 177.909 127.636C177.909 125.659 178.955 124.364 180.523 124.364C181.705 124.364 182.409 125.091 182.614 125.886H183.955C183.727 124.25 182.341 123.159 180.5 123.159C178.136 123.159 176.568 125.023 176.568 127.682C176.568 130.295 178.068 132.182 180.523 132.182ZM189.71 123.273H187.847V121.182H186.506V123.273H185.188V124.409H186.506V129.864C186.506 131.386 187.733 132.114 188.869 132.114C189.369 132.114 189.688 132.023 189.869 131.955L189.597 130.75C189.483 130.773 189.301 130.818 189.006 130.818C188.415 130.818 187.847 130.636 187.847 129.5V124.409H189.71V123.273ZM191.727 132H193.068V123.273H191.727V132ZM192.409 121.818C192.932 121.818 193.364 121.409 193.364 120.909C193.364 120.409 192.932 120 192.409 120C191.886 120 191.455 120.409 191.455 120.909C191.455 121.409 191.886 121.818 192.409 121.818ZM202.661 123.273H201.206L198.797 130.227H198.706L196.297 123.273H194.842L198.07 132H199.433L202.661 123.273ZM204.43 132H205.771V123.273H204.43V132ZM205.112 121.818C205.635 121.818 206.067 121.409 206.067 120.909C206.067 120.409 205.635 120 205.112 120C204.589 120 204.158 120.409 204.158 120.909C204.158 121.409 204.589 121.818 205.112 121.818ZM212.023 123.273H210.159V121.182H208.818V123.273H207.5V124.409H208.818V129.864C208.818 131.386 210.045 132.114 211.182 132.114C211.682 132.114 212 132.023 212.182 131.955L211.909 130.75C211.795 130.773 211.614 130.818 211.318 130.818C210.727 130.818 210.159 130.636 210.159 129.5V124.409H212.023V123.273ZM214.04 132H215.381V123.273H214.04V132ZM214.722 121.818C215.244 121.818 215.676 121.409 215.676 120.909C215.676 120.409 215.244 120 214.722 120C214.199 120 213.767 120.409 213.767 120.909C213.767 121.409 214.199 121.818 214.722 121.818ZM221.496 132.182C223.268 132.182 224.564 131.295 224.973 129.977L223.678 129.614C223.337 130.523 222.547 130.977 221.496 130.977C219.922 130.977 218.837 129.96 218.774 128.091H225.109V127.523C225.109 124.273 223.178 123.159 221.359 123.159C218.996 123.159 217.428 125.023 217.428 127.705C217.428 130.386 218.973 132.182 221.496 132.182ZM218.774 126.932C218.865 125.574 219.825 124.364 221.359 124.364C222.814 124.364 223.746 125.455 223.746 126.932H218.774ZM233.331 125.227C232.911 123.989 231.967 123.159 230.24 123.159C228.399 123.159 227.036 124.205 227.036 125.682C227.036 126.886 227.751 127.693 229.354 128.068L230.808 128.409C231.689 128.614 232.104 129.034 232.104 129.636C232.104 130.386 231.308 131 230.058 131C228.962 131 228.274 130.528 228.036 129.591L226.763 129.909C227.075 131.392 228.297 132.182 230.081 132.182C232.109 132.182 233.49 131.074 233.49 129.568C233.49 128.352 232.729 127.585 231.172 127.205L229.876 126.886C228.842 126.631 228.376 126.284 228.376 125.614C228.376 124.864 229.172 124.318 230.24 124.318C231.411 124.318 231.893 124.966 232.126 125.568L233.331 125.227ZM242.577 132.205C244.099 132.205 244.895 131.386 245.168 130.818H245.236V132H246.577V126.25C246.577 123.477 244.463 123.159 243.349 123.159C242.031 123.159 240.531 123.614 239.849 125.205L241.122 125.659C241.418 125.023 242.116 124.341 243.395 124.341C244.628 124.341 245.236 124.994 245.236 126.114V126.159C245.236 126.807 244.577 126.75 242.986 126.955C241.366 127.165 239.599 127.523 239.599 129.523C239.599 131.227 240.918 132.205 242.577 132.205ZM242.781 131C241.713 131 240.94 130.523 240.94 129.591C240.94 128.568 241.872 128.25 242.918 128.114C243.486 128.045 245.009 127.886 245.236 127.614V128.841C245.236 129.932 244.372 131 242.781 131ZM250.365 126.75C250.365 125.227 251.308 124.364 252.592 124.364C253.837 124.364 254.592 125.176 254.592 126.545V132H255.933V126.455C255.933 124.227 254.746 123.159 252.979 123.159C251.661 123.159 250.842 123.75 250.433 124.636H250.32V123.273H249.024V132H250.365V126.75ZM261.679 132.182C263.361 132.182 263.929 131.136 264.224 130.659H264.384V132H265.679V120.364H264.338V124.659H264.224C263.929 124.205 263.406 123.159 261.702 123.159C259.497 123.159 257.974 124.909 257.974 127.659C257.974 130.432 259.497 132.182 261.679 132.182ZM261.861 130.977C260.179 130.977 259.315 129.5 259.315 127.636C259.315 125.795 260.156 124.364 261.861 124.364C263.497 124.364 264.361 125.682 264.361 127.636C264.361 129.614 263.474 130.977 261.861 130.977ZM1.40909 156H2.70455V154.659H2.86364C3.15909 155.136 3.72727 156.182 5.40909 156.182C7.59091 156.182 9.11364 154.432 9.11364 151.659C9.11364 148.909 7.59091 147.159 5.38636 147.159C3.68182 147.159 3.15909 148.205 2.86364 148.659H2.75V144.364H1.40909V156ZM2.72727 151.636C2.72727 149.682 3.59091 148.364 5.22727 148.364C6.93182 148.364 7.77273 149.795 7.77273 151.636C7.77273 153.5 6.90909 154.977 5.22727 154.977C3.61364 154.977 2.72727 153.614 2.72727 151.636ZM14.8239 156.182C16.5966 156.182 17.892 155.295 18.3011 153.977L17.0057 153.614C16.6648 154.523 15.875 154.977 14.8239 154.977C13.25 154.977 12.1648 153.96 12.1023 152.091H18.4375V151.523C18.4375 148.273 16.5057 147.159 14.6875 147.159C12.3239 147.159 10.7557 149.023 10.7557 151.705C10.7557 154.386 12.3011 156.182 14.8239 156.182ZM12.1023 150.932C12.1932 149.574 13.1534 148.364 14.6875 148.364C16.142 148.364 17.0739 149.455 17.0739 150.932H12.1023ZM26.6591 149.227C26.2386 147.989 25.2955 147.159 23.5682 147.159C21.7273 147.159 20.3636 148.205 20.3636 149.682C20.3636 150.886 21.0795 151.693 22.6818 152.068L24.1364 152.409C25.017 152.614 25.4318 153.034 25.4318 153.636C25.4318 154.386 24.6364 155 23.3864 155C22.2898 155 21.6023 154.528 21.3636 153.591L20.0909 153.909C20.4034 155.392 21.625 156.182 23.4091 156.182C25.4375 156.182 26.8182 155.074 26.8182 153.568C26.8182 152.352 26.0568 151.585 24.5 151.205L23.2045 150.886C22.1705 150.631 21.7045 150.284 21.7045 149.614C21.7045 148.864 22.5 148.318 23.5682 148.318C24.7386 148.318 25.2216 148.966 25.4545 149.568L26.6591 149.227ZM32.6321 147.273H30.7685V145.182H29.4276V147.273H28.1094V148.409H29.4276V153.864C29.4276 155.386 30.6548 156.114 31.7912 156.114C32.2912 156.114 32.6094 156.023 32.7912 155.955L32.5185 154.75C32.4048 154.773 32.223 154.818 31.9276 154.818C31.3366 154.818 30.7685 154.636 30.7685 153.5V148.409H32.6321V147.273ZM39.1491 159.273H40.4901V154.659H40.6037C40.8991 155.136 41.4673 156.182 43.1491 156.182C45.331 156.182 46.8537 154.432 46.8537 151.659C46.8537 148.909 45.331 147.159 43.1264 147.159C41.4219 147.159 40.8991 148.205 40.6037 148.659H40.4446V147.273H39.1491V159.273ZM40.4673 151.636C40.4673 149.682 41.331 148.364 42.9673 148.364C44.6719 148.364 45.5128 149.795 45.5128 151.636C45.5128 153.5 44.6491 154.977 42.9673 154.977C41.3537 154.977 40.4673 153.614 40.4673 151.636ZM48.8991 156H50.2401V150.477C50.2401 149.295 51.1719 148.432 52.4446 148.432C52.8026 148.432 53.1719 148.5 53.2628 148.523V147.159C53.1094 147.148 52.7571 147.136 52.5582 147.136C51.5128 147.136 50.6037 147.727 50.2855 148.591H50.1946V147.273H48.8991V156ZM57.4205 156.205C58.9432 156.205 59.7386 155.386 60.0114 154.818H60.0795V156H61.4205V150.25C61.4205 147.477 59.3068 147.159 58.1932 147.159C56.875 147.159 55.375 147.614 54.6932 149.205L55.9659 149.659C56.2614 149.023 56.9602 148.341 58.2386 148.341C59.4716 148.341 60.0795 148.994 60.0795 150.114V150.159C60.0795 150.807 59.4205 150.75 57.8295 150.955C56.2102 151.165 54.4432 151.523 54.4432 153.523C54.4432 155.227 55.7614 156.205 57.4205 156.205ZM57.625 155C56.5568 155 55.7841 154.523 55.7841 153.591C55.7841 152.568 56.7159 152.25 57.7614 152.114C58.3295 152.045 59.8523 151.886 60.0795 151.614V152.841C60.0795 153.932 59.2159 155 57.625 155ZM67.4134 156.182C69.3452 156.182 70.6179 155 70.8452 153.455H69.5043C69.2543 154.409 68.4588 154.977 67.4134 154.977C65.8224 154.977 64.7997 153.659 64.7997 151.636C64.7997 149.659 65.8452 148.364 67.4134 148.364C68.5952 148.364 69.2997 149.091 69.5043 149.886H70.8452C70.6179 148.25 69.2315 147.159 67.3906 147.159C65.027 147.159 63.4588 149.023 63.4588 151.682C63.4588 154.295 64.9588 156.182 67.4134 156.182ZM76.6009 147.273H74.7372V145.182H73.3963V147.273H72.0781V148.409H73.3963V153.864C73.3963 155.386 74.6236 156.114 75.7599 156.114C76.2599 156.114 76.5781 156.023 76.7599 155.955L76.4872 154.75C76.3736 154.773 76.1918 154.818 75.8963 154.818C75.3054 154.818 74.7372 154.636 74.7372 153.5V148.409H76.6009V147.273ZM78.6179 156H79.9588V147.273H78.6179V156ZM79.2997 145.818C79.8224 145.818 80.2543 145.409 80.2543 144.909C80.2543 144.409 79.8224 144 79.2997 144C78.777 144 78.3452 144.409 78.3452 144.909C78.3452 145.409 78.777 145.818 79.2997 145.818ZM85.9602 156.182C87.892 156.182 89.1648 155 89.392 153.455H88.0511C87.8011 154.409 87.0057 154.977 85.9602 154.977C84.3693 154.977 83.3466 153.659 83.3466 151.636C83.3466 149.659 84.392 148.364 85.9602 148.364C87.142 148.364 87.8466 149.091 88.0511 149.886H89.392C89.1648 148.25 87.7784 147.159 85.9375 147.159C83.5739 147.159 82.0057 149.023 82.0057 151.682C82.0057 154.295 83.5057 156.182 85.9602 156.182ZM95.0114 156.182C96.7841 156.182 98.0795 155.295 98.4886 153.977L97.1932 153.614C96.8523 154.523 96.0625 154.977 95.0114 154.977C93.4375 154.977 92.3523 153.96 92.2898 152.091H98.625V151.523C98.625 148.273 96.6932 147.159 94.875 147.159C92.5114 147.159 90.9432 149.023 90.9432 151.705C90.9432 154.386 92.4886 156.182 95.0114 156.182ZM92.2898 150.932C92.3807 149.574 93.3409 148.364 94.875 148.364C96.3295 148.364 97.2614 149.455 97.2614 150.932H92.2898ZM106.847 149.227C106.426 147.989 105.483 147.159 103.756 147.159C101.915 147.159 100.551 148.205 100.551 149.682C100.551 150.886 101.267 151.693 102.869 152.068L104.324 152.409C105.205 152.614 105.619 153.034 105.619 153.636C105.619 154.386 104.824 155 103.574 155C102.477 155 101.79 154.528 101.551 153.591L100.278 153.909C100.591 155.392 101.812 156.182 103.597 156.182C105.625 156.182 107.006 155.074 107.006 153.568C107.006 152.352 106.244 151.585 104.688 151.205L103.392 150.886C102.358 150.631 101.892 150.284 101.892 149.614C101.892 148.864 102.688 148.318 103.756 148.318C104.926 148.318 105.409 148.966 105.642 149.568L106.847 149.227ZM117.411 147.273H115.456V146.386C115.456 145.523 115.82 145.068 116.706 145.068C117.092 145.068 117.32 145.159 117.456 145.205L117.842 144.045C117.638 143.955 117.229 143.818 116.57 143.818C115.32 143.818 114.115 144.568 114.115 146.068V147.273H112.706V148.409H114.115V156H115.456V148.409H117.411V147.273ZM119.29 156H120.631V150.477C120.631 149.295 121.562 148.432 122.835 148.432C123.193 148.432 123.562 148.5 123.653 148.523V147.159C123.5 147.148 123.148 147.136 122.949 147.136C121.903 147.136 120.994 147.727 120.676 148.591H120.585V147.273H119.29V156ZM128.523 156.182C130.886 156.182 132.477 154.386 132.477 151.682C132.477 148.955 130.886 147.159 128.523 147.159C126.159 147.159 124.568 148.955 124.568 151.682C124.568 154.386 126.159 156.182 128.523 156.182ZM128.523 154.977C126.727 154.977 125.909 153.432 125.909 151.682C125.909 149.932 126.727 148.364 128.523 148.364C130.318 148.364 131.136 149.932 131.136 151.682C131.136 153.432 130.318 154.977 128.523 154.977ZM134.524 156H135.865V150.545C135.865 149.267 136.797 148.364 137.842 148.364C138.859 148.364 139.57 149.028 139.57 150.023V156H140.933V150.318C140.933 149.193 141.638 148.364 142.865 148.364C143.82 148.364 144.638 148.869 144.638 150.159V156H145.979V150.159C145.979 148.108 144.876 147.159 143.32 147.159C142.07 147.159 141.155 147.733 140.706 148.636H140.615C140.183 147.705 139.422 147.159 138.274 147.159C137.138 147.159 136.297 147.705 135.933 148.636H135.82V147.273H134.524V156ZM156.476 156.182C158.839 156.182 160.43 154.386 160.43 151.682C160.43 148.955 158.839 147.159 156.476 147.159C154.112 147.159 152.521 148.955 152.521 151.682C152.521 154.386 154.112 156.182 156.476 156.182ZM156.476 154.977C154.68 154.977 153.862 153.432 153.862 151.682C153.862 149.932 154.68 148.364 156.476 148.364C158.271 148.364 159.089 149.932 159.089 151.682C159.089 153.432 158.271 154.977 156.476 154.977ZM167.977 152.432C167.977 154.068 166.727 154.818 165.727 154.818C164.614 154.818 163.818 154 163.818 152.727V147.273H162.477V152.818C162.477 155.045 163.659 156.114 165.295 156.114C166.614 156.114 167.477 155.409 167.886 154.523H167.977V156H169.318V147.273H167.977V152.432ZM171.774 156H173.115V150.477C173.115 149.295 174.047 148.432 175.32 148.432C175.678 148.432 176.047 148.5 176.138 148.523V147.159C175.984 147.148 175.632 147.136 175.433 147.136C174.388 147.136 173.479 147.727 173.161 148.591H173.07V147.273H171.774V156ZM186.023 147.273H184.159V145.182H182.818V147.273H181.5V148.409H182.818V153.864C182.818 155.386 184.045 156.114 185.182 156.114C185.682 156.114 186 156.023 186.182 155.955L185.909 154.75C185.795 154.773 185.614 154.818 185.318 154.818C184.727 154.818 184.159 154.636 184.159 153.5V148.409H186.023V147.273ZM191.605 156.182C193.378 156.182 194.673 155.295 195.082 153.977L193.787 153.614C193.446 154.523 192.656 154.977 191.605 154.977C190.031 154.977 188.946 153.96 188.884 152.091H195.219V151.523C195.219 148.273 193.287 147.159 191.469 147.159C189.105 147.159 187.537 149.023 187.537 151.705C187.537 154.386 189.082 156.182 191.605 156.182ZM188.884 150.932C188.974 149.574 189.935 148.364 191.469 148.364C192.923 148.364 193.855 149.455 193.855 150.932H188.884ZM199.827 156.205C201.349 156.205 202.145 155.386 202.418 154.818H202.486V156H203.827V150.25C203.827 147.477 201.713 147.159 200.599 147.159C199.281 147.159 197.781 147.614 197.099 149.205L198.372 149.659C198.668 149.023 199.366 148.341 200.645 148.341C201.878 148.341 202.486 148.994 202.486 150.114V150.159C202.486 150.807 201.827 150.75 200.236 150.955C198.616 151.165 196.849 151.523 196.849 153.523C196.849 155.227 198.168 156.205 199.827 156.205ZM200.031 155C198.963 155 198.19 154.523 198.19 153.591C198.19 152.568 199.122 152.25 200.168 152.114C200.736 152.045 202.259 151.886 202.486 151.614V152.841C202.486 153.932 201.622 155 200.031 155ZM206.274 156H207.615V150.545C207.615 149.267 208.547 148.364 209.592 148.364C210.609 148.364 211.32 149.028 211.32 150.023V156H212.683V150.318C212.683 149.193 213.388 148.364 214.615 148.364C215.57 148.364 216.388 148.869 216.388 150.159V156H217.729V150.159C217.729 148.108 216.626 147.159 215.07 147.159C213.82 147.159 212.905 147.733 212.456 148.636H212.365C211.933 147.705 211.172 147.159 210.024 147.159C208.888 147.159 208.047 147.705 207.683 148.636H207.57V147.273H206.274V156ZM228.226 156.182C230.589 156.182 232.18 154.386 232.18 151.682C232.18 148.955 230.589 147.159 228.226 147.159C225.862 147.159 224.271 148.955 224.271 151.682C224.271 154.386 225.862 156.182 228.226 156.182ZM228.226 154.977C226.43 154.977 225.612 153.432 225.612 151.682C225.612 149.932 226.43 148.364 228.226 148.364C230.021 148.364 230.839 149.932 230.839 151.682C230.839 153.432 230.021 154.977 228.226 154.977ZM238.114 147.273H236.159V146.386C236.159 145.523 236.523 145.068 237.409 145.068C237.795 145.068 238.023 145.159 238.159 145.205L238.545 144.045C238.341 143.955 237.932 143.818 237.273 143.818C236.023 143.818 234.818 144.568 234.818 146.068V147.273H233.409V148.409H234.818V156H236.159V148.409H238.114V147.273ZM248.152 156.182C249.925 156.182 251.22 155.295 251.629 153.977L250.334 153.614C249.993 154.523 249.203 154.977 248.152 154.977C246.578 154.977 245.493 153.96 245.43 152.091H251.766V151.523C251.766 148.273 249.834 147.159 248.016 147.159C245.652 147.159 244.084 149.023 244.084 151.705C244.084 154.386 245.629 156.182 248.152 156.182ZM245.43 150.932C245.521 149.574 246.482 148.364 248.016 148.364C249.47 148.364 250.402 149.455 250.402 150.932H245.43ZM254.571 147.273H253.026L255.798 151.636L253.026 156H254.571L256.662 152.614L258.753 156H260.298L257.48 151.636L260.298 147.273H258.753L256.662 150.841L254.571 147.273ZM262.212 159.273H263.553V154.659H263.666C263.962 155.136 264.53 156.182 266.212 156.182C268.393 156.182 269.916 154.432 269.916 151.659C269.916 148.909 268.393 147.159 266.189 147.159C264.484 147.159 263.962 148.205 263.666 148.659H263.507V147.273H262.212V159.273ZM263.53 151.636C263.53 149.682 264.393 148.364 266.03 148.364C267.734 148.364 268.575 149.795 268.575 151.636C268.575 153.5 267.712 154.977 266.03 154.977C264.416 154.977 263.53 153.614 263.53 151.636ZM275.621 156.182C277.393 156.182 278.689 155.295 279.098 153.977L277.803 153.614C277.462 154.523 276.672 154.977 275.621 154.977C274.047 154.977 272.962 153.96 272.899 152.091H279.234V151.523C279.234 148.273 277.303 147.159 275.484 147.159C273.121 147.159 271.553 149.023 271.553 151.705C271.553 154.386 273.098 156.182 275.621 156.182ZM272.899 150.932C272.99 149.574 273.95 148.364 275.484 148.364C276.939 148.364 277.871 149.455 277.871 150.932H272.899ZM281.274 156H282.615V150.477C282.615 149.295 283.547 148.432 284.82 148.432C285.178 148.432 285.547 148.5 285.638 148.523V147.159C285.484 147.148 285.132 147.136 284.933 147.136C283.888 147.136 282.979 147.727 282.661 148.591H282.57V147.273H281.274V156ZM291.57 147.273H289.706V145.182H288.365V147.273H287.047V148.409H288.365V153.864C288.365 155.386 289.592 156.114 290.729 156.114C291.229 156.114 291.547 156.023 291.729 155.955L291.456 154.75C291.342 154.773 291.161 154.818 290.865 154.818C290.274 154.818 289.706 154.636 289.706 153.5V148.409H291.57V147.273ZM299.612 149.227C299.192 147.989 298.249 147.159 296.521 147.159C294.68 147.159 293.317 148.205 293.317 149.682C293.317 150.886 294.033 151.693 295.635 152.068L297.089 152.409C297.97 152.614 298.385 153.034 298.385 153.636C298.385 154.386 297.589 155 296.339 155C295.243 155 294.555 154.528 294.317 153.591L293.044 153.909C293.357 155.392 294.578 156.182 296.362 156.182C298.391 156.182 299.771 155.074 299.771 153.568C299.771 152.352 299.01 151.585 297.453 151.205L296.158 150.886C295.124 150.631 294.658 150.284 294.658 149.614C294.658 148.864 295.453 148.318 296.521 148.318C297.692 148.318 298.175 148.966 298.408 149.568L299.612 149.227ZM302.767 156.091C303.33 156.091 303.79 155.631 303.79 155.068C303.79 154.506 303.33 154.045 302.767 154.045C302.205 154.045 301.744 154.506 301.744 155.068C301.744 155.631 302.205 156.091 302.767 156.091Z" fill="#4E5A65"/>
</svg>
