<svg width="231" height="162" viewBox="0 0 231 162" fill="none" xmlns="http://www.w3.org/2000/svg">
<circle cx="32" cy="32" r="32" fill="#EDE8F7"/>
<g clip-path="url(#clip0_759_154)">
<path d="M32 23.4666C33.1782 23.4666 34.1333 22.5115 34.1333 21.3333C34.1333 20.1551 33.1782 19.2 32 19.2C30.8218 19.2 29.8667 20.1551 29.8667 21.3333C29.8667 22.5115 30.8218 23.4666 32 23.4666Z" fill="#5526B3"/>
<path d="M36.2667 27.4668C36.2667 25.8486 34.9515 24.5334 33.3333 24.5334H30.6667C29.0485 24.5334 27.7333 25.8486 27.7333 27.4668V28.0001C27.7333 28.4417 28.0917 28.8001 28.5333 28.8001H35.4667C35.9083 28.8001 36.2667 28.4417 36.2667 28.0001V27.4668Z" fill="#5526B3"/>
<path d="M23.4667 39.4666C24.6449 39.4666 25.6 38.5115 25.6 37.3333C25.6 36.1551 24.6449 35.2 23.4667 35.2C22.2885 35.2 21.3333 36.1551 21.3333 37.3333C21.3333 38.5115 22.2885 39.4666 23.4667 39.4666Z" fill="#5526B3"/>
<path d="M24.8 40.5332H22.1333C20.5152 40.5332 19.2 41.8484 19.2 43.4665V43.9999C19.2 44.4415 19.5584 44.7999 20 44.7999H26.9333C27.3749 44.7999 27.7333 44.4415 27.7333 43.9999V43.4665C27.7333 41.8484 26.4181 40.5332 24.8 40.5332Z" fill="#5526B3"/>
<path d="M40.5333 39.4666C41.7115 39.4666 42.6667 38.5115 42.6667 37.3333C42.6667 36.1551 41.7115 35.2 40.5333 35.2C39.3551 35.2 38.4 36.1551 38.4 37.3333C38.4 38.5115 39.3551 39.4666 40.5333 39.4666Z" fill="#5526B3"/>
<path d="M41.8667 40.5332H39.2C37.5819 40.5332 36.2667 41.8484 36.2667 43.4665V43.9999C36.2667 44.4415 36.6251 44.7999 37.0667 44.7999H44C44.4416 44.7999 44.8 44.4415 44.8 43.9999V43.4665C44.8 41.8484 43.4848 40.5332 41.8667 40.5332Z" fill="#5526B3"/>
<path d="M40.5333 34.1332C40.0917 34.1332 39.7333 33.7748 39.7333 33.3332V33.0666H24.2667V33.3332C24.2667 33.7748 23.9083 34.1332 23.4667 34.1332C23.0251 34.1332 22.6667 33.7748 22.6667 33.3332V32.2666C22.6667 31.825 23.0251 31.4666 23.4667 31.4666H40.5333C40.9749 31.4666 41.3333 31.825 41.3333 32.2666V33.3332C41.3333 33.7748 40.9749 34.1332 40.5333 34.1332Z" fill="#5526B3"/>
<path d="M32 33.0667C31.5584 33.0667 31.2 32.7083 31.2 32.2667V30.6667C31.2 30.2251 31.5584 29.8667 32 29.8667C32.4416 29.8667 32.8 30.2251 32.8 30.6667V32.2667C32.8 32.7083 32.4416 33.0667 32 33.0667Z" fill="#5526B3"/>
</g>
<path d="M12.4964 95.326C12.0938 92.4176 9.85653 90.7301 6.95455 90.7301C3.5348 90.7301 0.958807 93.223 0.958807 97.4545C0.958807 101.68 3.50284 104.179 6.95455 104.179C10.0675 104.179 12.1321 102.165 12.4964 99.6662L10.1058 99.6534C9.8054 101.188 8.55256 102.05 6.98651 102.05C4.86435 102.05 3.34304 100.459 3.34304 97.4545C3.34304 94.5014 4.85156 92.8587 6.9929 92.8587C8.58452 92.8587 9.83097 93.7599 10.1058 95.326H12.4964ZM18.8485 104.192C21.725 104.192 23.5531 102.165 23.5531 99.1293C23.5531 96.0866 21.725 94.054 18.8485 94.054C15.9721 94.054 14.144 96.0866 14.144 99.1293C14.144 102.165 15.9721 104.192 18.8485 104.192ZM18.8613 102.338C17.2697 102.338 16.4899 100.919 16.4899 99.1229C16.4899 97.3267 17.2697 95.8885 18.8613 95.8885C20.4274 95.8885 21.2072 97.3267 21.2072 99.1229C21.2072 100.919 20.4274 102.338 18.8613 102.338ZM27.831 98.2472C27.831 96.8281 28.6875 96.0099 29.9084 96.0099C31.1037 96.0099 31.8196 96.7962 31.8196 98.1065V104H34.1335V97.7486C34.1399 95.3963 32.7976 94.054 30.7713 94.054C29.3011 94.054 28.2912 94.7571 27.8438 95.8501H27.7287V94.1818H25.517V104H27.831V98.2472ZM44.9041 94.1818H42.4432L40.1804 101.475H40.0781L37.8217 94.1818H35.3544L38.8509 104H41.4077L44.9041 94.1818ZM50.5179 104.192C52.8063 104.192 54.3787 103.073 54.7878 101.366L52.6273 101.124C52.3141 101.955 51.5471 102.389 50.5499 102.389C49.0542 102.389 48.0634 101.405 48.0442 99.7237H54.8837V99.0142C54.8837 95.5689 52.8127 94.054 50.3965 94.054C47.584 94.054 45.7495 96.1186 45.7495 99.1484C45.7495 102.229 47.5584 104.192 50.5179 104.192ZM48.0506 98.1641C48.1209 96.9112 49.0478 95.8565 50.4284 95.8565C51.758 95.8565 52.6529 96.8281 52.6657 98.1641H48.0506ZM56.8413 104H59.1552V98.228C59.1552 96.9815 60.0948 96.0994 61.3668 96.0994C61.7567 96.0994 62.2425 96.1697 62.4407 96.2337V94.1051C62.2298 94.0668 61.8654 94.0412 61.6097 94.0412C60.4847 94.0412 59.5451 94.6804 59.1871 95.8182H59.0849V94.1818H56.8413V104ZM71.7379 96.777C71.4183 95.1151 70.0888 94.054 67.7876 94.054C65.4226 94.054 63.8118 95.2173 63.8182 97.0327C63.8118 98.4645 64.6939 99.4105 66.5795 99.8004L68.2543 100.152C69.1555 100.35 69.5774 100.714 69.5774 101.271C69.5774 101.942 68.8487 102.447 67.7493 102.447C66.6882 102.447 65.9979 101.987 65.7997 101.104L63.5433 101.322C63.831 103.124 65.3459 104.192 67.7557 104.192C70.2102 104.192 71.9425 102.92 71.9489 101.06C71.9425 99.6598 71.0412 98.8033 69.1875 98.4006L67.5128 98.0426C66.5156 97.8189 66.1193 97.4737 66.1257 96.9048C66.1193 96.2401 66.8544 95.7798 67.8196 95.7798C68.8871 95.7798 69.4496 96.3615 69.6286 97.0071L71.7379 96.777ZM76.6822 104.198C78.2227 104.198 79.1431 103.476 79.565 102.651H79.6417V104H81.8661V97.429C81.8661 94.8338 79.7504 94.054 77.8775 94.054C75.8129 94.054 74.2276 94.9744 73.7163 96.7642L75.8768 97.071C76.1069 96.3999 76.7589 95.8246 77.8903 95.8246C78.9641 95.8246 79.5522 96.3743 79.5522 97.3395V97.3778C79.5522 98.0426 78.8555 98.0746 77.1232 98.2599C75.2184 98.4645 73.3967 99.0334 73.3967 101.245C73.3967 103.175 74.8093 104.198 76.6822 104.198ZM77.283 102.498C76.3178 102.498 75.6275 102.057 75.6275 101.207C75.6275 100.318 76.4009 99.9474 77.4364 99.8004C78.0437 99.7173 79.2582 99.5639 79.5586 99.321V100.478C79.5586 101.571 78.6765 102.498 77.283 102.498ZM89.0955 94.1818H87.1587V91.8295H84.8448V94.1818H83.4513V95.9716H84.8448V101.43C84.832 103.278 86.1744 104.185 87.913 104.134C88.5714 104.115 89.0252 103.987 89.2745 103.904L88.8846 102.095C88.7567 102.127 88.4947 102.185 88.207 102.185C87.6254 102.185 87.1587 101.98 87.1587 101.047V95.9716H89.0955V94.1818ZM91.0307 104H93.3446V94.1818H91.0307V104ZM92.1941 92.7884C92.9292 92.7884 93.53 92.2259 93.53 91.5355C93.53 90.8388 92.9292 90.2763 92.1941 90.2763C91.4526 90.2763 90.8517 90.8388 90.8517 91.5355C90.8517 92.2259 91.4526 92.7884 92.1941 92.7884ZM100.007 104.192C102.883 104.192 104.711 102.165 104.711 99.1293C104.711 96.0866 102.883 94.054 100.007 94.054C97.1303 94.054 95.3022 96.0866 95.3022 99.1293C95.3022 102.165 97.1303 104.192 100.007 104.192ZM100.02 102.338C98.4279 102.338 97.6481 100.919 97.6481 99.1229C97.6481 97.3267 98.4279 95.8885 100.02 95.8885C101.586 95.8885 102.365 97.3267 102.365 99.1229C102.365 100.919 101.586 102.338 100.02 102.338ZM108.989 98.2472C108.989 96.8281 109.846 96.0099 111.067 96.0099C112.262 96.0099 112.978 96.7962 112.978 98.1065V104H115.292V97.7486C115.298 95.3963 113.956 94.054 111.93 94.054C110.459 94.054 109.449 94.7571 109.002 95.8501H108.887V94.1818H106.675V104H108.989V98.2472ZM122.211 104H130.776V102.012H124.583V98.4389H130.284V96.451H124.583V92.897H130.725V90.9091H122.211V104ZM135.356 98.2472C135.356 96.8281 136.213 96.0099 137.434 96.0099C138.629 96.0099 139.345 96.7962 139.345 98.1065V104H141.659V97.7486C141.665 95.3963 140.323 94.054 138.297 94.054C136.827 94.054 135.817 94.7571 135.369 95.8501H135.254V94.1818H133.042V104H135.356V98.2472ZM148.281 107.886C150.934 107.886 152.89 106.672 152.89 104.16V94.1818H150.608V95.8054H150.48C150.128 95.0959 149.393 94.054 147.661 94.054C145.392 94.054 143.608 95.831 143.608 99.0589C143.608 102.261 145.392 103.859 147.655 103.859C149.336 103.859 150.122 102.958 150.48 102.236H150.595V104.096C150.595 105.54 149.636 106.135 148.319 106.135C146.926 106.135 146.312 105.477 146.031 104.901L143.947 105.406C144.369 106.781 145.782 107.886 148.281 107.886ZM148.3 102.044C146.773 102.044 145.967 100.855 145.967 99.0462C145.967 97.2628 146.76 95.9524 148.3 95.9524C149.79 95.9524 150.608 97.1861 150.608 99.0462C150.608 100.919 149.777 102.044 148.3 102.044ZM155.261 104H157.575V94.1818H155.261V104ZM156.425 92.7884C157.16 92.7884 157.76 92.2259 157.76 91.5355C157.76 90.8388 157.16 90.2763 156.425 90.2763C155.683 90.2763 155.082 90.8388 155.082 91.5355C155.082 92.2259 155.683 92.7884 156.425 92.7884ZM162.268 98.2472C162.268 96.8281 163.125 96.0099 164.346 96.0099C165.541 96.0099 166.257 96.7962 166.257 98.1065V104H168.571V97.7486C168.577 95.3963 167.235 94.054 165.209 94.054C163.739 94.054 162.729 94.7571 162.281 95.8501H162.166V94.1818H159.955V104H162.268V98.2472ZM175.27 104.192C177.558 104.192 179.131 103.073 179.54 101.366L177.379 101.124C177.066 101.955 176.299 102.389 175.302 102.389C173.806 102.389 172.815 101.405 172.796 99.7237H179.636V99.0142C179.636 95.5689 177.565 94.054 175.148 94.054C172.336 94.054 170.501 96.1186 170.501 99.1484C170.501 102.229 172.31 104.192 175.27 104.192ZM172.803 98.1641C172.873 96.9112 173.8 95.8565 175.18 95.8565C176.51 95.8565 177.405 96.8281 177.418 98.1641H172.803Z" fill="#35414B"/>
<path d="M10.7727 124C10.3409 121.614 8.43182 120.205 6.09091 120.205C3.11364 120.205 0.954545 122.5 0.954545 126.182C0.954545 129.864 3.11364 132.159 6.09091 132.159C8.43182 132.159 10.3409 130.75 10.7727 128.364H9.36364C9.02273 129.977 7.63636 130.841 6.09091 130.841C3.97727 130.841 2.31818 129.205 2.31818 126.182C2.31818 123.159 3.97727 121.523 6.09091 121.523C7.63636 121.523 9.02273 122.386 9.36364 124H10.7727ZM16.4134 132.182C18.777 132.182 20.3679 130.386 20.3679 127.682C20.3679 124.955 18.777 123.159 16.4134 123.159C14.0497 123.159 12.4588 124.955 12.4588 127.682C12.4588 130.386 14.0497 132.182 16.4134 132.182ZM16.4134 130.977C14.6179 130.977 13.7997 129.432 13.7997 127.682C13.7997 125.932 14.6179 124.364 16.4134 124.364C18.2088 124.364 19.027 125.932 19.027 127.682C19.027 129.432 18.2088 130.977 16.4134 130.977ZM22.4148 132H23.7557V126.545C23.7557 125.267 24.6875 124.364 25.733 124.364C26.75 124.364 27.4602 125.028 27.4602 126.023V132H28.8239V126.318C28.8239 125.193 29.5284 124.364 30.7557 124.364C31.7102 124.364 32.5284 124.869 32.5284 126.159V132H33.8693V126.159C33.8693 124.108 32.767 123.159 31.2102 123.159C29.9602 123.159 29.0455 123.733 28.5966 124.636H28.5057C28.0739 123.705 27.3125 123.159 26.1648 123.159C25.0284 123.159 24.1875 123.705 23.8239 124.636H23.7102V123.273H22.4148V132ZM36.321 132H37.6619V126.545C37.6619 125.267 38.5938 124.364 39.6392 124.364C40.6562 124.364 41.3665 125.028 41.3665 126.023V132H42.7301V126.318C42.7301 125.193 43.4347 124.364 44.6619 124.364C45.6165 124.364 46.4347 124.869 46.4347 126.159V132H47.7756V126.159C47.7756 124.108 46.6733 123.159 45.1165 123.159C43.8665 123.159 42.9517 123.733 42.5028 124.636H42.4119C41.9801 123.705 41.2188 123.159 40.071 123.159C38.9347 123.159 38.0938 123.705 37.7301 124.636H37.6165V123.273H36.321V132ZM55.7273 128.432C55.7273 130.068 54.4773 130.818 53.4773 130.818C52.3636 130.818 51.5682 130 51.5682 128.727V123.273H50.2273V128.818C50.2273 131.045 51.4091 132.114 53.0455 132.114C54.3636 132.114 55.2273 131.409 55.6364 130.523H55.7273V132H57.0682V123.273H55.7273V128.432ZM60.8651 126.75C60.8651 125.227 61.8082 124.364 63.0923 124.364C64.3366 124.364 65.0923 125.176 65.0923 126.545V132H66.4332V126.455C66.4332 124.227 65.2457 123.159 63.4787 123.159C62.1605 123.159 61.3423 123.75 60.9332 124.636H60.8196V123.273H59.5241V132H60.8651V126.75ZM68.8835 132H70.2244V123.273H68.8835V132ZM69.5653 121.818C70.0881 121.818 70.5199 121.409 70.5199 120.909C70.5199 120.409 70.0881 120 69.5653 120C69.0426 120 68.6108 120.409 68.6108 120.909C68.6108 121.409 69.0426 121.818 69.5653 121.818ZM76.2259 132.182C78.1577 132.182 79.4304 131 79.6577 129.455H78.3168C78.0668 130.409 77.2713 130.977 76.2259 130.977C74.6349 130.977 73.6122 129.659 73.6122 127.636C73.6122 125.659 74.6577 124.364 76.2259 124.364C77.4077 124.364 78.1122 125.091 78.3168 125.886H79.6577C79.4304 124.25 78.044 123.159 76.2031 123.159C73.8395 123.159 72.2713 125.023 72.2713 127.682C72.2713 130.295 73.7713 132.182 76.2259 132.182ZM84.1861 132.205C85.7088 132.205 86.5043 131.386 86.777 130.818H86.8452V132H88.1861V126.25C88.1861 123.477 86.0724 123.159 84.9588 123.159C83.6406 123.159 82.1406 123.614 81.4588 125.205L82.7315 125.659C83.027 125.023 83.7259 124.341 85.0043 124.341C86.2372 124.341 86.8452 124.994 86.8452 126.114V126.159C86.8452 126.807 86.1861 126.75 84.5952 126.955C82.9759 127.165 81.2088 127.523 81.2088 129.523C81.2088 131.227 82.527 132.205 84.1861 132.205ZM84.3906 131C83.3224 131 82.5497 130.523 82.5497 129.591C82.5497 128.568 83.4815 128.25 84.527 128.114C85.0952 128.045 86.6179 127.886 86.8452 127.614V128.841C86.8452 129.932 85.9815 131 84.3906 131ZM94.429 123.273H92.5653V121.182H91.2244V123.273H89.9062V124.409H91.2244V129.864C91.2244 131.386 92.4517 132.114 93.5881 132.114C94.0881 132.114 94.4062 132.023 94.5881 131.955L94.3153 130.75C94.2017 130.773 94.0199 130.818 93.7244 130.818C93.1335 130.818 92.5653 130.636 92.5653 129.5V124.409H94.429V123.273ZM100.011 132.182C101.784 132.182 103.08 131.295 103.489 129.977L102.193 129.614C101.852 130.523 101.062 130.977 100.011 130.977C98.4375 130.977 97.3523 129.96 97.2898 128.091H103.625V127.523C103.625 124.273 101.693 123.159 99.875 123.159C97.5114 123.159 95.9432 125.023 95.9432 127.705C95.9432 130.386 97.4886 132.182 100.011 132.182ZM97.2898 126.932C97.3807 125.574 98.3409 124.364 99.875 124.364C101.33 124.364 102.261 125.455 102.261 126.932H97.2898ZM113.71 132.182C115.642 132.182 116.915 131 117.142 129.455H115.801C115.551 130.409 114.756 130.977 113.71 130.977C112.119 130.977 111.097 129.659 111.097 127.636C111.097 125.659 112.142 124.364 113.71 124.364C114.892 124.364 115.597 125.091 115.801 125.886H117.142C116.915 124.25 115.528 123.159 113.688 123.159C111.324 123.159 109.756 125.023 109.756 127.682C109.756 130.295 111.256 132.182 113.71 132.182ZM122.648 132.182C125.011 132.182 126.602 130.386 126.602 127.682C126.602 124.955 125.011 123.159 122.648 123.159C120.284 123.159 118.693 124.955 118.693 127.682C118.693 130.386 120.284 132.182 122.648 132.182ZM122.648 130.977C120.852 130.977 120.034 129.432 120.034 127.682C120.034 125.932 120.852 124.364 122.648 124.364C124.443 124.364 125.261 125.932 125.261 127.682C125.261 129.432 124.443 130.977 122.648 130.977ZM129.99 126.75C129.99 125.227 130.933 124.364 132.217 124.364C133.462 124.364 134.217 125.176 134.217 126.545V132H135.558V126.455C135.558 124.227 134.371 123.159 132.604 123.159C131.286 123.159 130.467 123.75 130.058 124.636H129.945V123.273H128.649V132H129.99V126.75ZM141.895 123.273H139.94V122.386C139.94 121.523 140.304 121.068 141.19 121.068C141.577 121.068 141.804 121.159 141.94 121.205L142.327 120.045C142.122 119.955 141.713 119.818 141.054 119.818C139.804 119.818 138.599 120.568 138.599 122.068V123.273H137.19V124.409H138.599V132H139.94V124.409H141.895V123.273ZM143.774 132H145.115V123.273H143.774V132ZM144.456 121.818C144.979 121.818 145.411 121.409 145.411 120.909C145.411 120.409 144.979 120 144.456 120C143.933 120 143.501 120.409 143.501 120.909C143.501 121.409 143.933 121.818 144.456 121.818ZM150.866 132.182C152.548 132.182 153.116 131.136 153.412 130.659H153.571V132H154.866V120.364H153.526V124.659H153.412C153.116 124.205 152.594 123.159 150.889 123.159C148.685 123.159 147.162 124.909 147.162 127.659C147.162 130.432 148.685 132.182 150.866 132.182ZM151.048 130.977C149.366 130.977 148.503 129.5 148.503 127.636C148.503 125.795 149.344 124.364 151.048 124.364C152.685 124.364 153.548 125.682 153.548 127.636C153.548 129.614 152.662 130.977 151.048 130.977ZM161.168 132.182C162.94 132.182 164.236 131.295 164.645 129.977L163.349 129.614C163.009 130.523 162.219 130.977 161.168 130.977C159.594 130.977 158.509 129.96 158.446 128.091H164.781V127.523C164.781 124.273 162.849 123.159 161.031 123.159C158.668 123.159 157.099 125.023 157.099 127.705C157.099 130.386 158.645 132.182 161.168 132.182ZM158.446 126.932C158.537 125.574 159.497 124.364 161.031 124.364C162.486 124.364 163.418 125.455 163.418 126.932H158.446ZM168.162 126.75C168.162 125.227 169.105 124.364 170.389 124.364C171.634 124.364 172.389 125.176 172.389 126.545V132H173.73V126.455C173.73 124.227 172.543 123.159 170.776 123.159C169.457 123.159 168.639 123.75 168.23 124.636H168.116V123.273H166.821V132H168.162V126.75ZM179.976 123.273H178.112V121.182H176.771V123.273H175.453V124.409H176.771V129.864C176.771 131.386 177.999 132.114 179.135 132.114C179.635 132.114 179.953 132.023 180.135 131.955L179.862 130.75C179.749 130.773 179.567 130.818 179.271 130.818C178.68 130.818 178.112 130.636 178.112 129.5V124.409H179.976V123.273ZM183.521 120.364H182.18V132H183.521V120.364ZM186.841 135.273C188.051 135.273 188.903 134.631 189.409 133.273L193.125 123.295L191.659 123.273L189.25 130.227H189.159L186.75 123.273H185.295L188.523 132.045L188.273 132.727C187.784 134.057 187.182 134.182 186.205 133.932L185.864 135.114C186 135.182 186.386 135.273 186.841 135.273ZM201.376 132H202.695L204.604 125.295H204.74L206.649 132H207.967L210.626 123.273H209.217L207.331 129.932H207.24L205.399 123.273H203.967L202.104 129.955H202.013L200.126 123.273H198.717L201.376 132ZM212.399 132H213.74V123.273H212.399V132ZM213.081 121.818C213.604 121.818 214.036 121.409 214.036 120.909C214.036 120.409 213.604 120 213.081 120C212.558 120 212.126 120.409 212.126 120.909C212.126 121.409 212.558 121.818 213.081 121.818ZM219.991 123.273H218.128V121.182H216.787V123.273H215.469V124.409H216.787V129.864C216.787 131.386 218.014 132.114 219.151 132.114C219.651 132.114 219.969 132.023 220.151 131.955L219.878 130.75C219.764 130.773 219.582 130.818 219.287 130.818C218.696 130.818 218.128 130.636 218.128 129.5V124.409H219.991V123.273ZM223.537 126.75C223.537 125.227 224.509 124.364 225.832 124.364C227.094 124.364 227.855 125.159 227.855 126.545V132H229.196V126.455C229.196 124.21 228.003 123.159 226.219 123.159C224.844 123.159 224.06 123.733 223.651 124.636H223.537V120.364H222.196V132H223.537V126.75ZM1.22727 156H2.56818V150.477C2.56818 149.295 3.5 148.432 4.77273 148.432C5.13068 148.432 5.5 148.5 5.59091 148.523V147.159C5.4375 147.148 5.08523 147.136 4.88636 147.136C3.84091 147.136 2.93182 147.727 2.61364 148.591H2.52273V147.273H1.22727V156ZM10.5739 156.182C12.3466 156.182 13.642 155.295 14.0511 153.977L12.7557 153.614C12.4148 154.523 11.625 154.977 10.5739 154.977C9 154.977 7.91477 153.96 7.85227 152.091H14.1875V151.523C14.1875 148.273 12.2557 147.159 10.4375 147.159C8.07386 147.159 6.50568 149.023 6.50568 151.705C6.50568 154.386 8.05114 156.182 10.5739 156.182ZM7.85227 150.932C7.94318 149.574 8.90341 148.364 10.4375 148.364C11.892 148.364 12.8239 149.455 12.8239 150.932H7.85227ZM19.7727 156.182C21.7045 156.182 22.9773 155 23.2045 153.455H21.8636C21.6136 154.409 20.8182 154.977 19.7727 154.977C18.1818 154.977 17.1591 153.659 17.1591 151.636C17.1591 149.659 18.2045 148.364 19.7727 148.364C20.9545 148.364 21.6591 149.091 21.8636 149.886H23.2045C22.9773 148.25 21.5909 147.159 19.75 147.159C17.3864 147.159 15.8182 149.023 15.8182 151.682C15.8182 154.295 17.3182 156.182 19.7727 156.182ZM28.7102 156.182C31.0739 156.182 32.6648 154.386 32.6648 151.682C32.6648 148.955 31.0739 147.159 28.7102 147.159C26.3466 147.159 24.7557 148.955 24.7557 151.682C24.7557 154.386 26.3466 156.182 28.7102 156.182ZM28.7102 154.977C26.9148 154.977 26.0966 153.432 26.0966 151.682C26.0966 149.932 26.9148 148.364 28.7102 148.364C30.5057 148.364 31.3239 149.932 31.3239 151.682C31.3239 153.432 30.5057 154.977 28.7102 154.977ZM34.7116 156H36.0526V150.545C36.0526 149.267 36.9844 148.364 38.0298 148.364C39.0469 148.364 39.7571 149.028 39.7571 150.023V156H41.1207V150.318C41.1207 149.193 41.8253 148.364 43.0526 148.364C44.0071 148.364 44.8253 148.869 44.8253 150.159V156H46.1662V150.159C46.1662 148.108 45.0639 147.159 43.5071 147.159C42.2571 147.159 41.3423 147.733 40.8935 148.636H40.8026C40.3707 147.705 39.6094 147.159 38.4616 147.159C37.3253 147.159 36.4844 147.705 36.1207 148.636H36.0071V147.273H34.7116V156ZM48.6179 156H49.9588V150.545C49.9588 149.267 50.8906 148.364 51.9361 148.364C52.9531 148.364 53.6634 149.028 53.6634 150.023V156H55.027V150.318C55.027 149.193 55.7315 148.364 56.9588 148.364C57.9134 148.364 58.7315 148.869 58.7315 150.159V156H60.0724V150.159C60.0724 148.108 58.9702 147.159 57.4134 147.159C56.1634 147.159 55.2486 147.733 54.7997 148.636H54.7088C54.277 147.705 53.5156 147.159 52.3679 147.159C51.2315 147.159 50.3906 147.705 50.027 148.636H49.9134V147.273H48.6179V156ZM66.1832 156.182C67.956 156.182 69.2514 155.295 69.6605 153.977L68.3651 153.614C68.0241 154.523 67.2344 154.977 66.1832 154.977C64.6094 154.977 63.5241 153.96 63.4616 152.091H69.7969V151.523C69.7969 148.273 67.8651 147.159 66.0469 147.159C63.6832 147.159 62.1151 149.023 62.1151 151.705C62.1151 154.386 63.6605 156.182 66.1832 156.182ZM63.4616 150.932C63.5526 149.574 64.5128 148.364 66.0469 148.364C67.5014 148.364 68.4332 149.455 68.4332 150.932H63.4616ZM73.1776 150.75C73.1776 149.227 74.1207 148.364 75.4048 148.364C76.6491 148.364 77.4048 149.176 77.4048 150.545V156H78.7457V150.455C78.7457 148.227 77.5582 147.159 75.7912 147.159C74.473 147.159 73.6548 147.75 73.2457 148.636H73.1321V147.273H71.8366V156H73.1776V150.75ZM84.4915 156.182C86.1733 156.182 86.7415 155.136 87.0369 154.659H87.196V156H88.4915V144.364H87.1506V148.659H87.0369C86.7415 148.205 86.2188 147.159 84.5142 147.159C82.3097 147.159 80.7869 148.909 80.7869 151.659C80.7869 154.432 82.3097 156.182 84.4915 156.182ZM84.6733 154.977C82.9915 154.977 82.1278 153.5 82.1278 151.636C82.1278 149.795 82.9688 148.364 84.6733 148.364C86.3097 148.364 87.1733 149.682 87.1733 151.636C87.1733 153.614 86.2869 154.977 84.6733 154.977ZM94.7926 156.182C96.5653 156.182 97.8608 155.295 98.2699 153.977L96.9744 153.614C96.6335 154.523 95.8438 154.977 94.7926 154.977C93.2188 154.977 92.1335 153.96 92.071 152.091H98.4062V151.523C98.4062 148.273 96.4744 147.159 94.6562 147.159C92.2926 147.159 90.7244 149.023 90.7244 151.705C90.7244 154.386 92.2699 156.182 94.7926 156.182ZM92.071 150.932C92.1619 149.574 93.1222 148.364 94.6562 148.364C96.1108 148.364 97.0426 149.455 97.0426 150.932H92.071ZM103.741 156.182C105.423 156.182 105.991 155.136 106.287 154.659H106.446V156H107.741V144.364H106.401V148.659H106.287C105.991 148.205 105.469 147.159 103.764 147.159C101.56 147.159 100.037 148.909 100.037 151.659C100.037 154.432 101.56 156.182 103.741 156.182ZM103.923 154.977C102.241 154.977 101.378 153.5 101.378 151.636C101.378 149.795 102.219 148.364 103.923 148.364C105.56 148.364 106.423 149.682 106.423 151.636C106.423 153.614 105.537 154.977 103.923 154.977ZM118.679 147.273H116.815V145.182H115.474V147.273H114.156V148.409H115.474V153.864C115.474 155.386 116.702 156.114 117.838 156.114C118.338 156.114 118.656 156.023 118.838 155.955L118.565 154.75C118.452 154.773 118.27 154.818 117.974 154.818C117.384 154.818 116.815 154.636 116.815 153.5V148.409H118.679V147.273ZM123.264 156.205C124.787 156.205 125.582 155.386 125.855 154.818H125.923V156H127.264V150.25C127.264 147.477 125.151 147.159 124.037 147.159C122.719 147.159 121.219 147.614 120.537 149.205L121.81 149.659C122.105 149.023 122.804 148.341 124.082 148.341C125.315 148.341 125.923 148.994 125.923 150.114V150.159C125.923 150.807 125.264 150.75 123.673 150.955C122.054 151.165 120.287 151.523 120.287 153.523C120.287 155.227 121.605 156.205 123.264 156.205ZM123.469 155C122.401 155 121.628 154.523 121.628 153.591C121.628 152.568 122.56 152.25 123.605 152.114C124.173 152.045 125.696 151.886 125.923 151.614V152.841C125.923 153.932 125.06 155 123.469 155ZM131.053 144.364H129.712V156H131.053V144.364ZM133.509 156H134.849V152.733L135.787 151.864L139.054 156H140.759L136.798 151L140.486 147.273H138.827L135.009 151.159H134.849V144.364H133.509V156ZM142.212 156H143.553V147.273H142.212V156ZM142.893 145.818C143.416 145.818 143.848 145.409 143.848 144.909C143.848 144.409 143.416 144 142.893 144C142.371 144 141.939 144.409 141.939 144.909C141.939 145.409 142.371 145.818 142.893 145.818ZM147.349 150.75C147.349 149.227 148.293 148.364 149.577 148.364C150.821 148.364 151.577 149.176 151.577 150.545V156H152.918V150.455C152.918 148.227 151.73 147.159 149.963 147.159C148.645 147.159 147.827 147.75 147.418 148.636H147.304V147.273H146.009V156H147.349V150.75ZM158.891 159.455C160.982 159.455 162.663 158.5 162.663 156.25V147.273H161.368V148.659H161.232C160.936 148.205 160.391 147.159 158.686 147.159C156.482 147.159 154.959 148.909 154.959 151.591C154.959 154.318 156.55 155.864 158.663 155.864C160.368 155.864 160.913 154.864 161.209 154.386H161.322V156.159C161.322 157.614 160.3 158.273 158.891 158.273C157.305 158.273 156.749 157.438 156.391 156.955L155.322 157.705C155.868 158.619 156.942 159.455 158.891 159.455ZM158.845 154.659C157.163 154.659 156.3 153.386 156.3 151.568C156.3 149.795 157.141 148.364 158.845 148.364C160.482 148.364 161.345 149.682 161.345 151.568C161.345 153.5 160.459 154.659 158.845 154.659ZM169.618 159.273H170.959V154.659H171.072C171.368 155.136 171.936 156.182 173.618 156.182C175.8 156.182 177.322 154.432 177.322 151.659C177.322 148.909 175.8 147.159 173.595 147.159C171.891 147.159 171.368 148.205 171.072 148.659H170.913V147.273H169.618V159.273ZM170.936 151.636C170.936 149.682 171.8 148.364 173.436 148.364C175.141 148.364 175.982 149.795 175.982 151.636C175.982 153.5 175.118 154.977 173.436 154.977C171.822 154.977 170.936 153.614 170.936 151.636ZM182.913 156.182C185.277 156.182 186.868 154.386 186.868 151.682C186.868 148.955 185.277 147.159 182.913 147.159C180.55 147.159 178.959 148.955 178.959 151.682C178.959 154.386 180.55 156.182 182.913 156.182ZM182.913 154.977C181.118 154.977 180.3 153.432 180.3 151.682C180.3 149.932 181.118 148.364 182.913 148.364C184.709 148.364 185.527 149.932 185.527 151.682C185.527 153.432 184.709 154.977 182.913 154.977ZM188.915 156H190.256V147.273H188.915V156ZM189.597 145.818C190.119 145.818 190.551 145.409 190.551 144.909C190.551 144.409 190.119 144 189.597 144C189.074 144 188.642 144.409 188.642 144.909C188.642 145.409 189.074 145.818 189.597 145.818ZM194.053 150.75C194.053 149.227 194.996 148.364 196.28 148.364C197.524 148.364 198.28 149.176 198.28 150.545V156H199.621V150.455C199.621 148.227 198.433 147.159 196.666 147.159C195.348 147.159 194.53 147.75 194.121 148.636H194.007V147.273H192.712V156H194.053V150.75ZM205.866 147.273H204.003V145.182H202.662V147.273H201.344V148.409H202.662V153.864C202.662 155.386 203.889 156.114 205.026 156.114C205.526 156.114 205.844 156.023 206.026 155.955L205.753 154.75C205.639 154.773 205.457 154.818 205.162 154.818C204.571 154.818 204.003 154.636 204.003 153.5V148.409H205.866V147.273ZM213.909 149.227C213.489 147.989 212.545 147.159 210.818 147.159C208.977 147.159 207.614 148.205 207.614 149.682C207.614 150.886 208.33 151.693 209.932 152.068L211.386 152.409C212.267 152.614 212.682 153.034 212.682 153.636C212.682 154.386 211.886 155 210.636 155C209.54 155 208.852 154.528 208.614 153.591L207.341 153.909C207.653 155.392 208.875 156.182 210.659 156.182C212.688 156.182 214.068 155.074 214.068 153.568C214.068 152.352 213.307 151.585 211.75 151.205L210.455 150.886C209.42 150.631 208.955 150.284 208.955 149.614C208.955 148.864 209.75 148.318 210.818 148.318C211.989 148.318 212.472 148.966 212.705 149.568L213.909 149.227ZM217.064 156.091C217.626 156.091 218.087 155.631 218.087 155.068C218.087 154.506 217.626 154.045 217.064 154.045C216.501 154.045 216.041 154.506 216.041 155.068C216.041 155.631 216.501 156.091 217.064 156.091Z" fill="#4E5A65"/>
<defs>
<clipPath id="clip0_759_154">
<rect width="25.6" height="25.6" fill="white" transform="translate(19.2 19.2)"/>
</clipPath>
</defs>
</svg>
