<svg width="459" height="18" viewBox="0 0 459 18" fill="none" xmlns="http://www.w3.org/2000/svg">
<path d="M1.40909 14H2.81818V8.79545H9.02273V14H10.4318V2.36364H9.02273V7.54545H2.81818V2.36364H1.40909V14ZM16.6165 14.1818C18.9801 14.1818 20.571 12.3864 20.571 9.68182C20.571 6.95455 18.9801 5.15909 16.6165 5.15909C14.2528 5.15909 12.6619 6.95455 12.6619 9.68182C12.6619 12.3864 14.2528 14.1818 16.6165 14.1818ZM16.6165 12.9773C14.821 12.9773 14.0028 11.4318 14.0028 9.68182C14.0028 7.93182 14.821 6.36364 16.6165 6.36364C18.4119 6.36364 19.2301 7.93182 19.2301 9.68182C19.2301 11.4318 18.4119 12.9773 16.6165 12.9773ZM24.2983 14H25.6165L27.5256 7.29545H27.6619L29.571 14H30.8892L33.5483 5.27273H32.1392L30.2528 11.9318H30.1619L28.321 5.27273H26.8892L25.0256 11.9545H24.9347L23.0483 5.27273H21.6392L24.2983 14ZM39.821 14H41.1619V5.27273H39.821V14ZM40.5028 3.81818C41.0256 3.81818 41.4574 3.40909 41.4574 2.90909C41.4574 2.40909 41.0256 2 40.5028 2C39.9801 2 39.5483 2.40909 39.5483 2.90909C39.5483 3.40909 39.9801 3.81818 40.5028 3.81818ZM47.4134 5.27273H45.5497V3.18182H44.2088V5.27273H42.8906V6.40909H44.2088V11.8636C44.2088 13.3864 45.4361 14.1136 46.5724 14.1136C47.0724 14.1136 47.3906 14.0227 47.5724 13.9545L47.2997 12.75C47.1861 12.7727 47.0043 12.8182 46.7088 12.8182C46.1179 12.8182 45.5497 12.6364 45.5497 11.5V6.40909H47.4134V5.27273ZM56.2259 14H57.6804L60.2486 4.72727H60.3395L62.9077 14H64.3622L67.544 2.36364H66.1122L63.6804 11.8409H63.5668L61.0895 2.36364H59.4986L57.0213 11.8409H56.9077L54.4759 2.36364H53.044L56.2259 14ZM71.8509 14.1818C74.2145 14.1818 75.8054 12.3864 75.8054 9.68182C75.8054 6.95455 74.2145 5.15909 71.8509 5.15909C69.4872 5.15909 67.8963 6.95455 67.8963 9.68182C67.8963 12.3864 69.4872 14.1818 71.8509 14.1818ZM71.8509 12.9773C70.0554 12.9773 69.2372 11.4318 69.2372 9.68182C69.2372 7.93182 70.0554 6.36364 71.8509 6.36364C73.6463 6.36364 74.4645 7.93182 74.4645 9.68182C74.4645 11.4318 73.6463 12.9773 71.8509 12.9773ZM77.8523 14H79.1932V8.47727C79.1932 7.29545 80.125 6.43182 81.3977 6.43182C81.7557 6.43182 82.125 6.5 82.2159 6.52273V5.15909C82.0625 5.14773 81.7102 5.13636 81.5114 5.13636C80.4659 5.13636 79.5568 5.72727 79.2386 6.59091H79.1477V5.27273H77.8523V14ZM83.8054 14H85.1463V10.733L86.0838 9.86364L89.3509 14H91.0554L87.0952 9L90.7827 5.27273H89.1236L85.3054 9.15909H85.1463V2.36364H83.8054V14ZM98.6903 7.22727C98.2699 5.98864 97.3267 5.15909 95.5994 5.15909C93.7585 5.15909 92.3949 6.20455 92.3949 7.68182C92.3949 8.88636 93.1108 9.69318 94.7131 10.0682L96.1676 10.4091C97.0483 10.6136 97.4631 11.0341 97.4631 11.6364C97.4631 12.3864 96.6676 13 95.4176 13C94.321 13 93.6335 12.5284 93.3949 11.5909L92.1222 11.9091C92.4347 13.392 93.6562 14.1818 95.4403 14.1818C97.4688 14.1818 98.8494 13.0739 98.8494 11.5682C98.8494 10.3523 98.0881 9.58523 96.5312 9.20455L95.2358 8.88636C94.2017 8.63068 93.7358 8.28409 93.7358 7.61364C93.7358 6.86364 94.5312 6.31818 95.5994 6.31818C96.7699 6.31818 97.2528 6.96591 97.4858 7.56818L98.6903 7.22727Z" fill="#35414B"/>
<rect width="8" height="8" transform="translate(104 4)" fill="white"/>
<path d="M111.872 6.03232L111.61 5.76845C111.528 5.68604 111.418 5.64064 111.301 5.64064C111.183 5.64064 111.074 5.68604 110.991 5.76845L108.002 8.75787L105.009 5.76513C104.927 5.68272 104.817 5.63739 104.7 5.63739C104.582 5.63739 104.473 5.68272 104.39 5.76513L104.128 6.02738C103.957 6.19792 103.957 6.47571 104.128 6.64624L107.691 10.2223C107.774 10.3046 107.883 10.3626 108.002 10.3626H108.003C108.12 10.3626 108.23 10.3046 108.312 10.2223L111.872 6.65594C111.955 6.57359 112 6.46055 112 6.34335C112 6.22608 111.955 6.1146 111.872 6.03232Z" fill="#35414B"/>
<path d="M157.409 14H158.818V9.75H161.364C164.074 9.75 165.295 8.10227 165.295 6.04545C165.295 3.98864 164.074 2.36364 161.341 2.36364H157.409V14ZM158.818 8.5V3.61364H161.295C163.188 3.61364 163.909 4.64773 163.909 6.04545C163.909 7.44318 163.188 8.5 161.318 8.5H158.818ZM167.384 14H168.724V8.47727C168.724 7.29545 169.656 6.43182 170.929 6.43182C171.287 6.43182 171.656 6.5 171.747 6.52273V5.15909C171.594 5.14773 171.241 5.13636 171.043 5.13636C169.997 5.13636 169.088 5.72727 168.77 6.59091H168.679V5.27273H167.384V14ZM176.616 14.1818C178.98 14.1818 180.571 12.3864 180.571 9.68182C180.571 6.95455 178.98 5.15909 176.616 5.15909C174.253 5.15909 172.662 6.95455 172.662 9.68182C172.662 12.3864 174.253 14.1818 176.616 14.1818ZM176.616 12.9773C174.821 12.9773 174.003 11.4318 174.003 9.68182C174.003 7.93182 174.821 6.36364 176.616 6.36364C178.412 6.36364 179.23 7.93182 179.23 9.68182C179.23 11.4318 178.412 12.9773 176.616 12.9773ZM185.913 14.1818C187.595 14.1818 188.163 13.1364 188.459 12.6591H188.618V14H189.913V2.36364H188.572V6.65909H188.459C188.163 6.20455 187.641 5.15909 185.936 5.15909C183.732 5.15909 182.209 6.90909 182.209 9.65909C182.209 12.4318 183.732 14.1818 185.913 14.1818ZM186.095 12.9773C184.413 12.9773 183.55 11.5 183.55 9.63636C183.55 7.79545 184.391 6.36364 186.095 6.36364C187.732 6.36364 188.595 7.68182 188.595 9.63636C188.595 11.6136 187.709 12.9773 186.095 12.9773ZM198.055 10.4318C198.055 12.0682 196.805 12.8182 195.805 12.8182C194.692 12.8182 193.896 12 193.896 10.7273V5.27273H192.555V10.8182C192.555 13.0455 193.737 14.1136 195.374 14.1136C196.692 14.1136 197.555 13.4091 197.964 12.5227H198.055V14H199.396V5.27273H198.055V10.4318ZM205.398 14.1818C207.33 14.1818 208.602 13 208.83 11.4545H207.489C207.239 12.4091 206.443 12.9773 205.398 12.9773C203.807 12.9773 202.784 11.6591 202.784 9.63636C202.784 7.65909 203.83 6.36364 205.398 6.36364C206.58 6.36364 207.284 7.09091 207.489 7.88636H208.83C208.602 6.25 207.216 5.15909 205.375 5.15909C203.011 5.15909 201.443 7.02273 201.443 9.68182C201.443 12.2955 202.943 14.1818 205.398 14.1818ZM214.585 5.27273H212.722V3.18182H211.381V5.27273H210.062V6.40909H211.381V11.8636C211.381 13.3864 212.608 14.1136 213.744 14.1136C214.244 14.1136 214.562 14.0227 214.744 13.9545L214.472 12.75C214.358 12.7727 214.176 12.8182 213.881 12.8182C213.29 12.8182 212.722 12.6364 212.722 11.5V6.40909H214.585V5.27273Z" fill="#35414B"/>
<rect width="8" height="8" transform="translate(220 4)" fill="white"/>
<path d="M227.872 6.03232L227.61 5.76845C227.528 5.68604 227.418 5.64064 227.301 5.64064C227.183 5.64064 227.074 5.68604 226.991 5.76845L224.002 8.75787L221.009 5.76513C220.927 5.68272 220.817 5.63739 220.7 5.63739C220.582 5.63739 220.473 5.68272 220.39 5.76513L220.128 6.02738C219.957 6.19792 219.957 6.47571 220.128 6.64624L223.691 10.2223C223.774 10.3046 223.883 10.3626 224.002 10.3626H224.003C224.12 10.3626 224.23 10.3046 224.312 10.2223L227.872 6.65594C227.955 6.57359 228 6.46055 228 6.34335C228 6.22608 227.955 6.1146 227.872 6.03232Z" fill="#35414B"/>
<path d="M273.409 14H274.818V9.75H277.364C280.074 9.75 281.295 8.10227 281.295 6.04545C281.295 3.98864 280.074 2.36364 277.341 2.36364H273.409V14ZM274.818 8.5V3.61364H277.295C279.188 3.61364 279.909 4.64773 279.909 6.04545C279.909 7.44318 279.188 8.5 277.318 8.5H274.818ZM283.384 14H284.724V8.47727C284.724 7.29545 285.656 6.43182 286.929 6.43182C287.287 6.43182 287.656 6.5 287.747 6.52273V5.15909C287.594 5.14773 287.241 5.13636 287.043 5.13636C285.997 5.13636 285.088 5.72727 284.77 6.59091H284.679V5.27273H283.384V14ZM289.337 14H290.678V5.27273H289.337V14ZM290.018 3.81818C290.541 3.81818 290.973 3.40909 290.973 2.90909C290.973 2.40909 290.541 2 290.018 2C289.496 2 289.064 2.40909 289.064 2.90909C289.064 3.40909 289.496 3.81818 290.018 3.81818ZM296.679 14.1818C298.611 14.1818 299.884 13 300.111 11.4545H298.77C298.52 12.4091 297.724 12.9773 296.679 12.9773C295.088 12.9773 294.065 11.6591 294.065 9.63636C294.065 7.65909 295.111 6.36364 296.679 6.36364C297.861 6.36364 298.565 7.09091 298.77 7.88636H300.111C299.884 6.25 298.497 5.15909 296.656 5.15909C294.293 5.15909 292.724 7.02273 292.724 9.68182C292.724 12.2955 294.224 14.1818 296.679 14.1818ZM302.071 14H303.412V5.27273H302.071V14ZM302.753 3.81818C303.276 3.81818 303.707 3.40909 303.707 2.90909C303.707 2.40909 303.276 2 302.753 2C302.23 2 301.798 2.40909 301.798 2.90909C301.798 3.40909 302.23 3.81818 302.753 3.81818ZM307.209 8.75C307.209 7.22727 308.152 6.36364 309.436 6.36364C310.68 6.36364 311.436 7.17614 311.436 8.54545V14H312.777V8.45455C312.777 6.22727 311.589 5.15909 309.822 5.15909C308.504 5.15909 307.686 5.75 307.277 6.63636H307.163V5.27273H305.868V14H307.209V8.75ZM318.75 17.4545C320.841 17.4545 322.523 16.5 322.523 14.25V5.27273H321.227V6.65909H321.091C320.795 6.20455 320.25 5.15909 318.545 5.15909C316.341 5.15909 314.818 6.90909 314.818 9.59091C314.818 12.3182 316.409 13.8636 318.523 13.8636C320.227 13.8636 320.773 12.8636 321.068 12.3864H321.182V14.1591C321.182 15.6136 320.159 16.2727 318.75 16.2727C317.165 16.2727 316.608 15.4375 316.25 14.9545L315.182 15.7045C315.727 16.6193 316.801 17.4545 318.75 17.4545ZM318.705 12.6591C317.023 12.6591 316.159 11.3864 316.159 9.56818C316.159 7.79545 317 6.36364 318.705 6.36364C320.341 6.36364 321.205 7.68182 321.205 9.56818C321.205 11.5 320.318 12.6591 318.705 12.6591Z" fill="#35414B"/>
<path d="M369.409 14H370.818V9.45455H373.364C373.466 9.45455 373.562 9.45455 373.659 9.44886L376.114 14H377.75L375.119 9.19318C376.602 8.6875 377.295 7.47727 377.295 5.93182C377.295 3.875 376.068 2.36364 373.341 2.36364H369.409V14ZM370.818 8.18182V3.61364H373.295C375.182 3.61364 375.909 4.53409 375.909 5.93182C375.909 7.32955 375.182 8.18182 373.318 8.18182H370.818ZM383.027 14.1818C384.8 14.1818 386.095 13.2955 386.504 11.9773L385.209 11.6136C384.868 12.5227 384.078 12.9773 383.027 12.9773C381.453 12.9773 380.368 11.9602 380.305 10.0909H386.641V9.52273C386.641 6.27273 384.709 5.15909 382.891 5.15909C380.527 5.15909 378.959 7.02273 378.959 9.70455C378.959 12.3864 380.504 14.1818 383.027 14.1818ZM380.305 8.93182C380.396 7.57386 381.357 6.36364 382.891 6.36364C384.345 6.36364 385.277 7.45455 385.277 8.93182H380.305ZM394.862 7.22727C394.442 5.98864 393.499 5.15909 391.771 5.15909C389.93 5.15909 388.567 6.20455 388.567 7.68182C388.567 8.88636 389.283 9.69318 390.885 10.0682L392.339 10.4091C393.22 10.6136 393.635 11.0341 393.635 11.6364C393.635 12.3864 392.839 13 391.589 13C390.493 13 389.805 12.5284 389.567 11.5909L388.294 11.9091C388.607 13.392 389.828 14.1818 391.612 14.1818C393.641 14.1818 395.021 13.0739 395.021 11.5682C395.021 10.3523 394.26 9.58523 392.703 9.20455L391.408 8.88636C390.374 8.63068 389.908 8.28409 389.908 7.61364C389.908 6.86364 390.703 6.31818 391.771 6.31818C392.942 6.31818 393.425 6.96591 393.658 7.56818L394.862 7.22727ZM400.585 14.1818C402.949 14.1818 404.54 12.3864 404.54 9.68182C404.54 6.95455 402.949 5.15909 400.585 5.15909C398.222 5.15909 396.631 6.95455 396.631 9.68182C396.631 12.3864 398.222 14.1818 400.585 14.1818ZM400.585 12.9773C398.79 12.9773 397.972 11.4318 397.972 9.68182C397.972 7.93182 398.79 6.36364 400.585 6.36364C402.381 6.36364 403.199 7.93182 403.199 9.68182C403.199 11.4318 402.381 12.9773 400.585 12.9773ZM412.087 10.4318C412.087 12.0682 410.837 12.8182 409.837 12.8182C408.723 12.8182 407.928 12 407.928 10.7273V5.27273H406.587V10.8182C406.587 13.0455 407.768 14.1136 409.405 14.1136C410.723 14.1136 411.587 13.4091 411.996 12.5227H412.087V14H413.428V5.27273H412.087V10.4318ZM415.884 14H417.224V8.47727C417.224 7.29545 418.156 6.43182 419.429 6.43182C419.787 6.43182 420.156 6.5 420.247 6.52273V5.15909C420.094 5.14773 419.741 5.13636 419.543 5.13636C418.497 5.13636 417.588 5.72727 417.27 6.59091H417.179V5.27273H415.884V14ZM425.116 14.1818C427.048 14.1818 428.321 13 428.548 11.4545H427.207C426.957 12.4091 426.162 12.9773 425.116 12.9773C423.526 12.9773 422.503 11.6591 422.503 9.63636C422.503 7.65909 423.548 6.36364 425.116 6.36364C426.298 6.36364 427.003 7.09091 427.207 7.88636H428.548C428.321 6.25 426.935 5.15909 425.094 5.15909C422.73 5.15909 421.162 7.02273 421.162 9.68182C421.162 12.2955 422.662 14.1818 425.116 14.1818ZM434.168 14.1818C435.94 14.1818 437.236 13.2955 437.645 11.9773L436.349 11.6136C436.009 12.5227 435.219 12.9773 434.168 12.9773C432.594 12.9773 431.509 11.9602 431.446 10.0909H437.781V9.52273C437.781 6.27273 435.849 5.15909 434.031 5.15909C431.668 5.15909 430.099 7.02273 430.099 9.70455C430.099 12.3864 431.645 14.1818 434.168 14.1818ZM431.446 8.93182C431.537 7.57386 432.497 6.36364 434.031 6.36364C435.486 6.36364 436.418 7.45455 436.418 8.93182H431.446ZM446.003 7.22727C445.582 5.98864 444.639 5.15909 442.912 5.15909C441.071 5.15909 439.707 6.20455 439.707 7.68182C439.707 8.88636 440.423 9.69318 442.026 10.0682L443.48 10.4091C444.361 10.6136 444.776 11.0341 444.776 11.6364C444.776 12.3864 443.98 13 442.73 13C441.634 13 440.946 12.5284 440.707 11.5909L439.435 11.9091C439.747 13.392 440.969 14.1818 442.753 14.1818C444.781 14.1818 446.162 13.0739 446.162 11.5682C446.162 10.3523 445.401 9.58523 443.844 9.20455L442.548 8.88636C441.514 8.63068 441.048 8.28409 441.048 7.61364C441.048 6.86364 441.844 6.31818 442.912 6.31818C444.082 6.31818 444.565 6.96591 444.798 7.56818L446.003 7.22727Z" fill="#35414B"/>
<rect width="8" height="8" transform="translate(451 4)" fill="white"/>
<path d="M458.872 6.03232L458.61 5.76845C458.528 5.68604 458.418 5.64064 458.301 5.64064C458.183 5.64064 458.074 5.68604 457.991 5.76845L455.002 8.75787L452.009 5.76513C451.927 5.68272 451.817 5.63739 451.7 5.63739C451.582 5.63739 451.473 5.68272 451.39 5.76513L451.128 6.02738C450.957 6.19792 450.957 6.47571 451.128 6.64624L454.691 10.2223C454.774 10.3046 454.883 10.3626 455.002 10.3626H455.003C455.12 10.3626 455.23 10.3046 455.312 10.2223L458.872 6.65594C458.955 6.57359 459 6.46055 459 6.34335C459 6.22608 458.955 6.1146 458.872 6.03232Z" fill="#35414B"/>
</svg>
