<svg width="950" height="35" viewBox="0 0 950 35" fill="none" xmlns="http://www.w3.org/2000/svg">
<g filter="url(#filter0_d_759_137)">
<g clip-path="url(#clip0_759_137)">
<path d="M13.8528 0.00317383H14.5632C17.0336 0.0575739 19.4624 1.04958 21.2064 2.80958C20.5632 3.46878 19.904 4.09918 19.2736 4.75518C18.2944 3.86878 17.1136 3.18398 15.824 2.94398C13.9168 2.54078 11.8656 2.90238 10.2656 3.99038C8.52159 5.13278 7.34079 7.06558 7.08479 9.13279C6.80319 11.1744 7.37919 13.3216 8.71039 14.9056C9.98399 16.448 11.9328 17.4144 13.9456 17.4816C15.824 17.5904 17.7856 17.0112 19.1552 15.696C20.2304 14.7712 20.7264 13.36 20.8864 11.9904C18.6592 11.9904 16.4288 12.0032 14.2016 11.9904V9.22559H23.584C24.0672 12.192 23.3696 15.5328 21.1136 17.6544C19.6096 19.1584 17.5296 20.0448 15.408 20.2176C13.3536 20.4192 11.232 20.0288 9.40799 19.0368C7.21919 17.8688 5.47519 15.8944 4.61759 13.5744C3.81119 11.44 3.79839 9.02399 4.55039 6.87358C5.23519 4.91518 6.55039 3.18398 8.24319 1.97438C9.86559 0.780775 11.84 0.121574 13.8528 0.00317383Z" fill="#3780FF"/>
<path d="M67.6768 0.700806H70.5504V19.8688C69.5968 19.8688 68.6304 19.8816 67.6768 19.856C67.6928 13.4784 67.6768 7.08802 67.6768 0.700806Z" fill="#38B137"/>
<path d="M29.9744 7.34399C31.744 7.00799 33.664 7.38559 35.1263 8.44479C36.4543 9.38558 37.3823 10.8608 37.6639 12.4704C38.0255 14.336 37.5711 16.3776 36.3615 17.8528C35.0591 19.504 32.9248 20.3904 30.8448 20.256C28.9376 20.1472 27.088 19.1968 25.9585 17.6384C24.6849 15.92 24.3745 13.5584 25.0721 11.5456C25.7729 9.38558 27.744 7.73439 29.9744 7.34399ZM30.3744 9.89438C29.648 10.0832 28.9792 10.4992 28.496 11.088C27.1936 12.6464 27.2736 15.1808 28.7104 16.6304C29.5296 17.4624 30.7648 17.8528 31.904 17.6224C32.9632 17.4336 33.8912 16.7232 34.4 15.7824C35.2863 14.1856 35.0303 11.984 33.6736 10.736C32.8064 9.93598 31.5296 9.59998 30.3744 9.89438Z" fill="#FA3913"/>
<path d="M44.2016 7.34399C46.2272 6.95359 48.4447 7.51999 49.9583 8.94079C52.4287 11.1552 52.6975 15.3024 50.5887 17.8528C49.3151 19.4624 47.248 20.3488 45.2064 20.256C43.2608 20.2016 41.3408 19.2352 40.1856 17.6384C38.8832 15.8816 38.6016 13.4624 39.3408 11.4112C40.08 9.31839 42.0128 7.72159 44.2016 7.34399ZM44.6048 9.89439C43.8784 10.0832 43.2096 10.4992 42.7264 11.0752C41.4368 12.6048 41.4912 15.1008 42.8736 16.5664C43.6928 17.44 44.9664 17.8688 46.1472 17.6256C47.1936 17.424 48.1343 16.7264 48.6431 15.7856C49.5167 14.176 49.2607 11.9744 47.8912 10.7264C47.0208 9.92319 45.744 9.59999 44.6048 9.89439Z" fill="#FCBD06"/>
<path d="M56.2688 8.12157C57.8112 7.15517 59.8656 6.88637 61.5296 7.71837C62.0544 7.94557 62.4832 8.33597 62.8992 8.72637C62.912 8.36477 62.8992 7.98717 62.912 7.61277C63.8112 7.62557 64.7104 7.61277 65.6225 7.62557V19.4656C65.6097 21.2512 65.1521 23.1423 63.8656 24.4447C62.4576 25.8815 60.2944 26.3231 58.3488 26.0287C56.2688 25.7215 54.4576 24.2047 53.6512 22.2847C54.4576 21.8944 55.3024 21.5871 56.1344 21.2256C56.6048 22.3263 57.5584 23.2671 58.752 23.4815C59.9456 23.6959 61.328 23.4015 62.1088 22.4063C62.9408 21.3856 62.9408 19.9904 62.8992 18.7424C62.2816 19.3472 61.5712 19.8848 60.7104 20.0832C58.8448 20.608 56.7904 19.9616 55.3536 18.7008C53.904 17.44 53.0464 15.4912 53.1264 13.5584C53.168 11.3728 54.4032 9.26397 56.2688 8.12157ZM59.0464 9.83997C58.2272 9.97437 57.4624 10.432 56.9376 11.0624C55.6768 12.5664 55.6768 14.9696 56.9504 16.4448C57.6768 17.3184 58.8416 17.8016 59.9712 17.68C61.0304 17.5712 62.0128 16.9024 62.5344 15.9744C63.4208 14.4032 63.2736 12.2688 62.0768 10.8992C61.3408 10.0576 60.16 9.63837 59.0464 9.83997Z" fill="#3780FF"/>
<path d="M74 8.80645C75.6096 7.30245 78.0928 6.79365 80.16 7.58405C82.1184 8.32325 83.3696 10.1888 84 12.1088C81.088 13.3184 78.1888 14.512 75.2736 15.7184C75.6768 16.4832 76.2944 17.1808 77.1264 17.4624C78.2944 17.8784 79.6896 17.7312 80.6688 16.9536C81.0592 16.6592 81.3664 16.2688 81.6608 15.8944C82.4 16.3904 83.136 16.8736 83.8752 17.3696C82.8288 18.9408 81.0688 20.0416 79.1776 20.2144C77.0848 20.4704 74.8544 19.664 73.5008 18.0256C71.2736 15.4528 71.4912 11.1296 74 8.80645ZM75.4368 11.2896C74.9792 11.9488 74.7936 12.752 74.8064 13.5456C76.752 12.7392 78.6976 11.936 80.6464 11.1168C80.3232 10.3648 79.5456 9.90725 78.7552 9.78885C77.4752 9.55845 76.1472 10.2432 75.4368 11.2896Z" fill="#FA3913"/>
</g>
<g clip-path="url(#clip1_759_137)">
<path d="M262.162 6.84733C262.162 7.74687 261.437 8.4712 260.538 8.4712C259.638 8.4712 258.914 7.74687 258.914 6.84733C258.914 5.94779 259.613 5.22346 260.538 5.22346C261.463 5.24842 262.162 5.973 262.162 6.84733ZM255.466 10.1205V10.5204C255.466 10.5204 254.692 9.52049 253.043 9.52049C250.319 9.52049 248.195 11.5944 248.195 14.4675C248.195 17.3159 250.295 19.4144 253.043 19.4144C254.717 19.4144 255.466 18.3901 255.466 18.3901V18.8147C255.466 19.0146 255.616 19.1641 255.816 19.1641H257.839V9.76959H255.816C255.616 9.77034 255.466 9.94556 255.466 10.1205ZM255.466 16.1415C255.091 16.6914 254.342 17.1661 253.442 17.1661C251.843 17.1661 250.619 16.1667 250.619 14.4675C250.619 12.7685 251.843 11.7691 253.442 11.7691C254.317 11.7691 255.116 12.2688 255.466 12.7934V16.1415ZM259.339 9.77034H261.737V19.1648H259.339V9.77034ZM295.167 9.52025C293.518 9.52025 292.743 10.5201 292.743 10.5201V5.24842H290.344V19.1648H292.368C292.568 19.1648 292.718 18.9899 292.718 18.8149V18.3904C292.718 18.3904 293.493 19.4147 295.141 19.4147C297.865 19.4147 299.988 17.3166 299.988 14.4682C299.988 11.6198 297.865 9.52025 295.167 9.52025ZM294.767 17.1409C293.842 17.1409 293.118 16.6667 292.743 16.1165V12.7685C293.118 12.2688 293.917 11.7441 294.767 11.7441C296.366 11.7441 297.59 12.7435 297.59 14.4425C297.59 16.1415 296.366 17.1409 294.767 17.1409ZM289.095 13.5934V19.1898H286.697V13.8679C286.697 12.3192 286.197 11.6942 284.849 11.6942C284.124 11.6942 283.375 12.0691 282.899 12.619V19.1651H280.501V9.77059H282.399C282.599 9.77059 282.749 9.94556 282.749 10.1205V10.5204C283.449 9.79555 284.373 9.52049 285.297 9.52049C286.347 9.52049 287.222 9.82076 287.921 10.4203C288.77 11.1199 289.095 12.0192 289.095 13.5934ZM274.679 9.52025C273.03 9.52025 272.256 10.5201 272.256 10.5201V5.24842H269.857V19.1648H271.881C272.081 19.1648 272.231 18.9899 272.231 18.8149V18.3904C272.231 18.3904 273.005 19.4147 274.654 19.4147C277.378 19.4147 279.501 17.3166 279.501 14.4682C279.526 11.6196 277.402 9.52025 274.679 9.52025ZM274.279 17.1409C273.355 17.1409 272.63 16.6667 272.256 16.1165V12.7685C272.63 12.2688 273.43 11.7441 274.279 11.7441C275.878 11.7441 277.102 12.7435 277.102 14.4425C277.102 16.1415 275.878 17.1409 274.279 17.1409ZM267.783 9.52025C268.508 9.52025 268.883 9.64554 268.883 9.64554V11.8689C268.883 11.8689 266.884 11.1943 265.635 12.6187V19.1896H263.236V9.77034H265.26C265.46 9.77034 265.609 9.94531 265.609 10.1203V10.5201C266.06 9.99522 267.034 9.52025 267.783 9.52025ZM242.874 18.3152C242.749 18.0155 242.624 17.6907 242.499 17.4157C242.299 16.9662 242.099 16.5411 241.925 16.1415L241.9 16.1165C240.176 12.3686 238.327 8.57128 236.378 4.82386L236.303 4.6736C236.098 4.28485 235.898 3.89337 235.704 3.49926C235.454 3.04924 235.204 2.575 234.804 2.12498C234.005 1.1256 232.856 0.575745 231.632 0.575745C230.382 0.575745 229.258 1.12561 228.434 2.07482C228.059 2.52434 227.784 2.99907 227.534 3.44909C227.339 3.84295 227.139 4.23443 226.935 4.62343L226.86 4.77369C224.936 8.52111 223.062 12.3187 221.338 16.0664L221.313 16.1161C221.138 16.5164 220.938 16.941 220.738 17.3902C220.613 17.6653 220.489 17.965 220.364 18.2898C220.039 19.214 219.939 20.0886 220.064 20.9884C220.339 22.8624 221.588 24.4358 223.312 25.1359C223.962 25.411 224.636 25.5358 225.336 25.5358C225.536 25.5358 225.785 25.5108 225.985 25.4856C226.81 25.3858 227.66 25.1112 228.484 24.6365C229.509 24.0617 230.483 23.2375 231.582 22.0382C232.681 23.2375 233.681 24.0617 234.68 24.6365C235.505 25.1112 236.354 25.3858 237.179 25.4856C237.378 25.5111 237.629 25.5358 237.828 25.5358C238.528 25.5358 239.227 25.411 239.852 25.1359C241.601 24.4358 242.825 22.8374 243.1 20.9884C243.299 20.1141 243.199 19.24 242.874 18.3152ZM231.606 19.6144C230.257 17.9154 229.382 16.3165 229.083 14.9677C228.958 14.3928 228.933 13.8932 229.008 13.4434C229.058 13.0435 229.208 12.6936 229.408 12.3938C229.883 11.7197 230.682 11.2946 231.607 11.2946C232.531 11.2946 233.356 11.6945 233.806 12.3938C234.005 12.6936 234.155 13.0438 234.206 13.4434C234.28 13.8934 234.255 14.4178 234.131 14.9677C233.83 16.2915 232.955 17.8907 231.606 19.6144ZM241.575 20.7887C241.4 22.0879 240.525 23.2125 239.301 23.7122C238.702 23.9618 238.052 24.0369 237.403 23.9618C236.778 23.8867 236.153 23.6868 235.504 23.3124C234.604 22.8122 233.705 22.0382 232.656 20.8886C234.304 18.8651 235.304 17.0158 235.679 15.3673C235.854 14.5925 235.879 13.8932 235.804 13.2432C235.704 12.6187 235.479 12.0439 235.129 11.5442C234.354 10.4195 233.055 9.77034 231.606 9.77034C230.157 9.77034 228.858 10.445 228.084 11.5442C227.734 12.0439 227.509 12.6187 227.409 13.2432C227.309 13.8932 227.334 14.6175 227.534 15.3673C227.908 17.0158 228.933 18.8898 230.557 20.9135C229.532 22.0629 228.608 22.8377 227.708 23.3373C227.058 23.7122 226.434 23.9122 225.81 23.9868C225.135 24.0619 224.485 23.9618 223.911 23.7372C222.687 23.2375 221.812 22.1128 221.638 20.8137C221.563 20.1892 221.612 19.5647 221.862 18.8651C221.937 18.615 222.062 18.3654 222.187 18.0656C222.362 17.6658 222.562 17.2407 222.762 16.8162L222.787 16.7665C224.511 13.0435 226.359 9.24594 228.283 5.54843L228.358 5.39818C228.558 5.02379 228.758 4.62393 228.958 4.24904C229.158 3.84919 229.382 3.4743 229.658 3.14932C230.182 2.55029 230.882 2.22507 231.656 2.22507C232.431 2.22507 233.13 2.55029 233.655 3.14932C233.93 3.47504 234.155 3.84994 234.355 4.24904C234.555 4.62393 234.755 5.02379 234.954 5.39818L235.029 5.54843C236.924 9.2613 238.748 13.0096 240.501 16.7915V16.8164C240.701 17.2168 240.876 17.666 241.076 18.0664C241.201 18.3657 241.326 18.6153 241.4 18.8653C241.6 19.5143 241.675 20.1393 241.575 20.7887Z" fill="#FF5A5F"/>
</g>
<path d="M477.186 12.8342C476.525 12.8342 476.049 13.0508 475.566 13.2715V18.265C476.029 18.3091 476.294 18.3091 476.733 18.3091C478.318 18.3091 478.535 17.583 478.535 16.5692V14.1843C478.535 13.4356 478.287 12.8342 477.186 12.8342ZM466.656 12.5617C465.556 12.5617 465.305 13.1656 465.305 13.9136V14.3338H468.006V13.9136C468.006 13.1656 467.755 12.5617 466.656 12.5617ZM446.258 17.7592C446.258 18.3509 446.537 18.6583 447.153 18.6583C447.814 18.6583 448.205 18.4428 448.688 18.2213V17.0368H447.243C446.558 17.0368 446.258 17.1642 446.258 17.7592ZM487.429 12.8342C486.327 12.8342 485.945 13.4356 485.945 14.1843V16.9165C485.945 17.667 486.327 18.2702 487.429 18.2702C488.528 18.2702 488.912 17.667 488.912 16.9165V14.1843C488.912 13.4356 488.527 12.8342 487.429 12.8342ZM440.858 20.8229H437.618V12.9827H436V10.2812H437.619V8.65867C437.619 6.45444 438.532 5.14404 441.129 5.14404H443.29V7.84629H441.939C440.928 7.84629 440.862 8.22397 440.862 8.9286L440.858 10.2808H443.305L443.019 12.9823H440.858V20.8229ZM451.928 20.8432H449.228L449.111 20.1605C447.879 20.8432 446.779 20.9539 446.053 20.9539C444.073 20.9539 443.019 19.6313 443.019 17.8022C443.019 15.6442 444.249 14.8741 446.449 14.8741H448.688V14.4075C448.688 13.306 448.561 12.9827 446.868 12.9827H444.098L444.369 10.2812H447.396C451.113 10.2812 451.928 11.4553 451.928 14.4294V20.8432ZM461.108 13.1808C459.428 12.8927 458.945 12.8294 458.137 12.8294C456.685 12.8294 456.247 13.1497 456.247 14.3827V16.7151C456.247 17.9481 456.685 18.2698 458.137 18.2698C458.945 18.2698 459.428 18.2054 461.108 17.9162V20.5515C459.636 20.8814 458.678 20.968 457.868 20.968C454.39 20.968 453.008 19.1392 453.008 16.4973V14.6049C453.008 11.9608 454.39 10.1287 457.868 10.1287C458.678 10.1287 459.636 10.2157 461.108 10.5471V13.1808ZM471.244 16.4973H465.304V16.7151C465.304 17.9481 465.744 18.2698 467.195 18.2698C468.5 18.2698 469.296 18.2054 470.973 17.9162V20.5515C469.356 20.8814 468.513 20.968 466.927 20.968C463.449 20.968 462.066 19.1392 462.066 16.4973V14.3335C462.066 12.0219 463.092 10.1287 466.656 10.1287C470.219 10.1287 471.244 12 471.244 14.3335V16.4973ZM481.774 16.5473C481.774 19.1007 481.044 20.9632 476.623 20.9632C475.026 20.9632 474.09 20.8229 472.328 20.5518V5.95568L475.566 5.41545V10.5211C476.266 10.2612 477.171 10.129 477.996 10.129C481.234 10.129 481.773 11.5809 481.773 13.914L481.774 16.5473ZM492.154 16.6029C492.154 18.8056 491.244 20.9421 487.439 20.9421C483.633 20.9421 482.706 18.8056 482.706 16.6029V14.476C482.706 12.2722 483.633 10.1353 487.439 10.1353C491.244 10.1353 492.154 12.2722 492.154 14.476V16.6029ZM502.527 16.6029C502.527 18.8056 501.616 20.9421 497.812 20.9421C494.005 20.9421 493.079 18.8056 493.079 16.6029V14.476C493.079 12.2722 494.005 10.1353 497.812 10.1353C501.616 10.1353 502.527 12.2722 502.527 14.476V16.6029ZM513.171 20.8229H509.662L506.693 15.8675V20.8229H503.454V5.95531L506.693 5.41508V14.9863L509.662 10.2812H513.171L509.931 15.4158L513.171 20.8229ZM497.801 12.8342C496.701 12.8342 496.319 13.4356 496.319 14.1843V16.9165C496.319 17.667 496.701 18.2702 497.801 18.2702C498.899 18.2702 499.288 17.667 499.288 16.9165V14.1843C499.288 13.4356 498.899 12.8342 497.801 12.8342Z" fill="#3B5998"/>
<g clip-path="url(#clip2_759_137)">
<path d="M649.181 5.74023H651.97V11.9374H657.853V5.74023H660.646V20.9524H657.853V14.6251H651.97V20.9524H649.181V5.74023ZM669.483 15.9976C669.483 17.271 668.445 18.3073 667.172 18.3073C665.899 18.3073 664.862 17.271 664.862 15.9976V9.4482H662.217V15.9976C662.217 18.7299 664.44 20.9524 667.172 20.9524C669.904 20.9524 672.127 18.7299 672.127 15.9976V9.4482H669.483V15.9976ZM679.512 9.52492C678.2 9.52492 677.284 9.9057 676.399 10.774V5.74023H673.745V15.0691C673.745 18.561 676.27 20.9524 679.107 20.9524C682.26 20.9524 685.023 18.5184 685.023 15.2388C685.023 12.0009 682.475 9.52492 679.512 9.52492ZM679.578 18.4973C677.78 18.4973 676.404 16.9954 676.404 15.2388C676.404 13.482 677.78 11.9796 679.578 11.9796C681.102 11.9796 682.478 13.482 682.478 15.2388C682.478 16.9954 681.102 18.4973 679.578 18.4973ZM689.48 10.1935C689.48 8.85945 690.369 8.43648 691.342 8.43648C692.125 8.43648 693.162 9.02898 693.839 9.74867L695.574 7.71727C694.706 6.55352 692.95 5.74914 691.511 5.74914C688.633 5.74914 686.559 7.42102 686.559 10.1935C686.559 15.3357 692.887 13.7057 692.887 16.5845C692.887 17.4723 692.019 18.256 691.025 18.256C689.459 18.256 688.951 17.4941 688.231 16.6898L686.305 18.6787C687.534 20.1813 689.057 20.9435 690.877 20.9435C693.606 20.9435 695.807 19.2505 695.807 16.6049C695.807 10.8915 689.48 12.6693 689.48 10.1935ZM702.794 9.37586C699.958 9.37586 697.433 11.7659 697.433 15.2585V24.6115H700.087V19.5538C700.971 20.4215 701.887 20.8029 703.199 20.8029C706.162 20.8029 708.71 18.3273 708.71 15.0893C708.71 11.8093 705.947 9.37586 702.794 9.37586ZM703.266 18.3485C701.467 18.3485 700.092 16.8446 700.092 15.0893C700.092 13.3324 701.467 11.8301 703.266 11.8301C704.789 11.8301 706.165 13.3324 706.165 15.0893C706.165 16.8446 704.789 18.3485 703.266 18.3485ZM728.245 18.4973C726.679 18.4973 726.235 17.8204 726.235 16.783V12.1912H728.668V9.86367H726.235V6.79492L723.548 8.00086V17.3545C723.548 19.746 725.198 20.9524 727.462 20.9524C727.8 20.9524 728.266 20.9305 728.521 20.8679L729.177 18.4557C728.88 18.4762 728.542 18.4973 728.245 18.4973Z" fill="#45535E"/>
<path d="M721.246 12.3265C720.737 11.4512 720.022 10.7495 719.127 10.2212C718.459 9.83196 717.765 9.58493 716.984 9.47884V6.69759C717.765 6.36587 718.25 5.63165 718.25 4.77509C718.25 3.60759 717.314 2.66149 716.147 2.66149C714.98 2.66149 714.027 3.60759 714.027 4.77509C714.027 5.63165 714.484 6.36587 715.265 6.69759V9.48009C714.64 9.5704 713.992 9.76524 713.4 10.0646C712.191 9.14649 708.227 6.13446 705.908 4.37524C705.963 4.17696 706.006 3.97259 706.006 3.75696C706.006 2.46384 704.959 1.41571 703.665 1.41571C702.371 1.41571 701.325 2.46384 701.325 3.75696C701.325 5.04993 702.372 6.09837 703.666 6.09837C704.107 6.09837 704.515 5.9693 704.868 5.75712L705.357 6.12837L712.081 10.9734C711.726 11.2998 711.395 11.671 711.13 12.0876C710.593 12.9368 710.265 13.8712 710.265 14.8904V15.1031C710.265 15.8185 710.401 16.494 710.633 17.1285C710.837 17.6826 711.135 18.1863 711.504 18.6418L709.272 20.879C708.949 20.7586 708.598 20.7339 708.261 20.8078C707.923 20.8818 707.615 21.0512 707.371 21.2959C707.203 21.4635 707.069 21.663 706.978 21.8827C706.888 22.1023 706.841 22.3378 706.842 22.5756C706.842 23.0588 707.03 23.5131 707.372 23.8548C707.54 24.0234 707.739 24.1571 707.959 24.2481C708.178 24.3392 708.414 24.3857 708.652 24.3851C708.889 24.3857 709.125 24.3391 709.345 24.2481C709.564 24.1571 709.764 24.0234 709.932 23.8548C710.1 23.6871 710.233 23.4877 710.324 23.2682C710.415 23.0486 710.462 22.8132 710.461 22.5756C710.461 22.3885 710.432 22.206 710.378 22.0326L712.685 19.7256C713.001 19.944 713.342 20.1279 713.71 20.2865C714.434 20.5996 715.233 20.7904 716.108 20.7904H716.268C717.236 20.7904 718.148 20.5632 719.006 20.0985C719.909 19.6074 720.617 18.9359 721.151 18.0785C721.688 17.2188 721.984 16.269 721.984 15.224V15.1718C721.984 14.1438 721.746 13.1954 721.246 12.3265ZM718.428 17.166C717.802 17.8618 717.082 18.2904 716.268 18.2904H716.134C715.67 18.2904 715.215 18.162 714.77 17.9284C714.269 17.6712 713.887 17.3043 713.575 16.8398C713.253 16.3838 713.078 15.886 713.078 15.3582V15.1979C713.078 14.679 713.177 14.187 713.428 13.7223C713.697 13.2143 714.059 12.8193 714.541 12.5052C715.014 12.1934 715.519 12.0404 716.082 12.0404H716.134C716.645 12.0404 717.128 12.141 717.584 12.3743C718.048 12.6231 718.428 12.9629 718.722 13.4099C719.008 13.8571 719.178 14.3395 719.232 14.8649C719.241 14.9741 719.245 15.086 719.245 15.1929C719.245 15.906 718.973 16.5665 718.428 17.166Z" fill="#F8761F"/>
</g>
<g clip-path="url(#clip3_759_137)">
<path fill-rule="evenodd" clip-rule="evenodd" d="M890.765 18.8736L891.764 16.5536C892.842 17.36 894.279 17.7792 895.696 17.7792C896.743 17.7792 897.405 17.376 897.405 16.7648C897.389 15.056 891.136 16.3936 891.088 12.1088C891.072 9.93284 893.005 8.25604 895.744 8.25604C897.373 8.25604 898.999 8.65924 900.16 9.57764L899.226 11.9456C898.164 11.2672 896.842 10.784 895.584 10.784C894.73 10.784 894.167 11.1872 894.167 11.7024C894.183 13.3792 900.484 12.4608 900.548 16.5536C900.548 18.7776 898.663 20.3424 895.956 20.3424C893.972 20.3392 892.151 19.872 890.765 18.8736ZM929.104 15.7152C928.605 16.5856 927.671 17.1808 926.589 17.1808C924.992 17.1808 923.706 15.8912 923.706 14.2976C923.706 12.704 924.995 11.4144 926.589 11.4144C927.667 11.4144 928.605 12.0096 929.104 12.88L931.859 11.3504C930.829 9.51364 928.845 8.25604 926.589 8.25604C923.251 8.25604 920.544 10.9632 920.544 14.3008C920.544 17.6384 923.251 20.3456 926.589 20.3456C928.861 20.3456 930.829 19.104 931.859 17.2512L929.104 15.7152ZM901.933 3.24164H905.383V20.1152H901.933V3.24164ZM933.213 3.24164V20.1152H936.663V15.0528L940.755 20.1152H945.171L939.965 14.1024L944.784 8.49284H940.56L936.659 13.1488V3.24164H933.213Z" fill="black"/>
<path d="M915.632 15.7471C915.133 16.5695 914.103 17.1807 912.941 17.1807C911.344 17.1807 910.058 15.8911 910.058 14.2975C910.058 12.7039 911.348 11.4143 912.941 11.4143C914.103 11.4143 915.133 12.0575 915.632 12.8959V15.7471ZM915.632 8.49595V9.86555C915.069 8.91515 913.668 8.25275 912.199 8.25275C909.168 8.25275 906.784 10.9279 906.784 14.2815C906.784 17.6351 909.168 20.3423 912.199 20.3423C913.664 20.3423 915.066 19.6831 915.632 18.7295V20.0991H919.082V8.49595H915.632Z" fill="black"/>
<path fill-rule="evenodd" clip-rule="evenodd" d="M869.444 15.7312C869.444 16.9088 868.493 17.8592 867.316 17.8592C866.138 17.8592 865.188 16.9056 865.188 15.7312C865.188 14.5568 866.138 13.6031 867.316 13.6031H869.444V15.7312ZM870.506 15.7312C870.506 14.5536 871.456 13.6031 872.634 13.6031C873.812 13.6031 874.762 14.5536 874.762 15.7312V21.0496C874.762 22.2272 873.812 23.1776 872.634 23.1776C871.456 23.1776 870.506 22.2272 870.506 21.0496V15.7312Z" fill="#E01E5A"/>
<path fill-rule="evenodd" clip-rule="evenodd" d="M872.634 7.19039C871.456 7.19039 870.506 6.23999 870.506 5.06239C870.506 3.88479 871.456 2.93439 872.634 2.93439C873.812 2.93439 874.762 3.88479 874.762 5.06239V7.19039H872.634ZM872.634 8.26879C873.812 8.26879 874.762 9.21919 874.762 10.3968C874.762 11.5744 873.812 12.5248 872.634 12.5248H867.3C866.122 12.5248 865.172 11.5712 865.172 10.3968C865.172 9.22239 866.122 8.26879 867.3 8.26879H872.634Z" fill="#36C5F0"/>
<path fill-rule="evenodd" clip-rule="evenodd" d="M881.159 10.3968C881.159 9.21919 882.109 8.26879 883.287 8.26879C884.464 8.26879 885.415 9.21919 885.415 10.3968C885.415 11.5744 884.464 12.5248 883.287 12.5248H881.159V10.3968ZM880.096 10.3968C880.096 11.5744 879.146 12.5248 877.968 12.5248C876.791 12.5248 875.84 11.5744 875.84 10.3968V5.06239C875.84 3.88479 876.791 2.93439 877.968 2.93439C879.146 2.93439 880.096 3.88479 880.096 5.06239V10.3968Z" fill="#2EB67D"/>
<path fill-rule="evenodd" clip-rule="evenodd" d="M877.968 18.9216C879.146 18.9216 880.096 19.872 880.096 21.0496C880.096 22.2272 879.146 23.1776 877.968 23.1776C876.791 23.1776 875.84 22.2272 875.84 21.0496V18.9216H877.968ZM877.968 17.8592C876.791 17.8592 875.84 16.9088 875.84 15.7312C875.84 14.5536 876.791 13.6031 877.968 13.6031H883.303C884.48 13.6031 885.431 14.5536 885.431 15.7312C885.431 16.9088 884.48 17.8592 883.303 17.8592H877.968Z" fill="#ECB22E"/>
</g>
</g>
<defs>
<filter id="filter0_d_759_137" x="0" y="0" width="949.172" height="34.112" filterUnits="userSpaceOnUse" color-interpolation-filters="sRGB">
<feFlood flood-opacity="0" result="BackgroundImageFix"/>
<feColorMatrix in="SourceAlpha" type="matrix" values="0 0 0 0 0 0 0 0 0 0 0 0 0 0 0 0 0 0 127 0" result="hardAlpha"/>
<feOffset dy="4"/>
<feGaussianBlur stdDeviation="2"/>
<feComposite in2="hardAlpha" operator="out"/>
<feColorMatrix type="matrix" values="0 0 0 0 0 0 0 0 0 0 0 0 0 0 0 0 0 0 0.25 0"/>
<feBlend mode="normal" in2="BackgroundImageFix" result="effect1_dropShadow_759_137"/>
<feBlend mode="normal" in="SourceGraphic" in2="effect1_dropShadow_759_137" result="shape"/>
</filter>
<clipPath id="clip0_759_137">
<rect width="80" height="26.112" fill="white" transform="translate(4)"/>
</clipPath>
<clipPath id="clip1_759_137">
<rect width="80" height="24.96" fill="white" transform="translate(220 0.575989)"/>
</clipPath>
<clipPath id="clip2_759_137">
<rect width="80" height="23.296" fill="white" transform="translate(649.172 1.40802)"/>
</clipPath>
<clipPath id="clip3_759_137">
<rect width="80" height="20.2432" fill="white" transform="translate(865.172 2.93439)"/>
</clipPath>
</defs>
</svg>
