<svg width="372" height="332" viewBox="0 0 372 332" fill="none" xmlns="http://www.w3.org/2000/svg">
<path d="M33.2912 16H35.6626V11.206H38.0788L40.6484 16H43.2947L40.4631 10.8097C42.0036 10.1896 42.8153 8.87287 42.8153 7.09588C42.8153 4.59659 41.2045 2.90909 38.2003 2.90909H33.2912V16ZM35.6626 9.23722V4.89062H37.8359C39.6065 4.89062 40.3991 5.70241 40.3991 7.09588C40.3991 8.48935 39.6065 9.23722 37.8487 9.23722H35.6626ZM49.1019 16.1918C51.3903 16.1918 52.9627 15.0732 53.3718 13.3665L51.2113 13.1236C50.8981 13.9545 50.131 14.3892 49.1339 14.3892C47.6381 14.3892 46.6474 13.4048 46.6282 11.7237H53.4677V11.0142C53.4677 7.56889 51.3967 6.05398 48.9805 6.05398C46.168 6.05398 44.3335 8.11861 44.3335 11.1484C44.3335 14.2294 46.1424 16.1918 49.1019 16.1918ZM46.6346 10.1641C46.7049 8.91122 47.6317 7.85653 49.0124 7.85653C50.342 7.85653 51.2369 8.82812 51.2496 10.1641H46.6346ZM63.1852 8.77699C62.8656 7.11506 61.536 6.05398 59.2349 6.05398C56.8699 6.05398 55.2591 7.21733 55.2654 9.03267C55.2591 10.4645 56.1412 11.4105 58.0268 11.8004L59.7015 12.152C60.6028 12.3501 61.0247 12.7145 61.0247 13.2706C61.0247 13.9418 60.296 14.4467 59.1966 14.4467C58.1355 14.4467 57.4451 13.9865 57.247 13.1044L54.9906 13.3217C55.2782 15.1243 56.7931 16.1918 59.2029 16.1918C61.6575 16.1918 63.3897 14.9197 63.3961 13.0597C63.3897 11.6598 62.4885 10.8033 60.6348 10.4006L58.9601 10.0426C57.9629 9.81889 57.5666 9.47372 57.573 8.90483C57.5666 8.24006 58.3017 7.77983 59.2669 7.77983C60.3343 7.77983 60.8968 8.36151 61.0758 9.0071L63.1852 8.77699ZM69.5868 16.1918C72.4632 16.1918 74.2914 14.1655 74.2914 11.1293C74.2914 8.08665 72.4632 6.05398 69.5868 6.05398C66.7104 6.05398 64.8823 8.08665 64.8823 11.1293C64.8823 14.1655 66.7104 16.1918 69.5868 16.1918ZM69.5996 14.3381C68.008 14.3381 67.2282 12.919 67.2282 11.1229C67.2282 9.3267 68.008 7.88849 69.5996 7.88849C71.1657 7.88849 71.9455 9.3267 71.9455 11.1229C71.9455 12.919 71.1657 14.3381 69.5996 14.3381ZM78.5692 2.90909H76.2553V16H78.5692V2.90909ZM89.7186 6.18182H87.2576L84.9949 13.4751H84.8926L82.6362 6.18182H80.1689L83.6653 16H86.2221L89.7186 6.18182ZM95.3324 16.1918C97.6207 16.1918 99.1932 15.0732 99.6023 13.3665L97.4418 13.1236C97.1286 13.9545 96.3615 14.3892 95.3643 14.3892C93.8686 14.3892 92.8778 13.4048 92.8587 11.7237H99.6982V11.0142C99.6982 7.56889 97.6271 6.05398 95.2109 6.05398C92.3984 6.05398 90.5639 8.11861 90.5639 11.1484C90.5639 14.2294 92.3729 16.1918 95.3324 16.1918ZM92.8651 10.1641C92.9354 8.91122 93.8622 7.85653 95.2429 7.85653C96.5724 7.85653 97.4673 8.82812 97.4801 10.1641H92.8651ZM106.121 16H108.434V6.18182H106.121V16ZM107.284 4.78835C108.019 4.78835 108.62 4.22585 108.62 3.53551C108.62 2.83878 108.019 2.27628 107.284 2.27628C106.542 2.27628 105.942 2.83878 105.942 3.53551C105.942 4.22585 106.542 4.78835 107.284 4.78835ZM118.574 8.77699C118.254 7.11506 116.925 6.05398 114.624 6.05398C112.259 6.05398 110.648 7.21733 110.654 9.03267C110.648 10.4645 111.53 11.4105 113.415 11.8004L115.09 12.152C115.991 12.3501 116.413 12.7145 116.413 13.2706C116.413 13.9418 115.685 14.4467 114.585 14.4467C113.524 14.4467 112.834 13.9865 112.636 13.1044L110.379 13.3217C110.667 15.1243 112.182 16.1918 114.592 16.1918C117.046 16.1918 118.778 14.9197 118.785 13.0597C118.778 11.6598 117.877 10.8033 116.023 10.4006L114.349 10.0426C113.352 9.81889 112.955 9.47372 112.962 8.90483C112.955 8.24006 113.69 7.77983 114.656 7.77983C115.723 7.77983 116.286 8.36151 116.464 9.0071L118.574 8.77699ZM128.453 8.77699C128.133 7.11506 126.804 6.05398 124.502 6.05398C122.137 6.05398 120.527 7.21733 120.533 9.03267C120.527 10.4645 121.409 11.4105 123.294 11.8004L124.969 12.152C125.87 12.3501 126.292 12.7145 126.292 13.2706C126.292 13.9418 125.564 14.4467 124.464 14.4467C123.403 14.4467 122.713 13.9865 122.515 13.1044L120.258 13.3217C120.546 15.1243 122.061 16.1918 124.471 16.1918C126.925 16.1918 128.657 14.9197 128.664 13.0597C128.657 11.6598 127.756 10.8033 125.902 10.4006L124.228 10.0426C123.23 9.81889 122.834 9.47372 122.841 8.90483C122.834 8.24006 123.569 7.77983 124.534 7.77983C125.602 7.77983 126.164 8.36151 126.343 9.0071L128.453 8.77699ZM136.83 11.8707C136.83 13.3665 135.762 14.108 134.739 14.108C133.627 14.108 132.886 13.3217 132.886 12.0753V6.18182H130.572V12.4332C130.572 14.7919 131.914 16.1278 133.844 16.1278C135.315 16.1278 136.35 15.3544 136.798 14.255H136.9V16H139.143V6.18182H136.83V11.8707ZM145.869 16.1918C148.158 16.1918 149.73 15.0732 150.139 13.3665L147.979 13.1236C147.666 13.9545 146.899 14.3892 145.901 14.3892C144.406 14.3892 143.415 13.4048 143.396 11.7237H150.235V11.0142C150.235 7.56889 148.164 6.05398 145.748 6.05398C142.936 6.05398 141.101 8.11861 141.101 11.1484C141.101 14.2294 142.91 16.1918 145.869 16.1918ZM143.402 10.1641C143.472 8.91122 144.399 7.85653 145.78 7.85653C147.11 7.85653 148.004 8.82812 148.017 10.1641H143.402ZM159.953 8.77699C159.633 7.11506 158.304 6.05398 156.002 6.05398C153.637 6.05398 152.027 7.21733 152.033 9.03267C152.027 10.4645 152.909 11.4105 154.794 11.8004L156.469 12.152C157.37 12.3501 157.792 12.7145 157.792 13.2706C157.792 13.9418 157.064 14.4467 155.964 14.4467C154.903 14.4467 154.213 13.9865 154.015 13.1044L151.758 13.3217C152.046 15.1243 153.561 16.1918 155.971 16.1918C158.425 16.1918 160.157 14.9197 160.164 13.0597C160.157 11.6598 159.256 10.8033 157.402 10.4006L155.728 10.0426C154.73 9.81889 154.334 9.47372 154.341 8.90483C154.334 8.24006 155.069 7.77983 156.034 7.77983C157.102 7.77983 157.664 8.36151 157.843 9.0071L159.953 8.77699ZM175.402 19.6818V6.18182H173.127V7.8054H172.993C172.641 7.09588 171.919 6.05398 170.186 6.05398C167.917 6.05398 166.134 7.83097 166.134 11.1037C166.134 14.3381 167.866 16.1726 170.18 16.1726C171.868 16.1726 172.628 15.169 172.993 14.4531H173.088V19.6818H175.402ZM173.133 11.0909C173.133 12.9957 172.302 14.2741 170.826 14.2741C169.298 14.2741 168.493 12.9318 168.493 11.0909C168.493 9.26278 169.285 7.95241 170.826 7.95241C172.315 7.95241 173.133 9.18608 173.133 11.0909ZM184.044 11.8707C184.044 13.3665 182.977 14.108 181.954 14.108C180.842 14.108 180.1 13.3217 180.1 12.0753V6.18182H177.787V12.4332C177.787 14.7919 179.129 16.1278 181.059 16.1278C182.529 16.1278 183.565 15.3544 184.012 14.255H184.115V16H186.358V6.18182H184.044V11.8707ZM188.738 16H191.052V6.18182H188.738V16ZM189.901 4.78835C190.636 4.78835 191.237 4.22585 191.237 3.53551C191.237 2.83878 190.636 2.27628 189.901 2.27628C189.16 2.27628 188.559 2.83878 188.559 3.53551C188.559 4.22585 189.16 4.78835 189.901 4.78835ZM197.714 16.1918C200.181 16.1918 201.754 14.728 201.92 12.6442H199.708C199.51 13.6989 198.749 14.3061 197.733 14.3061C196.288 14.3061 195.355 13.098 195.355 11.0909C195.355 9.10938 196.308 7.92045 197.733 7.92045C198.845 7.92045 199.529 8.63636 199.708 9.58239H201.92C201.76 7.45384 200.098 6.05398 197.701 6.05398C194.825 6.05398 193.009 8.13139 193.009 11.1293C193.009 14.1016 194.78 16.1918 197.714 16.1918ZM203.82 16H206.134V12.7017L206.977 11.8004L209.982 16H212.749L208.722 10.4197L212.526 6.18182H209.822L206.294 10.1257H206.134V2.90909H203.82V16ZM216.382 2.90909H214.068V16H216.382V2.90909ZM220.199 19.6818C222.002 19.6818 223.044 18.755 223.6 17.1889L227.544 6.1946L225.07 6.18182L222.801 13.5966H222.699L220.436 6.18182H217.981L221.542 16.2045L221.344 16.7351C220.915 17.8537 220.238 17.9304 219.228 17.6364L218.691 19.4389C219.004 19.5668 219.567 19.6818 220.199 19.6818Z" fill="#35414B"/>
<path d="M33.8864 46L35.0568 42.7045H39.7614L40.9318 46H42.4091L38.1364 34.3636H36.6818L32.4091 46H33.8864ZM35.5 41.4545L37.3636 36.2045H37.4545L39.3182 41.4545H35.5ZM45.3807 40.75C45.3807 39.2273 46.3239 38.3636 47.608 38.3636C48.8523 38.3636 49.608 39.1761 49.608 40.5455V46H50.9489V40.4545C50.9489 38.2273 49.7614 37.1591 47.9943 37.1591C46.6761 37.1591 45.858 37.75 45.4489 38.6364H45.3352V37.2727H44.0398V46H45.3807V40.75ZM56.9446 46.1818C59.3082 46.1818 60.8991 44.3864 60.8991 41.6818C60.8991 38.9545 59.3082 37.1591 56.9446 37.1591C54.581 37.1591 52.9901 38.9545 52.9901 41.6818C52.9901 44.3864 54.581 46.1818 56.9446 46.1818ZM56.9446 44.9773C55.1491 44.9773 54.331 43.4318 54.331 41.6818C54.331 39.9318 55.1491 38.3636 56.9446 38.3636C58.7401 38.3636 59.5582 39.9318 59.5582 41.6818C59.5582 43.4318 58.7401 44.9773 56.9446 44.9773ZM64.2869 40.75C64.2869 39.2273 65.2301 38.3636 66.5142 38.3636C67.7585 38.3636 68.5142 39.1761 68.5142 40.5455V46H69.8551V40.4545C69.8551 38.2273 68.6676 37.1591 66.9006 37.1591C65.5824 37.1591 64.7642 37.75 64.3551 38.6364H64.2415V37.2727H62.946V46H64.2869V40.75ZM72.8565 49.2727C74.0668 49.2727 74.919 48.6307 75.4247 47.2727L79.1406 37.2955L77.6747 37.2727L75.2656 44.2273H75.1747L72.7656 37.2727H71.3111L74.5384 46.0455L74.2884 46.7273C73.7997 48.0568 73.1974 48.1818 72.2202 47.9318L71.8793 49.1136C72.0156 49.1818 72.402 49.2727 72.8565 49.2727ZM80.9148 46H82.2557V40.5455C82.2557 39.267 83.1875 38.3636 84.233 38.3636C85.25 38.3636 85.9602 39.0284 85.9602 40.0227V46H87.3239V40.3182C87.3239 39.1932 88.0284 38.3636 89.2557 38.3636C90.2102 38.3636 91.0284 38.8693 91.0284 40.1591V46H92.3693V40.1591C92.3693 38.108 91.267 37.1591 89.7102 37.1591C88.4602 37.1591 87.5455 37.733 87.0966 38.6364H87.0057C86.5739 37.7045 85.8125 37.1591 84.6648 37.1591C83.5284 37.1591 82.6875 37.7045 82.3239 38.6364H82.2102V37.2727H80.9148V46ZM98.3665 46.1818C100.73 46.1818 102.321 44.3864 102.321 41.6818C102.321 38.9545 100.73 37.1591 98.3665 37.1591C96.0028 37.1591 94.4119 38.9545 94.4119 41.6818C94.4119 44.3864 96.0028 46.1818 98.3665 46.1818ZM98.3665 44.9773C96.571 44.9773 95.7528 43.4318 95.7528 41.6818C95.7528 39.9318 96.571 38.3636 98.3665 38.3636C100.162 38.3636 100.98 39.9318 100.98 41.6818C100.98 43.4318 100.162 44.9773 98.3665 44.9773ZM109.868 42.4318C109.868 44.0682 108.618 44.8182 107.618 44.8182C106.504 44.8182 105.709 44 105.709 42.7273V37.2727H104.368V42.8182C104.368 45.0455 105.55 46.1136 107.186 46.1136C108.504 46.1136 109.368 45.4091 109.777 44.5227H109.868V46H111.209V37.2727H109.868V42.4318ZM119.847 39.2273C119.426 37.9886 118.483 37.1591 116.756 37.1591C114.915 37.1591 113.551 38.2045 113.551 39.6818C113.551 40.8864 114.267 41.6932 115.869 42.0682L117.324 42.4091C118.205 42.6136 118.619 43.0341 118.619 43.6364C118.619 44.3864 117.824 45 116.574 45C115.477 45 114.79 44.5284 114.551 43.5909L113.278 43.9091C113.591 45.392 114.812 46.1818 116.597 46.1818C118.625 46.1818 120.006 45.0739 120.006 43.5682C120.006 42.3523 119.244 41.5852 117.688 41.2045L116.392 40.8864C115.358 40.6307 114.892 40.2841 114.892 39.6136C114.892 38.8636 115.688 38.3182 116.756 38.3182C117.926 38.3182 118.409 38.9659 118.642 39.5682L119.847 39.2273ZM126.524 46H127.865V40.5455C127.865 39.267 128.797 38.3636 129.842 38.3636C130.859 38.3636 131.57 39.0284 131.57 40.0227V46H132.933V40.3182C132.933 39.1932 133.638 38.3636 134.865 38.3636C135.82 38.3636 136.638 38.8693 136.638 40.1591V46H137.979V40.1591C137.979 38.108 136.876 37.1591 135.32 37.1591C134.07 37.1591 133.155 37.733 132.706 38.6364H132.615C132.183 37.7045 131.422 37.1591 130.274 37.1591C129.138 37.1591 128.297 37.7045 127.933 38.6364H127.82V37.2727H126.524V46ZM144.089 46.1818C145.862 46.1818 147.158 45.2955 147.567 43.9773L146.271 43.6136C145.93 44.5227 145.141 44.9773 144.089 44.9773C142.516 44.9773 141.43 43.9602 141.368 42.0909H147.703V41.5227C147.703 38.2727 145.771 37.1591 143.953 37.1591C141.589 37.1591 140.021 39.0227 140.021 41.7045C140.021 44.3864 141.567 46.1818 144.089 46.1818ZM141.368 40.9318C141.459 39.5739 142.419 38.3636 143.953 38.3636C145.408 38.3636 146.339 39.4545 146.339 40.9318H141.368ZM155.925 39.2273C155.504 37.9886 154.561 37.1591 152.834 37.1591C150.993 37.1591 149.629 38.2045 149.629 39.6818C149.629 40.8864 150.345 41.6932 151.947 42.0682L153.402 42.4091C154.283 42.6136 154.697 43.0341 154.697 43.6364C154.697 44.3864 153.902 45 152.652 45C151.555 45 150.868 44.5284 150.629 43.5909L149.357 43.9091C149.669 45.392 150.891 46.1818 152.675 46.1818C154.703 46.1818 156.084 45.0739 156.084 43.5682C156.084 42.3523 155.322 41.5852 153.766 41.2045L152.47 40.8864C151.436 40.6307 150.97 40.2841 150.97 39.6136C150.97 38.8636 151.766 38.3182 152.834 38.3182C154.004 38.3182 154.487 38.9659 154.72 39.5682L155.925 39.2273ZM164.284 39.2273C163.864 37.9886 162.92 37.1591 161.193 37.1591C159.352 37.1591 157.989 38.2045 157.989 39.6818C157.989 40.8864 158.705 41.6932 160.307 42.0682L161.761 42.4091C162.642 42.6136 163.057 43.0341 163.057 43.6364C163.057 44.3864 162.261 45 161.011 45C159.915 45 159.227 44.5284 158.989 43.5909L157.716 43.9091C158.028 45.392 159.25 46.1818 161.034 46.1818C163.062 46.1818 164.443 45.0739 164.443 43.5682C164.443 42.3523 163.682 41.5852 162.125 41.2045L160.83 40.8864C159.795 40.6307 159.33 40.2841 159.33 39.6136C159.33 38.8636 160.125 38.3182 161.193 38.3182C162.364 38.3182 162.847 38.9659 163.08 39.5682L164.284 39.2273ZM169.03 46.2045C170.553 46.2045 171.348 45.3864 171.621 44.8182H171.689V46H173.03V40.25C173.03 37.4773 170.916 37.1591 169.803 37.1591C168.484 37.1591 166.984 37.6136 166.303 39.2045L167.575 39.6591C167.871 39.0227 168.57 38.3409 169.848 38.3409C171.081 38.3409 171.689 38.9943 171.689 40.1136V40.1591C171.689 40.8068 171.03 40.75 169.439 40.9545C167.82 41.1648 166.053 41.5227 166.053 43.5227C166.053 45.2273 167.371 46.2045 169.03 46.2045ZM169.234 45C168.166 45 167.393 44.5227 167.393 43.5909C167.393 42.5682 168.325 42.25 169.371 42.1136C169.939 42.0455 171.462 41.8864 171.689 41.6136V42.8409C171.689 43.9318 170.825 45 169.234 45ZM179 49.4545C181.091 49.4545 182.773 48.5 182.773 46.25V37.2727H181.477V38.6591H181.341C181.045 38.2045 180.5 37.1591 178.795 37.1591C176.591 37.1591 175.068 38.9091 175.068 41.5909C175.068 44.3182 176.659 45.8636 178.773 45.8636C180.477 45.8636 181.023 44.8636 181.318 44.3864H181.432V46.1591C181.432 47.6136 180.409 48.2727 179 48.2727C177.415 48.2727 176.858 47.4375 176.5 46.9545L175.432 47.7045C175.977 48.6193 177.051 49.4545 179 49.4545ZM178.955 44.6591C177.273 44.6591 176.409 43.3864 176.409 41.5682C176.409 39.7955 177.25 38.3636 178.955 38.3636C180.591 38.3636 181.455 39.6818 181.455 41.5682C181.455 43.5 180.568 44.6591 178.955 44.6591ZM185.227 46H186.568V37.2727H185.227V46ZM185.909 35.8182C186.432 35.8182 186.864 35.4091 186.864 34.9091C186.864 34.4091 186.432 34 185.909 34C185.386 34 184.955 34.4091 184.955 34.9091C184.955 35.4091 185.386 35.8182 185.909 35.8182ZM190.365 40.75C190.365 39.2273 191.308 38.3636 192.592 38.3636C193.837 38.3636 194.592 39.1761 194.592 40.5455V46H195.933V40.4545C195.933 38.2273 194.746 37.1591 192.979 37.1591C191.661 37.1591 190.842 37.75 190.433 38.6364H190.32V37.2727H189.024V46H190.365V40.75ZM201.906 49.4545C203.997 49.4545 205.679 48.5 205.679 46.25V37.2727H204.384V38.6591H204.247C203.952 38.2045 203.406 37.1591 201.702 37.1591C199.497 37.1591 197.974 38.9091 197.974 41.5909C197.974 44.3182 199.565 45.8636 201.679 45.8636C203.384 45.8636 203.929 44.8636 204.224 44.3864H204.338V46.1591C204.338 47.6136 203.315 48.2727 201.906 48.2727C200.321 48.2727 199.764 47.4375 199.406 46.9545L198.338 47.7045C198.884 48.6193 199.957 49.4545 201.906 49.4545ZM201.861 44.6591C200.179 44.6591 199.315 43.3864 199.315 41.5682C199.315 39.7955 200.156 38.3636 201.861 38.3636C203.497 38.3636 204.361 39.6818 204.361 41.5682C204.361 43.5 203.474 44.6591 201.861 44.6591ZM216.429 37.2727H214.565V35.1818H213.224V37.2727H211.906V38.4091H213.224V43.8636C213.224 45.3864 214.452 46.1136 215.588 46.1136C216.088 46.1136 216.406 46.0227 216.588 45.9545L216.315 44.75C216.202 44.7727 216.02 44.8182 215.724 44.8182C215.134 44.8182 214.565 44.6364 214.565 43.5V38.4091H216.429V37.2727ZM219.974 40.75C219.974 39.2273 220.946 38.3636 222.27 38.3636C223.531 38.3636 224.293 39.1591 224.293 40.5455V46H225.634V40.4545C225.634 38.2102 224.44 37.1591 222.656 37.1591C221.281 37.1591 220.497 37.733 220.088 38.6364H219.974V34.3636H218.634V46H219.974V40.75ZM230.655 46.2045C232.178 46.2045 232.973 45.3864 233.246 44.8182H233.314V46H234.655V40.25C234.655 37.4773 232.541 37.1591 231.428 37.1591C230.109 37.1591 228.609 37.6136 227.928 39.2045L229.2 39.6591C229.496 39.0227 230.195 38.3409 231.473 38.3409C232.706 38.3409 233.314 38.9943 233.314 40.1136V40.1591C233.314 40.8068 232.655 40.75 231.064 40.9545C229.445 41.1648 227.678 41.5227 227.678 43.5227C227.678 45.2273 228.996 46.2045 230.655 46.2045ZM230.859 45C229.791 45 229.018 44.5227 229.018 43.5909C229.018 42.5682 229.95 42.25 230.996 42.1136C231.564 42.0455 233.087 41.8864 233.314 41.6136V42.8409C233.314 43.9318 232.45 45 230.859 45ZM240.898 37.2727H239.034V35.1818H237.693V37.2727H236.375V38.4091H237.693V43.8636C237.693 45.3864 238.92 46.1136 240.057 46.1136C240.557 46.1136 240.875 46.0227 241.057 45.9545L240.784 44.75C240.67 44.7727 240.489 44.8182 240.193 44.8182C239.602 44.8182 239.034 44.6364 239.034 43.5V38.4091H240.898V37.2727ZM250.96 46.1818C252.892 46.1818 254.165 45 254.392 43.4545H253.051C252.801 44.4091 252.006 44.9773 250.96 44.9773C249.369 44.9773 248.347 43.6591 248.347 41.6364C248.347 39.6591 249.392 38.3636 250.96 38.3636C252.142 38.3636 252.847 39.0909 253.051 39.8864H254.392C254.165 38.25 252.778 37.1591 250.938 37.1591C248.574 37.1591 247.006 39.0227 247.006 41.6818C247.006 44.2955 248.506 46.1818 250.96 46.1818ZM259.898 46.1818C262.261 46.1818 263.852 44.3864 263.852 41.6818C263.852 38.9545 262.261 37.1591 259.898 37.1591C257.534 37.1591 255.943 38.9545 255.943 41.6818C255.943 44.3864 257.534 46.1818 259.898 46.1818ZM259.898 44.9773C258.102 44.9773 257.284 43.4318 257.284 41.6818C257.284 39.9318 258.102 38.3636 259.898 38.3636C261.693 38.3636 262.511 39.9318 262.511 41.6818C262.511 43.4318 261.693 44.9773 259.898 44.9773ZM267.24 40.75C267.24 39.2273 268.183 38.3636 269.467 38.3636C270.712 38.3636 271.467 39.1761 271.467 40.5455V46H272.808V40.4545C272.808 38.2273 271.621 37.1591 269.854 37.1591C268.536 37.1591 267.717 37.75 267.308 38.6364H267.195V37.2727H265.899V46H267.24V40.75ZM276.599 40.75C276.599 39.2273 277.543 38.3636 278.827 38.3636C280.071 38.3636 280.827 39.1761 280.827 40.5455V46H282.168V40.4545C282.168 38.2273 280.98 37.1591 279.213 37.1591C277.895 37.1591 277.077 37.75 276.668 38.6364H276.554V37.2727H275.259V46H276.599V40.75ZM288.277 46.1818C290.05 46.1818 291.345 45.2955 291.754 43.9773L290.459 43.6136C290.118 44.5227 289.328 44.9773 288.277 44.9773C286.703 44.9773 285.618 43.9602 285.555 42.0909H291.891V41.5227C291.891 38.2727 289.959 37.1591 288.141 37.1591C285.777 37.1591 284.209 39.0227 284.209 41.7045C284.209 44.3864 285.754 46.1818 288.277 46.1818ZM285.555 40.9318C285.646 39.5739 286.607 38.3636 288.141 38.3636C289.595 38.3636 290.527 39.4545 290.527 40.9318H285.555ZM297.476 46.1818C299.408 46.1818 300.68 45 300.908 43.4545H299.567C299.317 44.4091 298.521 44.9773 297.476 44.9773C295.885 44.9773 294.862 43.6591 294.862 41.6364C294.862 39.6591 295.908 38.3636 297.476 38.3636C298.658 38.3636 299.362 39.0909 299.567 39.8864H300.908C300.68 38.25 299.294 37.1591 297.453 37.1591C295.089 37.1591 293.521 39.0227 293.521 41.6818C293.521 44.2955 295.021 46.1818 297.476 46.1818ZM306.663 37.2727H304.8V35.1818H303.459V37.2727H302.141V38.4091H303.459V43.8636C303.459 45.3864 304.686 46.1136 305.822 46.1136C306.322 46.1136 306.641 46.0227 306.822 45.9545L306.55 44.75C306.436 44.7727 306.254 44.8182 305.959 44.8182C305.368 44.8182 304.8 44.6364 304.8 43.5V38.4091H306.663V37.2727ZM314.706 39.2273C314.286 37.9886 313.342 37.1591 311.615 37.1591C309.774 37.1591 308.411 38.2045 308.411 39.6818C308.411 40.8864 309.126 41.6932 310.729 42.0682L312.183 42.4091C313.064 42.6136 313.479 43.0341 313.479 43.6364C313.479 44.3864 312.683 45 311.433 45C310.337 45 309.649 44.5284 309.411 43.5909L308.138 43.9091C308.45 45.392 309.672 46.1818 311.456 46.1818C313.484 46.1818 314.865 45.0739 314.865 43.5682C314.865 42.3523 314.104 41.5852 312.547 41.2045L311.251 40.8864C310.217 40.6307 309.751 40.2841 309.751 39.6136C309.751 38.8636 310.547 38.3182 311.615 38.3182C312.786 38.3182 313.268 38.9659 313.501 39.5682L314.706 39.2273ZM33.2273 70H34.5682V64.5455C34.5682 63.267 35.5 62.3636 36.5455 62.3636C37.5625 62.3636 38.2727 63.0284 38.2727 64.0227V70H39.6364V64.3182C39.6364 63.1932 40.3409 62.3636 41.5682 62.3636C42.5227 62.3636 43.3409 62.8693 43.3409 64.1591V70H44.6818V64.1591C44.6818 62.108 43.5795 61.1591 42.0227 61.1591C40.7727 61.1591 39.858 61.733 39.4091 62.6364H39.3182C38.8864 61.7045 38.125 61.1591 36.9773 61.1591C35.8409 61.1591 35 61.7045 34.6364 62.6364H34.5227V61.2727H33.2273V70ZM49.7017 70.2045C51.2244 70.2045 52.0199 69.3864 52.2926 68.8182H52.3608V70H53.7017V64.25C53.7017 61.4773 51.5881 61.1591 50.4744 61.1591C49.1562 61.1591 47.6562 61.6136 46.9744 63.2045L48.2472 63.6591C48.5426 63.0227 49.2415 62.3409 50.5199 62.3409C51.7528 62.3409 52.3608 62.9943 52.3608 64.1136V64.1591C52.3608 64.8068 51.7017 64.75 50.1108 64.9545C48.4915 65.1648 46.7244 65.5227 46.7244 67.5227C46.7244 69.2273 48.0426 70.2045 49.7017 70.2045ZM49.9062 69C48.8381 69 48.0653 68.5227 48.0653 67.5909C48.0653 66.5682 48.9972 66.25 50.0426 66.1136C50.6108 66.0455 52.1335 65.8864 52.3608 65.6136V66.8409C52.3608 67.9318 51.4972 69 49.9062 69ZM57.4901 64.75C57.4901 63.2273 58.4332 62.3636 59.7173 62.3636C60.9616 62.3636 61.7173 63.1761 61.7173 64.5455V70H63.0582V64.4545C63.0582 62.2273 61.8707 61.1591 60.1037 61.1591C58.7855 61.1591 57.9673 61.75 57.5582 62.6364H57.4446V61.2727H56.1491V70H57.4901V64.75ZM68.0767 70.2045C69.5994 70.2045 70.3949 69.3864 70.6676 68.8182H70.7358V70H72.0767V64.25C72.0767 61.4773 69.9631 61.1591 68.8494 61.1591C67.5312 61.1591 66.0312 61.6136 65.3494 63.2045L66.6222 63.6591C66.9176 63.0227 67.6165 62.3409 68.8949 62.3409C70.1278 62.3409 70.7358 62.9943 70.7358 64.1136V64.1591C70.7358 64.8068 70.0767 64.75 68.4858 64.9545C66.8665 65.1648 65.0994 65.5227 65.0994 67.5227C65.0994 69.2273 66.4176 70.2045 68.0767 70.2045ZM68.2812 69C67.2131 69 66.4403 68.5227 66.4403 67.5909C66.4403 66.5682 67.3722 66.25 68.4176 66.1136C68.9858 66.0455 70.5085 65.8864 70.7358 65.6136V66.8409C70.7358 67.9318 69.8722 69 68.2812 69ZM78.0469 73.4545C80.1378 73.4545 81.8196 72.5 81.8196 70.25V61.2727H80.5241V62.6591H80.3878C80.0923 62.2045 79.5469 61.1591 77.8423 61.1591C75.6378 61.1591 74.1151 62.9091 74.1151 65.5909C74.1151 68.3182 75.706 69.8636 77.8196 69.8636C79.5241 69.8636 80.0696 68.8636 80.3651 68.3864H80.4787V70.1591C80.4787 71.6136 79.456 72.2727 78.0469 72.2727C76.4616 72.2727 75.9048 71.4375 75.5469 70.9545L74.4787 71.7045C75.0241 72.6193 76.098 73.4545 78.0469 73.4545ZM78.0014 68.6591C76.3196 68.6591 75.456 67.3864 75.456 65.5682C75.456 63.7955 76.2969 62.3636 78.0014 62.3636C79.6378 62.3636 80.5014 63.6818 80.5014 65.5682C80.5014 67.5 79.6151 68.6591 78.0014 68.6591ZM87.9332 70.1818C89.706 70.1818 91.0014 69.2955 91.4105 67.9773L90.1151 67.6136C89.7741 68.5227 88.9844 68.9773 87.9332 68.9773C86.3594 68.9773 85.2741 67.9602 85.2116 66.0909H91.5469V65.5227C91.5469 62.2727 89.6151 61.1591 87.7969 61.1591C85.4332 61.1591 83.8651 63.0227 83.8651 65.7045C83.8651 68.3864 85.4105 70.1818 87.9332 70.1818ZM85.2116 64.9318C85.3026 63.5739 86.2628 62.3636 87.7969 62.3636C89.2514 62.3636 90.1832 63.4545 90.1832 64.9318H85.2116ZM93.5866 70H94.9276V64.4773C94.9276 63.2955 95.8594 62.4318 97.1321 62.4318C97.4901 62.4318 97.8594 62.5 97.9503 62.5227V61.1591C97.7969 61.1477 97.4446 61.1364 97.2457 61.1364C96.2003 61.1364 95.2912 61.7273 94.973 62.5909H94.8821V61.2727H93.5866V70ZM105.722 63.2273C105.301 61.9886 104.358 61.1591 102.631 61.1591C100.79 61.1591 99.4261 62.2045 99.4261 63.6818C99.4261 64.8864 100.142 65.6932 101.744 66.0682L103.199 66.4091C104.08 66.6136 104.494 67.0341 104.494 67.6364C104.494 68.3864 103.699 69 102.449 69C101.352 69 100.665 68.5284 100.426 67.5909L99.1534 67.9091C99.4659 69.392 100.688 70.1818 102.472 70.1818C104.5 70.1818 105.881 69.0739 105.881 67.5682C105.881 66.3523 105.119 65.5852 103.562 65.2045L102.267 64.8864C101.233 64.6307 100.767 64.2841 100.767 63.6136C100.767 62.8636 101.562 62.3182 102.631 62.3182C103.801 62.3182 104.284 62.9659 104.517 63.5682L105.722 63.2273ZM114.967 70.2045C116.49 70.2045 117.286 69.3864 117.558 68.8182H117.626V70H118.967V64.25C118.967 61.4773 116.854 61.1591 115.74 61.1591C114.422 61.1591 112.922 61.6136 112.24 63.2045L113.513 63.6591C113.808 63.0227 114.507 62.3409 115.786 62.3409C117.018 62.3409 117.626 62.9943 117.626 64.1136V64.1591C117.626 64.8068 116.967 64.75 115.376 64.9545C113.757 65.1648 111.99 65.5227 111.99 67.5227C111.99 69.2273 113.308 70.2045 114.967 70.2045ZM115.172 69C114.104 69 113.331 68.5227 113.331 67.5909C113.331 66.5682 114.263 66.25 115.308 66.1136C115.876 66.0455 117.399 65.8864 117.626 65.6136V66.8409C117.626 67.9318 116.763 69 115.172 69ZM122.756 64.75C122.756 63.2273 123.699 62.3636 124.983 62.3636C126.227 62.3636 126.983 63.1761 126.983 64.5455V70H128.324V64.4545C128.324 62.2273 127.136 61.1591 125.369 61.1591C124.051 61.1591 123.233 61.75 122.824 62.6364H122.71V61.2727H121.415V70H122.756V64.75ZM134.07 70.1818C135.751 70.1818 136.32 69.1364 136.615 68.6591H136.774V70H138.07V58.3636H136.729V62.6591H136.615C136.32 62.2045 135.797 61.1591 134.092 61.1591C131.888 61.1591 130.365 62.9091 130.365 65.6591C130.365 68.4318 131.888 70.1818 134.07 70.1818ZM134.251 68.9773C132.57 68.9773 131.706 67.5 131.706 65.6364C131.706 63.7955 132.547 62.3636 134.251 62.3636C135.888 62.3636 136.751 63.6818 136.751 65.6364C136.751 67.6136 135.865 68.9773 134.251 68.9773ZM148.871 70.1818C150.643 70.1818 151.939 69.2955 152.348 67.9773L151.053 67.6136C150.712 68.5227 149.922 68.9773 148.871 68.9773C147.297 68.9773 146.212 67.9602 146.149 66.0909H152.484V65.5227C152.484 62.2727 150.553 61.1591 148.734 61.1591C146.371 61.1591 144.803 63.0227 144.803 65.7045C144.803 68.3864 146.348 70.1818 148.871 70.1818ZM146.149 64.9318C146.24 63.5739 147.2 62.3636 148.734 62.3636C150.189 62.3636 151.121 63.4545 151.121 64.9318H146.149ZM154.524 70H155.865V64.5455C155.865 63.267 156.797 62.3636 157.842 62.3636C158.859 62.3636 159.57 63.0284 159.57 64.0227V70H160.933V64.3182C160.933 63.1932 161.638 62.3636 162.865 62.3636C163.82 62.3636 164.638 62.8693 164.638 64.1591V70H165.979V64.1591C165.979 62.108 164.876 61.1591 163.32 61.1591C162.07 61.1591 161.155 61.733 160.706 62.6364H160.615C160.183 61.7045 159.422 61.1591 158.274 61.1591C157.138 61.1591 156.297 61.7045 155.933 62.6364H155.82V61.2727H154.524V70ZM168.43 73.2727H169.771V68.6591H169.885C170.18 69.1364 170.749 70.1818 172.43 70.1818C174.612 70.1818 176.135 68.4318 176.135 65.6591C176.135 62.9091 174.612 61.1591 172.408 61.1591C170.703 61.1591 170.18 62.2045 169.885 62.6591H169.726V61.2727H168.43V73.2727ZM169.749 65.6364C169.749 63.6818 170.612 62.3636 172.249 62.3636C173.953 62.3636 174.794 63.7955 174.794 65.6364C174.794 67.5 173.93 68.9773 172.249 68.9773C170.635 68.9773 169.749 67.6136 169.749 65.6364ZM179.521 58.3636H178.18V70H179.521V58.3636ZM185.523 70.1818C187.886 70.1818 189.477 68.3864 189.477 65.6818C189.477 62.9545 187.886 61.1591 185.523 61.1591C183.159 61.1591 181.568 62.9545 181.568 65.6818C181.568 68.3864 183.159 70.1818 185.523 70.1818ZM185.523 68.9773C183.727 68.9773 182.909 67.4318 182.909 65.6818C182.909 63.9318 183.727 62.3636 185.523 62.3636C187.318 62.3636 188.136 63.9318 188.136 65.6818C188.136 67.4318 187.318 68.9773 185.523 68.9773ZM192.075 73.2727C193.286 73.2727 194.138 72.6307 194.643 71.2727L198.359 61.2955L196.893 61.2727L194.484 68.2273H194.393L191.984 61.2727H190.53L193.757 70.0455L193.507 70.7273C193.018 72.0568 192.416 72.1818 191.439 71.9318L191.098 73.1136C191.234 73.1818 191.621 73.2727 192.075 73.2727ZM203.48 70.1818C205.253 70.1818 206.548 69.2955 206.957 67.9773L205.662 67.6136C205.321 68.5227 204.531 68.9773 203.48 68.9773C201.906 68.9773 200.821 67.9602 200.759 66.0909H207.094V65.5227C207.094 62.2727 205.162 61.1591 203.344 61.1591C200.98 61.1591 199.412 63.0227 199.412 65.7045C199.412 68.3864 200.957 70.1818 203.48 70.1818ZM200.759 64.9318C200.849 63.5739 201.81 62.3636 203.344 62.3636C204.798 62.3636 205.73 63.4545 205.73 64.9318H200.759ZM212.793 70.1818C214.565 70.1818 215.861 69.2955 216.27 67.9773L214.974 67.6136C214.634 68.5227 213.844 68.9773 212.793 68.9773C211.219 68.9773 210.134 67.9602 210.071 66.0909H216.406V65.5227C216.406 62.2727 214.474 61.1591 212.656 61.1591C210.293 61.1591 208.724 63.0227 208.724 65.7045C208.724 68.3864 210.27 70.1818 212.793 70.1818ZM210.071 64.9318C210.162 63.5739 211.122 62.3636 212.656 62.3636C214.111 62.3636 215.043 63.4545 215.043 64.9318H210.071ZM224.628 63.2273C224.207 61.9886 223.264 61.1591 221.537 61.1591C219.696 61.1591 218.332 62.2045 218.332 63.6818C218.332 64.8864 219.048 65.6932 220.651 66.0682L222.105 66.4091C222.986 66.6136 223.401 67.0341 223.401 67.6364C223.401 68.3864 222.605 69 221.355 69C220.259 69 219.571 68.5284 219.332 67.5909L218.06 67.9091C218.372 69.392 219.594 70.1818 221.378 70.1818C223.406 70.1818 224.787 69.0739 224.787 67.5682C224.787 66.3523 224.026 65.5852 222.469 65.2045L221.173 64.8864C220.139 64.6307 219.673 64.2841 219.673 63.6136C219.673 62.8636 220.469 62.3182 221.537 62.3182C222.707 62.3182 223.19 62.9659 223.423 63.5682L224.628 63.2273ZM227.783 70.0909C228.345 70.0909 228.805 69.6307 228.805 69.0682C228.805 68.5057 228.345 68.0455 227.783 68.0455C227.22 68.0455 226.76 68.5057 226.76 69.0682C226.76 69.6307 227.22 70.0909 227.783 70.0909Z" fill="#4E5A65"/>
<line x1="4.37114e-08" y1="101.5" x2="372" y2="101.5" stroke="#F0EBFA"/>
<path d="M33.2912 144H35.6626V139.577H38.1683C41.1918 139.577 42.8153 137.761 42.8153 135.243C42.8153 132.744 41.2109 130.909 38.2003 130.909H33.2912V144ZM35.6626 137.627V132.891H37.8359C39.6129 132.891 40.3991 133.849 40.3991 135.243C40.3991 136.636 39.6129 137.627 37.8487 137.627H35.6626ZM47.0868 130.909H44.7729V144H47.0868V130.909ZM52.2915 144.198C53.832 144.198 54.7525 143.476 55.1744 142.651H55.2511V144H57.4755V137.429C57.4755 134.834 55.3597 134.054 53.4869 134.054C51.4222 134.054 49.837 134.974 49.3256 136.764L51.4862 137.071C51.7163 136.4 52.3683 135.825 53.4996 135.825C54.5735 135.825 55.1616 136.374 55.1616 137.339V137.378C55.1616 138.043 54.4648 138.075 52.7326 138.26C50.8278 138.464 49.006 139.033 49.006 141.245C49.006 143.175 50.4187 144.198 52.2915 144.198ZM52.8924 142.498C51.9272 142.498 51.2369 142.057 51.2369 141.207C51.2369 140.318 52.0103 139.947 53.0458 139.8C53.6531 139.717 54.8675 139.564 55.168 139.321V140.478C55.168 141.571 54.2859 142.498 52.8924 142.498ZM62.1161 138.247C62.1161 136.828 62.9727 136.01 64.1935 136.01C65.3888 136.01 66.1048 136.796 66.1048 138.107V144H68.4187V137.749C68.4251 135.396 67.0827 134.054 65.0565 134.054C63.5863 134.054 62.5763 134.757 62.1289 135.85H62.0138V134.182H59.8022V144H62.1161V138.247ZM76.674 147.682C78.4766 147.682 79.5185 146.755 80.0746 145.189L84.0185 134.195L81.5447 134.182L79.2756 141.597H79.1733L76.9105 134.182H74.456L78.0163 144.205L77.8182 144.735C77.3899 145.854 76.7124 145.93 75.7024 145.636L75.1655 147.439C75.4787 147.567 76.0412 147.682 76.674 147.682ZM89.5732 144.192C92.4496 144.192 94.2777 142.165 94.2777 139.129C94.2777 136.087 92.4496 134.054 89.5732 134.054C86.6967 134.054 84.8686 136.087 84.8686 139.129C84.8686 142.165 86.6967 144.192 89.5732 144.192ZM89.5859 142.338C87.9943 142.338 87.2145 140.919 87.2145 139.123C87.2145 137.327 87.9943 135.888 89.5859 135.888C91.152 135.888 91.9318 137.327 91.9318 139.123C91.9318 140.919 91.152 142.338 89.5859 142.338ZM102.499 139.871C102.499 141.366 101.432 142.108 100.409 142.108C99.2971 142.108 98.5556 141.322 98.5556 140.075V134.182H96.2417V140.433C96.2417 142.792 97.584 144.128 99.5144 144.128C100.985 144.128 102.02 143.354 102.468 142.255H102.57V144H104.813V134.182H102.499V139.871ZM107.193 144H109.507V138.228C109.507 136.982 110.446 136.099 111.718 136.099C112.108 136.099 112.594 136.17 112.792 136.234V134.105C112.581 134.067 112.217 134.041 111.961 134.041C110.836 134.041 109.897 134.68 109.539 135.818H109.436V134.182H107.193V144ZM124.093 130.909H121.837L118.583 132.999V135.173L121.645 133.217H121.722V144H124.093V130.909ZM133.394 137.595H127.5V139.5H133.394V137.595ZM140.11 144.192C142.987 144.192 144.815 142.165 144.815 139.129C144.815 136.087 142.987 134.054 140.11 134.054C137.234 134.054 135.406 136.087 135.406 139.129C135.406 142.165 137.234 144.192 140.11 144.192ZM140.123 142.338C138.531 142.338 137.752 140.919 137.752 139.123C137.752 137.327 138.531 135.888 140.123 135.888C141.689 135.888 142.469 137.327 142.469 139.123C142.469 140.919 141.689 142.338 140.123 142.338ZM149.093 138.247C149.093 136.828 149.949 136.01 151.17 136.01C152.365 136.01 153.081 136.796 153.081 138.107V144H155.395V137.749C155.402 135.396 154.059 134.054 152.033 134.054C150.563 134.054 149.553 134.757 149.105 135.85H148.99V134.182H146.779V144H149.093V138.247ZM163.699 137.595H157.805V139.5H163.699V137.595ZM171.431 130.909H169.175L165.921 132.999V135.173L168.983 133.217H169.06V144H171.431V130.909ZM182.541 136.777C182.221 135.115 180.892 134.054 178.59 134.054C176.225 134.054 174.615 135.217 174.621 137.033C174.615 138.464 175.497 139.411 177.382 139.8L179.057 140.152C179.958 140.35 180.38 140.714 180.38 141.271C180.38 141.942 179.651 142.447 178.552 142.447C177.491 142.447 176.801 141.987 176.602 141.104L174.346 141.322C174.634 143.124 176.149 144.192 178.558 144.192C181.013 144.192 182.745 142.92 182.752 141.06C182.745 139.66 181.844 138.803 179.99 138.401L178.316 138.043C177.318 137.819 176.922 137.474 176.928 136.905C176.922 136.24 177.657 135.78 178.622 135.78C179.69 135.78 180.252 136.362 180.431 137.007L182.541 136.777Z" fill="#35414B"/>
<path d="M33.4091 174H34.8182V169.75H37.3636C40.0739 169.75 41.2955 168.102 41.2955 166.045C41.2955 163.989 40.0739 162.364 37.3409 162.364H33.4091V174ZM34.8182 168.5V163.614H37.2955C39.1875 163.614 39.9091 164.648 39.9091 166.045C39.9091 167.443 39.1875 168.5 37.3182 168.5H34.8182ZM44.7244 162.364H43.3835V174H44.7244V162.364ZM49.7486 174.205C51.2713 174.205 52.0668 173.386 52.3395 172.818H52.4077V174H53.7486V168.25C53.7486 165.477 51.6349 165.159 50.5213 165.159C49.2031 165.159 47.7031 165.614 47.0213 167.205L48.294 167.659C48.5895 167.023 49.2884 166.341 50.5668 166.341C51.7997 166.341 52.4077 166.994 52.4077 168.114V168.159C52.4077 168.807 51.7486 168.75 50.1577 168.955C48.5384 169.165 46.7713 169.523 46.7713 171.523C46.7713 173.227 48.0895 174.205 49.7486 174.205ZM49.9531 173C48.8849 173 48.1122 172.523 48.1122 171.591C48.1122 170.568 49.044 170.25 50.0895 170.114C50.6577 170.045 52.1804 169.886 52.4077 169.614V170.841C52.4077 171.932 51.544 173 49.9531 173ZM57.5369 168.75C57.5369 167.227 58.4801 166.364 59.7642 166.364C61.0085 166.364 61.7642 167.176 61.7642 168.545V174H63.1051V168.455C63.1051 166.227 61.9176 165.159 60.1506 165.159C58.8324 165.159 58.0142 165.75 57.6051 166.636H57.4915V165.273H56.196V174H57.5369V168.75ZM70.0554 174H71.3963V168.545C71.3963 167.267 72.3281 166.364 73.3736 166.364C74.3906 166.364 75.1009 167.028 75.1009 168.023V174H76.4645V168.318C76.4645 167.193 77.169 166.364 78.3963 166.364C79.3509 166.364 80.169 166.869 80.169 168.159V174H81.5099V168.159C81.5099 166.108 80.4077 165.159 78.8509 165.159C77.6009 165.159 76.6861 165.733 76.2372 166.636H76.1463C75.7145 165.705 74.9531 165.159 73.8054 165.159C72.669 165.159 71.8281 165.705 71.4645 166.636H71.3509V165.273H70.0554V174ZM87.6207 174.182C89.3935 174.182 90.6889 173.295 91.098 171.977L89.8026 171.614C89.4616 172.523 88.6719 172.977 87.6207 172.977C86.0469 172.977 84.9616 171.96 84.8991 170.091H91.2344V169.523C91.2344 166.273 89.3026 165.159 87.4844 165.159C85.1207 165.159 83.5526 167.023 83.5526 169.705C83.5526 172.386 85.098 174.182 87.6207 174.182ZM84.8991 168.932C84.9901 167.574 85.9503 166.364 87.4844 166.364C88.9389 166.364 89.8707 167.455 89.8707 168.932H84.8991ZM96.9332 174.182C98.706 174.182 100.001 173.295 100.411 171.977L99.1151 171.614C98.7741 172.523 97.9844 172.977 96.9332 172.977C95.3594 172.977 94.2741 171.96 94.2116 170.091H100.547V169.523C100.547 166.273 98.6151 165.159 96.7969 165.159C94.4332 165.159 92.8651 167.023 92.8651 169.705C92.8651 172.386 94.4105 174.182 96.9332 174.182ZM94.2116 168.932C94.3026 167.574 95.2628 166.364 96.7969 166.364C98.2514 166.364 99.1832 167.455 99.1832 168.932H94.2116ZM106.382 165.273H104.518V163.182H103.178V165.273H101.859V166.409H103.178V171.864C103.178 173.386 104.405 174.114 105.541 174.114C106.041 174.114 106.359 174.023 106.541 173.955L106.268 172.75C106.155 172.773 105.973 172.818 105.678 172.818C105.087 172.818 104.518 172.636 104.518 171.5V166.409H106.382V165.273ZM108.399 174H109.74V165.273H108.399V174ZM109.081 163.818C109.604 163.818 110.036 163.409 110.036 162.909C110.036 162.409 109.604 162 109.081 162C108.558 162 108.126 162.409 108.126 162.909C108.126 163.409 108.558 163.818 109.081 163.818ZM113.537 168.75C113.537 167.227 114.48 166.364 115.764 166.364C117.009 166.364 117.764 167.176 117.764 168.545V174H119.105V168.455C119.105 166.227 117.918 165.159 116.151 165.159C114.832 165.159 114.014 165.75 113.605 166.636H113.491V165.273H112.196V174H113.537V168.75ZM125.078 177.455C127.169 177.455 128.851 176.5 128.851 174.25V165.273H127.555V166.659H127.419C127.124 166.205 126.578 165.159 124.874 165.159C122.669 165.159 121.146 166.909 121.146 169.591C121.146 172.318 122.737 173.864 124.851 173.864C126.555 173.864 127.101 172.864 127.396 172.386H127.51V174.159C127.51 175.614 126.487 176.273 125.078 176.273C123.493 176.273 122.936 175.438 122.578 174.955L121.51 175.705C122.055 176.619 123.129 177.455 125.078 177.455ZM125.033 172.659C123.351 172.659 122.487 171.386 122.487 169.568C122.487 167.795 123.328 166.364 125.033 166.364C126.669 166.364 127.533 167.682 127.533 169.568C127.533 171.5 126.646 172.659 125.033 172.659ZM137.487 167.227C137.067 165.989 136.124 165.159 134.396 165.159C132.555 165.159 131.192 166.205 131.192 167.682C131.192 168.886 131.908 169.693 133.51 170.068L134.964 170.409C135.845 170.614 136.26 171.034 136.26 171.636C136.26 172.386 135.464 173 134.214 173C133.118 173 132.43 172.528 132.192 171.591L130.919 171.909C131.232 173.392 132.453 174.182 134.237 174.182C136.266 174.182 137.646 173.074 137.646 171.568C137.646 170.352 136.885 169.585 135.328 169.205L134.033 168.886C132.999 168.631 132.533 168.284 132.533 167.614C132.533 166.864 133.328 166.318 134.396 166.318C135.567 166.318 136.05 166.966 136.283 167.568L137.487 167.227ZM147.96 165.273H146.097V163.182H144.756V165.273H143.438V166.409H144.756V171.864C144.756 173.386 145.983 174.114 147.119 174.114C147.619 174.114 147.938 174.023 148.119 173.955L147.847 172.75C147.733 172.773 147.551 172.818 147.256 172.818C146.665 172.818 146.097 172.636 146.097 171.5V166.409H147.96V165.273ZM153.429 174.182C155.793 174.182 157.384 172.386 157.384 169.682C157.384 166.955 155.793 165.159 153.429 165.159C151.065 165.159 149.474 166.955 149.474 169.682C149.474 172.386 151.065 174.182 153.429 174.182ZM153.429 172.977C151.634 172.977 150.815 171.432 150.815 169.682C150.815 167.932 151.634 166.364 153.429 166.364C155.224 166.364 156.043 167.932 156.043 169.682C156.043 171.432 155.224 172.977 153.429 172.977ZM162.953 177.455C165.044 177.455 166.726 176.5 166.726 174.25V165.273H165.43V166.659H165.294C164.999 166.205 164.453 165.159 162.749 165.159C160.544 165.159 159.021 166.909 159.021 169.591C159.021 172.318 160.612 173.864 162.726 173.864C164.43 173.864 164.976 172.864 165.271 172.386H165.385V174.159C165.385 175.614 164.362 176.273 162.953 176.273C161.368 176.273 160.811 175.438 160.453 174.955L159.385 175.705C159.93 176.619 161.004 177.455 162.953 177.455ZM162.908 172.659C161.226 172.659 160.362 171.386 160.362 169.568C160.362 167.795 161.203 166.364 162.908 166.364C164.544 166.364 165.408 167.682 165.408 169.568C165.408 171.5 164.521 172.659 162.908 172.659ZM172.839 174.182C174.612 174.182 175.908 173.295 176.317 171.977L175.021 171.614C174.68 172.523 173.891 172.977 172.839 172.977C171.266 172.977 170.18 171.96 170.118 170.091H176.453V169.523C176.453 166.273 174.521 165.159 172.703 165.159C170.339 165.159 168.771 167.023 168.771 169.705C168.771 172.386 170.317 174.182 172.839 174.182ZM170.118 168.932C170.209 167.574 171.169 166.364 172.703 166.364C174.158 166.364 175.089 167.455 175.089 168.932H170.118ZM182.288 165.273H180.425V163.182H179.084V165.273H177.766V166.409H179.084V171.864C179.084 173.386 180.311 174.114 181.447 174.114C181.947 174.114 182.266 174.023 182.447 173.955L182.175 172.75C182.061 172.773 181.879 172.818 181.584 172.818C180.993 172.818 180.425 172.636 180.425 171.5V166.409H182.288V165.273ZM185.834 168.75C185.834 167.227 186.805 166.364 188.129 166.364C189.391 166.364 190.152 167.159 190.152 168.545V174H191.493V168.455C191.493 166.21 190.3 165.159 188.516 165.159C187.141 165.159 186.357 165.733 185.947 166.636H185.834V162.364H184.493V174H185.834V168.75ZM197.605 174.182C199.378 174.182 200.673 173.295 201.082 171.977L199.787 171.614C199.446 172.523 198.656 172.977 197.605 172.977C196.031 172.977 194.946 171.96 194.884 170.091H201.219V169.523C201.219 166.273 199.287 165.159 197.469 165.159C195.105 165.159 193.537 167.023 193.537 169.705C193.537 172.386 195.082 174.182 197.605 174.182ZM194.884 168.932C194.974 167.574 195.935 166.364 197.469 166.364C198.923 166.364 199.855 167.455 199.855 168.932H194.884ZM203.259 174H204.599V168.477C204.599 167.295 205.531 166.432 206.804 166.432C207.162 166.432 207.531 166.5 207.622 166.523V165.159C207.469 165.148 207.116 165.136 206.918 165.136C205.872 165.136 204.963 165.727 204.645 166.591H204.554V165.273H203.259V174ZM216.28 174.205C217.803 174.205 218.598 173.386 218.871 172.818H218.939V174H220.28V168.25C220.28 165.477 218.166 165.159 217.053 165.159C215.734 165.159 214.234 165.614 213.553 167.205L214.825 167.659C215.121 167.023 215.82 166.341 217.098 166.341C218.331 166.341 218.939 166.994 218.939 168.114V168.159C218.939 168.807 218.28 168.75 216.689 168.955C215.07 169.165 213.303 169.523 213.303 171.523C213.303 173.227 214.621 174.205 216.28 174.205ZM216.484 173C215.416 173 214.643 172.523 214.643 171.591C214.643 170.568 215.575 170.25 216.621 170.114C217.189 170.045 218.712 169.886 218.939 169.614V170.841C218.939 171.932 218.075 173 216.484 173ZM224.068 168.75C224.068 167.227 225.011 166.364 226.295 166.364C227.54 166.364 228.295 167.176 228.295 168.545V174H229.636V168.455C229.636 166.227 228.449 165.159 226.682 165.159C225.364 165.159 224.545 165.75 224.136 166.636H224.023V165.273H222.727V174H224.068V168.75ZM235.382 174.182C237.064 174.182 237.632 173.136 237.928 172.659H238.087V174H239.382V162.364H238.041V166.659H237.928C237.632 166.205 237.109 165.159 235.405 165.159C233.2 165.159 231.678 166.909 231.678 169.659C231.678 172.432 233.2 174.182 235.382 174.182ZM235.564 172.977C233.882 172.977 233.018 171.5 233.018 169.636C233.018 167.795 233.859 166.364 235.564 166.364C237.2 166.364 238.064 167.682 238.064 169.636C238.064 171.614 237.178 172.977 235.564 172.977ZM250.047 177.455C252.138 177.455 253.82 176.5 253.82 174.25V165.273H252.524V166.659H252.388C252.092 166.205 251.547 165.159 249.842 165.159C247.638 165.159 246.115 166.909 246.115 169.591C246.115 172.318 247.706 173.864 249.82 173.864C251.524 173.864 252.07 172.864 252.365 172.386H252.479V174.159C252.479 175.614 251.456 176.273 250.047 176.273C248.462 176.273 247.905 175.438 247.547 174.955L246.479 175.705C247.024 176.619 248.098 177.455 250.047 177.455ZM250.001 172.659C248.32 172.659 247.456 171.386 247.456 169.568C247.456 167.795 248.297 166.364 250.001 166.364C251.638 166.364 252.501 167.682 252.501 169.568C252.501 171.5 251.615 172.659 250.001 172.659ZM256.274 174H257.615V165.273H256.274V174ZM256.956 163.818C257.479 163.818 257.911 163.409 257.911 162.909C257.911 162.409 257.479 162 256.956 162C256.433 162 256.001 162.409 256.001 162.909C256.001 163.409 256.433 163.818 256.956 163.818ZM267.207 165.273H265.753L263.344 172.227H263.253L260.844 165.273H259.389L262.616 174H263.98L267.207 165.273ZM272.324 174.182C274.097 174.182 275.392 173.295 275.801 171.977L274.506 171.614C274.165 172.523 273.375 172.977 272.324 172.977C270.75 172.977 269.665 171.96 269.602 170.091H275.938V169.523C275.938 166.273 274.006 165.159 272.188 165.159C269.824 165.159 268.256 167.023 268.256 169.705C268.256 172.386 269.801 174.182 272.324 174.182ZM269.602 168.932C269.693 167.574 270.653 166.364 272.188 166.364C273.642 166.364 274.574 167.455 274.574 168.932H269.602ZM285.045 174.205C286.568 174.205 287.364 173.386 287.636 172.818H287.705V174H289.045V168.25C289.045 165.477 286.932 165.159 285.818 165.159C284.5 165.159 283 165.614 282.318 167.205L283.591 167.659C283.886 167.023 284.585 166.341 285.864 166.341C287.097 166.341 287.705 166.994 287.705 168.114V168.159C287.705 168.807 287.045 168.75 285.455 168.955C283.835 169.165 282.068 169.523 282.068 171.523C282.068 173.227 283.386 174.205 285.045 174.205ZM285.25 173C284.182 173 283.409 172.523 283.409 171.591C283.409 170.568 284.341 170.25 285.386 170.114C285.955 170.045 287.477 169.886 287.705 169.614V170.841C287.705 171.932 286.841 173 285.25 173ZM302.175 167.227C301.754 165.989 300.811 165.159 299.084 165.159C297.243 165.159 295.879 166.205 295.879 167.682C295.879 168.886 296.595 169.693 298.197 170.068L299.652 170.409C300.533 170.614 300.947 171.034 300.947 171.636C300.947 172.386 300.152 173 298.902 173C297.805 173 297.118 172.528 296.879 171.591L295.607 171.909C295.919 173.392 297.141 174.182 298.925 174.182C300.953 174.182 302.334 173.074 302.334 171.568C302.334 170.352 301.572 169.585 300.016 169.205L298.72 168.886C297.686 168.631 297.22 168.284 297.22 167.614C297.22 166.864 298.016 166.318 299.084 166.318C300.254 166.318 300.737 166.966 300.97 167.568L302.175 167.227ZM308.148 165.273H306.284V163.182H304.943V165.273H303.625V166.409H304.943V171.864C304.943 173.386 306.17 174.114 307.307 174.114C307.807 174.114 308.125 174.023 308.307 173.955L308.034 172.75C307.92 172.773 307.739 172.818 307.443 172.818C306.852 172.818 306.284 172.636 306.284 171.5V166.409H308.148V165.273ZM312.733 174.205C314.256 174.205 315.051 173.386 315.324 172.818H315.392V174H316.733V168.25C316.733 165.477 314.619 165.159 313.506 165.159C312.188 165.159 310.688 165.614 310.006 167.205L311.278 167.659C311.574 167.023 312.273 166.341 313.551 166.341C314.784 166.341 315.392 166.994 315.392 168.114V168.159C315.392 168.807 314.733 168.75 313.142 168.955C311.523 169.165 309.756 169.523 309.756 171.523C309.756 173.227 311.074 174.205 312.733 174.205ZM312.938 173C311.869 173 311.097 172.523 311.097 171.591C311.097 170.568 312.028 170.25 313.074 170.114C313.642 170.045 315.165 169.886 315.392 169.614V170.841C315.392 171.932 314.528 173 312.938 173ZM319.18 174H320.521V170.733L321.459 169.864L324.726 174H326.43L322.47 169L326.158 165.273H324.499L320.68 169.159H320.521V162.364H319.18V174ZM331.183 174.182C332.956 174.182 334.251 173.295 334.661 171.977L333.365 171.614C333.024 172.523 332.234 172.977 331.183 172.977C329.609 172.977 328.524 171.96 328.462 170.091H334.797V169.523C334.797 166.273 332.865 165.159 331.047 165.159C328.683 165.159 327.115 167.023 327.115 169.705C327.115 172.386 328.661 174.182 331.183 174.182ZM328.462 168.932C328.553 167.574 329.513 166.364 331.047 166.364C332.501 166.364 333.433 167.455 333.433 168.932H328.462ZM36.8864 198.182C38.6591 198.182 39.9545 197.295 40.3636 195.977L39.0682 195.614C38.7273 196.523 37.9375 196.977 36.8864 196.977C35.3125 196.977 34.2273 195.96 34.1648 194.091H40.5V193.523C40.5 190.273 38.5682 189.159 36.75 189.159C34.3864 189.159 32.8182 191.023 32.8182 193.705C32.8182 196.386 34.3636 198.182 36.8864 198.182ZM34.1648 192.932C34.2557 191.574 35.2159 190.364 36.75 190.364C38.2045 190.364 39.1364 191.455 39.1364 192.932H34.1648ZM42.5398 198H43.8807V192.545C43.8807 191.267 44.8125 190.364 45.858 190.364C46.875 190.364 47.5852 191.028 47.5852 192.023V198H48.9489V192.318C48.9489 191.193 49.6534 190.364 50.8807 190.364C51.8352 190.364 52.6534 190.869 52.6534 192.159V198H53.9943V192.159C53.9943 190.108 52.892 189.159 51.3352 189.159C50.0852 189.159 49.1705 189.733 48.7216 190.636H48.6307C48.1989 189.705 47.4375 189.159 46.2898 189.159C45.1534 189.159 44.3125 189.705 43.9489 190.636H43.8352V189.273H42.5398V198ZM56.446 201.273H57.7869V196.659H57.9006C58.196 197.136 58.7642 198.182 60.446 198.182C62.6278 198.182 64.1506 196.432 64.1506 193.659C64.1506 190.909 62.6278 189.159 60.4233 189.159C58.7188 189.159 58.196 190.205 57.9006 190.659H57.7415V189.273H56.446V201.273ZM57.7642 193.636C57.7642 191.682 58.6278 190.364 60.2642 190.364C61.9688 190.364 62.8097 191.795 62.8097 193.636C62.8097 195.5 61.946 196.977 60.2642 196.977C58.6506 196.977 57.7642 195.614 57.7642 193.636ZM67.5369 186.364H66.196V198H67.5369V186.364ZM73.5384 198.182C75.902 198.182 77.4929 196.386 77.4929 193.682C77.4929 190.955 75.902 189.159 73.5384 189.159C71.1747 189.159 69.5838 190.955 69.5838 193.682C69.5838 196.386 71.1747 198.182 73.5384 198.182ZM73.5384 196.977C71.7429 196.977 70.9247 195.432 70.9247 193.682C70.9247 191.932 71.7429 190.364 73.5384 190.364C75.3338 190.364 76.152 191.932 76.152 193.682C76.152 195.432 75.3338 196.977 73.5384 196.977ZM80.0909 201.273C81.3011 201.273 82.1534 200.631 82.6591 199.273L86.375 189.295L84.9091 189.273L82.5 196.227H82.4091L80 189.273H78.5455L81.7727 198.045L81.5227 198.727C81.0341 200.057 80.4318 200.182 79.4545 199.932L79.1136 201.114C79.25 201.182 79.6364 201.273 80.0909 201.273ZM91.4957 198.182C93.2685 198.182 94.5639 197.295 94.973 195.977L93.6776 195.614C93.3366 196.523 92.5469 196.977 91.4957 196.977C89.9219 196.977 88.8366 195.96 88.7741 194.091H95.1094V193.523C95.1094 190.273 93.1776 189.159 91.3594 189.159C88.9957 189.159 87.4276 191.023 87.4276 193.705C87.4276 196.386 88.973 198.182 91.4957 198.182ZM88.7741 192.932C88.8651 191.574 89.8253 190.364 91.3594 190.364C92.8139 190.364 93.7457 191.455 93.7457 192.932H88.7741ZM100.808 198.182C102.581 198.182 103.876 197.295 104.286 195.977L102.99 195.614C102.649 196.523 101.859 196.977 100.808 196.977C99.2344 196.977 98.1491 195.96 98.0866 194.091H104.422V193.523C104.422 190.273 102.49 189.159 100.672 189.159C98.3082 189.159 96.7401 191.023 96.7401 193.705C96.7401 196.386 98.2855 198.182 100.808 198.182ZM98.0866 192.932C98.1776 191.574 99.1378 190.364 100.672 190.364C102.126 190.364 103.058 191.455 103.058 192.932H98.0866ZM112.643 191.227C112.223 189.989 111.28 189.159 109.553 189.159C107.712 189.159 106.348 190.205 106.348 191.682C106.348 192.886 107.064 193.693 108.666 194.068L110.121 194.409C111.001 194.614 111.416 195.034 111.416 195.636C111.416 196.386 110.621 197 109.371 197C108.274 197 107.587 196.528 107.348 195.591L106.075 195.909C106.388 197.392 107.609 198.182 109.393 198.182C111.422 198.182 112.803 197.074 112.803 195.568C112.803 194.352 112.041 193.585 110.484 193.205L109.189 192.886C108.155 192.631 107.689 192.284 107.689 191.614C107.689 190.864 108.484 190.318 109.553 190.318C110.723 190.318 111.206 190.966 111.439 191.568L112.643 191.227ZM121.889 198.205C123.412 198.205 124.207 197.386 124.48 196.818H124.548V198H125.889V192.25C125.889 189.477 123.776 189.159 122.662 189.159C121.344 189.159 119.844 189.614 119.162 191.205L120.435 191.659C120.73 191.023 121.429 190.341 122.707 190.341C123.94 190.341 124.548 190.994 124.548 192.114V192.159C124.548 192.807 123.889 192.75 122.298 192.955C120.679 193.165 118.912 193.523 118.912 195.523C118.912 197.227 120.23 198.205 121.889 198.205ZM122.094 197C121.026 197 120.253 196.523 120.253 195.591C120.253 194.568 121.185 194.25 122.23 194.114C122.798 194.045 124.321 193.886 124.548 193.614V194.841C124.548 195.932 123.685 197 122.094 197ZM129.678 192.75C129.678 191.227 130.621 190.364 131.905 190.364C133.149 190.364 133.905 191.176 133.905 192.545V198H135.246V192.455C135.246 190.227 134.058 189.159 132.291 189.159C130.973 189.159 130.155 189.75 129.746 190.636H129.632V189.273H128.337V198H129.678V192.75ZM140.991 198.182C142.673 198.182 143.241 197.136 143.537 196.659H143.696V198H144.991V186.364H143.651V190.659H143.537C143.241 190.205 142.719 189.159 141.014 189.159C138.81 189.159 137.287 190.909 137.287 193.659C137.287 196.432 138.81 198.182 140.991 198.182ZM141.173 196.977C139.491 196.977 138.628 195.5 138.628 193.636C138.628 191.795 139.469 190.364 141.173 190.364C142.81 190.364 143.673 191.682 143.673 193.636C143.673 195.614 142.787 196.977 141.173 196.977ZM155.929 189.273H154.065V187.182H152.724V189.273H151.406V190.409H152.724V195.864C152.724 197.386 153.952 198.114 155.088 198.114C155.588 198.114 155.906 198.023 156.088 197.955L155.815 196.75C155.702 196.773 155.52 196.818 155.224 196.818C154.634 196.818 154.065 196.636 154.065 195.5V190.409H155.929V189.273ZM161.511 198.182C163.284 198.182 164.58 197.295 164.989 195.977L163.693 195.614C163.352 196.523 162.562 196.977 161.511 196.977C159.938 196.977 158.852 195.96 158.79 194.091H165.125V193.523C165.125 190.273 163.193 189.159 161.375 189.159C159.011 189.159 157.443 191.023 157.443 193.705C157.443 196.386 158.989 198.182 161.511 198.182ZM158.79 192.932C158.881 191.574 159.841 190.364 161.375 190.364C162.83 190.364 163.761 191.455 163.761 192.932H158.79ZM169.733 198.205C171.256 198.205 172.051 197.386 172.324 196.818H172.392V198H173.733V192.25C173.733 189.477 171.619 189.159 170.506 189.159C169.188 189.159 167.688 189.614 167.006 191.205L168.278 191.659C168.574 191.023 169.273 190.341 170.551 190.341C171.784 190.341 172.392 190.994 172.392 192.114V192.159C172.392 192.807 171.733 192.75 170.142 192.955C168.523 193.165 166.756 193.523 166.756 195.523C166.756 197.227 168.074 198.205 169.733 198.205ZM169.938 197C168.869 197 168.097 196.523 168.097 195.591C168.097 194.568 169.028 194.25 170.074 194.114C170.642 194.045 172.165 193.886 172.392 193.614V194.841C172.392 195.932 171.528 197 169.938 197ZM176.18 198H177.521V192.545C177.521 191.267 178.453 190.364 179.499 190.364C180.516 190.364 181.226 191.028 181.226 192.023V198H182.589V192.318C182.589 191.193 183.294 190.364 184.521 190.364C185.476 190.364 186.294 190.869 186.294 192.159V198H187.635V192.159C187.635 190.108 186.533 189.159 184.976 189.159C183.726 189.159 182.811 189.733 182.362 190.636H182.271C181.839 189.705 181.078 189.159 179.93 189.159C178.794 189.159 177.953 189.705 177.589 190.636H177.476V189.273H176.18V198ZM196.268 191.227C195.848 189.989 194.905 189.159 193.178 189.159C191.337 189.159 189.973 190.205 189.973 191.682C189.973 192.886 190.689 193.693 192.291 194.068L193.746 194.409C194.626 194.614 195.041 195.034 195.041 195.636C195.041 196.386 194.246 197 192.996 197C191.899 197 191.212 196.528 190.973 195.591L189.7 195.909C190.013 197.392 191.234 198.182 193.018 198.182C195.047 198.182 196.428 197.074 196.428 195.568C196.428 194.352 195.666 193.585 194.109 193.205L192.814 192.886C191.78 192.631 191.314 192.284 191.314 191.614C191.314 190.864 192.109 190.318 193.178 190.318C194.348 190.318 194.831 190.966 195.064 191.568L196.268 191.227ZM199.423 198.091C199.986 198.091 200.446 197.631 200.446 197.068C200.446 196.506 199.986 196.045 199.423 196.045C198.861 196.045 198.401 196.506 198.401 197.068C198.401 197.631 198.861 198.091 199.423 198.091Z" fill="#4E5A65"/>
<line x1="4.37114e-08" y1="229.5" x2="372" y2="229.5" stroke="#F0EBFA"/>
<path d="M32.7159 260.897H36.7621V272H39.1143V260.897H43.1605V258.909H32.7159V260.897ZM44.0522 272H46.3661V266.228C46.3661 264.982 47.3058 264.099 48.5778 264.099C48.9677 264.099 49.4535 264.17 49.6516 264.234V262.105C49.4407 262.067 49.0763 262.041 48.8207 262.041C47.6957 262.041 46.756 262.68 46.3981 263.818H46.2958V262.182H44.0522V272ZM53.8208 272.198C55.3613 272.198 56.2818 271.476 56.7037 270.651H56.7804V272H59.0048V265.429C59.0048 262.834 56.889 262.054 55.0162 262.054C52.9515 262.054 51.3663 262.974 50.8549 264.764L53.0154 265.071C53.2456 264.4 53.8975 263.825 55.0289 263.825C56.1028 263.825 56.6909 264.374 56.6909 265.339V265.378C56.6909 266.043 55.9941 266.075 54.2619 266.26C52.3571 266.464 50.5353 267.033 50.5353 269.245C50.5353 271.175 51.948 272.198 53.8208 272.198ZM54.4217 270.498C53.4565 270.498 52.7662 270.057 52.7662 269.207C52.7662 268.318 53.5396 267.947 54.5751 267.8C55.1824 267.717 56.3968 267.564 56.6973 267.321V268.478C56.6973 269.571 55.8152 270.498 54.4217 270.498ZM65.6142 272.192C68.0815 272.192 69.6539 270.728 69.8201 268.644H67.6085C67.4103 269.699 66.6497 270.306 65.6333 270.306C64.1887 270.306 63.2555 269.098 63.2555 267.091C63.2555 265.109 64.2079 263.92 65.6333 263.92C66.7456 263.92 67.4295 264.636 67.6085 265.582H69.8201C69.6603 263.454 67.9984 262.054 65.6014 262.054C62.725 262.054 60.9096 264.131 60.9096 267.129C60.9096 270.102 62.6802 272.192 65.6142 272.192ZM71.7202 272H74.0341V268.702L74.8778 267.8L77.8821 272H80.6499L76.6229 266.42L80.4261 262.182H77.7223L74.1939 266.126H74.0341V258.909H71.7202V272ZM87.8713 275.682C89.6738 275.682 90.7157 274.755 91.2718 273.189L95.2157 262.195L92.742 262.182L90.4728 269.597H90.3706L88.1078 262.182H85.6532L89.2136 272.205L89.0154 272.735C88.5872 273.854 87.9096 273.93 86.8997 273.636L86.3627 275.439C86.676 275.567 87.2385 275.682 87.8713 275.682ZM100.77 272.192C103.647 272.192 105.475 270.165 105.475 267.129C105.475 264.087 103.647 262.054 100.77 262.054C97.894 262.054 96.0659 264.087 96.0659 267.129C96.0659 270.165 97.894 272.192 100.77 272.192ZM100.783 270.338C99.1916 270.338 98.4118 268.919 98.4118 267.123C98.4118 265.327 99.1916 263.888 100.783 263.888C102.349 263.888 103.129 265.327 103.129 267.123C103.129 268.919 102.349 270.338 100.783 270.338ZM113.697 267.871C113.697 269.366 112.629 270.108 111.607 270.108C110.494 270.108 109.753 269.322 109.753 268.075V262.182H107.439V268.433C107.439 270.792 108.781 272.128 110.712 272.128C112.182 272.128 113.217 271.354 113.665 270.255H113.767V272H116.011V262.182H113.697V267.871ZM118.39 272H120.704V266.228C120.704 264.982 121.644 264.099 122.916 264.099C123.306 264.099 123.791 264.17 123.99 264.234V262.105C123.779 262.067 123.414 262.041 123.159 262.041C122.034 262.041 121.094 262.68 120.736 263.818H120.634V262.182H118.39V272ZM129.992 275.682H132.306V270.453H132.401C132.766 271.169 133.526 272.173 135.214 272.173C137.528 272.173 139.26 270.338 139.26 267.104C139.26 263.831 137.477 262.054 135.208 262.054C133.475 262.054 132.753 263.096 132.401 263.805H132.267V262.182H129.992V275.682ZM132.261 267.091C132.261 265.186 133.079 263.952 134.568 263.952C136.109 263.952 136.901 265.263 136.901 267.091C136.901 268.932 136.096 270.274 134.568 270.274C133.092 270.274 132.261 268.996 132.261 267.091ZM141.242 272H143.556V266.228C143.556 264.982 144.495 264.099 145.767 264.099C146.157 264.099 146.643 264.17 146.841 264.234V262.105C146.63 262.067 146.266 262.041 146.01 262.041C144.885 262.041 143.945 262.68 143.588 263.818H143.485V262.182H141.242V272ZM152.257 272.192C155.133 272.192 156.961 270.165 156.961 267.129C156.961 264.087 155.133 262.054 152.257 262.054C149.38 262.054 147.552 264.087 147.552 267.129C147.552 270.165 149.38 272.192 152.257 272.192ZM152.27 270.338C150.678 270.338 149.898 268.919 149.898 267.123C149.898 265.327 150.678 263.888 152.27 263.888C153.836 263.888 154.615 265.327 154.615 267.123C154.615 268.919 153.836 270.338 152.27 270.338ZM163.195 275.886C165.848 275.886 167.804 274.672 167.804 272.16V262.182H165.522V263.805H165.394C165.042 263.096 164.307 262.054 162.575 262.054C160.306 262.054 158.523 263.831 158.523 267.059C158.523 270.261 160.306 271.859 162.569 271.859C164.25 271.859 165.036 270.958 165.394 270.236H165.509V272.096C165.509 273.54 164.55 274.135 163.233 274.135C161.84 274.135 161.226 273.477 160.945 272.901L158.861 273.406C159.283 274.781 160.696 275.886 163.195 275.886ZM163.214 270.044C161.687 270.044 160.881 268.855 160.881 267.046C160.881 265.263 161.674 263.952 163.214 263.952C164.704 263.952 165.522 265.186 165.522 267.046C165.522 268.919 164.691 270.044 163.214 270.044ZM170.175 272H172.489V266.228C172.489 264.982 173.429 264.099 174.701 264.099C175.091 264.099 175.577 264.17 175.775 264.234V262.105C175.564 262.067 175.199 262.041 174.944 262.041C173.819 262.041 172.879 262.68 172.521 263.818H172.419V262.182H170.175V272ZM181.254 272.192C183.543 272.192 185.115 271.073 185.524 269.366L183.364 269.124C183.05 269.955 182.283 270.389 181.286 270.389C179.79 270.389 178.8 269.405 178.781 267.724H185.62V267.014C185.62 263.569 183.549 262.054 181.133 262.054C178.32 262.054 176.486 264.119 176.486 267.148C176.486 270.229 178.295 272.192 181.254 272.192ZM178.787 266.164C178.857 264.911 179.784 263.857 181.165 263.857C182.494 263.857 183.389 264.828 183.402 266.164H178.787ZM195.338 264.777C195.018 263.115 193.688 262.054 191.387 262.054C189.022 262.054 187.411 263.217 187.418 265.033C187.411 266.464 188.294 267.411 190.179 267.8L191.854 268.152C192.755 268.35 193.177 268.714 193.177 269.271C193.177 269.942 192.448 270.447 191.349 270.447C190.288 270.447 189.597 269.987 189.399 269.104L187.143 269.322C187.431 271.124 188.945 272.192 191.355 272.192C193.81 272.192 195.542 270.92 195.548 269.06C195.542 267.66 194.641 266.803 192.787 266.401L191.112 266.043C190.115 265.819 189.719 265.474 189.725 264.905C189.719 264.24 190.454 263.78 191.419 263.78C192.487 263.78 193.049 264.362 193.228 265.007L195.338 264.777ZM205.216 264.777C204.897 263.115 203.567 262.054 201.266 262.054C198.901 262.054 197.29 263.217 197.297 265.033C197.29 266.464 198.172 267.411 200.058 267.8L201.733 268.152C202.634 268.35 203.056 268.714 203.056 269.271C203.056 269.942 202.327 270.447 201.228 270.447C200.167 270.447 199.476 269.987 199.278 269.104L197.022 269.322C197.309 271.124 198.824 272.192 201.234 272.192C203.689 272.192 205.421 270.92 205.427 269.06C205.421 267.66 204.52 266.803 202.666 266.401L200.991 266.043C199.994 265.819 199.598 265.474 199.604 264.905C199.598 264.24 200.333 263.78 201.298 263.78C202.366 263.78 202.928 264.362 203.107 265.007L205.216 264.777Z" fill="#35414B"/>
<path d="M33.4091 302H40.5227V300.75H34.8182V296.795H40.0682V295.545H34.8182V291.614H40.4318V290.364H33.4091V302ZM45.358 302.205C46.8807 302.205 47.6761 301.386 47.9489 300.818H48.017V302H49.358V296.25C49.358 293.477 47.2443 293.159 46.1307 293.159C44.8125 293.159 43.3125 293.614 42.6307 295.205L43.9034 295.659C44.1989 295.023 44.8977 294.341 46.1761 294.341C47.4091 294.341 48.017 294.994 48.017 296.114V296.159C48.017 296.807 47.358 296.75 45.767 296.955C44.1477 297.165 42.3807 297.523 42.3807 299.523C42.3807 301.227 43.6989 302.205 45.358 302.205ZM45.5625 301C44.4943 301 43.7216 300.523 43.7216 299.591C43.7216 298.568 44.6534 298.25 45.6989 298.114C46.267 298.045 47.7898 297.886 48.017 297.614V298.841C48.017 299.932 47.1534 301 45.5625 301ZM57.9872 295.227C57.5668 293.989 56.6236 293.159 54.8963 293.159C53.0554 293.159 51.6918 294.205 51.6918 295.682C51.6918 296.886 52.4077 297.693 54.0099 298.068L55.4645 298.409C56.3452 298.614 56.7599 299.034 56.7599 299.636C56.7599 300.386 55.9645 301 54.7145 301C53.6179 301 52.9304 300.528 52.6918 299.591L51.419 299.909C51.7315 301.392 52.9531 302.182 54.7372 302.182C56.7656 302.182 58.1463 301.074 58.1463 299.568C58.1463 298.352 57.3849 297.585 55.8281 297.205L54.5327 296.886C53.4986 296.631 53.0327 296.284 53.0327 295.614C53.0327 294.864 53.8281 294.318 54.8963 294.318C56.0668 294.318 56.5497 294.966 56.7827 295.568L57.9872 295.227ZM61.0284 305.273C62.2386 305.273 63.0909 304.631 63.5966 303.273L67.3125 293.295L65.8466 293.273L63.4375 300.227H63.3466L60.9375 293.273H59.483L62.7102 302.045L62.4602 302.727C61.9716 304.057 61.3693 304.182 60.392 303.932L60.0511 305.114C60.1875 305.182 60.5739 305.273 61.0284 305.273ZM74.0866 296.386H68.9957V297.636H74.0866V296.386ZM80.2415 293.273H78.3778V291.182H77.0369V293.273H75.7188V294.409H77.0369V299.864C77.0369 301.386 78.2642 302.114 79.4006 302.114C79.9006 302.114 80.2188 302.023 80.4006 301.955L80.1278 300.75C80.0142 300.773 79.8324 300.818 79.5369 300.818C78.946 300.818 78.3778 300.636 78.3778 299.5V294.409H80.2415V293.273ZM85.7102 302.182C88.0739 302.182 89.6648 300.386 89.6648 297.682C89.6648 294.955 88.0739 293.159 85.7102 293.159C83.3466 293.159 81.7557 294.955 81.7557 297.682C81.7557 300.386 83.3466 302.182 85.7102 302.182ZM85.7102 300.977C83.9148 300.977 83.0966 299.432 83.0966 297.682C83.0966 295.932 83.9148 294.364 85.7102 294.364C87.5057 294.364 88.3239 295.932 88.3239 297.682C88.3239 299.432 87.5057 300.977 85.7102 300.977ZM96.7116 296.386H91.6207V297.636H96.7116V296.386ZM99.071 302H100.412V296.477C100.412 295.295 101.344 294.432 102.616 294.432C102.974 294.432 103.344 294.5 103.435 294.523V293.159C103.281 293.148 102.929 293.136 102.73 293.136C101.685 293.136 100.776 293.727 100.457 294.591H100.366V293.273H99.071V302ZM108.418 302.182C110.19 302.182 111.486 301.295 111.895 299.977L110.599 299.614C110.259 300.523 109.469 300.977 108.418 300.977C106.844 300.977 105.759 299.96 105.696 298.091H112.031V297.523C112.031 294.273 110.099 293.159 108.281 293.159C105.918 293.159 104.349 295.023 104.349 297.705C104.349 300.386 105.895 302.182 108.418 302.182ZM105.696 296.932C105.787 295.574 106.747 294.364 108.281 294.364C109.736 294.364 110.668 295.455 110.668 296.932H105.696ZM116.639 302.205C118.162 302.205 118.957 301.386 119.23 300.818H119.298V302H120.639V296.25C120.639 293.477 118.526 293.159 117.412 293.159C116.094 293.159 114.594 293.614 113.912 295.205L115.185 295.659C115.48 295.023 116.179 294.341 117.457 294.341C118.69 294.341 119.298 294.994 119.298 296.114V296.159C119.298 296.807 118.639 296.75 117.048 296.955C115.429 297.165 113.662 297.523 113.662 299.523C113.662 301.227 114.98 302.205 116.639 302.205ZM116.844 301C115.776 301 115.003 300.523 115.003 299.591C115.003 298.568 115.935 298.25 116.98 298.114C117.548 298.045 119.071 297.886 119.298 297.614V298.841C119.298 299.932 118.435 301 116.844 301ZM126.382 302.182C128.064 302.182 128.632 301.136 128.928 300.659H129.087V302H130.382V290.364H129.041V294.659H128.928C128.632 294.205 128.109 293.159 126.405 293.159C124.2 293.159 122.678 294.909 122.678 297.659C122.678 300.432 124.2 302.182 126.382 302.182ZM126.564 300.977C124.882 300.977 124.018 299.5 124.018 297.636C124.018 295.795 124.859 294.364 126.564 294.364C128.2 294.364 129.064 295.682 129.064 297.636C129.064 299.614 128.178 300.977 126.564 300.977ZM137.524 302H138.865V296.477C138.865 295.295 139.797 294.432 141.07 294.432C141.428 294.432 141.797 294.5 141.888 294.523V293.159C141.734 293.148 141.382 293.136 141.183 293.136C140.138 293.136 139.229 293.727 138.911 294.591H138.82V293.273H137.524V302ZM146.871 302.182C148.643 302.182 149.939 301.295 150.348 299.977L149.053 299.614C148.712 300.523 147.922 300.977 146.871 300.977C145.297 300.977 144.212 299.96 144.149 298.091H150.484V297.523C150.484 294.273 148.553 293.159 146.734 293.159C144.371 293.159 142.803 295.023 142.803 297.705C142.803 300.386 144.348 302.182 146.871 302.182ZM144.149 296.932C144.24 295.574 145.2 294.364 146.734 294.364C148.189 294.364 149.121 295.455 149.121 296.932H144.149ZM152.524 305.273H153.865V300.659H153.979C154.274 301.136 154.842 302.182 156.524 302.182C158.706 302.182 160.229 300.432 160.229 297.659C160.229 294.909 158.706 293.159 156.501 293.159C154.797 293.159 154.274 294.205 153.979 294.659H153.82V293.273H152.524V305.273ZM153.842 297.636C153.842 295.682 154.706 294.364 156.342 294.364C158.047 294.364 158.888 295.795 158.888 297.636C158.888 299.5 158.024 300.977 156.342 300.977C154.729 300.977 153.842 299.614 153.842 297.636ZM165.82 302.182C168.183 302.182 169.774 300.386 169.774 297.682C169.774 294.955 168.183 293.159 165.82 293.159C163.456 293.159 161.865 294.955 161.865 297.682C161.865 300.386 163.456 302.182 165.82 302.182ZM165.82 300.977C164.024 300.977 163.206 299.432 163.206 297.682C163.206 295.932 164.024 294.364 165.82 294.364C167.615 294.364 168.433 295.932 168.433 297.682C168.433 299.432 167.615 300.977 165.82 300.977ZM171.821 302H173.162V296.477C173.162 295.295 174.094 294.432 175.366 294.432C175.724 294.432 176.094 294.5 176.185 294.523V293.159C176.031 293.148 175.679 293.136 175.48 293.136C174.435 293.136 173.526 293.727 173.207 294.591H173.116V293.273H171.821V302ZM182.116 293.273H180.253V291.182H178.912V293.273H177.594V294.409H178.912V299.864C178.912 301.386 180.139 302.114 181.276 302.114C181.776 302.114 182.094 302.023 182.276 301.955L182.003 300.75C181.889 300.773 181.707 300.818 181.412 300.818C180.821 300.818 180.253 300.636 180.253 299.5V294.409H182.116V293.273ZM190.159 295.227C189.739 293.989 188.795 293.159 187.068 293.159C185.227 293.159 183.864 294.205 183.864 295.682C183.864 296.886 184.58 297.693 186.182 298.068L187.636 298.409C188.517 298.614 188.932 299.034 188.932 299.636C188.932 300.386 188.136 301 186.886 301C185.79 301 185.102 300.528 184.864 299.591L183.591 299.909C183.903 301.392 185.125 302.182 186.909 302.182C188.938 302.182 190.318 301.074 190.318 299.568C190.318 298.352 189.557 297.585 188 297.205L186.705 296.886C185.67 296.631 185.205 296.284 185.205 295.614C185.205 294.864 186 294.318 187.068 294.318C188.239 294.318 188.722 294.966 188.955 295.568L190.159 295.227ZM199.405 302.205C200.928 302.205 201.723 301.386 201.996 300.818H202.064V302H203.405V296.25C203.405 293.477 201.291 293.159 200.178 293.159C198.859 293.159 197.359 293.614 196.678 295.205L197.95 295.659C198.246 295.023 198.945 294.341 200.223 294.341C201.456 294.341 202.064 294.994 202.064 296.114V296.159C202.064 296.807 201.405 296.75 199.814 296.955C198.195 297.165 196.428 297.523 196.428 299.523C196.428 301.227 197.746 302.205 199.405 302.205ZM199.609 301C198.541 301 197.768 300.523 197.768 299.591C197.768 298.568 198.7 298.25 199.746 298.114C200.314 298.045 201.837 297.886 202.064 297.614V298.841C202.064 299.932 201.2 301 199.609 301ZM207.193 296.75C207.193 295.227 208.136 294.364 209.42 294.364C210.665 294.364 211.42 295.176 211.42 296.545V302H212.761V296.455C212.761 294.227 211.574 293.159 209.807 293.159C208.489 293.159 207.67 293.75 207.261 294.636H207.148V293.273H205.852V302H207.193V296.75ZM218.507 302.182C220.189 302.182 220.757 301.136 221.053 300.659H221.212V302H222.507V290.364H221.166V294.659H221.053C220.757 294.205 220.234 293.159 218.53 293.159C216.325 293.159 214.803 294.909 214.803 297.659C214.803 300.432 216.325 302.182 218.507 302.182ZM218.689 300.977C217.007 300.977 216.143 299.5 216.143 297.636C216.143 295.795 216.984 294.364 218.689 294.364C220.325 294.364 221.189 295.682 221.189 297.636C221.189 299.614 220.303 300.977 218.689 300.977ZM235.831 295.227C235.411 293.989 234.467 293.159 232.74 293.159C230.899 293.159 229.536 294.205 229.536 295.682C229.536 296.886 230.251 297.693 231.854 298.068L233.308 298.409C234.189 298.614 234.604 299.034 234.604 299.636C234.604 300.386 233.808 301 232.558 301C231.462 301 230.774 300.528 230.536 299.591L229.263 299.909C229.575 301.392 230.797 302.182 232.581 302.182C234.609 302.182 235.99 301.074 235.99 299.568C235.99 298.352 235.229 297.585 233.672 297.205L232.376 296.886C231.342 296.631 230.876 296.284 230.876 295.614C230.876 294.864 231.672 294.318 232.74 294.318C233.911 294.318 234.393 294.966 234.626 295.568L235.831 295.227ZM239.349 296.75C239.349 295.227 240.321 294.364 241.645 294.364C242.906 294.364 243.668 295.159 243.668 296.545V302H245.009V296.455C245.009 294.21 243.815 293.159 242.031 293.159C240.656 293.159 239.872 293.733 239.463 294.636H239.349V290.364H238.009V302H239.349V296.75ZM250.03 302.205C251.553 302.205 252.348 301.386 252.621 300.818H252.689V302H254.03V296.25C254.03 293.477 251.916 293.159 250.803 293.159C249.484 293.159 247.984 293.614 247.303 295.205L248.575 295.659C248.871 295.023 249.57 294.341 250.848 294.341C252.081 294.341 252.689 294.994 252.689 296.114V296.159C252.689 296.807 252.03 296.75 250.439 296.955C248.82 297.165 247.053 297.523 247.053 299.523C247.053 301.227 248.371 302.205 250.03 302.205ZM250.234 301C249.166 301 248.393 300.523 248.393 299.591C248.393 298.568 249.325 298.25 250.371 298.114C250.939 298.045 252.462 297.886 252.689 297.614V298.841C252.689 299.932 251.825 301 250.234 301ZM256.477 302H257.818V296.477C257.818 295.295 258.75 294.432 260.023 294.432C260.381 294.432 260.75 294.5 260.841 294.523V293.159C260.688 293.148 260.335 293.136 260.136 293.136C259.091 293.136 258.182 293.727 257.864 294.591H257.773V293.273H256.477V302ZM264.999 302.205C266.521 302.205 267.317 301.386 267.589 300.818H267.658V302H268.999V296.25C268.999 293.477 266.885 293.159 265.771 293.159C264.453 293.159 262.953 293.614 262.271 295.205L263.544 295.659C263.839 295.023 264.538 294.341 265.817 294.341C267.05 294.341 267.658 294.994 267.658 296.114V296.159C267.658 296.807 266.999 296.75 265.408 296.955C263.788 297.165 262.021 297.523 262.021 299.523C262.021 301.227 263.339 302.205 264.999 302.205ZM265.203 301C264.135 301 263.362 300.523 263.362 299.591C263.362 298.568 264.294 298.25 265.339 298.114C265.908 298.045 267.43 297.886 267.658 297.614V298.841C267.658 299.932 266.794 301 265.203 301ZM271.628 302H272.923V300.659H273.082C273.378 301.136 273.946 302.182 275.628 302.182C277.81 302.182 279.332 300.432 279.332 297.659C279.332 294.909 277.81 293.159 275.605 293.159C273.901 293.159 273.378 294.205 273.082 294.659H272.969V290.364H271.628V302ZM272.946 297.636C272.946 295.682 273.81 294.364 275.446 294.364C277.151 294.364 277.991 295.795 277.991 297.636C277.991 299.5 277.128 300.977 275.446 300.977C273.832 300.977 272.946 299.614 272.946 297.636ZM282.724 290.364H281.384V302H282.724V290.364ZM288.839 302.182C290.612 302.182 291.908 301.295 292.317 299.977L291.021 299.614C290.68 300.523 289.891 300.977 288.839 300.977C287.266 300.977 286.18 299.96 286.118 298.091H292.453V297.523C292.453 294.273 290.521 293.159 288.703 293.159C286.339 293.159 284.771 295.023 284.771 297.705C284.771 300.386 286.317 302.182 288.839 302.182ZM286.118 296.932C286.209 295.574 287.169 294.364 288.703 294.364C290.158 294.364 291.089 295.455 291.089 296.932H286.118ZM33.2273 326H34.5682V320.477C34.5682 319.295 35.5 318.432 36.7727 318.432C37.1307 318.432 37.5 318.5 37.5909 318.523V317.159C37.4375 317.148 37.0852 317.136 36.8864 317.136C35.8409 317.136 34.9318 317.727 34.6136 318.591H34.5227V317.273H33.2273V326ZM42.5739 326.182C44.3466 326.182 45.642 325.295 46.0511 323.977L44.7557 323.614C44.4148 324.523 43.625 324.977 42.5739 324.977C41 324.977 39.9148 323.96 39.8523 322.091H46.1875V321.523C46.1875 318.273 44.2557 317.159 42.4375 317.159C40.0739 317.159 38.5057 319.023 38.5057 321.705C38.5057 324.386 40.0511 326.182 42.5739 326.182ZM39.8523 320.932C39.9432 319.574 40.9034 318.364 42.4375 318.364C43.892 318.364 44.8239 319.455 44.8239 320.932H39.8523ZM54.4091 319.227C53.9886 317.989 53.0455 317.159 51.3182 317.159C49.4773 317.159 48.1136 318.205 48.1136 319.682C48.1136 320.886 48.8295 321.693 50.4318 322.068L51.8864 322.409C52.767 322.614 53.1818 323.034 53.1818 323.636C53.1818 324.386 52.3864 325 51.1364 325C50.0398 325 49.3523 324.528 49.1136 323.591L47.8409 323.909C48.1534 325.392 49.375 326.182 51.1591 326.182C53.1875 326.182 54.5682 325.074 54.5682 323.568C54.5682 322.352 53.8068 321.585 52.25 321.205L50.9545 320.886C49.9205 320.631 49.4545 320.284 49.4545 319.614C49.4545 318.864 50.25 318.318 51.3182 318.318C52.4886 318.318 52.9716 318.966 53.2045 319.568L54.4091 319.227ZM62.0866 322.432C62.0866 324.068 60.8366 324.818 59.8366 324.818C58.723 324.818 57.9276 324 57.9276 322.727V317.273H56.5866V322.818C56.5866 325.045 57.7685 326.114 59.4048 326.114C60.723 326.114 61.5866 325.409 61.9957 324.523H62.0866V326H63.4276V317.273H62.0866V322.432ZM67.2244 314.364H65.8835V326H67.2244V314.364ZM73.4759 317.273H71.6122V315.182H70.2713V317.273H68.9531V318.409H70.2713V323.864C70.2713 325.386 71.4986 326.114 72.6349 326.114C73.1349 326.114 73.4531 326.023 73.6349 325.955L73.3622 324.75C73.2486 324.773 73.0668 324.818 72.7713 324.818C72.1804 324.818 71.6122 324.636 71.6122 323.5V318.409H73.4759V317.273ZM81.5185 319.227C81.098 317.989 80.1548 317.159 78.4276 317.159C76.5866 317.159 75.223 318.205 75.223 319.682C75.223 320.886 75.9389 321.693 77.5412 322.068L78.9957 322.409C79.8764 322.614 80.2912 323.034 80.2912 323.636C80.2912 324.386 79.4957 325 78.2457 325C77.1491 325 76.4616 324.528 76.223 323.591L74.9503 323.909C75.2628 325.392 76.4844 326.182 78.2685 326.182C80.2969 326.182 81.6776 325.074 81.6776 323.568C81.6776 322.352 80.9162 321.585 79.3594 321.205L78.0639 320.886C77.0298 320.631 76.5639 320.284 76.5639 319.614C76.5639 318.864 77.3594 318.318 78.4276 318.318C79.598 318.318 80.081 318.966 80.3139 319.568L81.5185 319.227ZM89.5369 320.75C89.5369 319.227 90.5085 318.364 91.8324 318.364C93.0938 318.364 93.8551 319.159 93.8551 320.545V326H95.196V320.455C95.196 318.21 94.0028 317.159 92.2188 317.159C90.8438 317.159 90.0597 317.733 89.6506 318.636H89.5369V314.364H88.196V326H89.5369V320.75ZM101.308 326.182C103.081 326.182 104.376 325.295 104.786 323.977L103.49 323.614C103.149 324.523 102.359 324.977 101.308 324.977C99.7344 324.977 98.6491 323.96 98.5866 322.091H104.922V321.523C104.922 318.273 102.99 317.159 101.172 317.159C98.8082 317.159 97.2401 319.023 97.2401 321.705C97.2401 324.386 98.7855 326.182 101.308 326.182ZM98.5866 320.932C98.6776 319.574 99.6378 318.364 101.172 318.364C102.626 318.364 103.558 319.455 103.558 320.932H98.5866ZM108.303 314.364H106.962V326H108.303V314.364ZM110.759 329.273H112.099V324.659H112.213C112.509 325.136 113.077 326.182 114.759 326.182C116.94 326.182 118.463 324.432 118.463 321.659C118.463 318.909 116.94 317.159 114.736 317.159C113.031 317.159 112.509 318.205 112.213 318.659H112.054V317.273H110.759V329.273ZM112.077 321.636C112.077 319.682 112.94 318.364 114.577 318.364C116.281 318.364 117.122 319.795 117.122 321.636C117.122 323.5 116.259 324.977 114.577 324.977C112.963 324.977 112.077 323.614 112.077 321.636ZM125.009 326H126.349V320.545C126.349 319.267 127.281 318.364 128.327 318.364C129.344 318.364 130.054 319.028 130.054 320.023V326H131.418V320.318C131.418 319.193 132.122 318.364 133.349 318.364C134.304 318.364 135.122 318.869 135.122 320.159V326H136.463V320.159C136.463 318.108 135.361 317.159 133.804 317.159C132.554 317.159 131.639 317.733 131.19 318.636H131.099C130.668 317.705 129.906 317.159 128.759 317.159C127.622 317.159 126.781 317.705 126.418 318.636H126.304V317.273H125.009V326ZM141.483 326.205C143.006 326.205 143.801 325.386 144.074 324.818H144.142V326H145.483V320.25C145.483 317.477 143.369 317.159 142.256 317.159C140.938 317.159 139.438 317.614 138.756 319.205L140.028 319.659C140.324 319.023 141.023 318.341 142.301 318.341C143.534 318.341 144.142 318.994 144.142 320.114V320.159C144.142 320.807 143.483 320.75 141.892 320.955C140.273 321.165 138.506 321.523 138.506 323.523C138.506 325.227 139.824 326.205 141.483 326.205ZM141.688 325C140.619 325 139.847 324.523 139.847 323.591C139.847 322.568 140.778 322.25 141.824 322.114C142.392 322.045 143.915 321.886 144.142 321.614V322.841C144.142 323.932 143.278 325 141.688 325ZM149.271 320.75C149.271 319.227 150.214 318.364 151.499 318.364C152.743 318.364 153.499 319.176 153.499 320.545V326H154.839V320.455C154.839 318.227 153.652 317.159 151.885 317.159C150.567 317.159 149.749 317.75 149.339 318.636H149.226V317.273H147.93V326H149.271V320.75ZM159.858 326.205C161.381 326.205 162.176 325.386 162.449 324.818H162.517V326H163.858V320.25C163.858 317.477 161.744 317.159 160.631 317.159C159.312 317.159 157.812 317.614 157.131 319.205L158.403 319.659C158.699 319.023 159.398 318.341 160.676 318.341C161.909 318.341 162.517 318.994 162.517 320.114V320.159C162.517 320.807 161.858 320.75 160.267 320.955C158.648 321.165 156.881 321.523 156.881 323.523C156.881 325.227 158.199 326.205 159.858 326.205ZM160.062 325C158.994 325 158.222 324.523 158.222 323.591C158.222 322.568 159.153 322.25 160.199 322.114C160.767 322.045 162.29 321.886 162.517 321.614V322.841C162.517 323.932 161.653 325 160.062 325ZM169.828 329.455C171.919 329.455 173.601 328.5 173.601 326.25V317.273H172.305V318.659H172.169C171.874 318.205 171.328 317.159 169.624 317.159C167.419 317.159 165.896 318.909 165.896 321.591C165.896 324.318 167.487 325.864 169.601 325.864C171.305 325.864 171.851 324.864 172.146 324.386H172.26V326.159C172.26 327.614 171.237 328.273 169.828 328.273C168.243 328.273 167.686 327.438 167.328 326.955L166.26 327.705C166.805 328.619 167.879 329.455 169.828 329.455ZM169.783 324.659C168.101 324.659 167.237 323.386 167.237 321.568C167.237 319.795 168.078 318.364 169.783 318.364C171.419 318.364 172.283 319.682 172.283 321.568C172.283 323.5 171.396 324.659 169.783 324.659ZM179.714 326.182C181.487 326.182 182.783 325.295 183.192 323.977L181.896 323.614C181.555 324.523 180.766 324.977 179.714 324.977C178.141 324.977 177.055 323.96 176.993 322.091H183.328V321.523C183.328 318.273 181.396 317.159 179.578 317.159C177.214 317.159 175.646 319.023 175.646 321.705C175.646 324.386 177.192 326.182 179.714 326.182ZM176.993 320.932C177.084 319.574 178.044 318.364 179.578 318.364C181.033 318.364 181.964 319.455 181.964 320.932H176.993ZM185.368 326H186.709V320.477C186.709 319.295 187.641 318.432 188.913 318.432C189.271 318.432 189.641 318.5 189.732 318.523V317.159C189.578 317.148 189.226 317.136 189.027 317.136C187.982 317.136 187.072 317.727 186.754 318.591H186.663V317.273H185.368V326ZM197.503 319.227C197.082 317.989 196.139 317.159 194.412 317.159C192.571 317.159 191.207 318.205 191.207 319.682C191.207 320.886 191.923 321.693 193.526 322.068L194.98 322.409C195.861 322.614 196.276 323.034 196.276 323.636C196.276 324.386 195.48 325 194.23 325C193.134 325 192.446 324.528 192.207 323.591L190.935 323.909C191.247 325.392 192.469 326.182 194.253 326.182C196.281 326.182 197.662 325.074 197.662 323.568C197.662 322.352 196.901 321.585 195.344 321.205L194.048 320.886C193.014 320.631 192.548 320.284 192.548 319.614C192.548 318.864 193.344 318.318 194.412 318.318C195.582 318.318 196.065 318.966 196.298 319.568L197.503 319.227ZM206.749 326.205C208.271 326.205 209.067 325.386 209.339 324.818H209.408V326H210.749V320.25C210.749 317.477 208.635 317.159 207.521 317.159C206.203 317.159 204.703 317.614 204.021 319.205L205.294 319.659C205.589 319.023 206.288 318.341 207.567 318.341C208.8 318.341 209.408 318.994 209.408 320.114V320.159C209.408 320.807 208.749 320.75 207.158 320.955C205.538 321.165 203.771 321.523 203.771 323.523C203.771 325.227 205.089 326.205 206.749 326.205ZM206.953 325C205.885 325 205.112 324.523 205.112 323.591C205.112 322.568 206.044 322.25 207.089 322.114C207.658 322.045 209.18 321.886 209.408 321.614V322.841C209.408 323.932 208.544 325 206.953 325ZM214.537 320.75C214.537 319.227 215.48 318.364 216.764 318.364C218.009 318.364 218.764 319.176 218.764 320.545V326H220.105V320.455C220.105 318.227 218.918 317.159 217.151 317.159C215.832 317.159 215.014 317.75 214.605 318.636H214.491V317.273H213.196V326H214.537V320.75ZM225.851 326.182C227.533 326.182 228.101 325.136 228.396 324.659H228.555V326H229.851V314.364H228.51V318.659H228.396C228.101 318.205 227.578 317.159 225.874 317.159C223.669 317.159 222.146 318.909 222.146 321.659C222.146 324.432 223.669 326.182 225.851 326.182ZM226.033 324.977C224.351 324.977 223.487 323.5 223.487 321.636C223.487 319.795 224.328 318.364 226.033 318.364C227.669 318.364 228.533 319.682 228.533 321.636C228.533 323.614 227.646 324.977 226.033 324.977ZM240.788 317.273H238.925V315.182H237.584V317.273H236.266V318.409H237.584V323.864C237.584 325.386 238.811 326.114 239.947 326.114C240.447 326.114 240.766 326.023 240.947 325.955L240.675 324.75C240.561 324.773 240.379 324.818 240.084 324.818C239.493 324.818 238.925 324.636 238.925 323.5V318.409H240.788V317.273ZM246.371 326.182C248.143 326.182 249.439 325.295 249.848 323.977L248.553 323.614C248.212 324.523 247.422 324.977 246.371 324.977C244.797 324.977 243.712 323.96 243.649 322.091H249.984V321.523C249.984 318.273 248.053 317.159 246.234 317.159C243.871 317.159 242.303 319.023 242.303 321.705C242.303 324.386 243.848 326.182 246.371 326.182ZM243.649 320.932C243.74 319.574 244.7 318.364 246.234 318.364C247.689 318.364 248.621 319.455 248.621 320.932H243.649ZM254.592 326.205C256.115 326.205 256.911 325.386 257.183 324.818H257.251V326H258.592V320.25C258.592 317.477 256.479 317.159 255.365 317.159C254.047 317.159 252.547 317.614 251.865 319.205L253.138 319.659C253.433 319.023 254.132 318.341 255.411 318.341C256.643 318.341 257.251 318.994 257.251 320.114V320.159C257.251 320.807 256.592 320.75 255.001 320.955C253.382 321.165 251.615 321.523 251.615 323.523C251.615 325.227 252.933 326.205 254.592 326.205ZM254.797 325C253.729 325 252.956 324.523 252.956 323.591C252.956 322.568 253.888 322.25 254.933 322.114C255.501 322.045 257.024 321.886 257.251 321.614V322.841C257.251 323.932 256.388 325 254.797 325ZM261.04 326H262.381V320.545C262.381 319.267 263.312 318.364 264.358 318.364C265.375 318.364 266.085 319.028 266.085 320.023V326H267.449V320.318C267.449 319.193 268.153 318.364 269.381 318.364C270.335 318.364 271.153 318.869 271.153 320.159V326H272.494V320.159C272.494 318.108 271.392 317.159 269.835 317.159C268.585 317.159 267.67 317.733 267.222 318.636H267.131C266.699 317.705 265.938 317.159 264.79 317.159C263.653 317.159 262.812 317.705 262.449 318.636H262.335V317.273H261.04V326ZM281.128 319.227C280.707 317.989 279.764 317.159 278.037 317.159C276.196 317.159 274.832 318.205 274.832 319.682C274.832 320.886 275.548 321.693 277.151 322.068L278.605 322.409C279.486 322.614 279.901 323.034 279.901 323.636C279.901 324.386 279.105 325 277.855 325C276.759 325 276.071 324.528 275.832 323.591L274.56 323.909C274.872 325.392 276.094 326.182 277.878 326.182C279.906 326.182 281.287 325.074 281.287 323.568C281.287 322.352 280.526 321.585 278.969 321.205L277.673 320.886C276.639 320.631 276.173 320.284 276.173 319.614C276.173 318.864 276.969 318.318 278.037 318.318C279.207 318.318 279.69 318.966 279.923 319.568L281.128 319.227ZM284.283 326.091C284.845 326.091 285.305 325.631 285.305 325.068C285.305 324.506 284.845 324.045 284.283 324.045C283.72 324.045 283.26 324.506 283.26 325.068C283.26 325.631 283.72 326.091 284.283 326.091Z" fill="#4E5A65"/>
</svg>
