<svg width="230" height="162" viewBox="0 0 230 162" fill="none" xmlns="http://www.w3.org/2000/svg">
<circle cx="32" cy="32" r="32" fill="#E8FAFA"/>
<path d="M36.1143 31.5429C37.1242 31.5429 37.9429 30.7242 37.9429 29.7143C37.9429 28.7044 37.1242 27.8857 36.1143 27.8857C35.1044 27.8857 34.2857 28.7044 34.2857 29.7143C34.2857 30.7242 35.1044 31.5429 36.1143 31.5429Z" fill="#23CEC9"/>
<path d="M44.8 20.5714C44.8 20.2077 44.6555 19.8588 44.3983 19.6016C44.1411 19.3444 43.7923 19.2 43.4286 19.2H27.4286V44.8H43.4286C43.7923 44.8 44.1411 44.6555 44.3983 44.3983C44.6555 44.1411 44.8 43.7922 44.8 43.4285V20.5714ZM36.1143 38.8571C34.7581 38.8571 33.4323 38.4549 32.3047 37.7015C31.177 36.948 30.2981 35.877 29.7791 34.6241C29.2601 33.3711 29.1243 31.9923 29.3889 30.6622C29.6535 29.332 30.3066 28.1102 31.2655 27.1512C32.2245 26.1922 33.4464 25.5392 34.7765 25.2746C36.1067 25.01 37.4854 25.1458 38.7384 25.6648C39.9914 26.1838 41.0623 27.0627 41.8158 28.1903C42.5693 29.318 42.9714 30.6437 42.9714 32C42.9694 33.8179 42.2463 35.5609 40.9607 36.8464C39.6752 38.1319 37.9323 38.855 36.1143 38.8571Z" fill="#23CEC9"/>
<path d="M36.1143 26.0571C34.9854 26.0559 33.8795 26.3765 32.9263 26.9814C31.9731 27.5862 31.212 28.4501 30.7323 29.472C30.2525 30.4939 30.0739 31.6314 30.2175 32.7511C30.3611 33.8709 30.8208 34.9265 31.5429 35.7943V34.7428C31.544 34.0009 31.8026 33.2823 32.2744 32.7097C32.7463 32.1372 33.4022 31.7461 34.1303 31.6032C33.7594 31.2147 33.5108 30.7259 33.4152 30.1974C33.3196 29.6689 33.3813 29.124 33.5926 28.6303C33.8038 28.1365 34.1554 27.7156 34.6037 27.4198C35.052 27.1241 35.5772 26.9664 36.1143 26.9664C36.6513 26.9664 37.1766 27.1241 37.6249 27.4198C38.0731 27.7156 38.4247 28.1365 38.636 28.6303C38.8473 29.124 38.9089 29.6689 38.8133 30.1974C38.7178 30.7259 38.4691 31.2147 38.0983 31.6032C38.8264 31.7461 39.4823 32.1372 39.9541 32.7097C40.426 33.2823 40.6846 34.0009 40.6857 34.7428V35.7943C41.4078 34.9265 41.8675 33.8709 42.0111 32.7511C42.1546 31.6314 41.9761 30.4939 41.4963 29.472C41.0166 28.4501 40.2555 27.5862 39.3023 26.9814C38.349 26.3765 37.2432 26.0559 36.1143 26.0571Z" fill="#23CEC9"/>
<path d="M37.4857 32.4572H34.7429C34.1369 32.4579 33.5559 32.6989 33.1274 33.1274C32.6989 33.5559 32.4579 34.1369 32.4571 34.7429V36.6748C33.4992 37.4961 34.7874 37.9428 36.1143 37.9428C37.4411 37.9428 38.7294 37.4961 39.7714 36.6748V34.7429C39.7707 34.1369 39.5296 33.5559 39.1012 33.1274C38.6727 32.6989 38.0917 32.4579 37.4857 32.4572Z" fill="#23CEC9"/>
<path d="M23.7714 29.2572C23.7714 29.0147 23.6751 28.7821 23.5036 28.6107C23.3322 28.4392 23.0996 28.3429 22.8571 28.3429H20.1143C19.8718 28.3429 19.6392 28.4392 19.4678 28.6107C19.2963 28.7821 19.2 29.0147 19.2 29.2572C19.2 29.4997 19.2963 29.7322 19.4678 29.9037C19.6392 30.0751 19.8718 30.1715 20.1143 30.1715H22.8571C23.0996 30.1715 23.3322 30.0751 23.5036 29.9037C23.6751 29.7322 23.7714 29.4997 23.7714 29.2572Z" fill="#23CEC9"/>
<path d="M21.9429 20.5714V21.9428H22.8571C23.3421 21.9428 23.8072 22.1355 24.1501 22.4784C24.4931 22.8213 24.6857 23.2864 24.6857 23.7714C24.6857 24.2563 24.4931 24.7215 24.1501 25.0644C23.8072 25.4073 23.3421 25.6 22.8571 25.6H21.9429V27.4285H22.8571C23.3421 27.4285 23.8072 27.6212 24.1501 27.9641C24.4931 28.307 24.6857 28.7721 24.6857 29.2571C24.6857 29.7421 24.4931 30.2072 24.1501 30.5501C23.8072 30.893 23.3421 31.0857 22.8571 31.0857H21.9429V33.3714H22.8571C23.3421 33.3714 23.8072 33.564 24.1501 33.907C24.4931 34.2499 24.6857 34.715 24.6857 35.2C24.6857 35.6849 24.4931 36.15 24.1501 36.4929C23.8072 36.8359 23.3421 37.0285 22.8571 37.0285H21.9429V38.8571H22.8571C23.3421 38.8571 23.8072 39.0497 24.1501 39.3927C24.4931 39.7356 24.6857 40.2007 24.6857 40.6857C24.6857 41.1706 24.4931 41.6357 24.1501 41.9787C23.8072 42.3216 23.3421 42.5142 22.8571 42.5142H21.9429V43.4285C21.9429 43.7922 22.0873 44.1411 22.3445 44.3983C22.6017 44.6555 22.9506 44.8 23.3143 44.8H26.5143V19.2H23.3143C22.9506 19.2 22.6017 19.3444 22.3445 19.6016C22.0873 19.8588 21.9429 20.2077 21.9429 20.5714Z" fill="#23CEC9"/>
<path d="M20.1143 24.6857H22.8571C23.0996 24.6857 23.3322 24.5894 23.5036 24.418C23.6751 24.2465 23.7714 24.0139 23.7714 23.7715C23.7714 23.529 23.6751 23.2964 23.5036 23.125C23.3322 22.9535 23.0996 22.8572 22.8571 22.8572H20.1143C19.8718 22.8572 19.6392 22.9535 19.4678 23.125C19.2963 23.2964 19.2 23.529 19.2 23.7715C19.2 24.0139 19.2963 24.2465 19.4678 24.418C19.6392 24.5894 19.8718 24.6857 20.1143 24.6857Z" fill="#23CEC9"/>
<path d="M23.7714 35.2001C23.7714 34.9576 23.6751 34.725 23.5036 34.5536C23.3322 34.3821 23.0996 34.2858 22.8571 34.2858H20.1143C19.8718 34.2858 19.6392 34.3821 19.4678 34.5536C19.2963 34.725 19.2 34.9576 19.2 35.2001C19.2 35.4425 19.2963 35.6751 19.4678 35.8466C19.6392 36.018 19.8718 36.1143 20.1143 36.1143H22.8571C23.0996 36.1143 23.3322 36.018 23.5036 35.8466C23.6751 35.6751 23.7714 35.4425 23.7714 35.2001Z" fill="#23CEC9"/>
<path d="M23.7714 40.6856C23.7714 40.4432 23.6751 40.2106 23.5036 40.0391C23.3322 39.8677 23.0996 39.7714 22.8571 39.7714H20.1143C19.8718 39.7714 19.6392 39.8677 19.4678 40.0391C19.2963 40.2106 19.2 40.4432 19.2 40.6856C19.2 40.9281 19.2963 41.1607 19.4678 41.3321C19.6392 41.5036 19.8718 41.5999 20.1143 41.5999H22.8571C23.0996 41.5999 23.3322 41.5036 23.5036 41.3321C23.6751 41.1607 23.7714 40.9281 23.7714 40.6856Z" fill="#23CEC9"/>
<path d="M12.4964 95.326C12.0938 92.4176 9.85653 90.7301 6.95455 90.7301C3.5348 90.7301 0.958807 93.223 0.958807 97.4545C0.958807 101.68 3.50284 104.179 6.95455 104.179C10.0675 104.179 12.1321 102.165 12.4964 99.6662L10.1058 99.6534C9.8054 101.188 8.55256 102.05 6.98651 102.05C4.86435 102.05 3.34304 100.459 3.34304 97.4545C3.34304 94.5014 4.85156 92.8587 6.9929 92.8587C8.58452 92.8587 9.83097 93.7599 10.1058 95.326H12.4964ZM18.8485 104.192C21.725 104.192 23.5531 102.165 23.5531 99.1293C23.5531 96.0866 21.725 94.054 18.8485 94.054C15.9721 94.054 14.144 96.0866 14.144 99.1293C14.144 102.165 15.9721 104.192 18.8485 104.192ZM18.8613 102.338C17.2697 102.338 16.4899 100.919 16.4899 99.1229C16.4899 97.3267 17.2697 95.8885 18.8613 95.8885C20.4274 95.8885 21.2072 97.3267 21.2072 99.1229C21.2072 100.919 20.4274 102.338 18.8613 102.338ZM27.831 90.9091H25.517V104H27.831V90.9091ZM32.5243 90.9091H30.2104V104H32.5243V90.9091ZM37.729 104.198C39.2695 104.198 40.19 103.476 40.6119 102.651H40.6886V104H42.913V97.429C42.913 94.8338 40.7972 94.054 38.9244 94.054C36.8597 94.054 35.2745 94.9744 34.7631 96.7642L36.9237 97.071C37.1538 96.3999 37.8058 95.8246 38.9371 95.8246C40.011 95.8246 40.5991 96.3743 40.5991 97.3395V97.3778C40.5991 98.0426 39.9023 98.0746 38.1701 98.2599C36.2653 98.4645 34.4435 99.0334 34.4435 101.245C34.4435 103.175 35.8562 104.198 37.729 104.198ZM38.3299 102.498C37.3647 102.498 36.6744 102.057 36.6744 101.207C36.6744 100.318 37.4478 99.9474 38.4833 99.8004C39.0906 99.7173 40.305 99.5639 40.6055 99.321V100.478C40.6055 101.571 39.7234 102.498 38.3299 102.498ZM45.342 104H47.6175V102.453H47.7518C48.1161 103.169 48.8768 104.173 50.5643 104.173C52.8782 104.173 54.6104 102.338 54.6104 99.1037C54.6104 95.831 52.8271 94.054 50.5579 94.054C48.8256 94.054 48.1033 95.0959 47.7518 95.8054H47.6559V90.9091H45.342V104ZM47.6112 99.0909C47.6112 97.1861 48.4293 95.9524 49.9187 95.9524C51.4592 95.9524 52.2518 97.2628 52.2518 99.0909C52.2518 100.932 51.4464 102.274 49.9187 102.274C48.4421 102.274 47.6112 100.996 47.6112 99.0909ZM60.8603 104.192C63.7367 104.192 65.5648 102.165 65.5648 99.1293C65.5648 96.0866 63.7367 94.054 60.8603 94.054C57.9838 94.054 56.1557 96.0866 56.1557 99.1293C56.1557 102.165 57.9838 104.192 60.8603 104.192ZM60.873 102.338C59.2814 102.338 58.5016 100.919 58.5016 99.1229C58.5016 97.3267 59.2814 95.8885 60.873 95.8885C62.4391 95.8885 63.2189 97.3267 63.2189 99.1229C63.2189 100.919 62.4391 102.338 60.873 102.338ZM67.5288 104H69.8427V98.228C69.8427 96.9815 70.7823 96.0994 72.0543 96.0994C72.4442 96.0994 72.93 96.1697 73.1282 96.2337V94.1051C72.9173 94.0668 72.5529 94.0412 72.2972 94.0412C71.1722 94.0412 70.2326 94.6804 69.8746 95.8182H69.7724V94.1818H67.5288V104ZM77.2974 104.198C78.8379 104.198 79.7583 103.476 80.1802 102.651H80.2569V104H82.4814V97.429C82.4814 94.8338 80.3656 94.054 78.4927 94.054C76.4281 94.054 74.8429 94.9744 74.3315 96.7642L76.492 97.071C76.7221 96.3999 77.3741 95.8246 78.5055 95.8246C79.5794 95.8246 80.1674 96.3743 80.1674 97.3395V97.3778C80.1674 98.0426 79.4707 98.0746 77.7385 98.2599C75.8336 98.4645 74.0119 99.0334 74.0119 101.245C74.0119 103.175 75.4245 104.198 77.2974 104.198ZM77.8983 102.498C76.9331 102.498 76.2427 102.057 76.2427 101.207C76.2427 100.318 77.0162 99.9474 78.0517 99.8004C78.6589 99.7173 79.8734 99.5639 80.1738 99.321V100.478C80.1738 101.571 79.2917 102.498 77.8983 102.498ZM89.7108 94.1818H87.774V91.8295H85.46V94.1818H84.0666V95.9716H85.46V101.43C85.4473 103.278 86.7896 104.185 88.5282 104.134C89.1866 104.115 89.6404 103.987 89.8897 103.904L89.4998 102.095C89.372 102.127 89.1099 102.185 88.8223 102.185C88.2406 102.185 87.774 101.98 87.774 101.047V95.9716H89.7108V94.1818ZM91.646 104H93.9599V94.1818H91.646V104ZM92.8093 92.7884C93.5444 92.7884 94.1452 92.2259 94.1452 91.5355C94.1452 90.8388 93.5444 90.2763 92.8093 90.2763C92.0678 90.2763 91.467 90.8388 91.467 91.5355C91.467 92.2259 92.0678 92.7884 92.8093 92.7884ZM105.109 94.1818H102.648L100.385 101.475H100.283L98.0268 94.1818H95.5595L99.0559 104H101.613L105.109 94.1818ZM110.723 104.192C113.011 104.192 114.584 103.073 114.993 101.366L112.832 101.124C112.519 101.955 111.752 102.389 110.755 102.389C109.259 102.389 108.268 101.405 108.249 99.7237H115.089V99.0142C115.089 95.5689 113.018 94.054 110.602 94.054C107.789 94.054 105.955 96.1186 105.955 99.1484C105.955 102.229 107.763 104.192 110.723 104.192ZM108.256 98.1641C108.326 96.9112 109.253 95.8565 110.634 95.8565C111.963 95.8565 112.858 96.8281 112.871 98.1641H108.256ZM126.81 90.9091H124.554L121.3 92.9993V95.1726L124.362 93.2166H124.439V104H126.81V90.9091ZM131.585 102.428C132.339 102.428 132.985 101.801 132.991 101.021C132.985 100.254 132.339 99.6278 131.585 99.6278C130.805 99.6278 130.172 100.254 130.179 101.021C130.172 101.801 130.805 102.428 131.585 102.428ZM131.585 95.9332C132.339 95.9332 132.985 95.3068 132.991 94.527C132.985 93.7599 132.339 93.1335 131.585 93.1335C130.805 93.1335 130.172 93.7599 130.179 94.527C130.172 95.3068 130.805 95.9332 131.585 95.9332ZM140.679 90.9091H138.423L135.169 92.9993V95.1726L138.231 93.2166H138.308V104H140.679V90.9091Z" fill="#35414B"/>
<path d="M1.40909 132H5.61364C8.36364 132 9.5 130.659 9.5 128.909C9.5 127.068 8.22727 126.068 7.15909 126V125.886C8.15909 125.614 9.04545 124.955 9.04545 123.455C9.04545 121.75 7.90909 120.364 5.47727 120.364H1.40909V132ZM2.81818 130.75V126.705H5.68182C7.20455 126.705 8.15909 127.727 8.15909 128.909C8.15909 129.932 7.45455 130.75 5.61364 130.75H2.81818ZM2.81818 125.477V121.614H5.47727C7.02273 121.614 7.70455 122.432 7.70455 123.455C7.70455 124.682 6.70455 125.477 5.43182 125.477H2.81818ZM17.1335 128.432C17.1335 130.068 15.8835 130.818 14.8835 130.818C13.7699 130.818 12.9744 130 12.9744 128.727V123.273H11.6335V128.818C11.6335 131.045 12.8153 132.114 14.4517 132.114C15.7699 132.114 16.6335 131.409 17.0426 130.523H17.1335V132H18.4744V123.273H17.1335V128.432ZM20.9304 132H22.2713V123.273H20.9304V132ZM21.6122 121.818C22.1349 121.818 22.5668 121.409 22.5668 120.909C22.5668 120.409 22.1349 120 21.6122 120C21.0895 120 20.6577 120.409 20.6577 120.909C20.6577 121.409 21.0895 121.818 21.6122 121.818ZM26.0682 120.364H24.7273V132H26.0682V120.364ZM31.8196 132.182C33.5014 132.182 34.0696 131.136 34.3651 130.659H34.5241V132H35.8196V120.364H34.4787V124.659H34.3651C34.0696 124.205 33.5469 123.159 31.8423 123.159C29.6378 123.159 28.1151 124.909 28.1151 127.659C28.1151 130.432 29.6378 132.182 31.8196 132.182ZM32.0014 130.977C30.3196 130.977 29.456 129.5 29.456 127.636C29.456 125.795 30.2969 124.364 32.0014 124.364C33.6378 124.364 34.5014 125.682 34.5014 127.636C34.5014 129.614 33.6151 130.977 32.0014 130.977ZM42.9616 132H44.3026V126.477C44.3026 125.295 45.2344 124.432 46.5071 124.432C46.8651 124.432 47.2344 124.5 47.3253 124.523V123.159C47.1719 123.148 46.8196 123.136 46.6207 123.136C45.5753 123.136 44.6662 123.727 44.348 124.591H44.2571V123.273H42.9616V132ZM52.3082 132.182C54.081 132.182 55.3764 131.295 55.7855 129.977L54.4901 129.614C54.1491 130.523 53.3594 130.977 52.3082 130.977C50.7344 130.977 49.6491 129.96 49.5866 128.091H55.9219V127.523C55.9219 124.273 53.9901 123.159 52.1719 123.159C49.8082 123.159 48.2401 125.023 48.2401 127.705C48.2401 130.386 49.7855 132.182 52.3082 132.182ZM49.5866 126.932C49.6776 125.574 50.6378 124.364 52.1719 124.364C53.6264 124.364 54.5582 125.455 54.5582 126.932H49.5866ZM59.3026 120.364H57.9616V132H59.3026V120.364ZM64.3267 132.205C65.8494 132.205 66.6449 131.386 66.9176 130.818H66.9858V132H68.3267V126.25C68.3267 123.477 66.2131 123.159 65.0994 123.159C63.7812 123.159 62.2812 123.614 61.5994 125.205L62.8722 125.659C63.1676 125.023 63.8665 124.341 65.1449 124.341C66.3778 124.341 66.9858 124.994 66.9858 126.114V126.159C66.9858 126.807 66.3267 126.75 64.7358 126.955C63.1165 127.165 61.3494 127.523 61.3494 129.523C61.3494 131.227 62.6676 132.205 64.3267 132.205ZM64.5312 131C63.4631 131 62.6903 130.523 62.6903 129.591C62.6903 128.568 63.6222 128.25 64.6676 128.114C65.2358 128.045 66.7585 127.886 66.9858 127.614V128.841C66.9858 129.932 66.1222 131 64.5312 131ZM74.5696 123.273H72.706V121.182H71.3651V123.273H70.0469V124.409H71.3651V129.864C71.3651 131.386 72.5923 132.114 73.7287 132.114C74.2287 132.114 74.5469 132.023 74.7287 131.955L74.456 130.75C74.3423 130.773 74.1605 130.818 73.8651 130.818C73.2741 130.818 72.706 130.636 72.706 129.5V124.409H74.5696V123.273ZM76.5866 132H77.9276V123.273H76.5866V132ZM77.2685 121.818C77.7912 121.818 78.223 121.409 78.223 120.909C78.223 120.409 77.7912 120 77.2685 120C76.7457 120 76.3139 120.409 76.3139 120.909C76.3139 121.409 76.7457 121.818 77.2685 121.818ZM83.929 132.182C86.2926 132.182 87.8835 130.386 87.8835 127.682C87.8835 124.955 86.2926 123.159 83.929 123.159C81.5653 123.159 79.9744 124.955 79.9744 127.682C79.9744 130.386 81.5653 132.182 83.929 132.182ZM83.929 130.977C82.1335 130.977 81.3153 129.432 81.3153 127.682C81.3153 125.932 82.1335 124.364 83.929 124.364C85.7244 124.364 86.5426 125.932 86.5426 127.682C86.5426 129.432 85.7244 130.977 83.929 130.977ZM91.2713 126.75C91.2713 125.227 92.2145 124.364 93.4986 124.364C94.7429 124.364 95.4986 125.176 95.4986 126.545V132H96.8395V126.455C96.8395 124.227 95.652 123.159 93.8849 123.159C92.5668 123.159 91.7486 123.75 91.3395 124.636H91.2259V123.273H89.9304V132H91.2713V126.75ZM105.472 125.227C105.051 123.989 104.108 123.159 102.381 123.159C100.54 123.159 99.1761 124.205 99.1761 125.682C99.1761 126.886 99.892 127.693 101.494 128.068L102.949 128.409C103.83 128.614 104.244 129.034 104.244 129.636C104.244 130.386 103.449 131 102.199 131C101.102 131 100.415 130.528 100.176 129.591L98.9034 129.909C99.2159 131.392 100.438 132.182 102.222 132.182C104.25 132.182 105.631 131.074 105.631 129.568C105.631 128.352 104.869 127.585 103.312 127.205L102.017 126.886C100.983 126.631 100.517 126.284 100.517 125.614C100.517 124.864 101.312 124.318 102.381 124.318C103.551 124.318 104.034 124.966 104.267 125.568L105.472 125.227ZM108.99 126.75C108.99 125.227 109.962 124.364 111.286 124.364C112.547 124.364 113.308 125.159 113.308 126.545V132H114.649V126.455C114.649 124.21 113.456 123.159 111.672 123.159C110.297 123.159 109.513 123.733 109.104 124.636H108.99V120.364H107.649V132H108.99V126.75ZM117.102 132H118.443V123.273H117.102V132ZM117.784 121.818C118.307 121.818 118.739 121.409 118.739 120.909C118.739 120.409 118.307 120 117.784 120C117.261 120 116.83 120.409 116.83 120.909C116.83 121.409 117.261 121.818 117.784 121.818ZM120.899 135.273H122.24V130.659H122.354C122.649 131.136 123.217 132.182 124.899 132.182C127.081 132.182 128.604 130.432 128.604 127.659C128.604 124.909 127.081 123.159 124.876 123.159C123.172 123.159 122.649 124.205 122.354 124.659H122.195V123.273H120.899V135.273ZM122.217 127.636C122.217 125.682 123.081 124.364 124.717 124.364C126.422 124.364 127.263 125.795 127.263 127.636C127.263 129.5 126.399 130.977 124.717 130.977C123.104 130.977 122.217 129.614 122.217 127.636ZM136.831 125.227C136.411 123.989 135.467 123.159 133.74 123.159C131.899 123.159 130.536 124.205 130.536 125.682C130.536 126.886 131.251 127.693 132.854 128.068L134.308 128.409C135.189 128.614 135.604 129.034 135.604 129.636C135.604 130.386 134.808 131 133.558 131C132.462 131 131.774 130.528 131.536 129.591L130.263 129.909C130.575 131.392 131.797 132.182 133.581 132.182C135.609 132.182 136.99 131.074 136.99 129.568C136.99 128.352 136.229 127.585 134.672 127.205L133.376 126.886C132.342 126.631 131.876 126.284 131.876 125.614C131.876 124.864 132.672 124.318 133.74 124.318C134.911 124.318 135.393 124.966 135.626 125.568L136.831 125.227ZM143.69 132H144.986V130.659H145.145C145.44 131.136 146.009 132.182 147.69 132.182C149.872 132.182 151.395 130.432 151.395 127.659C151.395 124.909 149.872 123.159 147.668 123.159C145.963 123.159 145.44 124.205 145.145 124.659H145.031V120.364H143.69V132ZM145.009 127.636C145.009 125.682 145.872 124.364 147.509 124.364C149.213 124.364 150.054 125.795 150.054 127.636C150.054 129.5 149.19 130.977 147.509 130.977C145.895 130.977 145.009 129.614 145.009 127.636ZM153.997 135.273C155.207 135.273 156.06 134.631 156.565 133.273L160.281 123.295L158.815 123.273L156.406 130.227H156.315L153.906 123.273H152.452L155.679 132.045L155.429 132.727C154.94 134.057 154.338 134.182 153.361 133.932L153.02 135.114C153.156 135.182 153.543 135.273 153.997 135.273ZM166.555 135.273H167.896V130.659H168.01C168.305 131.136 168.874 132.182 170.555 132.182C172.737 132.182 174.26 130.432 174.26 127.659C174.26 124.909 172.737 123.159 170.533 123.159C168.828 123.159 168.305 124.205 168.01 124.659H167.851V123.273H166.555V135.273ZM167.874 127.636C167.874 125.682 168.737 124.364 170.374 124.364C172.078 124.364 172.919 125.795 172.919 127.636C172.919 129.5 172.055 130.977 170.374 130.977C168.76 130.977 167.874 129.614 167.874 127.636ZM177.646 120.364H176.305V132H177.646V120.364ZM182.67 132.205C184.193 132.205 184.989 131.386 185.261 130.818H185.33V132H186.67V126.25C186.67 123.477 184.557 123.159 183.443 123.159C182.125 123.159 180.625 123.614 179.943 125.205L181.216 125.659C181.511 125.023 182.21 124.341 183.489 124.341C184.722 124.341 185.33 124.994 185.33 126.114V126.159C185.33 126.807 184.67 126.75 183.08 126.955C181.46 127.165 179.693 127.523 179.693 129.523C179.693 131.227 181.011 132.205 182.67 132.205ZM182.875 131C181.807 131 181.034 130.523 181.034 129.591C181.034 128.568 181.966 128.25 183.011 128.114C183.58 128.045 185.102 127.886 185.33 127.614V128.841C185.33 129.932 184.466 131 182.875 131ZM190.459 126.75C190.459 125.227 191.402 124.364 192.686 124.364C193.93 124.364 194.686 125.176 194.686 126.545V132H196.027V126.455C196.027 124.227 194.839 123.159 193.072 123.159C191.754 123.159 190.936 123.75 190.527 124.636H190.413V123.273H189.118V132H190.459V126.75ZM199.818 126.75C199.818 125.227 200.761 124.364 202.045 124.364C203.29 124.364 204.045 125.176 204.045 126.545V132H205.386V126.455C205.386 124.227 204.199 123.159 202.432 123.159C201.114 123.159 200.295 123.75 199.886 124.636H199.773V123.273H198.477V132H199.818V126.75ZM207.837 132H209.178V123.273H207.837V132ZM208.518 121.818C209.041 121.818 209.473 121.409 209.473 120.909C209.473 120.409 209.041 120 208.518 120C207.996 120 207.564 120.409 207.564 120.909C207.564 121.409 207.996 121.818 208.518 121.818ZM212.974 126.75C212.974 125.227 213.918 124.364 215.202 124.364C216.446 124.364 217.202 125.176 217.202 126.545V132H218.543V126.455C218.543 124.227 217.355 123.159 215.588 123.159C214.27 123.159 213.452 123.75 213.043 124.636H212.929V123.273H211.634V132H212.974V126.75ZM224.516 135.455C226.607 135.455 228.288 134.5 228.288 132.25V123.273H226.993V124.659H226.857C226.561 124.205 226.016 123.159 224.311 123.159C222.107 123.159 220.584 124.909 220.584 127.591C220.584 130.318 222.175 131.864 224.288 131.864C225.993 131.864 226.538 130.864 226.834 130.386H226.947V132.159C226.947 133.614 225.925 134.273 224.516 134.273C222.93 134.273 222.374 133.438 222.016 132.955L220.947 133.705C221.493 134.619 222.567 135.455 224.516 135.455ZM224.47 130.659C222.788 130.659 221.925 129.386 221.925 127.568C221.925 125.795 222.766 124.364 224.47 124.364C226.107 124.364 226.97 125.682 226.97 127.568C226.97 129.5 226.084 130.659 224.47 130.659ZM5.29545 144.364H3.88636L0.977273 146.295V147.727L3.81818 145.841H3.88636V156H5.29545V144.364ZM13.6648 150.386H8.57386V151.636H13.6648V150.386ZM19.5696 156.182C21.9332 156.182 23.5241 154.386 23.5241 151.682C23.5241 148.955 21.9332 147.159 19.5696 147.159C17.206 147.159 15.6151 148.955 15.6151 151.682C15.6151 154.386 17.206 156.182 19.5696 156.182ZM19.5696 154.977C17.7741 154.977 16.956 153.432 16.956 151.682C16.956 149.932 17.7741 148.364 19.5696 148.364C21.3651 148.364 22.1832 149.932 22.1832 151.682C22.1832 153.432 21.3651 154.977 19.5696 154.977ZM26.9119 150.75C26.9119 149.227 27.8551 148.364 29.1392 148.364C30.3835 148.364 31.1392 149.176 31.1392 150.545V156H32.4801V150.455C32.4801 148.227 31.2926 147.159 29.5256 147.159C28.2074 147.159 27.3892 147.75 26.9801 148.636H26.8665V147.273H25.571V156H26.9119V150.75ZM39.9304 150.386H34.8395V151.636H39.9304V150.386ZM46.358 144.364H44.9489L42.0398 146.295V147.727L44.8807 145.841H44.9489V156H46.358V144.364ZM55.9091 149.227C55.4886 147.989 54.5455 147.159 52.8182 147.159C50.9773 147.159 49.6136 148.205 49.6136 149.682C49.6136 150.886 50.3295 151.693 51.9318 152.068L53.3864 152.409C54.267 152.614 54.6818 153.034 54.6818 153.636C54.6818 154.386 53.8864 155 52.6364 155C51.5398 155 50.8523 154.528 50.6136 153.591L49.3409 153.909C49.6534 155.392 50.875 156.182 52.6591 156.182C54.6875 156.182 56.0682 155.074 56.0682 153.568C56.0682 152.352 55.3068 151.585 53.75 151.205L52.4545 150.886C51.4205 150.631 50.9545 150.284 50.9545 149.614C50.9545 148.864 51.75 148.318 52.8182 148.318C53.9886 148.318 54.4716 148.966 54.7045 149.568L55.9091 149.227ZM65.1548 156.205C66.6776 156.205 67.473 155.386 67.7457 154.818H67.8139V156H69.1548V150.25C69.1548 147.477 67.0412 147.159 65.9276 147.159C64.6094 147.159 63.1094 147.614 62.4276 149.205L63.7003 149.659C63.9957 149.023 64.6946 148.341 65.973 148.341C67.206 148.341 67.8139 148.994 67.8139 150.114V150.159C67.8139 150.807 67.1548 150.75 65.5639 150.955C63.9446 151.165 62.1776 151.523 62.1776 153.523C62.1776 155.227 63.4957 156.205 65.1548 156.205ZM65.3594 155C64.2912 155 63.5185 154.523 63.5185 153.591C63.5185 152.568 64.4503 152.25 65.4957 152.114C66.0639 152.045 67.5866 151.886 67.8139 151.614V152.841C67.8139 153.932 66.9503 155 65.3594 155ZM72.9432 150.75C72.9432 149.227 73.8864 148.364 75.1705 148.364C76.4148 148.364 77.1705 149.176 77.1705 150.545V156H78.5114V150.455C78.5114 148.227 77.3239 147.159 75.5568 147.159C74.2386 147.159 73.4205 147.75 73.0114 148.636H72.8977V147.273H71.6023V156H72.9432V150.75ZM84.2571 156.182C85.9389 156.182 86.5071 155.136 86.8026 154.659H86.9616V156H88.2571V144.364H86.9162V148.659H86.8026C86.5071 148.205 85.9844 147.159 84.2798 147.159C82.0753 147.159 80.5526 148.909 80.5526 151.659C80.5526 154.432 82.0753 156.182 84.2571 156.182ZM84.4389 154.977C82.7571 154.977 81.8935 153.5 81.8935 151.636C81.8935 149.795 82.7344 148.364 84.4389 148.364C86.0753 148.364 86.9389 149.682 86.9389 151.636C86.9389 153.614 86.0526 154.977 84.4389 154.977ZM101.581 149.227C101.161 147.989 100.217 147.159 98.4901 147.159C96.6491 147.159 95.2855 148.205 95.2855 149.682C95.2855 150.886 96.0014 151.693 97.6037 152.068L99.0582 152.409C99.9389 152.614 100.354 153.034 100.354 153.636C100.354 154.386 99.5582 155 98.3082 155C97.2116 155 96.5241 154.528 96.2855 153.591L95.0128 153.909C95.3253 155.392 96.5469 156.182 98.331 156.182C100.359 156.182 101.74 155.074 101.74 153.568C101.74 152.352 100.979 151.585 99.4219 151.205L98.1264 150.886C97.0923 150.631 96.6264 150.284 96.6264 149.614C96.6264 148.864 97.4219 148.318 98.4901 148.318C99.6605 148.318 100.143 148.966 100.376 149.568L101.581 149.227ZM107.554 147.273H105.69V145.182H104.349V147.273H103.031V148.409H104.349V153.864C104.349 155.386 105.577 156.114 106.713 156.114C107.213 156.114 107.531 156.023 107.713 155.955L107.44 154.75C107.327 154.773 107.145 154.818 106.849 154.818C106.259 154.818 105.69 154.636 105.69 153.5V148.409H107.554V147.273ZM112.139 156.205C113.662 156.205 114.457 155.386 114.73 154.818H114.798V156H116.139V150.25C116.139 147.477 114.026 147.159 112.912 147.159C111.594 147.159 110.094 147.614 109.412 149.205L110.685 149.659C110.98 149.023 111.679 148.341 112.957 148.341C114.19 148.341 114.798 148.994 114.798 150.114V150.159C114.798 150.807 114.139 150.75 112.548 150.955C110.929 151.165 109.162 151.523 109.162 153.523C109.162 155.227 110.48 156.205 112.139 156.205ZM112.344 155C111.276 155 110.503 154.523 110.503 153.591C110.503 152.568 111.435 152.25 112.48 152.114C113.048 152.045 114.571 151.886 114.798 151.614V152.841C114.798 153.932 113.935 155 112.344 155ZM118.587 156H119.928V150.477C119.928 149.295 120.859 148.432 122.132 148.432C122.49 148.432 122.859 148.5 122.95 148.523V147.159C122.797 147.148 122.445 147.136 122.246 147.136C121.2 147.136 120.291 147.727 119.973 148.591H119.882V147.273H118.587V156ZM128.882 147.273H127.018V145.182H125.678V147.273H124.359V148.409H125.678V153.864C125.678 155.386 126.905 156.114 128.041 156.114C128.541 156.114 128.859 156.023 129.041 155.955L128.768 154.75C128.655 154.773 128.473 154.818 128.178 154.818C127.587 154.818 127.018 154.636 127.018 153.5V148.409H128.882V147.273ZM135.399 156H136.74V150.545C136.74 149.267 137.672 148.364 138.717 148.364C139.734 148.364 140.445 149.028 140.445 150.023V156H141.808V150.318C141.808 149.193 142.513 148.364 143.74 148.364C144.695 148.364 145.513 148.869 145.513 150.159V156H146.854V150.159C146.854 148.108 145.751 147.159 144.195 147.159C142.945 147.159 142.03 147.733 141.581 148.636H141.49C141.058 147.705 140.297 147.159 139.149 147.159C138.013 147.159 137.172 147.705 136.808 148.636H136.695V147.273H135.399V156ZM152.964 156.182C154.737 156.182 156.033 155.295 156.442 153.977L155.146 153.614C154.805 154.523 154.016 154.977 152.964 154.977C151.391 154.977 150.305 153.96 150.243 152.091H156.578V151.523C156.578 148.273 154.646 147.159 152.828 147.159C150.464 147.159 148.896 149.023 148.896 151.705C148.896 154.386 150.442 156.182 152.964 156.182ZM150.243 150.932C150.334 149.574 151.294 148.364 152.828 148.364C154.283 148.364 155.214 149.455 155.214 150.932H150.243ZM162.277 156.182C164.05 156.182 165.345 155.295 165.754 153.977L164.459 153.614C164.118 154.523 163.328 154.977 162.277 154.977C160.703 154.977 159.618 153.96 159.555 152.091H165.891V151.523C165.891 148.273 163.959 147.159 162.141 147.159C159.777 147.159 158.209 149.023 158.209 151.705C158.209 154.386 159.754 156.182 162.277 156.182ZM159.555 150.932C159.646 149.574 160.607 148.364 162.141 148.364C163.595 148.364 164.527 149.455 164.527 150.932H159.555ZM171.726 147.273H169.862V145.182H168.521V147.273H167.203V148.409H168.521V153.864C168.521 155.386 169.749 156.114 170.885 156.114C171.385 156.114 171.703 156.023 171.885 155.955L171.612 154.75C171.499 154.773 171.317 154.818 171.021 154.818C170.43 154.818 169.862 154.636 169.862 153.5V148.409H171.726V147.273ZM173.743 156H175.084V147.273H173.743V156ZM174.425 145.818C174.947 145.818 175.379 145.409 175.379 144.909C175.379 144.409 174.947 144 174.425 144C173.902 144 173.47 144.409 173.47 144.909C173.47 145.409 173.902 145.818 174.425 145.818ZM178.881 150.75C178.881 149.227 179.824 148.364 181.108 148.364C182.352 148.364 183.108 149.176 183.108 150.545V156H184.449V150.455C184.449 148.227 183.261 147.159 181.494 147.159C180.176 147.159 179.358 147.75 178.949 148.636H178.835V147.273H177.54V156H178.881V150.75ZM190.422 159.455C192.513 159.455 194.195 158.5 194.195 156.25V147.273H192.899V148.659H192.763C192.467 148.205 191.922 147.159 190.217 147.159C188.013 147.159 186.49 148.909 186.49 151.591C186.49 154.318 188.081 155.864 190.195 155.864C191.899 155.864 192.445 154.864 192.74 154.386H192.854V156.159C192.854 157.614 191.831 158.273 190.422 158.273C188.837 158.273 188.28 157.438 187.922 156.955L186.854 157.705C187.399 158.619 188.473 159.455 190.422 159.455ZM190.376 154.659C188.695 154.659 187.831 153.386 187.831 151.568C187.831 149.795 188.672 148.364 190.376 148.364C192.013 148.364 192.876 149.682 192.876 151.568C192.876 153.5 191.99 154.659 190.376 154.659ZM202.831 149.227C202.411 147.989 201.467 147.159 199.74 147.159C197.899 147.159 196.536 148.205 196.536 149.682C196.536 150.886 197.251 151.693 198.854 152.068L200.308 152.409C201.189 152.614 201.604 153.034 201.604 153.636C201.604 154.386 200.808 155 199.558 155C198.462 155 197.774 154.528 197.536 153.591L196.263 153.909C196.575 155.392 197.797 156.182 199.581 156.182C201.609 156.182 202.99 155.074 202.99 153.568C202.99 152.352 202.229 151.585 200.672 151.205L199.376 150.886C198.342 150.631 197.876 150.284 197.876 149.614C197.876 148.864 198.672 148.318 199.74 148.318C200.911 148.318 201.393 148.966 201.626 149.568L202.831 149.227ZM205.986 156.091C206.548 156.091 207.009 155.631 207.009 155.068C207.009 154.506 206.548 154.045 205.986 154.045C205.423 154.045 204.963 154.506 204.963 155.068C204.963 155.631 205.423 156.091 205.986 156.091Z" fill="#4E5A65"/>
</svg>
