<svg width="504" height="41" viewBox="0 0 504 41" fill="none" xmlns="http://www.w3.org/2000/svg">
<path d="M7.27273 4.27273H8.63636C8.57386 2.51705 6.95455 1.20455 4.70455 1.20455C2.47727 1.20455 0.727273 2.5 0.727273 4.45455C0.727273 6.02273 1.86364 6.95455 3.68182 7.47727L5.11364 7.88636C6.34091 8.22727 7.43182 8.65909 7.43182 9.81818C7.43182 11.0909 6.20455 11.9318 4.59091 11.9318C3.20455 11.9318 1.97727 11.3182 1.86364 10H0.409091C0.545455 11.9091 2.09091 13.2045 4.59091 13.2045C7.27273 13.2045 8.79545 11.7273 8.79545 9.84091C8.79545 7.65909 6.72727 6.95455 5.52273 6.63636L4.34091 6.31818C3.47727 6.09091 2.09091 5.63636 2.09091 4.38636C2.09091 3.27273 3.11364 2.45455 4.65909 2.45455C6.06818 2.45455 7.13636 3.125 7.27273 4.27273ZM10.9304 13H12.2713V4.27273H10.9304V13ZM11.6122 2.81818C12.1349 2.81818 12.5668 2.40909 12.5668 1.90909C12.5668 1.40909 12.1349 1 11.6122 1C11.0895 1 10.6577 1.40909 10.6577 1.90909C10.6577 2.40909 11.0895 2.81818 11.6122 2.81818ZM14.7273 13H16.0682V7.54545C16.0682 6.26705 17 5.36364 18.0455 5.36364C19.0625 5.36364 19.7727 6.02841 19.7727 7.02273V13H21.1364V7.31818C21.1364 6.19318 21.8409 5.36364 23.0682 5.36364C24.0227 5.36364 24.8409 5.86932 24.8409 7.15909V13H26.1818V7.15909C26.1818 5.10795 25.0795 4.15909 23.5227 4.15909C22.2727 4.15909 21.358 4.73295 20.9091 5.63636H20.8182C20.3864 4.70455 19.625 4.15909 18.4773 4.15909C17.3409 4.15909 16.5 4.70455 16.1364 5.63636H16.0227V4.27273H14.7273V13ZM28.6335 16.2727H29.9744V11.6591H30.0881C30.3835 12.1364 30.9517 13.1818 32.6335 13.1818C34.8153 13.1818 36.3381 11.4318 36.3381 8.65909C36.3381 5.90909 34.8153 4.15909 32.6108 4.15909C30.9062 4.15909 30.3835 5.20455 30.0881 5.65909H29.929V4.27273H28.6335V16.2727ZM29.9517 8.63636C29.9517 6.68182 30.8153 5.36364 32.4517 5.36364C34.1562 5.36364 34.9972 6.79545 34.9972 8.63636C34.9972 10.5 34.1335 11.9773 32.4517 11.9773C30.8381 11.9773 29.9517 10.6136 29.9517 8.63636ZM39.7244 1.36364H38.3835V13H39.7244V1.36364ZM45.8395 13.1818C47.6122 13.1818 48.9077 12.2955 49.3168 10.9773L48.0213 10.6136C47.6804 11.5227 46.8906 11.9773 45.8395 11.9773C44.2656 11.9773 43.1804 10.9602 43.1179 9.09091H49.4531V8.52273C49.4531 5.27273 47.5213 4.15909 45.7031 4.15909C43.3395 4.15909 41.7713 6.02273 41.7713 8.70455C41.7713 11.3864 43.3168 13.1818 45.8395 13.1818ZM43.1179 7.93182C43.2088 6.57386 44.169 5.36364 45.7031 5.36364C47.1577 5.36364 48.0895 6.45455 48.0895 7.93182H43.1179ZM55.9929 16.2727H57.3338V11.6591H57.4474C57.7429 12.1364 58.3111 13.1818 59.9929 13.1818C62.1747 13.1818 63.6974 11.4318 63.6974 8.65909C63.6974 5.90909 62.1747 4.15909 59.9702 4.15909C58.2656 4.15909 57.7429 5.20455 57.4474 5.65909H57.2884V4.27273H55.9929V16.2727ZM57.3111 8.63636C57.3111 6.68182 58.1747 5.36364 59.8111 5.36364C61.5156 5.36364 62.3565 6.79545 62.3565 8.63636C62.3565 10.5 61.4929 11.9773 59.8111 11.9773C58.1974 11.9773 57.3111 10.6136 57.3111 8.63636ZM67.0838 1.36364H65.7429V13H67.0838V1.36364ZM72.108 13.2045C73.6307 13.2045 74.4261 12.3864 74.6989 11.8182H74.767V13H76.108V7.25C76.108 4.47727 73.9943 4.15909 72.8807 4.15909C71.5625 4.15909 70.0625 4.61364 69.3807 6.20455L70.6534 6.65909C70.9489 6.02273 71.6477 5.34091 72.9261 5.34091C74.1591 5.34091 74.767 5.99432 74.767 7.11364V7.15909C74.767 7.80682 74.108 7.75 72.517 7.95455C70.8977 8.16477 69.1307 8.52273 69.1307 10.5227C69.1307 12.2273 70.4489 13.2045 72.108 13.2045ZM72.3125 12C71.2443 12 70.4716 11.5227 70.4716 10.5909C70.4716 9.56818 71.4034 9.25 72.4489 9.11364C73.017 9.04545 74.5398 8.88636 74.767 8.61364V9.84091C74.767 10.9318 73.9034 12 72.3125 12ZM82.3509 4.27273H80.4872V2.18182H79.1463V4.27273H77.8281V5.40909H79.1463V10.8636C79.1463 12.3864 80.3736 13.1136 81.5099 13.1136C82.0099 13.1136 82.3281 13.0227 82.5099 12.9545L82.2372 11.75C82.1236 11.7727 81.9418 11.8182 81.6463 11.8182C81.0554 11.8182 80.4872 11.6364 80.4872 10.5V5.40909H82.3509V4.27273ZM88.2543 4.27273H86.2997V3.38636C86.2997 2.52273 86.6634 2.06818 87.5497 2.06818C87.9361 2.06818 88.1634 2.15909 88.2997 2.20455L88.6861 1.04545C88.4815 0.954545 88.0724 0.818181 87.4134 0.818181C86.1634 0.818181 84.9588 1.56818 84.9588 3.06818V4.27273H83.5497V5.40909H84.9588V13H86.2997V5.40909H88.2543V4.27273ZM93.3196 13.1818C95.6832 13.1818 97.2741 11.3864 97.2741 8.68182C97.2741 5.95455 95.6832 4.15909 93.3196 4.15909C90.956 4.15909 89.3651 5.95455 89.3651 8.68182C89.3651 11.3864 90.956 13.1818 93.3196 13.1818ZM93.3196 11.9773C91.5241 11.9773 90.706 10.4318 90.706 8.68182C90.706 6.93182 91.5241 5.36364 93.3196 5.36364C95.1151 5.36364 95.9332 6.93182 95.9332 8.68182C95.9332 10.4318 95.1151 11.9773 93.3196 11.9773ZM99.321 13H100.662V7.47727C100.662 6.29545 101.594 5.43182 102.866 5.43182C103.224 5.43182 103.594 5.5 103.685 5.52273V4.15909C103.531 4.14773 103.179 4.13636 102.98 4.13636C101.935 4.13636 101.026 4.72727 100.707 5.59091H100.616V4.27273H99.321V13ZM105.274 13H106.615V7.54545C106.615 6.26705 107.547 5.36364 108.592 5.36364C109.609 5.36364 110.32 6.02841 110.32 7.02273V13H111.683V7.31818C111.683 6.19318 112.388 5.36364 113.615 5.36364C114.57 5.36364 115.388 5.86932 115.388 7.15909V13H116.729V7.15909C116.729 5.10795 115.626 4.15909 114.07 4.15909C112.82 4.15909 111.905 4.73295 111.456 5.63636H111.365C110.933 4.70455 110.172 4.15909 109.024 4.15909C107.888 4.15909 107.047 4.70455 106.683 5.63636H106.57V4.27273H105.274V13ZM127.476 4.27273H125.612V2.18182H124.271V4.27273H122.953V5.40909H124.271V10.8636C124.271 12.3864 125.499 13.1136 126.635 13.1136C127.135 13.1136 127.453 13.0227 127.635 12.9545L127.362 11.75C127.249 11.7727 127.067 11.8182 126.771 11.8182C126.18 11.8182 125.612 11.6364 125.612 10.5V5.40909H127.476V4.27273ZM131.021 7.75C131.021 6.22727 131.993 5.36364 133.317 5.36364C134.578 5.36364 135.339 6.15909 135.339 7.54545V13H136.68V7.45455C136.68 5.21023 135.487 4.15909 133.703 4.15909C132.328 4.15909 131.544 4.73295 131.135 5.63636H131.021V1.36364H129.68V13H131.021V7.75ZM141.702 13.2045C143.224 13.2045 144.02 12.3864 144.293 11.8182H144.361V13H145.702V7.25C145.702 4.47727 143.588 4.15909 142.474 4.15909C141.156 4.15909 139.656 4.61364 138.974 6.20455L140.247 6.65909C140.543 6.02273 141.241 5.34091 142.52 5.34091C143.753 5.34091 144.361 5.99432 144.361 7.11364V7.15909C144.361 7.80682 143.702 7.75 142.111 7.95455C140.491 8.16477 138.724 8.52273 138.724 10.5227C138.724 12.2273 140.043 13.2045 141.702 13.2045ZM141.906 12C140.838 12 140.065 11.5227 140.065 10.5909C140.065 9.56818 140.997 9.25 142.043 9.11364C142.611 9.04545 144.134 8.88636 144.361 8.61364V9.84091C144.361 10.9318 143.497 12 141.906 12ZM151.945 4.27273H150.081V2.18182H148.74V4.27273H147.422V5.40909H148.74V10.8636C148.74 12.3864 149.967 13.1136 151.104 13.1136C151.604 13.1136 151.922 13.0227 152.104 12.9545L151.831 11.75C151.717 11.7727 151.536 11.8182 151.24 11.8182C150.649 11.8182 150.081 11.6364 150.081 10.5V5.40909H151.945V4.27273ZM159.803 1.36364H158.462V13H159.803V1.36364ZM165.918 13.1818C167.69 13.1818 168.986 12.2955 169.395 10.9773L168.099 10.6136C167.759 11.5227 166.969 11.9773 165.918 11.9773C164.344 11.9773 163.259 10.9602 163.196 9.09091H169.531V8.52273C169.531 5.27273 167.599 4.15909 165.781 4.15909C163.418 4.15909 161.849 6.02273 161.849 8.70455C161.849 11.3864 163.395 13.1818 165.918 13.1818ZM163.196 7.93182C163.287 6.57386 164.247 5.36364 165.781 5.36364C167.236 5.36364 168.168 6.45455 168.168 7.93182H163.196ZM175.366 4.27273H173.503V2.18182H172.162V4.27273H170.844V5.40909H172.162V10.8636C172.162 12.3864 173.389 13.1136 174.526 13.1136C175.026 13.1136 175.344 13.0227 175.526 12.9545L175.253 11.75C175.139 11.7727 174.957 11.8182 174.662 11.8182C174.071 11.8182 173.503 11.6364 173.503 10.5V5.40909H175.366V4.27273ZM183.409 6.22727C182.989 4.98864 182.045 4.15909 180.318 4.15909C178.477 4.15909 177.114 5.20455 177.114 6.68182C177.114 7.88636 177.83 8.69318 179.432 9.06818L180.886 9.40909C181.767 9.61364 182.182 10.0341 182.182 10.6364C182.182 11.3864 181.386 12 180.136 12C179.04 12 178.352 11.5284 178.114 10.5909L176.841 10.9091C177.153 12.392 178.375 13.1818 180.159 13.1818C182.188 13.1818 183.568 12.0739 183.568 10.5682C183.568 9.35227 182.807 8.58523 181.25 8.20455L179.955 7.88636C178.92 7.63068 178.455 7.28409 178.455 6.61364C178.455 5.86364 179.25 5.31818 180.318 5.31818C181.489 5.31818 181.972 5.96591 182.205 6.56818L183.409 6.22727ZM190.95 16.2727C192.161 16.2727 193.013 15.6307 193.518 14.2727L197.234 4.29545L195.768 4.27273L193.359 11.2273H193.268L190.859 4.27273H189.405L192.632 13.0455L192.382 13.7273C191.893 15.0568 191.291 15.1818 190.314 14.9318L189.973 16.1136C190.109 16.1818 190.496 16.2727 190.95 16.2727ZM202.241 13.1818C204.605 13.1818 206.196 11.3864 206.196 8.68182C206.196 5.95455 204.605 4.15909 202.241 4.15909C199.878 4.15909 198.287 5.95455 198.287 8.68182C198.287 11.3864 199.878 13.1818 202.241 13.1818ZM202.241 11.9773C200.446 11.9773 199.628 10.4318 199.628 8.68182C199.628 6.93182 200.446 5.36364 202.241 5.36364C204.037 5.36364 204.855 6.93182 204.855 8.68182C204.855 10.4318 204.037 11.9773 202.241 11.9773ZM213.743 9.43182C213.743 11.0682 212.493 11.8182 211.493 11.8182C210.379 11.8182 209.584 11 209.584 9.72727V4.27273H208.243V9.81818C208.243 12.0455 209.425 13.1136 211.061 13.1136C212.379 13.1136 213.243 12.4091 213.652 11.5227H213.743V13H215.084V4.27273H213.743V9.43182ZM222.04 13H223.381V7.54545C223.381 6.26705 224.312 5.36364 225.358 5.36364C226.375 5.36364 227.085 6.02841 227.085 7.02273V13H228.449V7.31818C228.449 6.19318 229.153 5.36364 230.381 5.36364C231.335 5.36364 232.153 5.86932 232.153 7.15909V13H233.494V7.15909C233.494 5.10795 232.392 4.15909 230.835 4.15909C229.585 4.15909 228.67 4.73295 228.222 5.63636H228.131C227.699 4.70455 226.938 4.15909 225.79 4.15909C224.653 4.15909 223.812 4.70455 223.449 5.63636H223.335V4.27273H222.04V13ZM238.514 13.2045C240.037 13.2045 240.832 12.3864 241.105 11.8182H241.173V13H242.514V7.25C242.514 4.47727 240.401 4.15909 239.287 4.15909C237.969 4.15909 236.469 4.61364 235.787 6.20455L237.06 6.65909C237.355 6.02273 238.054 5.34091 239.332 5.34091C240.565 5.34091 241.173 5.99432 241.173 7.11364V7.15909C241.173 7.80682 240.514 7.75 238.923 7.95455C237.304 8.16477 235.537 8.52273 235.537 10.5227C235.537 12.2273 236.855 13.2045 238.514 13.2045ZM238.719 12C237.651 12 236.878 11.5227 236.878 10.5909C236.878 9.56818 237.81 9.25 238.855 9.11364C239.423 9.04545 240.946 8.88636 241.173 8.61364V9.84091C241.173 10.9318 240.31 12 238.719 12ZM251.143 6.22727C250.723 4.98864 249.78 4.15909 248.053 4.15909C246.212 4.15909 244.848 5.20455 244.848 6.68182C244.848 7.88636 245.564 8.69318 247.166 9.06818L248.621 9.40909C249.501 9.61364 249.916 10.0341 249.916 10.6364C249.916 11.3864 249.121 12 247.871 12C246.774 12 246.087 11.5284 245.848 10.5909L244.575 10.9091C244.888 12.392 246.109 13.1818 247.893 13.1818C249.922 13.1818 251.303 12.0739 251.303 10.5682C251.303 9.35227 250.541 8.58523 248.984 8.20455L247.689 7.88636C246.655 7.63068 246.189 7.28409 246.189 6.61364C246.189 5.86364 246.984 5.31818 248.053 5.31818C249.223 5.31818 249.706 5.96591 249.939 6.56818L251.143 6.22727ZM257.116 4.27273H255.253V2.18182H253.912V4.27273H252.594V5.40909H253.912V10.8636C253.912 12.3864 255.139 13.1136 256.276 13.1136C256.776 13.1136 257.094 13.0227 257.276 12.9545L257.003 11.75C256.889 11.7727 256.707 11.8182 256.412 11.8182C255.821 11.8182 255.253 11.6364 255.253 10.5V5.40909H257.116V4.27273ZM262.699 13.1818C264.472 13.1818 265.767 12.2955 266.176 10.9773L264.881 10.6136C264.54 11.5227 263.75 11.9773 262.699 11.9773C261.125 11.9773 260.04 10.9602 259.977 9.09091H266.312V8.52273C266.312 5.27273 264.381 4.15909 262.562 4.15909C260.199 4.15909 258.631 6.02273 258.631 8.70455C258.631 11.3864 260.176 13.1818 262.699 13.1818ZM259.977 7.93182C260.068 6.57386 261.028 5.36364 262.562 5.36364C264.017 5.36364 264.949 6.45455 264.949 7.93182H259.977ZM268.352 13H269.693V7.47727C269.693 6.29545 270.625 5.43182 271.898 5.43182C272.256 5.43182 272.625 5.5 272.716 5.52273V4.15909C272.562 4.14773 272.21 4.13636 272.011 4.13636C270.966 4.13636 270.057 4.72727 269.739 5.59091H269.648V4.27273H268.352V13ZM280.783 13H282.101L284.01 6.29545H284.146L286.055 13H287.374L290.033 4.27273H288.624L286.737 10.9318H286.646L284.805 4.27273H283.374L281.51 10.9545H281.419L279.533 4.27273H278.124L280.783 13ZM293.146 7.75C293.146 6.22727 294.118 5.36364 295.442 5.36364C296.703 5.36364 297.464 6.15909 297.464 7.54545V13H298.805V7.45455C298.805 5.21023 297.612 4.15909 295.828 4.15909C294.453 4.15909 293.669 4.73295 293.26 5.63636H293.146V1.36364H291.805V13H293.146V7.75ZM303.827 13.2045C305.349 13.2045 306.145 12.3864 306.418 11.8182H306.486V13H307.827V7.25C307.827 4.47727 305.713 4.15909 304.599 4.15909C303.281 4.15909 301.781 4.61364 301.099 6.20455L302.372 6.65909C302.668 6.02273 303.366 5.34091 304.645 5.34091C305.878 5.34091 306.486 5.99432 306.486 7.11364V7.15909C306.486 7.80682 305.827 7.75 304.236 7.95455C302.616 8.16477 300.849 8.52273 300.849 10.5227C300.849 12.2273 302.168 13.2045 303.827 13.2045ZM304.031 12C302.963 12 302.19 11.5227 302.19 10.5909C302.19 9.56818 303.122 9.25 304.168 9.11364C304.736 9.04545 306.259 8.88636 306.486 8.61364V9.84091C306.486 10.9318 305.622 12 304.031 12ZM314.07 4.27273H312.206V2.18182H310.865V4.27273H309.547V5.40909H310.865V10.8636C310.865 12.3864 312.092 13.1136 313.229 13.1136C313.729 13.1136 314.047 13.0227 314.229 12.9545L313.956 11.75C313.842 11.7727 313.661 11.8182 313.365 11.8182C312.774 11.8182 312.206 11.6364 312.206 10.5V5.40909H314.07V4.27273ZM324.109 16.4545C326.2 16.4545 327.882 15.5 327.882 13.25V4.27273H326.587V5.65909H326.45C326.155 5.20455 325.609 4.15909 323.905 4.15909C321.7 4.15909 320.178 5.90909 320.178 8.59091C320.178 11.3182 321.768 12.8636 323.882 12.8636C325.587 12.8636 326.132 11.8636 326.428 11.3864H326.541V13.1591C326.541 14.6136 325.518 15.2727 324.109 15.2727C322.524 15.2727 321.967 14.4375 321.609 13.9545L320.541 14.7045C321.087 15.6193 322.161 16.4545 324.109 16.4545ZM324.064 11.6591C322.382 11.6591 321.518 10.3864 321.518 8.56818C321.518 6.79545 322.359 5.36364 324.064 5.36364C325.7 5.36364 326.564 6.68182 326.564 8.56818C326.564 10.5 325.678 11.6591 324.064 11.6591ZM330.337 13H331.678V7.47727C331.678 6.29545 332.609 5.43182 333.882 5.43182C334.24 5.43182 334.609 5.5 334.7 5.52273V4.15909C334.547 4.14773 334.195 4.13636 333.996 4.13636C332.95 4.13636 332.041 4.72727 331.723 5.59091H331.632V4.27273H330.337V13ZM339.683 13.1818C341.456 13.1818 342.751 12.2955 343.161 10.9773L341.865 10.6136C341.524 11.5227 340.734 11.9773 339.683 11.9773C338.109 11.9773 337.024 10.9602 336.962 9.09091H343.297V8.52273C343.297 5.27273 341.365 4.15909 339.547 4.15909C337.183 4.15909 335.615 6.02273 335.615 8.70455C335.615 11.3864 337.161 13.1818 339.683 13.1818ZM336.962 7.93182C337.053 6.57386 338.013 5.36364 339.547 5.36364C341.001 5.36364 341.933 6.45455 341.933 7.93182H336.962ZM347.905 13.2045C349.428 13.2045 350.223 12.3864 350.496 11.8182H350.564V13H351.905V7.25C351.905 4.47727 349.791 4.15909 348.678 4.15909C347.359 4.15909 345.859 4.61364 345.178 6.20455L346.45 6.65909C346.746 6.02273 347.445 5.34091 348.723 5.34091C349.956 5.34091 350.564 5.99432 350.564 7.11364V7.15909C350.564 7.80682 349.905 7.75 348.314 7.95455C346.695 8.16477 344.928 8.52273 344.928 10.5227C344.928 12.2273 346.246 13.2045 347.905 13.2045ZM348.109 12C347.041 12 346.268 11.5227 346.268 10.5909C346.268 9.56818 347.2 9.25 348.246 9.11364C348.814 9.04545 350.337 8.88636 350.564 8.61364V9.84091C350.564 10.9318 349.7 12 348.109 12ZM358.148 4.27273H356.284V2.18182H354.943V4.27273H353.625V5.40909H354.943V10.8636C354.943 12.3864 356.17 13.1136 357.307 13.1136C357.807 13.1136 358.125 13.0227 358.307 12.9545L358.034 11.75C357.92 11.7727 357.739 11.8182 357.443 11.8182C356.852 11.8182 356.284 11.6364 356.284 10.5V5.40909H358.148V4.27273ZM364.665 13H366.006V7.54545C366.006 6.26705 366.938 5.36364 367.983 5.36364C369 5.36364 369.71 6.02841 369.71 7.02273V13H371.074V7.31818C371.074 6.19318 371.778 5.36364 373.006 5.36364C373.96 5.36364 374.778 5.86932 374.778 7.15909V13H376.119V7.15909C376.119 5.10795 375.017 4.15909 373.46 4.15909C372.21 4.15909 371.295 4.73295 370.847 5.63636H370.756C370.324 4.70455 369.562 4.15909 368.415 4.15909C367.278 4.15909 366.438 4.70455 366.074 5.63636H365.96V4.27273H364.665V13ZM381.139 13.2045C382.662 13.2045 383.457 12.3864 383.73 11.8182H383.798V13H385.139V7.25C385.139 4.47727 383.026 4.15909 381.912 4.15909C380.594 4.15909 379.094 4.61364 378.412 6.20455L379.685 6.65909C379.98 6.02273 380.679 5.34091 381.957 5.34091C383.19 5.34091 383.798 5.99432 383.798 7.11364V7.15909C383.798 7.80682 383.139 7.75 381.548 7.95455C379.929 8.16477 378.162 8.52273 378.162 10.5227C378.162 12.2273 379.48 13.2045 381.139 13.2045ZM381.344 12C380.276 12 379.503 11.5227 379.503 10.5909C379.503 9.56818 380.435 9.25 381.48 9.11364C382.048 9.04545 383.571 8.88636 383.798 8.61364V9.84091C383.798 10.9318 382.935 12 381.344 12ZM388.928 7.75C388.928 6.22727 389.871 5.36364 391.155 5.36364C392.399 5.36364 393.155 6.17614 393.155 7.54545V13H394.496V7.45455C394.496 5.22727 393.308 4.15909 391.541 4.15909C390.223 4.15909 389.405 4.75 388.996 5.63636H388.882V4.27273H387.587V13H388.928V7.75ZM399.514 13.2045C401.037 13.2045 401.832 12.3864 402.105 11.8182H402.173V13H403.514V7.25C403.514 4.47727 401.401 4.15909 400.287 4.15909C398.969 4.15909 397.469 4.61364 396.787 6.20455L398.06 6.65909C398.355 6.02273 399.054 5.34091 400.332 5.34091C401.565 5.34091 402.173 5.99432 402.173 7.11364V7.15909C402.173 7.80682 401.514 7.75 399.923 7.95455C398.304 8.16477 396.537 8.52273 396.537 10.5227C396.537 12.2273 397.855 13.2045 399.514 13.2045ZM399.719 12C398.651 12 397.878 11.5227 397.878 10.5909C397.878 9.56818 398.81 9.25 399.855 9.11364C400.423 9.04545 401.946 8.88636 402.173 8.61364V9.84091C402.173 10.9318 401.31 12 399.719 12ZM409.484 16.4545C411.575 16.4545 413.257 15.5 413.257 13.25V4.27273H411.962V5.65909H411.825C411.53 5.20455 410.984 4.15909 409.28 4.15909C407.075 4.15909 405.553 5.90909 405.553 8.59091C405.553 11.3182 407.143 12.8636 409.257 12.8636C410.962 12.8636 411.507 11.8636 411.803 11.3864H411.916V13.1591C411.916 14.6136 410.893 15.2727 409.484 15.2727C407.899 15.2727 407.342 14.4375 406.984 13.9545L405.916 14.7045C406.462 15.6193 407.536 16.4545 409.484 16.4545ZM409.439 11.6591C407.757 11.6591 406.893 10.3864 406.893 8.56818C406.893 6.79545 407.734 5.36364 409.439 5.36364C411.075 5.36364 411.939 6.68182 411.939 8.56818C411.939 10.5 411.053 11.6591 409.439 11.6591ZM419.371 13.1818C421.143 13.1818 422.439 12.2955 422.848 10.9773L421.553 10.6136C421.212 11.5227 420.422 11.9773 419.371 11.9773C417.797 11.9773 416.712 10.9602 416.649 9.09091H422.984V8.52273C422.984 5.27273 421.053 4.15909 419.234 4.15909C416.871 4.15909 415.303 6.02273 415.303 8.70455C415.303 11.3864 416.848 13.1818 419.371 13.1818ZM416.649 7.93182C416.74 6.57386 417.7 5.36364 419.234 5.36364C420.689 5.36364 421.621 6.45455 421.621 7.93182H416.649ZM425.024 13H426.365V7.47727C426.365 6.29545 427.297 5.43182 428.57 5.43182C428.928 5.43182 429.297 5.5 429.388 5.52273V4.15909C429.234 4.14773 428.882 4.13636 428.683 4.13636C427.638 4.13636 426.729 4.72727 426.411 5.59091H426.32V4.27273H425.024V13ZM437.159 6.22727C436.739 4.98864 435.795 4.15909 434.068 4.15909C432.227 4.15909 430.864 5.20455 430.864 6.68182C430.864 7.88636 431.58 8.69318 433.182 9.06818L434.636 9.40909C435.517 9.61364 435.932 10.0341 435.932 10.6364C435.932 11.3864 435.136 12 433.886 12C432.79 12 432.102 11.5284 431.864 10.5909L430.591 10.9091C430.903 12.392 432.125 13.1818 433.909 13.1818C435.938 13.1818 437.318 12.0739 437.318 10.5682C437.318 9.35227 436.557 8.58523 435 8.20455L433.705 7.88636C432.67 7.63068 432.205 7.28409 432.205 6.61364C432.205 5.86364 433 5.31818 434.068 5.31818C435.239 5.31818 435.722 5.96591 435.955 6.56818L437.159 6.22727ZM447.132 13.1818C448.814 13.1818 449.382 12.1364 449.678 11.6591H449.837V13H451.132V1.36364H449.791V5.65909H449.678C449.382 5.20455 448.859 4.15909 447.155 4.15909C444.95 4.15909 443.428 5.90909 443.428 8.65909C443.428 11.4318 444.95 13.1818 447.132 13.1818ZM447.314 11.9773C445.632 11.9773 444.768 10.5 444.768 8.63636C444.768 6.79545 445.609 5.36364 447.314 5.36364C448.95 5.36364 449.814 6.68182 449.814 8.63636C449.814 10.6136 448.928 11.9773 447.314 11.9773ZM457.32 13.1818C459.683 13.1818 461.274 11.3864 461.274 8.68182C461.274 5.95455 459.683 4.15909 457.32 4.15909C454.956 4.15909 453.365 5.95455 453.365 8.68182C453.365 11.3864 454.956 13.1818 457.32 13.1818ZM457.32 11.9773C455.524 11.9773 454.706 10.4318 454.706 8.68182C454.706 6.93182 455.524 5.36364 457.32 5.36364C459.115 5.36364 459.933 6.93182 459.933 8.68182C459.933 10.4318 459.115 11.9773 457.32 11.9773ZM468.003 13H469.298V11.6591H469.457C469.753 12.1364 470.321 13.1818 472.003 13.1818C474.185 13.1818 475.707 11.4318 475.707 8.65909C475.707 5.90909 474.185 4.15909 471.98 4.15909C470.276 4.15909 469.753 5.20455 469.457 5.65909H469.344V1.36364H468.003V13ZM469.321 8.63636C469.321 6.68182 470.185 5.36364 471.821 5.36364C473.526 5.36364 474.366 6.79545 474.366 8.63636C474.366 10.5 473.503 11.9773 471.821 11.9773C470.207 11.9773 469.321 10.6136 469.321 8.63636ZM481.418 13.1818C483.19 13.1818 484.486 12.2955 484.895 10.9773L483.599 10.6136C483.259 11.5227 482.469 11.9773 481.418 11.9773C479.844 11.9773 478.759 10.9602 478.696 9.09091H485.031V8.52273C485.031 5.27273 483.099 4.15909 481.281 4.15909C478.918 4.15909 477.349 6.02273 477.349 8.70455C477.349 11.3864 478.895 13.1818 481.418 13.1818ZM478.696 7.93182C478.787 6.57386 479.747 5.36364 481.281 5.36364C482.736 5.36364 483.668 6.45455 483.668 7.93182H478.696ZM493.253 6.22727C492.832 4.98864 491.889 4.15909 490.162 4.15909C488.321 4.15909 486.957 5.20455 486.957 6.68182C486.957 7.88636 487.673 8.69318 489.276 9.06818L490.73 9.40909C491.611 9.61364 492.026 10.0341 492.026 10.6364C492.026 11.3864 491.23 12 489.98 12C488.884 12 488.196 11.5284 487.957 10.5909L486.685 10.9091C486.997 12.392 488.219 13.1818 490.003 13.1818C492.031 13.1818 493.412 12.0739 493.412 10.5682C493.412 9.35227 492.651 8.58523 491.094 8.20455L489.798 7.88636C488.764 7.63068 488.298 7.28409 488.298 6.61364C488.298 5.86364 489.094 5.31818 490.162 5.31818C491.332 5.31818 491.815 5.96591 492.048 6.56818L493.253 6.22727ZM499.226 4.27273H497.362V2.18182H496.021V4.27273H494.703V5.40909H496.021V10.8636C496.021 12.3864 497.249 13.1136 498.385 13.1136C498.885 13.1136 499.203 13.0227 499.385 12.9545L499.112 11.75C498.999 11.7727 498.817 11.8182 498.521 11.8182C497.93 11.8182 497.362 11.6364 497.362 10.5V5.40909H499.226V4.27273ZM503.243 11.4091H501.788L501.72 12.0455C501.555 13.5852 501.232 15.1193 501.084 15.8409H502.107C502.379 15.0682 502.959 13.3182 503.152 12.0227L503.243 11.4091ZM34.3423 37.2045C35.8651 37.2045 36.6605 36.3864 36.9332 35.8182H37.0014V37H38.3423V31.25C38.3423 28.4773 36.2287 28.1591 35.1151 28.1591C33.7969 28.1591 32.2969 28.6136 31.6151 30.2045L32.8878 30.6591C33.1832 30.0227 33.8821 29.3409 35.1605 29.3409C36.3935 29.3409 37.0014 29.9943 37.0014 31.1136V31.1591C37.0014 31.8068 36.3423 31.75 34.7514 31.9545C33.1321 32.1648 31.3651 32.5227 31.3651 34.5227C31.3651 36.2273 32.6832 37.2045 34.3423 37.2045ZM34.5469 36C33.4787 36 32.706 35.5227 32.706 34.5909C32.706 33.5682 33.6378 33.25 34.6832 33.1136C35.2514 33.0455 36.7741 32.8864 37.0014 32.6136V33.8409C37.0014 34.9318 36.1378 36 34.5469 36ZM46.9716 30.2273C46.5511 28.9886 45.608 28.1591 43.8807 28.1591C42.0398 28.1591 40.6761 29.2045 40.6761 30.6818C40.6761 31.8864 41.392 32.6932 42.9943 33.0682L44.4489 33.4091C45.3295 33.6136 45.7443 34.0341 45.7443 34.6364C45.7443 35.3864 44.9489 36 43.6989 36C42.6023 36 41.9148 35.5284 41.6761 34.5909L40.4034 34.9091C40.7159 36.392 41.9375 37.1818 43.7216 37.1818C45.75 37.1818 47.1307 36.0739 47.1307 34.5682C47.1307 33.3523 46.3693 32.5852 44.8125 32.2045L43.517 31.8864C42.483 31.6307 42.017 31.2841 42.017 30.6136C42.017 29.8636 42.8125 29.3182 43.8807 29.3182C45.0511 29.3182 45.5341 29.9659 45.767 30.5682L46.9716 30.2273ZM56.9446 37.1818C58.6264 37.1818 59.1946 36.1364 59.4901 35.6591H59.6491V37H60.9446V25.3636H59.6037V29.6591H59.4901C59.1946 29.2045 58.6719 28.1591 56.9673 28.1591C54.7628 28.1591 53.2401 29.9091 53.2401 32.6591C53.2401 35.4318 54.7628 37.1818 56.9446 37.1818ZM57.1264 35.9773C55.4446 35.9773 54.581 34.5 54.581 32.6364C54.581 30.7955 55.4219 29.3636 57.1264 29.3636C58.7628 29.3636 59.6264 30.6818 59.6264 32.6364C59.6264 34.6136 58.7401 35.9773 57.1264 35.9773ZM67.2457 37.1818C69.0185 37.1818 70.3139 36.2955 70.723 34.9773L69.4276 34.6136C69.0866 35.5227 68.2969 35.9773 67.2457 35.9773C65.6719 35.9773 64.5866 34.9602 64.5241 33.0909H70.8594V32.5227C70.8594 29.2727 68.9276 28.1591 67.1094 28.1591C64.7457 28.1591 63.1776 30.0227 63.1776 32.7045C63.1776 35.3864 64.723 37.1818 67.2457 37.1818ZM64.5241 31.9318C64.6151 30.5739 65.5753 29.3636 67.1094 29.3636C68.5639 29.3636 69.4957 30.4545 69.4957 31.9318H64.5241ZM79.7699 28.2727H78.3153L75.9062 35.2273H75.8153L73.4062 28.2727H71.9517L75.179 37H76.5426L79.7699 28.2727ZM84.8864 37.1818C86.6591 37.1818 87.9545 36.2955 88.3636 34.9773L87.0682 34.6136C86.7273 35.5227 85.9375 35.9773 84.8864 35.9773C83.3125 35.9773 82.2273 34.9602 82.1648 33.0909H88.5V32.5227C88.5 29.2727 86.5682 28.1591 84.75 28.1591C82.3864 28.1591 80.8182 30.0227 80.8182 32.7045C80.8182 35.3864 82.3636 37.1818 84.8864 37.1818ZM82.1648 31.9318C82.2557 30.5739 83.2159 29.3636 84.75 29.3636C86.2045 29.3636 87.1364 30.4545 87.1364 31.9318H82.1648ZM91.8807 25.3636H90.5398V37H91.8807V25.3636ZM97.8821 37.1818C100.246 37.1818 101.837 35.3864 101.837 32.6818C101.837 29.9545 100.246 28.1591 97.8821 28.1591C95.5185 28.1591 93.9276 29.9545 93.9276 32.6818C93.9276 35.3864 95.5185 37.1818 97.8821 37.1818ZM97.8821 35.9773C96.0866 35.9773 95.2685 34.4318 95.2685 32.6818C95.2685 30.9318 96.0866 29.3636 97.8821 29.3636C99.6776 29.3636 100.496 30.9318 100.496 32.6818C100.496 34.4318 99.6776 35.9773 97.8821 35.9773ZM103.884 40.2727H105.224V35.6591H105.338C105.634 36.1364 106.202 37.1818 107.884 37.1818C110.065 37.1818 111.588 35.4318 111.588 32.6591C111.588 29.9091 110.065 28.1591 107.861 28.1591C106.156 28.1591 105.634 29.2045 105.338 29.6591H105.179V28.2727H103.884V40.2727ZM105.202 32.6364C105.202 30.6818 106.065 29.3636 107.702 29.3636C109.406 29.3636 110.247 30.7955 110.247 32.6364C110.247 34.5 109.384 35.9773 107.702 35.9773C106.088 35.9773 105.202 34.6136 105.202 32.6364ZM121.929 28.2727H120.065V26.1818H118.724V28.2727H117.406V29.4091H118.724V34.8636C118.724 36.3864 119.952 37.1136 121.088 37.1136C121.588 37.1136 121.906 37.0227 122.088 36.9545L121.815 35.75C121.702 35.7727 121.52 35.8182 121.224 35.8182C120.634 35.8182 120.065 35.6364 120.065 34.5V29.4091H121.929V28.2727ZM123.946 37H125.287V31.4773C125.287 30.2955 126.219 29.4318 127.491 29.4318C127.849 29.4318 128.219 29.5 128.31 29.5227V28.1591C128.156 28.1477 127.804 28.1364 127.605 28.1364C126.56 28.1364 125.651 28.7273 125.332 29.5909H125.241V28.2727H123.946V37ZM135.399 33.4318C135.399 35.0682 134.149 35.8182 133.149 35.8182C132.036 35.8182 131.24 35 131.24 33.7273V28.2727H129.899V33.8182C129.899 36.0455 131.081 37.1136 132.717 37.1136C134.036 37.1136 134.899 36.4091 135.308 35.5227H135.399V37H136.74V28.2727H135.399V33.4318ZM145.378 30.2273C144.957 28.9886 144.014 28.1591 142.287 28.1591C140.446 28.1591 139.082 29.2045 139.082 30.6818C139.082 31.8864 139.798 32.6932 141.401 33.0682L142.855 33.4091C143.736 33.6136 144.151 34.0341 144.151 34.6364C144.151 35.3864 143.355 36 142.105 36C141.009 36 140.321 35.5284 140.082 34.5909L138.81 34.9091C139.122 36.392 140.344 37.1818 142.128 37.1818C144.156 37.1818 145.537 36.0739 145.537 34.5682C145.537 33.3523 144.776 32.5852 143.219 32.2045L141.923 31.8864C140.889 31.6307 140.423 31.2841 140.423 30.6136C140.423 29.8636 141.219 29.3182 142.287 29.3182C143.457 29.3182 143.94 29.9659 144.173 30.5682L145.378 30.2273ZM151.351 28.2727H149.487V26.1818H148.146V28.2727H146.828V29.4091H148.146V34.8636C148.146 36.3864 149.374 37.1136 150.51 37.1136C151.01 37.1136 151.328 37.0227 151.51 36.9545L151.237 35.75C151.124 35.7727 150.942 35.8182 150.646 35.8182C150.055 35.8182 149.487 35.6364 149.487 34.5V29.4091H151.351V28.2727ZM155.368 35.4091H153.913L153.845 36.0455C153.68 37.5852 153.357 39.1193 153.209 39.8409H154.232C154.504 39.0682 155.084 37.3182 155.277 36.0227L155.368 35.4091ZM165.898 37.1818C167.83 37.1818 169.102 36 169.33 34.4545H167.989C167.739 35.4091 166.943 35.9773 165.898 35.9773C164.307 35.9773 163.284 34.6591 163.284 32.6364C163.284 30.6591 164.33 29.3636 165.898 29.3636C167.08 29.3636 167.784 30.0909 167.989 30.8864H169.33C169.102 29.25 167.716 28.1591 165.875 28.1591C163.511 28.1591 161.943 30.0227 161.943 32.6818C161.943 35.2955 163.443 37.1818 165.898 37.1818ZM174.835 37.1818C177.199 37.1818 178.79 35.3864 178.79 32.6818C178.79 29.9545 177.199 28.1591 174.835 28.1591C172.472 28.1591 170.881 29.9545 170.881 32.6818C170.881 35.3864 172.472 37.1818 174.835 37.1818ZM174.835 35.9773C173.04 35.9773 172.222 34.4318 172.222 32.6818C172.222 30.9318 173.04 29.3636 174.835 29.3636C176.631 29.3636 177.449 30.9318 177.449 32.6818C177.449 34.4318 176.631 35.9773 174.835 35.9773ZM182.178 25.3636H180.837V37H182.178V25.3636ZM185.974 25.3636H184.634V37H185.974V25.3636ZM190.999 37.2045C192.521 37.2045 193.317 36.3864 193.589 35.8182H193.658V37H194.999V31.25C194.999 28.4773 192.885 28.1591 191.771 28.1591C190.453 28.1591 188.953 28.6136 188.271 30.2045L189.544 30.6591C189.839 30.0227 190.538 29.3409 191.817 29.3409C193.05 29.3409 193.658 29.9943 193.658 31.1136V31.1591C193.658 31.8068 192.999 31.75 191.408 31.9545C189.788 32.1648 188.021 32.5227 188.021 34.5227C188.021 36.2273 189.339 37.2045 190.999 37.2045ZM191.203 36C190.135 36 189.362 35.5227 189.362 34.5909C189.362 33.5682 190.294 33.25 191.339 33.1136C191.908 33.0455 193.43 32.8864 193.658 32.6136V33.8409C193.658 34.9318 192.794 36 191.203 36ZM197.628 37H198.923V35.6591H199.082C199.378 36.1364 199.946 37.1818 201.628 37.1818C203.81 37.1818 205.332 35.4318 205.332 32.6591C205.332 29.9091 203.81 28.1591 201.605 28.1591C199.901 28.1591 199.378 29.2045 199.082 29.6591H198.969V25.3636H197.628V37ZM198.946 32.6364C198.946 30.6818 199.81 29.3636 201.446 29.3636C203.151 29.3636 203.991 30.7955 203.991 32.6364C203.991 34.5 203.128 35.9773 201.446 35.9773C199.832 35.9773 198.946 34.6136 198.946 32.6364ZM210.929 37.1818C213.293 37.1818 214.884 35.3864 214.884 32.6818C214.884 29.9545 213.293 28.1591 210.929 28.1591C208.565 28.1591 206.974 29.9545 206.974 32.6818C206.974 35.3864 208.565 37.1818 210.929 37.1818ZM210.929 35.9773C209.134 35.9773 208.315 34.4318 208.315 32.6818C208.315 30.9318 209.134 29.3636 210.929 29.3636C212.724 29.3636 213.543 30.9318 213.543 32.6818C213.543 34.4318 212.724 35.9773 210.929 35.9773ZM216.93 37H218.271V31.4773C218.271 30.2955 219.203 29.4318 220.476 29.4318C220.834 29.4318 221.203 29.5 221.294 29.5227V28.1591C221.141 28.1477 220.788 28.1364 220.589 28.1364C219.544 28.1364 218.635 28.7273 218.317 29.5909H218.226V28.2727H216.93V37ZM225.452 37.2045C226.974 37.2045 227.77 36.3864 228.043 35.8182H228.111V37H229.452V31.25C229.452 28.4773 227.338 28.1591 226.224 28.1591C224.906 28.1591 223.406 28.6136 222.724 30.2045L223.997 30.6591C224.293 30.0227 224.991 29.3409 226.27 29.3409C227.503 29.3409 228.111 29.9943 228.111 31.1136V31.1591C228.111 31.8068 227.452 31.75 225.861 31.9545C224.241 32.1648 222.474 32.5227 222.474 34.5227C222.474 36.2273 223.793 37.2045 225.452 37.2045ZM225.656 36C224.588 36 223.815 35.5227 223.815 34.5909C223.815 33.5682 224.747 33.25 225.793 33.1136C226.361 33.0455 227.884 32.8864 228.111 32.6136V33.8409C228.111 34.9318 227.247 36 225.656 36ZM235.695 28.2727H233.831V26.1818H232.49V28.2727H231.172V29.4091H232.49V34.8636C232.49 36.3864 233.717 37.1136 234.854 37.1136C235.354 37.1136 235.672 37.0227 235.854 36.9545L235.581 35.75C235.467 35.7727 235.286 35.8182 234.99 35.8182C234.399 35.8182 233.831 35.6364 233.831 34.5V29.4091H235.695V28.2727ZM241.277 37.1818C243.05 37.1818 244.345 36.2955 244.754 34.9773L243.459 34.6136C243.118 35.5227 242.328 35.9773 241.277 35.9773C239.703 35.9773 238.618 34.9602 238.555 33.0909H244.891V32.5227C244.891 29.2727 242.959 28.1591 241.141 28.1591C238.777 28.1591 237.209 30.0227 237.209 32.7045C237.209 35.3864 238.754 37.1818 241.277 37.1818ZM238.555 31.9318C238.646 30.5739 239.607 29.3636 241.141 29.3636C242.595 29.3636 243.527 30.4545 243.527 31.9318H238.555ZM248.93 35.4091H247.476L247.408 36.0455C247.243 37.5852 246.919 39.1193 246.771 39.8409H247.794C248.067 39.0682 248.646 37.3182 248.839 36.0227L248.93 35.4091ZM258.483 37.2045C260.006 37.2045 260.801 36.3864 261.074 35.8182H261.142V37H262.483V31.25C262.483 28.4773 260.369 28.1591 259.256 28.1591C257.938 28.1591 256.438 28.6136 255.756 30.2045L257.028 30.6591C257.324 30.0227 258.023 29.3409 259.301 29.3409C260.534 29.3409 261.142 29.9943 261.142 31.1136V31.1591C261.142 31.8068 260.483 31.75 258.892 31.9545C257.273 32.1648 255.506 32.5227 255.506 34.5227C255.506 36.2273 256.824 37.2045 258.483 37.2045ZM258.688 36C257.619 36 256.847 35.5227 256.847 34.5909C256.847 33.5682 257.778 33.25 258.824 33.1136C259.392 33.0455 260.915 32.8864 261.142 32.6136V33.8409C261.142 34.9318 260.278 36 258.688 36ZM266.271 31.75C266.271 30.2273 267.214 29.3636 268.499 29.3636C269.743 29.3636 270.499 30.1761 270.499 31.5455V37H271.839V31.4545C271.839 29.2273 270.652 28.1591 268.885 28.1591C267.567 28.1591 266.749 28.75 266.339 29.6364H266.226V28.2727H264.93V37H266.271V31.75ZM277.585 37.1818C279.267 37.1818 279.835 36.1364 280.131 35.6591H280.29V37H281.585V25.3636H280.244V29.6591H280.131C279.835 29.2045 279.312 28.1591 277.608 28.1591C275.403 28.1591 273.881 29.9091 273.881 32.6591C273.881 35.4318 275.403 37.1818 277.585 37.1818ZM277.767 35.9773C276.085 35.9773 275.222 34.5 275.222 32.6364C275.222 30.7955 276.062 29.3636 277.767 29.3636C279.403 29.3636 280.267 30.6818 280.267 32.6364C280.267 34.6136 279.381 35.9773 277.767 35.9773ZM292.023 37.1818C293.705 37.1818 294.273 36.1364 294.568 35.6591H294.727V37H296.023V25.3636H294.682V29.6591H294.568C294.273 29.2045 293.75 28.1591 292.045 28.1591C289.841 28.1591 288.318 29.9091 288.318 32.6591C288.318 35.4318 289.841 37.1818 292.023 37.1818ZM292.205 35.9773C290.523 35.9773 289.659 34.5 289.659 32.6364C289.659 30.7955 290.5 29.3636 292.205 29.3636C293.841 29.3636 294.705 30.6818 294.705 32.6364C294.705 34.6136 293.818 35.9773 292.205 35.9773ZM298.665 37H300.006V31.4773C300.006 30.2955 300.938 29.4318 302.21 29.4318C302.568 29.4318 302.938 29.5 303.028 29.5227V28.1591C302.875 28.1477 302.523 28.1364 302.324 28.1364C301.278 28.1364 300.369 28.7273 300.051 29.5909H299.96V28.2727H298.665V37ZM304.618 37H305.959V28.2727H304.618V37ZM305.3 26.8182C305.822 26.8182 306.254 26.4091 306.254 25.9091C306.254 25.4091 305.822 25 305.3 25C304.777 25 304.345 25.4091 304.345 25.9091C304.345 26.4091 304.777 26.8182 305.3 26.8182ZM315.551 28.2727H314.097L311.688 35.2273H311.597L309.188 28.2727H307.733L310.96 37H312.324L315.551 28.2727ZM320.668 37.1818C322.44 37.1818 323.736 36.2955 324.145 34.9773L322.849 34.6136C322.509 35.5227 321.719 35.9773 320.668 35.9773C319.094 35.9773 318.009 34.9602 317.946 33.0909H324.281V32.5227C324.281 29.2727 322.349 28.1591 320.531 28.1591C318.168 28.1591 316.599 30.0227 316.599 32.7045C316.599 35.3864 318.145 37.1818 320.668 37.1818ZM317.946 31.9318C318.037 30.5739 318.997 29.3636 320.531 29.3636C321.986 29.3636 322.918 30.4545 322.918 31.9318H317.946ZM334.616 28.2727H332.753V26.1818H331.412V28.2727H330.094V29.4091H331.412V34.8636C331.412 36.3864 332.639 37.1136 333.776 37.1136C334.276 37.1136 334.594 37.0227 334.776 36.9545L334.503 35.75C334.389 35.7727 334.207 35.8182 333.912 35.8182C333.321 35.8182 332.753 35.6364 332.753 34.5V29.4091H334.616V28.2727ZM340.199 37.1818C341.972 37.1818 343.267 36.2955 343.676 34.9773L342.381 34.6136C342.04 35.5227 341.25 35.9773 340.199 35.9773C338.625 35.9773 337.54 34.9602 337.477 33.0909H343.812V32.5227C343.812 29.2727 341.881 28.1591 340.062 28.1591C337.699 28.1591 336.131 30.0227 336.131 32.7045C336.131 35.3864 337.676 37.1818 340.199 37.1818ZM337.477 31.9318C337.568 30.5739 338.528 29.3636 340.062 29.3636C341.517 29.3636 342.449 30.4545 342.449 31.9318H337.477ZM348.42 37.2045C349.943 37.2045 350.739 36.3864 351.011 35.8182H351.08V37H352.42V31.25C352.42 28.4773 350.307 28.1591 349.193 28.1591C347.875 28.1591 346.375 28.6136 345.693 30.2045L346.966 30.6591C347.261 30.0227 347.96 29.3409 349.239 29.3409C350.472 29.3409 351.08 29.9943 351.08 31.1136V31.1591C351.08 31.8068 350.42 31.75 348.83 31.9545C347.21 32.1648 345.443 32.5227 345.443 34.5227C345.443 36.2273 346.761 37.2045 348.42 37.2045ZM348.625 36C347.557 36 346.784 35.5227 346.784 34.5909C346.784 33.5682 347.716 33.25 348.761 33.1136C349.33 33.0455 350.852 32.8864 351.08 32.6136V33.8409C351.08 34.9318 350.216 36 348.625 36ZM354.868 37H356.209V31.5455C356.209 30.267 357.141 29.3636 358.186 29.3636C359.203 29.3636 359.913 30.0284 359.913 31.0227V37H361.277V31.3182C361.277 30.1932 361.982 29.3636 363.209 29.3636C364.163 29.3636 364.982 29.8693 364.982 31.1591V37H366.322V31.1591C366.322 29.108 365.22 28.1591 363.663 28.1591C362.413 28.1591 361.499 28.733 361.05 29.6364H360.959C360.527 28.7045 359.766 28.1591 358.618 28.1591C357.482 28.1591 356.641 28.7045 356.277 29.6364H356.163V28.2727H354.868V37ZM373.274 40.2727H374.615V35.6591H374.729C375.024 36.1364 375.592 37.1818 377.274 37.1818C379.456 37.1818 380.979 35.4318 380.979 32.6591C380.979 29.9091 379.456 28.1591 377.251 28.1591C375.547 28.1591 375.024 29.2045 374.729 29.6591H374.57V28.2727H373.274V40.2727ZM374.592 32.6364C374.592 30.6818 375.456 29.3636 377.092 29.3636C378.797 29.3636 379.638 30.7955 379.638 32.6364C379.638 34.5 378.774 35.9773 377.092 35.9773C375.479 35.9773 374.592 34.6136 374.592 32.6364ZM386.683 37.1818C388.456 37.1818 389.751 36.2955 390.161 34.9773L388.865 34.6136C388.524 35.5227 387.734 35.9773 386.683 35.9773C385.109 35.9773 384.024 34.9602 383.962 33.0909H390.297V32.5227C390.297 29.2727 388.365 28.1591 386.547 28.1591C384.183 28.1591 382.615 30.0227 382.615 32.7045C382.615 35.3864 384.161 37.1818 386.683 37.1818ZM383.962 31.9318C384.053 30.5739 385.013 29.3636 386.547 29.3636C388.001 29.3636 388.933 30.4545 388.933 31.9318H383.962ZM392.337 37H393.678V31.4773C393.678 30.2955 394.609 29.4318 395.882 29.4318C396.24 29.4318 396.609 29.5 396.7 29.5227V28.1591C396.547 28.1477 396.195 28.1364 395.996 28.1364C394.95 28.1364 394.041 28.7273 393.723 29.5909H393.632V28.2727H392.337V37ZM402.723 28.2727H400.768V27.3864C400.768 26.5227 401.132 26.0682 402.018 26.0682C402.405 26.0682 402.632 26.1591 402.768 26.2045L403.155 25.0455C402.95 24.9545 402.541 24.8182 401.882 24.8182C400.632 24.8182 399.428 25.5682 399.428 27.0682V28.2727H398.018V29.4091H399.428V37H400.768V29.4091H402.723V28.2727ZM407.788 37.1818C410.152 37.1818 411.743 35.3864 411.743 32.6818C411.743 29.9545 410.152 28.1591 407.788 28.1591C405.425 28.1591 403.834 29.9545 403.834 32.6818C403.834 35.3864 405.425 37.1818 407.788 37.1818ZM407.788 35.9773C405.993 35.9773 405.175 34.4318 405.175 32.6818C405.175 30.9318 405.993 29.3636 407.788 29.3636C409.584 29.3636 410.402 30.9318 410.402 32.6818C410.402 34.4318 409.584 35.9773 407.788 35.9773ZM413.79 37H415.131V31.4773C415.131 30.2955 416.062 29.4318 417.335 29.4318C417.693 29.4318 418.062 29.5 418.153 29.5227V28.1591C418 28.1477 417.648 28.1364 417.449 28.1364C416.403 28.1364 415.494 28.7273 415.176 29.5909H415.085V28.2727H413.79V37ZM419.743 37H421.084V31.5455C421.084 30.267 422.016 29.3636 423.061 29.3636C424.078 29.3636 424.788 30.0284 424.788 31.0227V37H426.152V31.3182C426.152 30.1932 426.857 29.3636 428.084 29.3636C429.038 29.3636 429.857 29.8693 429.857 31.1591V37H431.197V31.1591C431.197 29.108 430.095 28.1591 428.538 28.1591C427.288 28.1591 426.374 28.733 425.925 29.6364H425.834C425.402 28.7045 424.641 28.1591 423.493 28.1591C422.357 28.1591 421.516 28.7045 421.152 29.6364H421.038V28.2727H419.743V37ZM436.217 37.2045C437.74 37.2045 438.536 36.3864 438.808 35.8182H438.876V37H440.217V31.25C440.217 28.4773 438.104 28.1591 436.99 28.1591C435.672 28.1591 434.172 28.6136 433.49 30.2045L434.763 30.6591C435.058 30.0227 435.757 29.3409 437.036 29.3409C438.268 29.3409 438.876 29.9943 438.876 31.1136V31.1591C438.876 31.8068 438.217 31.75 436.626 31.9545C435.007 32.1648 433.24 32.5227 433.24 34.5227C433.24 36.2273 434.558 37.2045 436.217 37.2045ZM436.422 36C435.354 36 434.581 35.5227 434.581 34.5909C434.581 33.5682 435.513 33.25 436.558 33.1136C437.126 33.0455 438.649 32.8864 438.876 32.6136V33.8409C438.876 34.9318 438.013 36 436.422 36ZM444.006 31.75C444.006 30.2273 444.949 29.3636 446.233 29.3636C447.477 29.3636 448.233 30.1761 448.233 31.5455V37H449.574V31.4545C449.574 29.2273 448.386 28.1591 446.619 28.1591C445.301 28.1591 444.483 28.75 444.074 29.6364H443.96V28.2727H442.665V37H444.006V31.75ZM455.57 37.1818C457.501 37.1818 458.774 36 459.001 34.4545H457.661C457.411 35.4091 456.615 35.9773 455.57 35.9773C453.979 35.9773 452.956 34.6591 452.956 32.6364C452.956 30.6591 454.001 29.3636 455.57 29.3636C456.751 29.3636 457.456 30.0909 457.661 30.8864H459.001C458.774 29.25 457.388 28.1591 455.547 28.1591C453.183 28.1591 451.615 30.0227 451.615 32.6818C451.615 35.2955 453.115 37.1818 455.57 37.1818ZM464.621 37.1818C466.393 37.1818 467.689 36.2955 468.098 34.9773L466.803 34.6136C466.462 35.5227 465.672 35.9773 464.621 35.9773C463.047 35.9773 461.962 34.9602 461.899 33.0909H468.234V32.5227C468.234 29.2727 466.303 28.1591 464.484 28.1591C462.121 28.1591 460.553 30.0227 460.553 32.7045C460.553 35.3864 462.098 37.1818 464.621 37.1818ZM461.899 31.9318C461.99 30.5739 462.95 29.3636 464.484 29.3636C465.939 29.3636 466.871 30.4545 466.871 31.9318H461.899ZM471.251 37.0909C471.814 37.0909 472.274 36.6307 472.274 36.0682C472.274 35.5057 471.814 35.0455 471.251 35.0455C470.689 35.0455 470.229 35.5057 470.229 36.0682C470.229 36.6307 470.689 37.0909 471.251 37.0909Z" fill="#4E5A65"/>
</svg>
